/* XPM */
static char *chromium[] = {
/* columns rows colors chars-per-pixel */
"16 16 146 2 ",
"   c #315F93",
".  c #3A6B9A",
"X  c #3B6C9A",
"o  c #3E6E9C",
"O  c #3E6E9E",
"+  c #3F6F9F",
"@  c #41709E",
"#  c #4172A0",
"$  c #4374A2",
"%  c #4575A3",
"&  c #4575A7",
"*  c #4A77A2",
"=  c #4B79A6",
"-  c #4F7BA5",
";  c #4F7CA8",
":  c #527EA9",
">  c #547EA8",
",  c #5680A9",
"<  c #5480AB",
"1  c #5682AC",
"2  c #5783AD",
"3  c #5883AD",
"4  c #5884AD",
"5  c #5984AD",
"6  c #5B85AD",
"7  c #5B85AE",
"8  c #5D86AF",
"9  c #5E87B1",
"0  c #5F87B2",
"q  c #5F87B3",
"w  c #5D87B4",
"e  c #5D87B5",
"r  c #5F87B4",
"t  c #5E89B3",
"y  c #5F8AB3",
"u  c #5F8EBD",
"i  c #628BB3",
"p  c #618BB4",
"a  c #628BB4",
"s  c #638BB5",
"d  c #638CB6",
"f  c #6A90B6",
"g  c #5186C4",
"h  c #5287C5",
"j  c #5589C6",
"k  c #5689C6",
"l  c #6F96C0",
"z  c #6897C7",
"x  c #6397CD",
"c  c #6794CC",
"v  c #6995CD",
"b  c #6C97CE",
"n  c #6D97CE",
"m  c #6498CD",
"M  c #6599CE",
"N  c #669ACE",
"B  c #6A99CC",
"V  c #6B99CC",
"C  c #689BCF",
"Z  c #6C9ED1",
"A  c #6C9FD1",
"S  c #6D9FD1",
"D  c #70A2D3",
"F  c #70A2D4",
"G  c #75A6D5",
"H  c #78A0D3",
"J  c #7AA1D4",
"K  c #79A7D4",
"L  c #7DA4D5",
"P  c #7EA4D6",
"I  c #77A8D7",
"U  c #78A8D6",
"Y  c #79A9D6",
"T  c #7AA9D7",
"R  c #77A9D9",
"E  c #78A9D9",
"W  c #7AABDA",
"Q  c #7CACDB",
"!  c #7FAFDD",
"~  c #83A7D5",
"^  c #87ABD7",
"/  c #84AAD9",
"(  c #80AFDA",
")  c #86ACDA",
"_  c #81B1DE",
"`  c #83B2DE",
"'  c #83B3DF",
"]  c #84B3DF",
"[  c #8CB0DC",
"{  c #8DB1DD",
"}  c #91B0DA",
"|  c #95B3DC",
" . c #96BCDF",
".. c #A2BEDC",
"X. c #86B4E0",
"o. c #87B5E0",
"O. c #88B6E0",
"+. c #88B6E1",
"@. c #88B7E1",
"#. c #89B7E1",
"$. c #90B9E0",
"%. c #99BFE0",
"&. c #9BBFE2",
"*. c #A8C1DD",
"=. c #9BC0E1",
"-. c #9EC1E1",
";. c #9CC1E3",
":. c #9DC3E6",
">. c #A0C0E3",
",. c #A5C6E3",
"<. c #A7C7E3",
"1. c #A3C2E4",
"2. c #A2C5E6",
"3. c #A8C3E1",
"4. c #ADC6E2",
"5. c #B5CBE4",
"6. c #B3CEE6",
"7. c #B4CCE6",
"8. c #B1CEE8",
"9. c #B1CEE9",
"0. c #B7CEE8",
"q. c #B6D0E6",
"w. c #B6D0E7",
"e. c #B6D1E8",
"r. c #B7D0EA",
"t. c #B6D1EA",
"y. c #BED5E8",
"u. c #C0D3EA",
"i. c #C4D8EA",
"p. c #C5DAEB",
"a. c #C7DAEA",
"s. c #C1D8ED",
"d. c #C0D9EE",
"f. c #C5DCEF",
"g. c #C8DBEB",
"h. c #C9DEF0",
"j. c #CBDFF0",
"k. c #CCE0F0",
"l. c #CEE1F1",
"z. c #CFE1F1",
"x. c #CFE2F1",
"c. c #D0E2F1",
"v. c #D3E3F1",
"b. c #D7E6F3",
"n. c #DBE9F4",
"m. c None",
/* pixels */
"m.m.m.m.m.m.m.m.m.m.m.m.m.m.m.m.",
"m.m.m.m.m.p r r r r 9 m.m.m.m.m.",
"m.m.m.- > 9 s s d p 6 : * m.m.m.",
"m.m.X @ : : 3 3 2 2 : = o . m.m.",
"m.m.u o @ % % f p p y y y 6 m.m.",
"m.T _ & o 4 ..>.1.7.0.r.s.p.p.m.",
"m.T o.z . ..) [ { ) u.c.c.c.g.m.",
"m.T ] O.f [ J P P J | b.c.c.g.m.",
"m.G o.O.&.^ c n n v ~ n.c.c.p.m.",
"m.S X.o.O.7.g j k h 5.c.c.z.y.m.",
"m.S I X.O.:.<.B V 4.c.c.z.p.q.m.",
"m.m.S Q o.O.@.:.;.8.c.c.h.q.m.m.",
"m.m.N S W ! X.X. .k.h.f.7.,.m.m.",
"m.m.m.m V F R R 9.s.r.<.=.m.m.m.",
"m.m.m.m.m.x M K =.=.%.m.m.m.m.m.",
"m.m.m.m.m.m.m.m.m.m.m.m.m.m.m.m."
};
