/* XPM */
static char * cron_xpm[] = {
"16 14 2 1",
" 	c None",
".	c #FFFFFF",
".....      .....",
"...  .....   ...",
"..  ........  ..",
".  ...    ...  .",
"  ..   ..   ..  ",
" ...   ..   ... ",
" ..    ..    .. ",
" ..    ..    .. ",
" ..   ...    .. ",
" ..   ..     .. ",
" ...        ... ",
"  ..       ...  ",
"  ....    ....  ",
" .............. "};
