/* XPM */
static char * debug_xpm[] = {
"16 14 104 2",
"  	c None",
". 	c #000100",
"+ 	c #000000",
"@ 	c #72726F",
"# 	c #8C8C8C",
"$ 	c #878785",
"% 	c #32302B",
"& 	c #DEDFDF",
"* 	c #ECEDEC",
"= 	c #FFFFFF",
"- 	c #FCFCFC",
"; 	c #E3E3E3",
"> 	c #8F908E",
", 	c #070602",
"' 	c #954130",
") 	c #E79786",
"! 	c #F7EBE9",
"~ 	c #F4F5F4",
"{ 	c #F0F0EF",
"] 	c #C0938E",
"^ 	c #9F2100",
"/ 	c #370701",
"( 	c #462218",
"_ 	c #DD7F6C",
": 	c #DA7A6A",
"< 	c #CBBEB9",
"[ 	c #BABCB9",
"} 	c #CACCCA",
"| 	c #DDDFDE",
"1 	c #F5D3CD",
"2 	c #C42E00",
"3 	c #C43107",
"4 	c #9D2505",
"5 	c #D3A8A0",
"6 	c #EA9E8D",
"7 	c #D4644F",
"8 	c #A42706",
"9 	c #310601",
"0 	c #313633",
"a 	c #A33E2F",
"b 	c #CF523A",
"c 	c #C74026",
"d 	c #C83D1F",
"e 	c #713127",
"f 	c #969592",
"g 	c #F9FAFA",
"h 	c #CBA49C",
"i 	c #C73813",
"j 	c #370600",
"k 	c #AE5C4E",
"l 	c #E59585",
"m 	c #E9D7D5",
"n 	c #6C615E",
"o 	c #BBBEBB",
"p 	c #A98F88",
"q 	c #9A6860",
"r 	c #FCF1EF",
"s 	c #F1F1F1",
"t 	c #7B7B76",
"u 	c #BBBDBA",
"v 	c #8B8C8C",
"w 	c #CBCDCA",
"x 	c #7C7C77",
"y 	c #B9BCB9",
"z 	c #4B251B",
"A 	c #BCACA8",
"B 	c #BCBEBB",
"C 	c #656665",
"D 	c #FBFCFC",
"E 	c #E4BFB7",
"F 	c #B24731",
"G 	c #360500",
"H 	c #753C2E",
"I 	c #EDAB9C",
"J 	c #D9CDC9",
"K 	c #B0B1AE",
"L 	c #454543",
"M 	c #DD8270",
"N 	c #CD4A2E",
"O 	c #E28B79",
"P 	c #B05F51",
"Q 	c #B39B95",
"R 	c #ECA391",
"S 	c #C73814",
"T 	c #B47B6E",
"U 	c #9F2200",
"V 	c #C43106",
"W 	c #C9452C",
"X 	c #E59584",
"Y 	c #FBEDEA",
"Z 	c #D77462",
"` 	c #C42F00",
" .	c #9F2506",
"..	c #380701",
"+.	c #C4442F",
"@.	c #E6D9D7",
"#.	c #BCBFBC",
"$.	c #BB7A70",
"%.	c #952304",
"&.	c #693A35",
"*.	c #636664",
"=.	c #777672",
"-.	c #787773",
";.	c #3C3F3C",
"  . +     @ # # $               ",
".     % & * = = - ; > ,   . .   ",
"    ' ) ! ~ { - = = ] ^ /   .   ",
"  ( ) _ : < [ } | 1 2 3 4 +     ",
"  5 6 7 8 9 . . 0 a b c d e     ",
"f g h i 9         j k l m n .   ",
"# = o p .           q r s t .   ",
"# = u o .           v = w x .   ",
"$ - { y z           A = B C .   ",
"  ; D E F G       H I J K L .   ",
"  > M N O P # # Q R M S T +     ",
"  , U V W X = = Y Z `  .+ .     ",
"    ..4 +.@.s w #.$.%.+ . .     ",
"  . . + &.*.=.-.C ;.+     .     "};

