/* XPM */
static char *dillo[] = {
/* columns rows colors chars-per-pixel */
"16 14 141 2",
"   c black",
".  c #000101",
"X  c #000202",
"o  c #000303",
"O  c #020202",
"+  c #000505",
"@  c #020504",
"#  c #040505",
"$  c #060709",
"%  c #000808",
"&  c #000B0B",
"*  c #050908",
"=  c #06090A",
"-  c #070A0B",
";  c #0B0E0E",
":  c #0C0F0D",
">  c #001515",
",  c #02171A",
"<  c #0D1010",
"1  c #0F1210",
"2  c #121517",
"3  c #141616",
"4  c #151616",
"5  c #11191C",
"6  c #181A1C",
"7  c #1B1D1F",
"8  c #031526",
"9  c #00162B",
"0  c #051C33",
"q  c #101F28",
"w  c #07261D",
"e  c #07212E",
"r  c #032D3F",
"t  c #052C39",
"y  c #09253A",
"u  c #0D263A",
"i  c #003535",
"p  c #192222",
"a  c #162930",
"s  c #17392D",
"d  c #220E0E",
"f  c #331414",
"g  c #233333",
"h  c #233234",
"j  c #002241",
"k  c #022643",
"l  c #012D52",
"z  c #173952",
"x  c #013860",
"c  c #313B40",
"v  c #0E5F3D",
"b  c #164C40",
"n  c #0B4C63",
"m  c #0A4E73",
"M  c #0B527F",
"N  c #164766",
"B  c #1E466A",
"V  c #1D456E",
"C  c #056C77",
"Z  c #1F676D",
"A  c #2E475C",
"S  c #2B4858",
"D  c #266A7A",
"F  c #552222",
"G  c #773030",
"H  c #486B77",
"J  c #057B8B",
"K  c #087288",
"L  c #067A9E",
"P  c #16729C",
"I  c #285C82",
"U  c #2E748E",
"Y  c #2A7C93",
"T  c #277BAA",
"R  c #627481",
"E  c #6F8774",
"W  c #0193BF",
"Q  c #059CB1",
"!  c #0A9FBD",
"~  c #148ABF",
"^  c #09A2BB",
"/  c #3687AD",
"(  c #119DD6",
")  c #1B9CD1",
"_  c #1C9DD1",
"`  c #03BBD3",
"'  c #2E90C2",
"]  c #2B99CD",
"[  c #23A5D5",
"{  c #20A6DD",
"}  c #34ACD9",
"|  c #3AA0D1",
" . c #31B6D3",
".. c #38B6D8",
"X. c #00D4D4",
"o. c #4285A0",
"O. c #709896",
"+. c #48B0DD",
"@. c #46BEE3",
"#. c #5DC4BE",
"$. c #6DD7A1",
"%. c #4DCACD",
"&. c #42C6D9",
"*. c #4DC4D8",
"=. c #51CDCF",
"-. c #50C5E2",
";. c #7DD6C6",
":. c #7AD3D1",
">. c #AA4444",
",. c #BB4B4B",
"<. c #DD5858",
"1. c #EE5F5F",
"2. c #FF6666",
"3. c #87A98C",
"4. c #80B9A5",
"5. c #9BCCA0",
"6. c #8AE1B6",
"7. c #AFDFB6",
"8. c #A3EEB5",
"9. c #A8EFBC",
"0. c #9BDEDE",
"q. c #99E5E1",
"w. c #A0E4CF",
"e. c #A0E1DE",
"r. c #ADF0CD",
"t. c #BBF4CA",
"y. c #BEF6D6",
"u. c #BEE8EE",
"i. c #BAE2F5",
"p. c #C2D29E",
"a. c #C1D7BB",
"s. c #D8DEA9",
"d. c #C0E5AC",
"f. c #D5E2BA",
"g. c #DDEFBA",
"h. c #C9FAD0",
"j. c #CDF9DD",
"k. c #E6F8CD",
"l. c #E2FBD3",
"z. c gray100",
"x. c None",
/* pixels */
"x.x.x.    5 S H R c #   x.x.x.x.",
"x.x.  = E 7.w.e.u.i./ h   x.x.x.",
"x.  $ I a.l.y.q.j.0.+.' g   x.x.",
"x.  A o.f.k.t.r.h.:.} | T <   x.",
"  < V O.s.g.8.9.;.( _ ] N =     ",
"  7 B U p.d.$.6...{ ) P f <.<.  ",
"  6 z M 3.5.W  .-.@.[ ~ e ,.>.  ",
"  4 u m Y 4.#.&.*.D t r   2.G   ",
"@ 4 9 n L ^ %.=.Z G ,.>.1.2.    ",
"i   q k K ^ ` C G 1.: s G 1.  x.",
"x.  2 9 l J Q , <.G b w >.>.  x.",
"x.X.  p 0 j x   2.  v @ 1.G   x.",
"x.x.> @ ; a y   2.d = d 2.    x.",
"x.x.  & %       ,.<.,.G 2.<.f   ",
};
