/* XPM */
static char * ram_xpm[] = {
"16 16 45 1",
" 	c None",
".	c #C2C3C3",
"+	c #BEBFBF",
"@	c #BFC0C0",
"#	c #C0C1C1",
"$	c #C1C2C1",
"%	c #FEFDFE",
"&	c #F8F8F9",
"*	c #F5F5F7",
"=	c #F2F2F4",
"-	c #EDEEF1",
";	c #E5E5EA",
">	c #D9D9E0",
",	c #F7F8F9",
"'	c #EEEEF1",
")	c #E7E8EB",
"!	c #DFE0E5",
"~	c #DCDCE2",
"{	c #D4D4D8",
"]	c #ECEDEF",
"^	c #E1E2E7",
"/	c #DCDDE2",
"(	c #D9DAE0",
"_	c #CECFD4",
":	c #EEEEF2",
"<	c #DADBE2",
"[	c #D8D8E0",
"}	c #D6D7DE",
"|	c #D5D6DD",
"1	c #CBCCD2",
"2	c #E3E4E9",
"3	c #D9DAE1",
"4	c #D7D8DE",
"5	c #D6D6DD",
"6	c #D3D4DC",
"7	c #D3D4DB",
"8	c #C8C9D0",
"9	c #DCDDE3",
"0	c #D7D8DF",
"a	c #D1D2DA",
"b	c #D0D1D9",
"c	c #C6C7CF",
"d	c #D9DAE2",
"e	c #CDCED8",
"f	c #C6C7CC",
"                ",
"                ",
"                ",
"                ",
"    .+@@@@#$    ",
"    +%&*=-;>    ",
"    @,=')!~{    ",
"    @*]^/((_    ",
"    @:!<[}|1    ",
"    #2345678    ",
"    #90|6abc    ",
"    $d}6abef    ",
"                ",
"                ",
"                ",
"                "};
