/* XPM */
static char *earth[] = {
/* columns rows colors chars-per-pixel */
"16 14 153 2",
"   c None",
".  c #00040c",
"X  c #000612",
"o  c #010d13",
"O  c #000b1a",
"+  c #1b1b1b",
"@  c #00112c",
"#  c #052d2d",
"$  c #113d2d",
"%  c #202020",
"&  c #2c2c2c",
"*  c #021b46",
"=  c #021c4d",
"-  c #02234c",
";  c #06265c",
":  c #082351",
">  c #09285c",
",  c #032a64",
"<  c #07347e",
"1  c #102e67",
"2  c #163666",
"3  c #13336b",
"4  c #173a69",
"5  c #1b3964",
"6  c #0e4f08",
"7  c #154f04",
"8  c #114f09",
"9  c #184e07",
"0  c #124715",
"q  c #165304",
"w  c #1b5607",
"e  c #185d2a",
"r  c #125236",
"t  c #1d6913",
"y  c #2b5a39",
"u  c #216220",
"i  c #165242",
"p  c #1d5544",
"a  c #0a446f",
"s  c #0e4864",
"d  c #194565",
"f  c #2e7e79",
"g  c #0b3582",
"h  c #0d3a8c",
"j  c #0e4e87",
"k  c #15479f",
"l  c #1a4a9e",
"z  c #0f4eac",
"x  c #0d4cb6",
"c  c #0c50b5",
"v  c #1248a7",
"b  c #104faf",
"n  c #134db4",
"m  c #1b55b5",
"M  c #1b57b9",
"N  c #1e62a3",
"B  c #274e83",
"V  c #205ab9",
"C  c #3a698f",
"Z  c #2964bc",
"A  c #2e6bb7",
"S  c #3363ad",
"D  c #366abe",
"F  c #1d5cc3",
"G  c #1c68c4",
"H  c #2560c2",
"J  c #2a64c3",
"K  c #2c6bcd",
"L  c #256bd2",
"P  c #2173c5",
"I  c #2773da",
"U  c #2b76de",
"Y  c #3471cc",
"T  c #3e74cc",
"R  c #397dcd",
"E  c #3776d1",
"W  c #397bd5",
"Q  c #4577b9",
"!  c #467cce",
"~  c #358d1a",
"^  c #398e6f",
"/  c #528739",
"(  c #45a91a",
")  c #52ab1a",
"_  c #54a328",
"`  c #5aaf76",
"'  c #65b347",
"]  c #6eb15b",
"[  c #7ccf2f",
"{  c #6ec451",
"}  c #7ec745",
"|  c #7ec860",
" . c #5f9897",
".. c #4084ba",
"X. c #4a8fbe",
"o. c #4a9caf",
"O. c #4999b4",
"+. c #5b9bb1",
"@. c #57a780",
"#. c #5aa68a",
"$. c #58a79a",
"%. c #56a0a9",
"&. c #5ca8ad",
"*. c #6688ab",
"=. c #6daaa4",
"-. c #4480cf",
";. c #4385d5",
":. c #4c8adb",
">. c #5087c2",
",. c #588ecd",
"<. c #5094cf",
"1. c #5b92dc",
"2. c #5e99d0",
"3. c #5e9fe2",
"4. c #679ac2",
"5. c #6f9fc8",
"6. c #679bd4",
"7. c #68a3d6",
"8. c #66b0d6",
"9. c #73b0c3",
"0. c #78c19f",
"q. c #81ce3e",
"w. c #89c04b",
"e. c #8cc663",
"r. c #88d068",
"t. c #9acb73",
"y. c #a2e267",
"u. c #b4ed7d",
"i. c #bcf277",
"p. c #96ab8a",
"a. c #98bd99",
"s. c #8fcd89",
"d. c #a4c38b",
"f. c #a4c797",
"g. c #a8d883",
"h. c #b3cf9b",
"j. c #b4dc99",
"k. c #acdca5",
"l. c #bfd3b2",
"z. c #b3e3b9",
"x. c #83c4c3",
"c. c #90c4ee",
"v. c #cdf693",
"b. c #c2e6a4",
"n. c #d1efbf",
"m. c #ddfbb0",
"M. c #ddf7cc",
"N. c #c4e5f4",
"B. c #e2f4cb",
"V. c #edf5da",
"C. c #f0f6dd",
"Z. c #e6f4ec",
"A. c None",
/* pixels */
"A.A.A.A.t.d.p.*.Q S B % A.A.A.A.",
"A.A.w.a.l.j.f.5.+.,.f t 9 A.A.A.",
"A.P ] k.v.i.y.{ | 2.@.( u j A.A.",
"A.G ` B.V.m.u.r.O.W ..^ s r A.A.",
"A.U $.b.V.C.M.x.&.;.Y A e 8 A.A.",
"n I <.0.n.Z.N.8.%.X.Y Z i 8 q A.",
"z L :.O.x.z.c.1.:.-.! V d w q A.",
"z K E R 7.9.s.#.=.4.T v 4 0 q A.",
"z K Y K 1.6.g.[ q.' N g 2 # 7 A.",
"A.F J H ! X.j.} ) ~ a 3 > *     ",
"A.x n m m D  .e._ p 4 3 = X     ",
"A.  < h l v C / y 5 1 * .       ",
"A.    @ : ; , $ - * @ .         ",
"A.        X O o O .             ",
};
