/* XPM */
static char * mail_xpm[] = {
"16 14 4 1",
" 	c None",
".	c #FFFFFF",
"+	c #5F6069",
"@	c #D3CFCE",
"                ",
"                ",
" .............. ",
" ..++++++++++.. ",
" .@.++++++++.@. ",
" .@@.++++++.@@. ",
" .@@@.++++.@@@. ",
" .@@@+.++.+@@@. ",
" .@@+@@..@@+@@. ",
" .@+@@@@@@@@+@. ",
" .+@@@@@@@@@@+. ",
" .............. ",
"                ",
"                "};
