/* XPM */
static char *opera[] = {
/* columns rows colors chars-per-pixel */
"16 14 168 2",
"   c black",
".  c #0D0608",
"X  c #2B0A0C",
"o  c #3C1012",
"O  c #3F1113",
"+  c #3D1618",
"@  c #62181A",
"#  c #63282A",
"$  c #7C2D35",
"%  c #7D2D34",
"&  c #734957",
"*  c #7A5A6D",
"=  c #6E6980",
"-  c #726E8A",
";  c #797693",
":  c #7D7D9B",
">  c #7F7FA0",
",  c #7F80A4",
"<  c #7F82A4",
"1  c #811D1F",
"2  c #842628",
"3  c #892426",
"4  c #8F2123",
"5  c #8D2426",
"6  c #8A2729",
"7  c #8F2729",
"8  c #862F35",
"9  c #85383E",
"0  c #922729",
"q  c #90292B",
"w  c #902D2F",
"e  c #9E2527",
"r  c #9F2527",
"t  c #9F2628",
"y  c #9F292B",
"u  c #9C2A2C",
"i  c #903032",
"p  c #913234",
"a  c #9B3133",
"s  c #9C3336",
"d  c #9D383A",
"f  c #A02527",
"g  c #A12729",
"h  c #A2282A",
"j  c #A52A2C",
"k  c #A62C2E",
"l  c #A72C2E",
"z  c #A72D2F",
"x  c #AA2F31",
"c  c #AA3032",
"v  c #AB3133",
"b  c #AE3234",
"n  c #AE3436",
"m  c #B03537",
"M  c #B43436",
"N  c #B43537",
"B  c #B13739",
"V  c #B53A3C",
"C  c #B63C3E",
"Z  c #B93739",
"A  c #963F41",
"S  c #81505F",
"D  c #AB4345",
"F  c #AB484A",
"G  c #B34143",
"H  c #B14547",
"J  c #B4494B",
"K  c #BA4244",
"L  c #BF4143",
"P  c #BD4345",
"I  c #BE4345",
"U  c #AB6062",
"Y  c #BE6365",
"T  c #C14244",
"R  c #C34245",
"E  c #C34749",
"W  c #C44A4C",
"Q  c #C54B4D",
"!  c #CA4648",
"~  c #C84B4D",
"^  c #CB4D4F",
"/  c #CC484A",
"(  c #CE4D4F",
")  c #C34E50",
"_  c #CA4F51",
"`  c #C55254",
"'  c #CA5052",
"]  c #CB5254",
"[  c #CF5456",
"{  c #C9595B",
"}  c #D24F51",
"|  c #D75557",
" . c #DE585A",
".. c #DC5B5D",
"X. c #D85E60",
"o. c #D16668",
"O. c #D66C6E",
"+. c #DC6264",
"@. c #D86F71",
"#. c #D07B7E",
"$. c #FB5B5D",
"%. c #E06A6C",
"&. c #E46A6C",
"*. c #E0787A",
"=. c #E57A7C",
"-. c #ED7577",
";. c #EB7B7D",
":. c #F16668",
">. c #F0787A",
",. c #F27B7D",
"<. c #F37C7F",
"1. c #AF7B8E",
"2. c #E07F81",
"3. c #82829C",
"4. c #8081A3",
"5. c #8082A2",
"6. c #8183A3",
"7. c #8282A3",
"8. c #8182A4",
"9. c #8282A4",
"0. c #8282A5",
"q. c #8283A4",
"w. c #8184A4",
"e. c #8483A6",
"r. c #8486A6",
"t. c #8787AE",
"y. c #8588A9",
"u. c #8688A8",
"i. c #878AA9",
"p. c #8989AB",
"a. c #8A8BAB",
"s. c #8B8CAF",
"d. c #8C8CAC",
"f. c #8C8DAE",
"g. c #8C8EAF",
"h. c #8E8CAF",
"j. c #9291AF",
"k. c #9092B0",
"l. c #9192B1",
"z. c #9092B3",
"x. c #9593B3",
"c. c #9494B4",
"v. c #9697B8",
"b. c #9A9BB7",
"n. c #9A9AB9",
"m. c #9A9BBA",
"M. c #9B9CBC",
"N. c #9FA0BF",
"B. c #A5A5BE",
"V. c #9FA2C4",
"C. c #A0A1C0",
"Z. c #A2A4C3",
"A. c #CE9699",
"S. c #DC8E90",
"D. c #DC989A",
"F. c #E68688",
"G. c #F58385",
"H. c #F88284",
"J. c #FF9496",
"K. c #FC9D9F",
"L. c #FD9D9F",
"P. c #FDA6A8",
"I. c #FFABAD",
"U. c #FFB2B4",
"Y. c #FFBBBD",
"T. c #FFC9CB",
"R. c #FFCED0",
"E. c None",
/* pixels */
"E.E.E.E.E.E.4 b N N Z T @.J.E.E.",
"E.E.E.E.E.6 P I J + o 0 z E :.E.",
"E.E.E.E.O { X.[ A E.E.@ z z ~ $.",
"E.E.E.E.U L.2.:.2 E.E.X y z c ;.",
"E.E.E.E.D.T.Y.2.i E.E.. 4 z c o.",
"E.E.E.E.O.G.L.@.d E.E.E.3 c n ^ ",
"E.E.E.: H ' [ ( = E.E.E.w V C ! ",
": 6.p.n.s m m R z.v.N.g.F ' Q / ",
"e.6.e.b.0 l l Q h.t.j.B.#.-.+.} ",
"y.< < c.9 h f ` 1.h.y.i.A.I.H.| ",
"j.4.e.4.* e r P  .C.s.- F.T.P.L ",
"V.z.r.6.4.$ r l ;.E.M.S ;.U.S.@ ",
"E.E.n.a.r.; $ f Q ..u G &.F.u E.",
"E.E.E.E.Z.c.g.& 8 q a D o.# E.E."
};
