/* XPM */
static char * ram_xpm[] = {
"16 16 46 1",
" 	c None",
".	c #F3F3F4",
"+	c #F2F2F3",
"@	c #F8F7F8",
"#	c #DFDEE2",
"$	c #E0DFE3",
"%	c #F8F8F9",
"&	c #FBFBFC",
"*	c #AAABAD",
"=	c #E1E0E5",
"-	c #DBDBE0",
";	c #D3D3D6",
">	c #F5F6F7",
",	c #F7F8F9",
"'	c #AEAFB1",
")	c #DEDDE2",
"!	c #D5D5DB",
"~	c #CECED2",
"{	c #F3F3F5",
"]	c #F3F4F6",
"^	c #ADAEB0",
"/	c #DCDCE1",
"(	c #D0D1D6",
"_	c #C5C7CA",
":	c #EEEFF2",
"<	c #E6E7EC",
"[	c #ABACAF",
"}	c #CDCED5",
"|	c #C3C4C9",
"1	c #E3E4E8",
"2	c #DEDFE5",
"3	c #ABACAE",
"4	c #DADADF",
"5	c #CBCCD2",
"6	c #C0C1C9",
"7	c #D9DAE1",
"8	c #DFE0E7",
"9	c #D9D9DF",
"0	c #C9CAD2",
"a	c #BFC0C5",
"b	c #EBEBEC",
"c	c #9C9D9F",
"d	c #A5A6A8",
"e	c #CDCDD2",
"f	c #BABBC0",
"g	c #BBBCC1",
"                ",
"                ",
"                ",
"                ",
"     .+@ ##$    ",
"     %&* =-;    ",
"     >,' )!~    ",
"     {]^ /(_    ",
"     :<[ -}|    ",
"     123 456    ",
"     78[ 90a    ",
"     bcd efg    ",
"                ",
"                ",
"                ",
"                "};
