/* XPM */
static char * icon_xpm[] = {
"16 14 16 1",
" 	c gray",
".	c #323232",
"+	c #535353",
"@	c #4A8A8E",
"#	c #DEE2E2",
"$	c #7E82EA",
"%	c #8A9292",
"&	c #D6D6D6",
"*	c #36767E",
"=	c #9E9E9E",
"-	c #FAFAFA",
";	c #B2B2B2",
">	c #DEEEEA",
",	c #464646",
"'	c #5EA2A2",
")	c #52969A",
"                ",
" --#>>>>>#-#-;  ",
" -&%'))))=&=&+  ",
" >;$@****=;%;+  ",
" &$$$$$$$$$$$,  ",
" &;;;;;;;;;;;+  ",
" &;;;;;;;;;;;+  ",
" &;;;;;;;;;;;+  ",
" &;;;;;;;;;;;+  ",
" &;;;;;;;;;;;+  ",
" &;;;;;;;;;;;+  ",
" $............  ",
"                ",
"                "};
