/* XPM */
static char * ram_xpm[] = {
"16 16 22 1",
" 	c None",
".	c #E7E7E7",
"+	c #E6E6E6",
"@	c #F2F2F2",
"#	c #D7D7D7",
"$	c #D6D6D6",
"%	c #EDEDED",
"&	c #D5D5D5",
"*	c #DFDFDF",
"=	c #DDDDDD",
"-	c #E9E9E9",
";	c #D2D2D2",
">	c #D0D0D0",
",	c #EAEAEA",
"'	c #EEEEEE",
")	c #ECECEC",
"!	c #F7F7F7",
"~	c #E5E5E5",
"{	c #FFFFFF",
"]	c #CFCFCF",
"^	c #E8E8E8",
"/	c #F0F0F0",
"                ",
"                ",
"                ",
"                ",
"       .+       ",
"     @ #$ @     ",
"    %& *= &%    ",
"    -# ;> #-    ",
"    ,'    ',    ",
"    )!    !)    ",
"     ~{]]{~     ",
"      ^//^      ",
"                ",
"                ",
"                ",
"                "};
