/* XPM */
static char *terminal[] = {
/* columns rows colors chars-per-pixel */
"16 14 191 2",
"   c black",
".  c #010101",
"X  c #060606",
"o  c #070706",
"O  c #0F0F10",
"+  c #101010",
"@  c #111110",
"#  c #111111",
"$  c #121211",
"%  c #131312",
"&  c #141413",
"*  c gray8",
"=  c #161615",
"-  c gray9",
";  c gray10",
":  c gray11",
">  c #1D1D1D",
",  c #1F1F1E",
"<  c #202020",
"1  c #212120",
"2  c gray13",
"3  c #222222",
"4  c #232323",
"5  c #242423",
"6  c #252524",
"7  c #262625",
"8  c gray15",
"9  c gray16",
"0  c #2A2A2A",
"q  c gray17",
"w  c gray18",
"e  c gray19",
"r  c #343434",
"t  c #353535",
"y  c #363637",
"u  c #3A3A3A",
"i  c gray24",
"p  c #3E3E3D",
"a  c #414140",
"s  c gray26",
"d  c #434343",
"f  c gray27",
"g  c #484848",
"h  c #494949",
"j  c #4C4C4C",
"k  c #4E4E4E",
"l  c gray31",
"z  c #515150",
"x  c #515151",
"c  c #535353",
"v  c #555555",
"b  c #565656",
"n  c #565657",
"m  c gray34",
"M  c #585858",
"N  c #59595A",
"B  c #5D5D5D",
"V  c #5F5F5F",
"C  c #60605F",
"Z  c #606060",
"A  c gray38",
"S  c #656565",
"D  c #676766",
"F  c #6A6A6A",
"G  c #727272",
"H  c #747474",
"J  c #7E7E7E",
"K  c #7F7F7F",
"L  c #7C7C82",
"P  c #808081",
"I  c gray51",
"U  c gray53",
"Y  c #86868D",
"T  c #8B8B8B",
"R  c #89898D",
"E  c #8A8A8D",
"W  c #8B8B8F",
"Q  c gray55",
"!  c #8F8F8E",
"~  c #8D8D91",
"^  c #909092",
"/  c #919194",
"(  c gray58",
")  c #959595",
"_  c #949496",
"`  c #969697",
"'  c #979797",
"]  c #979798",
"[  c #989898",
"{  c #98989A",
"}  c #99999A",
"|  c #9A9A9B",
" . c #9A9A9D",
".. c #9B9B9E",
"X. c #9C9C9D",
"o. c #9F9F9D",
"O. c #9C9C9F",
"+. c #9F9FA1",
"@. c #A1A1A2",
"#. c #A1A1A3",
"$. c #A4A4A5",
"%. c #A5A5A5",
"&. c #A7A7A7",
"*. c #A6A6A8",
"=. c gray66",
"-. c #A8A8AA",
";. c #A9A9AA",
":. c #AAAAAB",
">. c #ACACAC",
",. c #ACACAD",
"<. c #AEAEAE",
"1. c #AEAEAF",
"2. c #AFAFAF",
"3. c #ABABB4",
"4. c gray70",
"5. c #B1B1B4",
"6. c #B2B2B8",
"7. c #B5B5BA",
"8. c #B7B7BB",
"9. c gray72",
"0. c #BBBBBB",
"q. c #B9B9BD",
"w. c #BABABE",
"e. c gray74",
"r. c #BCBCBE",
"t. c #BEBEBF",
"y. c gray75",
"u. c #BFBFC4",
"i. c #BFBFC5",
"p. c #C2C2C5",
"a. c #C3C3C6",
"s. c #C0C0C9",
"d. c #C3C3CA",
"f. c #C6C6C8",
"g. c #C7C7C9",
"h. c #C4C4CB",
"j. c #C3C3CC",
"k. c #C4C4CC",
"l. c #C5C5CC",
"z. c #C6C6CC",
"x. c #C7C7CD",
"c. c #C5C5CE",
"v. c #C8C8C8",
"b. c #C9C9CA",
"n. c #CACACA",
"m. c #CACACB",
"M. c #CBCBCB",
"N. c #C9C9CC",
"B. c #CACACC",
"V. c #CACAD3",
"C. c #CBCBD4",
"Z. c #CACAD5",
"A. c #CACAD6",
"S. c #CBCBD7",
"D. c #CDCDD7",
"F. c #D3D3D2",
"G. c #D4D4D3",
"H. c #D3D3D4",
"J. c gray83",
"K. c #D0D0D9",
"L. c #D3D3DA",
"P. c #D4D4DB",
"I. c #D4D4DC",
"U. c #D6D6DC",
"Y. c #D7D7DD",
"T. c #D4D4DF",
"R. c #DBDBDA",
"E. c #D8D8DD",
"W. c #DADADC",
"Q. c #DBDBDC",
"!. c #DADADD",
"~. c #D8D8DE",
"^. c #DFDFDF",
"/. c #D5D5E0",
"(. c #D9D9E2",
"). c #DDDDE1",
"_. c #DBDBE4",
"`. c #DEDEE5",
"'. c #E0E0E1",
"]. c #E3E3E4",
"[. c #E0E0E6",
"{. c gray90",
"}. c #E2E2E8",
"|. c #E5E5E9",
" X c #E7E7E8",
".X c #EAEAEB",
"XX c #E8E8F6",
"oX c #EEEEFA",
"OX c #FEFEFF",
"+X c gray100",
"@X c None",
/* pixels */
") 2.2.1.,.:.-.*.$.#.+.O. ...E 1 ",
"v.+X.X{. X|.}.[.`._.(./.T.XXC.8 ",
"m.m.P ) ` ` ' ] { } | X.^ 3.c.8 ",
"M.e.%.R.G.G.G.J.J.H.F.^.o.Y V.6 ",
"b.y.U >.=.=.=.=.=.=.<.&.q L L.5 ",
"g.t.S G H J J J K I K r   R P.4 ",
"f.r.s ! U k x c x h 9 X . W U.3 ",
"f.5.D 0.A i d w e 0 3 : o ~ Y.3 ",
"a.7.h [ Z f =.Q i u t 9 + / E.2 ",
"p.q.7 F 9.B ) T j g s t ; _ !.2 ",
"u.6.a 4.Q v C M V m j i , ( !.< ",
"w.i.y s h l b N n z h p 9 @.W.< ",
"8.oXT.S.Z.A.D.K.I.~.).'.].OXQ.2 ",
" .l.k.j.s.s.d.h.z.x.N.B.m.n.;.> "
};
