/* XPM */
static char * volume7_xpm[] = {
"16 14 3 1",
" 	c None",
".	c #4B4B4B",
"+	c #FBFBFB",
"                ",
"                ",
"            .   ",
"           ..   ",
"          ...   ",
"         +...   ",
"        ++...   ",
"       +++...   ",
"      ++++...   ",
"     +++++...   ",
"    ++++++...   ",
"   +++++++...   ",
"  ++++++++...   ",
"                "};
