/* XPM */
static char * who2_xpm[] = {
"16 14 100 2",
"  	c None",
". 	c #131415",
"+ 	c #080909",
"@ 	c #000001",
"# 	c #111213",
"$ 	c #0D0D0E",
"% 	c #161718",
"& 	c #000206",
"* 	c #3F3A32",
"= 	c #3A362F",
"- 	c #202124",
"; 	c #010202",
"> 	c #231711",
", 	c #C89576",
"' 	c #C1A087",
") 	c #DFD8CD",
"! 	c #8D7F70",
"~ 	c #C39B7E",
"{ 	c #FFFACA",
"] 	c #FFDFB1",
"^ 	c #FFF8D5",
"/ 	c #FFE8C8",
"( 	c #0B0B0C",
"_ 	c #020203",
": 	c #433329",
"< 	c #FEEABC",
"[ 	c #FFE2B4",
"} 	c #FFD1A9",
"| 	c #FFCFA3",
"1 	c #EEC09C",
"2 	c #F6BF9A",
"3 	c #0A0B0B",
"4 	c #020202",
"5 	c #5E514B",
"6 	c #644535",
"7 	c #F9B997",
"8 	c #BE7F63",
"9 	c #A37359",
"0 	c #E7B691",
"a 	c #FFD9AF",
"b 	c #B68B6F",
"c 	c #DD8B6C",
"d 	c #0D0E0F",
"e 	c #362415",
"f 	c #FFF2C2",
"g 	c #8B7363",
"h 	c #D59578",
"i 	c #FFC29B",
"j 	c #C59999",
"k 	c #A56D6B",
"l 	c #DF8764",
"m 	c #FFC598",
"n 	c #A77361",
"o 	c #CCA1A7",
"p 	c #000000",
"q 	c #FBB572",
"r 	c #DC8F71",
"s 	c #BB7E68",
"t 	c #FFCFA1",
"u 	c #DACEBD",
"v 	c #DFB69D",
"w 	c #FF9C6F",
"x 	c #FFC496",
"y 	c #D9AA8A",
"z 	c #FFDBC4",
"A 	c #DF9D7E",
"B 	c #FBA78B",
"C 	c #DC8067",
"D 	c #FFB98F",
"E 	c #FFCEA1",
"F 	c #FFCA9A",
"G 	c #FFBB8F",
"H 	c #FBCAA7",
"I 	c #ECC09E",
"J 	c #FFD3A8",
"K 	c #462E2B",
"L 	c #F18E72",
"M 	c #FFAB7E",
"N 	c #FFBA8A",
"O 	c #FFD1A6",
"P 	c #FBC09A",
"Q 	c #F9BB96",
"R 	c #FFD5AF",
"S 	c #FFB992",
"T 	c #CC785F",
"U 	c #FFA581",
"V 	c #FFBD96",
"W 	c #FFB28E",
"X 	c #FD6253",
"Y 	c #FF4A41",
"Z 	c #FFAF8D",
"` 	c #6F3527",
" .	c #D88063",
"..	c #F9B193",
"+.	c #FFD2B4",
"@.	c #FFB399",
"#.	c #FF9C80",
"$.	c #CB997E",
"%.	c #FBC6A5",
"&.	c #F2B894",
"    . + @ @ @ @ @ @ @           ",
"    # @ @ $ % & @ * = -         ",
"  # @ @ @ ; @ > , ' ) !         ",
"  # @ @ @ @ @ ~ { ] ^ /         ",
"  ( _ @ @ @ : < [ } | 1 2       ",
"  3 4 5 @ 6 7 8 9 0 a b c       ",
"  d e f g h i j k l m n o       ",
"    p q r s t u v w x y z       ",
"    p A B C D E F G H I J       ",
"      p K L M N O P Q R S       ",
"          T U V W X Y Z         ",
"          `  ...+.@.#.,         ",
"            0 ..$.%.&.&.        ",
"              $.$.%.&.&.        "};
