/* XPM */
static char * xrandr_xpm[] = {
"16 16 170 2",
"  	c None",
". 	c #AFB0B2",
"+ 	c #CACBCD",
"@ 	c #CECFD0",
"# 	c #D1D2D3",
"$ 	c #D5D6D7",
"% 	c #D9DADB",
"& 	c #DDDEDE",
"* 	c #E1E1E2",
"= 	c #E5E5E6",
"- 	c #E9E9EA",
"; 	c #ECECEC",
"> 	c #EDEDED",
", 	c #E7E7E7",
"' 	c #D2D2D2",
") 	c #AAACAA",
"! 	c #A6AE95",
"~ 	c #ABB397",
"{ 	c #A7AF93",
"] 	c #A5AC94",
"^ 	c #A2AA94",
"/ 	c #A0A894",
"( 	c #9FA693",
"_ 	c #9DA593",
": 	c #9CA494",
"< 	c #9DA596",
"[ 	c #768070",
"} 	c #A2A69F",
"| 	c #A7A8A8",
"1 	c #848588",
"2 	c #D7D7D6",
"3 	c #717273",
"4 	c #5F5F60",
"5 	c #5F5F5F",
"6 	c #5F6061",
"7 	c #5F5F61",
"8 	c #68696A",
"9 	c #5E5E5F",
"0 	c #5B5C5E",
"a 	c #2A2C30",
"b 	c #080B11",
"c 	c #8C8E8F",
"d 	c #AAABAB",
"e 	c #54565A",
"f 	c #56585B",
"g 	c #515254",
"h 	c #4D4E50",
"i 	c #515253",
"j 	c #8A8D92",
"k 	c #96999F",
"l 	c #ADB0B7",
"m 	c #3F4042",
"n 	c #101215",
"o 	c #090B11",
"p 	c #0B0E14",
"q 	c #8A8C8D",
"r 	c #ADAEAE",
"s 	c #606266",
"t 	c #B9B9B8",
"u 	c #4B4C50",
"v 	c #3E3F42",
"w 	c #63656A",
"x 	c #8D9097",
"y 	c #A8ACB4",
"z 	c #3D3F44",
"A 	c #06070B",
"B 	c #070A0F",
"C 	c #0D1118",
"D 	c #10131B",
"E 	c #888A8B",
"F 	c #B0B2B1",
"G 	c #575B5C",
"H 	c #939594",
"I 	c #45494B",
"J 	c #313338",
"K 	c #5A5E64",
"L 	c #D3D8E3",
"M 	c #8A8F9A",
"N 	c #11151C",
"O 	c #0A0D13",
"P 	c #0F1219",
"Q 	c #161A23",
"R 	c #181D26",
"S 	c #87898B",
"T 	c #B4B5B5",
"U 	c #393D47",
"V 	c #464A53",
"W 	c #30343D",
"X 	c #2B2E36",
"Y 	c #2C3038",
"Z 	c #A3A8B4",
"` 	c #8C919D",
" .	c #393E49",
"..	c #191E28",
"+.	c #1B202A",
"@.	c #212631",
"#.	c #232834",
"$.	c #87898C",
"%.	c #B5B6B7",
"&.	c #3A3F4A",
"*.	c #68696B",
"=.	c #2C313D",
"-.	c #272D38",
";.	c #202631",
">.	c #242A35",
",.	c #323844",
"'.	c #252C38",
").	c #252B37",
"!.	c #262C38",
"~.	c #2A303D",
"{.	c #2B313F",
"].	c #86898C",
"^.	c #B2B4B5",
"/.	c #323947",
"(.	c #474C58",
"_.	c #2E3543",
":.	c #2D3341",
"<.	c #2B323F",
"[.	c #272D3A",
"}.	c #2F3745",
"|.	c #303846",
"1.	c #84888B",
"2.	c #B8BDB7",
"3.	c #688558",
"4.	c #698756",
"5.	c #698656",
"6.	c #698655",
"7.	c #6A8655",
"8.	c #6B8552",
"9.	c #698451",
"0.	c #698456",
"a.	c #657E58",
"b.	c #667E59",
"c.	c #657E5A",
"d.	c #667D58",
"e.	c #939A91",
"f.	c #D1D1D2",
"g.	c #F1F3F3",
"h.	c #EEEFF0",
"i.	c #EAECED",
"j.	c #E7E9EA",
"k.	c #E6E7E8",
"l.	c #E3E4E5",
"m.	c #DFE1E3",
"n.	c #DBDEDF",
"o.	c #D7D9DA",
"p.	c #D2D5D6",
"q.	c #CFD2D3",
"r.	c #C0C3C3",
"s.	c #A5A8A9",
"t.	c #1A1A1A",
"u.	c #1A1919",
"v.	c #303030",
"w.	c #868687",
"x.	c #565656",
"y.	c #353535",
"z.	c #4C4D4D",
"A.	c #838384",
"B.	c #A3A4A5",
"C.	c #A1A2A2",
"D.	c #A5A5A5",
"E.	c #9A999A",
"F.	c #9A9A9A",
"G.	c #A6A6A7",
"H.	c #B1B2B2",
"I.	c #B8B9BA",
"J.	c #D9D9D9",
"K.	c #D6D6D6",
"L.	c #D7D7D7",
"M.	c #DBDBDB",
"  . + @ # $ % & * = - ; > , '   ",
"  ) ! ~ { ] ^ / / ( _ : < [ }   ",
"  | 1 2 3 4 5 6 7 8 9 0 a b c   ",
"  d e f g h i j k l m n o p q   ",
"  r s t u v w x y z A B C D E   ",
"  F G H I J K L M N O P Q R S   ",
"  T U V W X Y Z `  ...+.@.#.$.  ",
"  %.&.*.=.-.;.>.,.'.).!.~.{.].  ",
"  ^./.(._.:.<.[.<.:.:._.}.|.1.  ",
"  2.3.4.5.6.7.8.9.0.a.b.c.d.e.  ",
"  f.g.h.i.j.k.l.m.n.o.p.q.r.s.  ",
"              t.u.v.            ",
"          w.x.y.y.z.A.          ",
"        B.C.D.E.F.G.H.I.        ",
"            J.K.L.M.            ",
"                                "};
