/* XPM */
static char * android_xpm[] = {
"16 14 24 1",
" 	c None",
".	c #92A651",
"+	c #99BE20",
"@	c #A6C947",
"#	c #97BE28",
"$	c #96BD24",
"%	c #96B52D",
"&	c #97BE2F",
"*	c #97BE25",
"=	c #ABCF32",
"-	c #96BC25",
";	c #97BF26",
">	c #98BD24",
",	c #97BF21",
"'	c #96BD20",
")	c #97BE22",
"!	c #96BC22",
"~	c #97BE1F",
"{	c #A1B939",
"]	c #98BE1D",
"^	c #97BE23",
"/	c #96BC2B",
"(	c #9EC02E",
"_	c #8EB912",
"   .        .   ",
"    . .... .    ",
"    ...+++..    ",
"   .+ @+#+ ..   ",
"   .++++$+++.   ",
"                ",
" . .......... % ",
".. .&**=====. -=",
";> .,,,,,,,=. '=",
"+> .+))))))=. !=",
"++ .+~~~~~~=. {=",
"+] .+^^^^^^=. /=",
"+( .+^^^^^^=. _=",
" . .+^^^^^^=. . "};
