/* XPM */
static char * arora_xpm[] = {
"32 32 505 2",
"  	c None",
". 	c #758398",
"+ 	c #7D89A0",
"@ 	c #7E8AA2",
"# 	c #79859D",
"$ 	c #748299",
"% 	c #6B788E",
"& 	c #7D8BA2",
"* 	c #A6B6CD",
"= 	c #A9BAD1",
"- 	c #A6B9CE",
"; 	c #A6B8CE",
"> 	c #A5B7CC",
", 	c #A0B1C6",
"' 	c #94A2B8",
") 	c #8491A9",
"! 	c #79849C",
"~ 	c #828FA5",
"{ 	c #B6C4D7",
"] 	c #C3CED9",
"^ 	c #CBD2D7",
"/ 	c #CED3D6",
"( 	c #CDD2D5",
"_ 	c #C5CDD2",
": 	c #B6C2CE",
"< 	c #A6B7CB",
"[ 	c #A4B7CC",
"} 	c #A8BBD0",
"| 	c #848FA7",
"1 	c #6A758B",
"2 	c #7E89A1",
"3 	c #CDD5DE",
"4 	c #E2E4E5",
"5 	c #DCDFDE",
"6 	c #D7DADA",
"7 	c #D4D7D6",
"8 	c #D1D5D4",
"9 	c #D0D4D3",
"0 	c #CFD3D2",
"a 	c #CCD1D2",
"b 	c #B2BFCB",
"c 	c #A2B4C9",
"d 	c #A7BACF",
"e 	c #8997AF",
"f 	c #7A879D",
"g 	c #DCDFE3",
"h 	c #E8EAE9",
"i 	c #E2E4E4",
"j 	c #DDE0DF",
"k 	c #D8DBDB",
"l 	c #D5D8D7",
"m 	c #CED2D1",
"n 	c #BDC6CE",
"o 	c #A7BAD0",
"p 	c #808CA3",
"q 	c #7B869D",
"r 	c #D7DAE0",
"s 	c #EDEFEE",
"t 	c #E8EAEA",
"u 	c #E3E5E5",
"v 	c #DEE1E0",
"w 	c #DADDDC",
"x 	c #D6D9D8",
"y 	c #D2D6D5",
"z 	c #D0D3D2",
"A 	c #BCC5CF",
"B 	c #A2B3CA",
"C 	c #6D7990",
"D 	c #7A879E",
"E 	c #D0D5DC",
"F 	c #F2F3F3",
"G 	c #EDEEEE",
"H 	c #E9EBEA",
"I 	c #E4E6E6",
"J 	c #DFE2E1",
"K 	c #DBDEDD",
"L 	c #D6DAD9",
"M 	c #D3D6D5",
"N 	c #CFD2D2",
"O 	c #D2D5D6",
"P 	c #D3D6D6",
"Q 	c #A7B7CA",
"R 	c #A9BCD1",
"S 	c #7B899E",
"T 	c #7D879E",
"U 	c #DCDEE3",
"V 	c #F6F7F7",
"W 	c #EFF0EF",
"X 	c #E9EBEB",
"Y 	c #E5E7E6",
"Z 	c #E1E3E3",
"` 	c #D0D5D8",
" .	c #BAC0C5",
"..	c #CBD0D3",
"+.	c #BEC7D0",
"@.	c #B9BFC7",
"#.	c #D7DAD9",
"$.	c #B4C1CE",
"%.	c #818DA3",
"&.	c #7E8AA0",
"*.	c #E7E8EC",
"=.	c #F8F9F9",
"-.	c #F6F6F6",
";.	c #F3F4F3",
">.	c #EEEFEF",
",.	c #E5E8E7",
"'.	c #E1E4E3",
").	c #DEE0E0",
"!.	c #D6DBDB",
"~.	c #BBC6D1",
"{.	c #A0A8B5",
"].	c #B4BCC6",
"^.	c #AEBECF",
"/.	c #9EA7B6",
"(.	c #BDC7D1",
"_.	c #7D8AA1",
":.	c #8992A7",
"<.	c #808CA2",
"[.	c #EEEEF0",
"}.	c #F7F7F7",
"|.	c #F4F5F5",
"1.	c #F1F2F2",
"2.	c #E6E8E7",
"3.	c #E4E6E5",
"4.	c #CCD3D8",
"5.	c #B0BDCB",
"6.	c #8B96AA",
"7.	c #A0B3C7",
"8.	c #97A1B3",
"9.	c #E5E7E7",
"0.	c #BFCAD3",
"a.	c #79869C",
"b.	c #838BA1",
"c.	c #848FA3",
"d.	c #EEEFF0",
"e.	c #DADCE2",
"f.	c #AEB6C5",
"g.	c #EBEDEE",
"h.	c #EFF1F0",
"i.	c #EBEDEC",
"j.	c #E9EAEA",
"k.	c #E6E8E8",
"l.	c #C0C9D2",
"m.	c #A3B2C9",
"n.	c #818FA7",
"o.	c #9CA4B7",
"p.	c #C6CFD7",
"q.	c #78839A",
"r.	c #7B869C",
"s.	c #E9EAEB",
"t.	c #E1E5E6",
"u.	c #B5BFCC",
"v.	c #BDC9D3",
"w.	c #E7E9EA",
"x.	c #F0F1F1",
"y.	c #EDEFF0",
"z.	c #A2AAB8",
"A.	c #7F8A9F",
"B.	c #7B879D",
"C.	c #A2AAB9",
"D.	c #EAEBEB",
"E.	c #B4C2D1",
"F.	c #97A6BE",
"G.	c #748198",
"H.	c #D6D9DD",
"I.	c #D9DCDD",
"J.	c #A8BACF",
"K.	c #818DA4",
"L.	c #969FAF",
"M.	c #E7E9E8",
"N.	c #DFE5E8",
"O.	c #EBECEC",
"P.	c #E8E9EB",
"Q.	c #A3ABBB",
"R.	c #7D889F",
"S.	c #8794A4",
"T.	c #5F738B",
"U.	c #344871",
"V.	c #667490",
"W.	c #9AA2B3",
"X.	c #E0E2E2",
"Y.	c #C7D0D9",
"Z.	c #9DADC4",
"`.	c #5F7893",
" +	c #78849C",
".+	c #D7DADE",
"++	c #BECAD5",
"@+	c #9FAFC5",
"#+	c #677287",
"$+	c #768195",
"%+	c #B8BDC7",
"&+	c #C7CBD3",
"*+	c #7C889E",
"=+	c #909BAA",
"-+	c #A6B2B9",
";+	c #A9B9BF",
">+	c #8BA0B7",
",+	c #3A5588",
"'+	c #385283",
")+	c #758199",
"!+	c #E7EAEA",
"~+	c #C7D0DB",
"{+	c #919FB7",
"]+	c #476185",
"^+	c #485E88",
"/+	c #77849B",
"(+	c #CBCED5",
"_+	c #D9DEDE",
":+	c #ABBDD3",
"<+	c #7A879F",
"[+	c #788399",
"}+	c #C2C6D1",
"|+	c #CACFD6",
"1+	c #CBCFD7",
"2+	c #ACB3B8",
"3+	c #BDC3C7",
"4+	c #D8E2E6",
"5+	c #D9E8EE",
"6+	c #CBE0E8",
"7+	c #5A749E",
"8+	c #6C7A95",
"9+	c #C8CCD5",
"0+	c #C6D0DB",
"a+	c #8592AA",
"b+	c #364D7B",
"c+	c #385386",
"d+	c #3C6B8E",
"e+	c #758299",
"f+	c #DDDFE0",
"g+	c #C0CCD9",
"h+	c #8C99B0",
"i+	c #7A859B",
"j+	c #DBDDDE",
"k+	c #D1D5DA",
"l+	c #DEE0E2",
"m+	c #8B96A9",
"n+	c #8892A4",
"o+	c #BBC0C2",
"p+	c #EDF3F6",
"q+	c #DEEBF0",
"r+	c #CFE2EA",
"s+	c #6C87AB",
"t+	c #556589",
"u+	c #A2AABA",
"v+	c #C4D0DC",
"w+	c #7C8AA2",
"x+	c #365181",
"y+	c #385485",
"z+	c #547497",
"A+	c #818EA2",
"B+	c #E1E4E5",
"C+	c #BAC8DA",
"D+	c #8C9AB1",
"E+	c #647085",
"F+	c #95A0AE",
"G+	c #DEE0DF",
"H+	c #C1C6CD",
"I+	c #79859B",
"J+	c #8897A5",
"K+	c #ABB6BB",
"L+	c #D2D9DC",
"M+	c #EFF5F7",
"N+	c #E9F2F5",
"O+	c #DCEAEF",
"P+	c #CDE1E9",
"Q+	c #96B0C7",
"R+	c #6C89AD",
"S+	c #6E89A6",
"T+	c #8590A5",
"U+	c #C6D1DE",
"V+	c #375284",
"W+	c #3C5687",
"X+	c #75829A",
"Y+	c #EAEBED",
"Z+	c #C0CEE0",
"`+	c #8F9DB4",
" @	c #738094",
".@	c #768198",
"+@	c #9BA0AA",
"@@	c #DADCDD",
"#@	c #8C919F",
"$@	c #536883",
"%@	c #2E446D",
"&@	c #47608C",
"*@	c #98AAC4",
"=@	c #E1EDF2",
"-@	c #DCEAF0",
";@	c #D3E5EC",
">@	c #C6DDE6",
",@	c #B9D5E1",
"'@	c #ABCCDB",
")@	c #98BFD0",
"!@	c #7C899F",
"~@	c #CED8E3",
"{@	c #8693AB",
"]@	c #3B5586",
"^@	c #395387",
"/@	c #5C85A0",
"(@	c #7C8AA1",
"_@	c #7D8BA4",
":@	c #546B8B",
"<@	c #767F94",
"[@	c #71798C",
"}@	c #7A8295",
"|@	c #727E95",
"1@	c #78919E",
"2@	c #30446C",
"3@	c #375081",
"4@	c #506896",
"5@	c #D0E2EA",
"6@	c #CEE1EA",
"7@	c #C7DDE7",
"8@	c #BDD7E2",
"9@	c #B1D0DD",
"0@	c #A4C9D7",
"a@	c #95BED0",
"b@	c #7A889E",
"c@	c #E3E5E8",
"d@	c #B2BCCC",
"e@	c #7B89A2",
"f@	c #395486",
"g@	c #395487",
"h@	c #385C8C",
"i@	c #2A7097",
"j@	c #0D6A92",
"k@	c #234D77",
"l@	c #657087",
"m@	c #5B6A82",
"n@	c #57738C",
"o@	c #5E7A90",
"p@	c #354D7D",
"q@	c #3A5589",
"r@	c #7F97B7",
"s@	c #C0D9E4",
"t@	c #BAD6E1",
"u@	c #B2D0DD",
"v@	c #A7CAD9",
"w@	c #9BC3D4",
"x@	c #8EBACD",
"y@	c #7A9EB3",
"z@	c #78869D",
"A@	c #6E7C96",
"B@	c #3C5587",
"C@	c #344F84",
"D@	c #133272",
"E@	c #11447D",
"F@	c #24507A",
"G@	c #152C54",
"H@	c #5A789A",
"I@	c #6587AB",
"J@	c #3B568A",
"K@	c #92B1C8",
"L@	c #ACCDDB",
"M@	c #A4C9D8",
"N@	c #9BC4D4",
"O@	c #91BDCF",
"P@	c #85B7CA",
"Q@	c #79AFC5",
"R@	c #6193B2",
"S@	c #3B558A",
"T@	c #324D84",
"U@	c #153473",
"V@	c #103070",
"W@	c #135788",
"X@	c #224674",
"Y@	c #3F5D84",
"Z@	c #5D81A7",
"`@	c #3F5B8D",
" #	c #85A8C1",
".#	c #9DC5D5",
"+#	c #97C0D3",
"@#	c #8FBCCE",
"##	c #86B7CB",
"$#	c #7BB0C6",
"%#	c #70A9C1",
"&#	c #63A2BC",
"*#	c #47749D",
"=#	c #29467F",
"-#	c #123271",
";#	c #09497F",
">#	c #14729A",
",#	c #1F3E6C",
"'#	c #274270",
")#	c #6082A8",
"!#	c #7196B6",
"~#	c #92BED0",
"{#	c #8EBBCE",
"]#	c #89B8CC",
"^#	c #82B4C9",
"/#	c #7AAFC5",
"(#	c #65A3BD",
"_#	c #599CB8",
":#	c #4483A7",
"<#	c #1C3B77",
"[#	c #0A447C",
"}#	c #016791",
"|#	c #227499",
"1#	c #1A3765",
"2#	c #1F3A69",
"3#	c #446692",
"4#	c #395488",
"5#	c #496796",
"6#	c #82B3C9",
"7#	c #7FB2C8",
"8#	c #7AB0C6",
"9#	c #75ACC4",
"0#	c #6CA7C0",
"a#	c #5499B6",
"b#	c #3788A9",
"c#	c #185A8A",
"d#	c #0B427C",
"e#	c #016692",
"f#	c #096C95",
"g#	c #24537E",
"h#	c #152C52",
"i#	c #23406F",
"j#	c #28457F",
"k#	c #365187",
"l#	c #6392B2",
"m#	c #71A9C2",
"n#	c #63A1BC",
"o#	c #5298B5",
"p#	c #3D8BAB",
"q#	c #287EA3",
"r#	c #1C779D",
"s#	c #10437C",
"t#	c #0B437C",
"u#	c #016792",
"v#	c #22749B",
"w#	c #1C3967",
"x#	c #1C3864",
"y#	c #2B4D7C",
"z#	c #1B3E79",
"A#	c #173F7A",
"B#	c #173674",
"C#	c #275186",
"D#	c #4B93B2",
"E#	c #4590B0",
"F#	c #3E8BAC",
"G#	c #3486A8",
"H#	c #2C81A5",
"I#	c #237BA1",
"J#	c #19759C",
"K#	c #0E5E8D",
"L#	c #0D3976",
"M#	c #055B8A",
"N#	c #16749A",
"O#	c #1F4372",
"P#	c #13284A",
"Q#	c #1C3866",
"R#	c #36678D",
"S#	c #3586A8",
"T#	c #266895",
"U#	c #266794",
"V#	c #3083A6",
"W#	c #2D81A5",
"X#	c #297FA3",
"Y#	c #237BA0",
"Z#	c #1B779D",
"`#	c #13729A",
" $	c #03618F",
".$	c #016591",
"+$	c #127199",
"@$	c #234E79",
"#$	c #17315B",
"$$	c #1A3966",
"%$	c #2B5781",
"&$	c #2B80A4",
"*$	c #1E789E",
"=$	c #1D789E",
"-$	c #1A769D",
";$	c #16749B",
">$	c #117099",
",$	c #0A6C96",
"'$	c #026892",
")$	c #036893",
"!$	c #1B749B",
"~$	c #1F4674",
"{$	c #18345E",
"]$	c #193561",
"^$	c #1F406E",
"/$	c #276B91",
"($	c #17749C",
"_$	c #046993",
":$	c #066A94",
"<$	c #15739A",
"[$	c #215E88",
"}$	c #1C3A69",
"|$	c #152A53",
"1$	c #183764",
"2$	c #1C3C6B",
"3$	c #21507A",
"4$	c #1D628C",
"5$	c #1B6A92",
"6$	c #1B7098",
"7$	c #1D6A91",
"8$	c #1F5F89",
"9$	c #204A77",
"0$	c #1C3A68",
"a$	c #18345F",
"b$	c #152A4E",
"c$	c #193661",
"d$	c #193765",
"e$	c #173563",
"f$	c #132645",
"                              . + @ # $ %                       ",
"                            & * = - ; > , ' ) !                 ",
"                          ~ { ] ^ / ( _ : < [ } | 1             ",
"                        2 3 4 5 6 7 8 9 0 a b c d e             ",
"                      f g h i j k l 8 0 m 0 9 n c o p           ",
"                    q r s t u v w x y z 0 9 8 8 A [ B C         ",
"                  D E F G H I J K L M 9 N O x l P Q R S         ",
"                T U V F W X Y Z 5 ` 7  ...+.@.K #.$.d %.        ",
"              &.*.=.-.;.>.H ,.'.).!.~.{.].^./.Z w (.d _.        ",
"          :.<.[.}.-.|.1.s X 2.3.Z ).4.5.6.7.8.9.v 0.d a.        ",
"        b.c.d.e.f.g.F h.G i.j.t k.I j l.m.n.o.H Z p.d q.        ",
"        r.s.t.u.v.w.x.x.y.z.A.B.C.D.I K E.F.G.H.9.I.J.K.        ",
"        L.H M.N.O.>.P.Q.R.S.T.U.V.W.D.X.Y.Z.`. +.+X.++@+#+      ",
"      $+%+3.3.2.H &+*+=+-+;+>+,+'+)+!+I ~+{+]+^+/+(+_+:+<+      ",
"      [+}+|+1+Y i.A.2+3+4+5+6+7+,+8+9+k.0+a+b+c+d+e+f+g+h+      ",
"      i+v j+k+l+m+n+o+|.p+q+r+s+,+t+u+M.v+w+x+y+z+A+B+C+D+      ",
"    E+F+j G+H+I+J+K+L+M+N+O+P+Q+R+S+T+H U+w+V+W+X+Y+Z+`+ @      ",
"    .@+@@@#@/+$@%@&@*@=@-@;@>@,@'@)@!@>.~@{@]@^@/@(@_@:@        ",
"    <@[@}@|@1@2@3@,+4@5@6@7@8@9@0@a@b@c@d@e@f@g@h@i@j@k@        ",
"      l@m@n@o@p@q@q@q@r@s@t@u@v@w@x@y@z@A@B@g@,+C@D@E@F@        ",
"        G@H@I@q@q@q@q@J@K@L@M@N@O@P@Q@R@S@q@q@T@U@V@W@X@        ",
"          Y@Z@q@q@q@q@`@ #.#+#@###$#%#&#*#q@=#-#V@;#>#,#        ",
"          '#)#q@q@q@q@!#~#{#]#^#/#%#(#_#:#<#V@V@[#}#|#1#        ",
"          2#3#4#q@q@q@5#6#7#8#9#0#&#a#b#c#V@V@d#e#f#g#h#        ",
"            i#j#=#k#q@q@l#m#0#n#o#p#q#r#s#V@t#e#u#v#w#          ",
"            x#y#z#A#B#C#D#E#F#G#H#I#J#K#L#M#u#u#N#O#P#          ",
"              Q#R#S#T#U#V#W#X#Y#Z#`#f# $.$u#u#+$@$#$            ",
"                $$%$&$*$=$-$;$>$,$'$u#u#u#)$!$~${$              ",
"                  ]$^$/$($,$_$u#u#u#u#:$<$[$}$|$                ",
"                      1$2$3$4$5$6$7$8$9$0$a$                    ",
"                          b${$c$d$e$#$f$                        ",
"                                                                "};
