/* XPM */
static char * bat_online_xpm[] = {
"32 32 4 1",
" 	c None",
".	c #BABABA",
"+	c #FFFFFF",
"@	c #000000",
"                                ",
"                                ",
"                                ",
"                                ",
"                                ",
"                                ",
"  ..........................    ",
"  ..........................    ",
"  ..                      ..    ",
"  ..                      ..    ",
"  ..          ++          ..    ",
"  ..          ++          ..    ",
"  ..  ++      ++++        ......",
"  ..  ++      ++++        ......",
"  ..  @@++    ++++++++      ....",
"  ..  @@++    ++++++++      ....",
"  ..    @@++++++@@@@++++@@  ....",
"  ..    @@++++++@@@@++++@@  ....",
"  ..      @@++++@@  @@@@  ......",
"  ..      @@++++@@  @@@@  ......",
"  ..        @@++@@        ..    ",
"  ..        @@++@@        ..    ",
"  ..          @@@@        ..    ",
"  ..          @@@@        ..    ",
"  ..........................    ",
"  ..........................    ",
"                                ",
"                                ",
"                                ",
"                                ",
"                                ",
"                                "};
