/* XPM */
static char * bat1_xpm[] = {
"32 32 3 1",
" 	c None",
".	c #E7E7E7",
"+	c #FF0000",
"                                ",
"                                ",
"                                ",
"                                ",
"                                ",
"                                ",
"  ..........................    ",
"  ..........................    ",
"  ..                      ..    ",
"  ..                      ..    ",
"  ..  ++                  ..    ",
"  ..  ++                  ..    ",
"  ..  ++                  ......",
"  ..  ++                  ......",
"  ..  ++                    ....",
"  ..  ++                    ....",
"  ..  ++                    ....",
"  ..  ++                    ....",
"  ..  ++                  ......",
"  ..  ++                  ......",
"  ..  ++                  ..    ",
"  ..  ++                  ..    ",
"  ..                      ..    ",
"  ..                      ..    ",
"  ..........................    ",
"  ..........................    ",
"                                ",
"                                ",
"                                ",
"                                ",
"                                ",
"                                "};
