/* XPM */
static char * bat6_xpm[] = {
"32 32 3 1",
" 	c None",
".	c #E7E7E7",
"+	c #ADAFB1",
"                                ",
"                                ",
"                                ",
"                                ",
"                                ",
"                                ",
"  ..........................    ",
"  ..........................    ",
"  ..                      ..    ",
"  ..                      ..    ",
"  ..  ++++++++++++        ..    ",
"  ..  ++++++++++++        ..    ",
"  ..  ++++++++++++        ......",
"  ..  ++++++++++++        ......",
"  ..  ++++++++++++          ....",
"  ..  ++++++++++++          ....",
"  ..  ++++++++++++          ....",
"  ..  ++++++++++++          ....",
"  ..  ++++++++++++        ......",
"  ..  ++++++++++++        ......",
"  ..  ++++++++++++        ..    ",
"  ..  ++++++++++++        ..    ",
"  ..                      ..    ",
"  ..                      ..    ",
"  ..........................    ",
"  ..........................    ",
"                                ",
"                                ",
"                                ",
"                                ",
"                                ",
"                                "};
