/* XPM */
static char * disk_xpm[] = {
"32 32 110 2",
"  	c None",
". 	c #F8F8F9",
"+ 	c #F7F7F8",
"@ 	c #F6F6F7",
"# 	c #F4F4F6",
"$ 	c #F3F3F5",
"% 	c #F1F1F3",
"& 	c #F0F0F2",
"* 	c #EFF0F1",
"= 	c #EBECEE",
"- 	c #E5E5E9",
"; 	c #DEDEE3",
"> 	c #D7D7DC",
", 	c #D4D4D8",
"' 	c #F5F5F6",
") 	c #F2F2F4",
"! 	c #EEEEF0",
"~ 	c #E7E8EB",
"{ 	c #E3E3E7",
"] 	c #DDDDE2",
"^ 	c #D6D6DB",
"/ 	c #D3D3D7",
"( 	c #F6F7F8",
"_ 	c #F5F6F7",
": 	c #F4F5F5",
"< 	c #F2F2F5",
"[ 	c #EDEEF1",
"} 	c #E9EAED",
"| 	c #E4E5E9",
"1 	c #E0E1E6",
"2 	c #DEDEE4",
"3 	c #DADADF",
"4 	c #D4D4D9",
"5 	c #D2D2D5",
"6 	c #F4F5F6",
"7 	c #F2F4F5",
"8 	c #EEEFF2",
"9 	c #ECECEF",
"0 	c #E8E9EC",
"a 	c #E3E4E8",
"b 	c #DEDFE4",
"c 	c #DBDCE2",
"d 	c #DBDBE2",
"e 	c #D7D7DD",
"f 	c #D1D1D5",
"g 	c #CECED2",
"h 	c #F3F4F5",
"i 	c #F2F3F4",
"j 	c #EEEFF1",
"k 	c #E8E9ED",
"l 	c #E3E4E9",
"m 	c #DFE0E6",
"n 	c #DDDEE3",
"o 	c #DBDCE1",
"p 	c #DADBE1",
"q 	c #DADAE1",
"r 	c #D5D5DC",
"s 	c #CCCDD1",
"t 	c #C8C9CC",
"u 	c #F1F2F4",
"v 	c #E2E3E8",
"w 	c #DDDEE4",
"x 	c #D9DAE0",
"y 	c #D8D9E0",
"z 	c #D3D4DA",
"A 	c #C9CACF",
"B 	c #C4C6C9",
"C 	c #EEEEF1",
"D 	c #E6E7EB",
"E 	c #DADBE2",
"F 	c #D9DAE1",
"G 	c #D7D8DF",
"H 	c #D7D8DE",
"I 	c #D6D7DE",
"J 	c #D1D2D9",
"K 	c #C8C9CE",
"L 	c #C4C5C9",
"M 	c #ECEDF1",
"N 	c #D8D8DF",
"O 	c #D5D6DD",
"P 	c #D0D1D7",
"Q 	c #C7C8CE",
"R 	c #C3C4C9",
"S 	c #E2E3E7",
"T 	c #DCDDE3",
"U 	c #D8D9DF",
"V 	c #D6D7DD",
"W 	c #D5D5DD",
"X 	c #D3D4DC",
"Y 	c #D3D4DB",
"Z 	c #CECFD6",
"` 	c #C6C7CD",
" .	c #C1C2C9",
"..	c #D6D6DD",
"+.	c #D2D3DB",
"@.	c #D1D2DA",
"#.	c #CDCED5",
"$.	c #C4C5CC",
"%.	c #C0C1C8",
"&.	c #D5D6DE",
"*.	c #D4D5DD",
"=.	c #D0D1D9",
"-.	c #CFD0D9",
";.	c #CBCCD4",
">.	c #C3C4CA",
",.	c #BFC0C5",
"'.	c #CECFD8",
").	c #CACBD3",
"!.	c #C2C3C9",
"~.	c #BFC0C4",
"                                                                ",
"                                                                ",
"                                                                ",
"                                                                ",
"                                                                ",
"                                                                ",
"                                                                ",
"                                                                ",
"                                                                ",
"                                                                ",
"                . . + @ # $ % & * = - ; > ,                     ",
"                . + @ ' $ ) & ! = ~ { ] ^ /                     ",
"                ( _ : $ < % [ } | 1 2 3 4 5                     ",
"                _ 6 7 % 8 9 0 a b c d e f g                     ",
"                # h i j k l m n o p q r s t                     ",
"                $ u j } v w c x y y y z A B                     ",
"                u C D 1 n E F y G H I J K L                     ",
"                M k 1 c x y N G I O O P Q R                     ",
"                | S T x U H V W X X Y Z `  .                    ",
"                b n F G H ..r Y +.@.@.#.$.%.                    ",
"                E p y G &.*.X +.@.=.-.;.>.,.                    ",
"                F y G I *.X +.@.=.-.'.).!.~.                    ",
"                                                                ",
"                                                                ",
"                                                                ",
"                                                                ",
"                                                                ",
"                                                                ",
"                                                                ",
"                                                                ",
"                                                                ",
"                                                                "};
