/* XPM */
static char * exec_xpm[] = {
"32 32 376 2",
"  	c None",
". 	c #3A4041",
"+ 	c #8D9191",
"@ 	c #8E9192",
"# 	c #33393A",
"$ 	c #BBBDBD",
"% 	c #CFD0D0",
"& 	c #292E2F",
"* 	c #474B4F",
"= 	c #DDDEDC",
"- 	c #E2E3E2",
"; 	c #444949",
"> 	c #E0E0DD",
", 	c #B3B5B6",
"' 	c #B2B4B4",
") 	c #D5D7D5",
"! 	c #DCDDDA",
"~ 	c #C1C3C1",
"{ 	c #3D4243",
"] 	c #818685",
"^ 	c #EBECEA",
"/ 	c #D3D4D0",
"( 	c #BFC1BC",
"_ 	c #B6B9B3",
": 	c #BFC2BC",
"< 	c #D6D8D4",
"[ 	c #AFB1B0",
"} 	c #454A4C",
"| 	c #828586",
"1 	c #7B7F80",
"2 	c #363B3F",
"3 	c #555A5B",
"4 	c #D9DAD8",
"5 	c #B7B9B4",
"6 	c #A4A7A1",
"7 	c #AFB2AB",
"8 	c #B6B9B2",
"9 	c #B3B6AF",
"0 	c #D1D4CE",
"a 	c #CFD0CD",
"b 	c #D2D2D0",
"c 	c #DADCDA",
"d 	c #394042",
"e 	c #C2C4C3",
"f 	c #C9CAC8",
"g 	c #D3D4D3",
"h 	c #C6C8C4",
"i 	c #A6A9A2",
"j 	c #B8BBB4",
"k 	c #B5B8B3",
"l 	c #ADB0AC",
"m 	c #CBCDC8",
"n 	c #C1C5BE",
"o 	c #BBBFB8",
"p 	c #D8DAD4",
"q 	c #B1B3B2",
"r 	c #343840",
"s 	c #B9BDBB",
"t 	c #D3D4D2",
"u 	c #E1E2DF",
"v 	c #B0B3AC",
"w 	c #B9BBB4",
"x 	c #A9ABA7",
"y 	c #424746",
"z 	c #5F6364",
"A 	c #D7D9D5",
"B 	c #C3C7C0",
"C 	c #D5D8D1",
"D 	c #979B99",
"E 	c #5D6163",
"F 	c #D8DAD7",
"G 	c #CBCCC7",
"H 	c #787C7B",
"I 	c #C8CBC8",
"J 	c #D1D4CD",
"K 	c #D2D5CD",
"L 	c #BCBFBB",
"M 	c #2F3436",
"N 	c #313739",
"O 	c #CFD0CE",
"P 	c #BABDB6",
"Q 	c #CACDC6",
"R 	c #A4A7A6",
"S 	c #45494A",
"T 	c #DFE1DF",
"U 	c #D1D5CD",
"V 	c #D5D9D1",
"W 	c #CBCDC9",
"X 	c #969797",
"Y 	c #5C6062",
"Z 	c #4D5455",
"` 	c #D5D6D3",
" .	c #C7CBC4",
"..	c #BDC1B9",
"+.	c #DEDFDB",
"@.	c #AEB0B0",
"#.	c #898D8D",
"$.	c #CECFCE",
"%.	c #E0E3DD",
"&.	c #CED3CA",
"*.	c #DDE0D9",
"=.	c #B5B7B4",
"-.	c #CCCDCA",
";.	c #8C8F90",
">.	c #5A5F60",
",.	c #C7C9C7",
"'.	c #CACBC8",
").	c #E3E4E0",
"!.	c #C5C9C1",
"~.	c #DFE2DB",
"{.	c #EBEEE8",
"].	c #DCDFD9",
"^.	c #CFD3CB",
"/.	c #DCE0D8",
"(.	c #C3C7C1",
"_.	c #525758",
":.	c #676B6C",
"<.	c #424648",
"[.	c #3E4647",
"}.	c #A2A4A5",
"|.	c #6C7172",
"1.	c #4D5253",
"2.	c #BEC0BF",
"3.	c #818584",
"4.	c #959897",
"5.	c #E0E2DE",
"6.	c #D4D8D0",
"7.	c #CFD3CA",
"8.	c #D2D6CE",
"9.	c #D7DBD2",
"0.	c #DCE0D9",
"a.	c #CFD2CD",
"b.	c #6D7171",
"c.	c #CBCECD",
"d.	c #969999",
"e.	c #7C7F80",
"f.	c #F9F8F7",
"g.	c #A6A9A9",
"h.	c #33383A",
"i.	c #6E7373",
"j.	c #CFD1CD",
"k.	c #DADCD7",
"l.	c #D5D8D2",
"m.	c #CDD0CB",
"n.	c #C0C3BF",
"o.	c #A2A3A1",
"p.	c #6A6E6F",
"q.	c #CED0CE",
"r.	c #D5D6D4",
"s.	c #A3A5A6",
"t.	c #C1C2C2",
"u.	c #D9DAD9",
"v.	c #E1E2E0",
"w.	c #898C8C",
"x.	c #525859",
"y.	c #B4B5B2",
"z.	c #979998",
"A.	c #3D4445",
"B.	c #303536",
"C.	c #616566",
"D.	c #C1C1BF",
"E.	c #6F7373",
"F.	c #E7E7E5",
"G.	c #CCCEC9",
"H.	c #BABCB6",
"I.	c #B8BBB5",
"J.	c #C7C9C4",
"K.	c #D7D8D4",
"L.	c #8B8E8E",
"M.	c #4B5152",
"N.	c #979A9B",
"O.	c #585E5F",
"P.	c #535859",
"Q.	c #B1B4B3",
"R.	c #6E7172",
"S.	c #414648",
"T.	c #585C5D",
"U.	c #787D7D",
"V.	c #CFD1CE",
"W.	c #ABAEA8",
"X.	c #A7AAA3",
"Y.	c #B3B5AF",
"Z.	c #B0B4AC",
"`.	c #B9BDB6",
" +	c #C5C7C4",
".+	c #E8E8E5",
"++	c #A1A3A4",
"@+	c #4F5556",
"#+	c #DDDDDD",
"$+	c #B1B2B2",
"%+	c #E0E1DF",
"&+	c #B3B6B0",
"*+	c #ABAEA7",
"=+	c #BCBFB9",
"-+	c #AEB1AD",
";+	c #B4B7B3",
">+	c #BCBFB8",
",+	c #C3C6BF",
"'+	c #979A99",
")+	c #414849",
"!+	c #363C3E",
"~+	c #D8D9D6",
"{+	c #D4D5D2",
"]+	c #AAADA6",
"^+	c #C0C3BC",
"/+	c #8A8E8C",
"(+	c #313738",
"_+	c #989B9A",
":+	c #D7D9D4",
"<+	c #C1C5BD",
"[+	c #DADDD6",
"}+	c #6A6F70",
"|+	c #DFE0DF",
"1+	c #BCBEBE",
"2+	c #313638",
"3+	c #2A3132",
"4+	c #9B9E9E",
"5+	c #D4D6D1",
"6+	c #B2B5AE",
"7+	c #C4C7C2",
"8+	c #414748",
"9+	c #464C4D",
"0+	c #DDDFDB",
"a+	c #C8CDC5",
"b+	c #858988",
"c+	c #747777",
"d+	c #CED0CC",
"e+	c #BEC0BD",
"f+	c #565A5B",
"g+	c #343839",
"h+	c #757979",
"i+	c #B2B5B4",
"j+	c #373D3F",
"k+	c #767B7B",
"l+	c #B5B8B1",
"m+	c #D2D5D0",
"n+	c #727776",
"o+	c #797D7F",
"p+	c #E8EAE6",
"q+	c #CBCFC7",
"r+	c #D9DDD6",
"s+	c #B6B9B5",
"t+	c #87898A",
"u+	c #43484B",
"v+	c #646868",
"w+	c #D0D0CE",
"x+	c #C6C7C4",
"y+	c #C2C3C0",
"z+	c #B3B5B3",
"A+	c #A6A8A5",
"B+	c #BEBFBB",
"C+	c #767A7A",
"D+	c #6B7070",
"E+	c #DFE0DC",
"F+	c #BDC0B9",
"G+	c #C7CAC3",
"H+	c #DADBD8",
"I+	c #959899",
"J+	c #979B9B",
"K+	c #E4E6E3",
"L+	c #D6D9D2",
"M+	c #B0B2B0",
"N+	c #D2D3D1",
"O+	c #595D5F",
"P+	c #B5B7B7",
"Q+	c #7E8282",
"R+	c #C1C3C0",
"S+	c #A5A6A2",
"T+	c #939691",
"U+	c #A3A6A1",
"V+	c #BCBEB9",
"W+	c #C3C4BF",
"X+	c #808281",
"Y+	c #727778",
"Z+	c #C5C6C3",
"`+	c #DADDD7",
" @	c #C2C5BD",
".@	c #CCD0C8",
"+@	c #E7E9E3",
"@@	c #E9ECE5",
"#@	c #D1D5CC",
"$@	c #E3E6DE",
"%@	c #9BA09D",
"&@	c #474C4D",
"*@	c #636668",
"=@	c #ADAFB0",
"-@	c #DDDFDA",
";@	c #CCCDC9",
">@	c #AFB0AC",
",@	c #868984",
"'@	c #4A504F",
")@	c #4F5555",
"!@	c #D0D2CC",
"~@	c #777B7A",
"{@	c #616667",
"]@	c #BBBEBC",
"^@	c #6F7474",
"/@	c #B6B9B8",
"(@	c #E1E3DD",
"_@	c #D0D4CC",
":@	c #D3D7CF",
"<@	c #D8DCD4",
"[@	c #DFE3DC",
"}@	c #B4B8B4",
"|@	c #2A2E2F",
"1@	c #9D9F9F",
"2@	c #B0B2AD",
"3@	c #696C6C",
"4@	c #7C817F",
"5@	c #DFE1DA",
"6@	c #B0B3AE",
"7@	c #545959",
"8@	c #3C4344",
"9@	c #1D2224",
"0@	c #9EA1A0",
"a@	c #D7DAD5",
"b@	c #D8DBD6",
"c@	c #D4D7D2",
"d@	c #CED1CC",
"e@	c #B9BBB7",
"f@	c #292C2E",
"g@	c #959997",
"h@	c #C3C5BE",
"i@	c #989B98",
"j@	c #34393C",
"k@	c #333A3B",
"l@	c #ACAFAD",
"m@	c #E2E6DF",
"n@	c #AEB0AB",
"o@	c #90908D",
"p@	c #787B7B",
"q@	c #BCBCB8",
"r@	c #757878",
"s@	c #282C2E",
"t@	c #292D2F",
"u@	c #8E908F",
"v@	c #C0C1BF",
"w@	c #545A5A",
"x@	c #868989",
"y@	c #CACCC5",
"z@	c #CDCECB",
"A@	c #E3E6DF",
"B@	c #898B89",
"C@	c #8F918E",
"D@	c #636767",
"E@	c #7B7F7E",
"F@	c #B6B7B6",
"G@	c #3E4243",
"H@	c #3C4041",
"I@	c #525757",
"J@	c #7F8384",
"K@	c #B6B7B4",
"L@	c #ABADA9",
"M@	c #DBDDD7",
"N@	c #DCDFD8",
"O@	c #D0D4CD",
"P@	c #737876",
"Q@	c #1E2223",
"R@	c #2E3334",
"S@	c #24292A",
"T@	c #242729",
"U@	c #696E6E",
"V@	c #CDCFCC",
"W@	c #888B8A",
"X@	c #434849",
"Y@	c #7D807F",
"Z@	c #9EA09C",
"`@	c #888A86",
" #	c #434747",
".#	c #4B5051",
"+#	c #262A2B",
"@#	c #171B1C",
"##	c #8C8F8D",
"$#	c #A1A29F",
"%#	c #5C6161",
"&#	c #1B1F20",
"                                                                ",
"                    .       + @                                 ",
"                # $ % &   * = - ;                               ",
"                  $ > , ' ) ! ~ {                               ",
"                  ] ^ / ( _ : < [ } | 1                         ",
"            2   3 4 5 6 7 8 9 9 0 a b c d                       ",
"            e f g h i j k l m n o p q 3                         ",
"          r s t u v w x y   z A B C D                           ",
"              E F 9 G H       I J K L M                         ",
"              N O P Q R     S T U V W X Y                       ",
"              Z `  ...+.@.#.$.%.&.*.=.-.;.                      ",
"            >.,.'.).!.!.~.{.].^./.(._.:.<.  [.}.|.              ",
"            1.2.3.4.5.6.7.8.9.0.a.b.c.d.    e.f.g.              ",
"              h.    i.j.k.l.m.n.o.p.q.r.s.t.u.v.w.              ",
"                    x.y.z.A.B.C.D.E.d.F.G.H.I.J.K.L.M.N.O.      ",
"                    P.Q.R.    S.T.U.V.W.X.Y.8 Z.`.k. +.+++      ",
"                            @+#+$+%+&+*+=+-+;+G.>+,+A '+)+      ",
"                    !+      >.q.~+{+]+^+/+  (+_+:+<+[+b.        ",
"                }+|+1+      2+3+4+5+6+7+8+    9+0+a+*.b+        ",
"                c+d+e+f+g+h+i+j+k+A l+m+n+    o+p+q+r+s+t+u+    ",
"                v+w+x+y+z+A+B+C+D+E+F+G+H+I+J+K+L+8.k.M+N+O+    ",
"          i.P+Q+R+S+T+U+V+W+X+Y+Z+< `+ @.@+@@@V #@$@%@&@*@      ",
"          =@-@;@>@,@'@)@l !@~@{@]@^@/@(@_@^.:@<@[@}@|@          ",
"          }+1@-.2@3@    4@5@6@7@8@  9@0@a@b@c@d@e@z.f@          ",
"              g@h@i@j@k@l@m@n@o@h+    p@q@r@s@t@u@v@w@          ",
"              x@G.y@h z@A@L+B@C@D@    E@F@G@    H@I@            ",
"            J@K@L@G.M@N@O@P@Q@R@S@      T@                      ",
"            U@V@W@X@Y@Z@`@ #                                    ",
"              .#+#  @###$#%#                                    ",
"                      .#&@&#                                    ",
"                                                                ",
"                                                                "};
