/* XPM */
static char * konqueror_xpm[] = {
"32 32 472 2",
"  	c None",
". 	c #EBEBFA",
"+ 	c #D9D9E3",
"@ 	c #3A3A46",
"# 	c #626270",
"$ 	c #52525D",
"% 	c #CFCFDC",
"& 	c #D8D8E4",
"* 	c #F5F5FD",
"= 	c #ACACC1",
"- 	c #2D2D3D",
"; 	c #B8B8C8",
"> 	c #FFFFFF",
", 	c #CCCCDD",
"' 	c #56566F",
") 	c #ACACBC",
"! 	c #E1E1EB",
"~ 	c #83839D",
"{ 	c #C9C7CF",
"] 	c #F5F2F5",
"^ 	c #001A5D",
"/ 	c #002E83",
"( 	c #002E82",
"_ 	c #001C5E",
": 	c #D0D0E1",
"< 	c #DBDBE3",
"[ 	c #FCF7F9",
"} 	c #CEDDF9",
"| 	c #6494E2",
"1 	c #5C91E4",
"2 	c #99C3FF",
"3 	c #CFECFF",
"4 	c #EAFDFF",
"5 	c #EEFFFF",
"6 	c #D4EFFF",
"7 	c #A6CEFF",
"8 	c #5D90E1",
"9 	c #082F74",
"0 	c #64647A",
"a 	c #F0F0F7",
"b 	c #D7D7E1",
"c 	c #FAF6F6",
"d 	c #91B3EA",
"e 	c #528CE4",
"f 	c #B5D5FC",
"g 	c #F7FFFF",
"h 	c #FDFFFF",
"i 	c #F5FFFF",
"j 	c #F2FDFF",
"k 	c #F0FDFF",
"l 	c #F4FFFF",
"m 	c #FAFFFF",
"n 	c #D8F5FF",
"o 	c #598CDB",
"p 	c #9191AA",
"q 	c #D5D5E1",
"r 	c #FDF7F7",
"s 	c #83A8E5",
"t 	c #4C8EE5",
"u 	c #CEEAFF",
"v 	c #D5EFFF",
"w 	c #CCE9FF",
"x 	c #CEE7FF",
"y 	c #CFE7FF",
"z 	c #CCE7FF",
"A 	c #CAE9FF",
"B 	c #CAE7FF",
"C 	c #D3ECFF",
"D 	c #DDF7FF",
"E 	c #70AAF5",
"F 	c #505062",
"G 	c #FAF6F9",
"H 	c #AAC2EC",
"I 	c #2170DB",
"J 	c #A4D0F9",
"K 	c #B4D8F9",
"L 	c #B4D5F9",
"M 	c #B7D5F9",
"N 	c #BAD7FA",
"O 	c #BED9FC",
"P 	c #B7D8FC",
"Q 	c #ABD3F9",
"R 	c #ACD3F9",
"S 	c #ACD4F9",
"T 	c #B0D5F9",
"U 	c #B8E1FF",
"V 	c #3985E5",
"W 	c #B0AFB7",
"X 	c #F6F9FF",
"Y 	c #1B67D5",
"Z 	c #398AE3",
"` 	c #A7CFF9",
" .	c #A2C8F5",
"..	c #A7CAF6",
"+.	c #A8CFF9",
"@.	c #ACD3FA",
"#.	c #AFD4FC",
"$.	c #97C6F6",
"%.	c #95C2F5",
"&.	c #93C2F5",
"*.	c #90C1F4",
"=.	c #94C2F4",
"-.	c #8EC0F4",
";.	c #8CBFF4",
">.	c #98C6F5",
",.	c #5DA7F6",
"'.	c #0347AB",
").	c #8EB1EA",
"!.	c #0051D3",
"~.	c #5197E9",
"{.	c #9DC6F6",
"].	c #97C2F5",
"^.	c #9BC9F7",
"/.	c #9ECCFA",
"(.	c #A0CEF9",
"_.	c #86B9F4",
":.	c #6FAAEC",
"<.	c #76ADEE",
"[.	c #77AFEE",
"}.	c #7EB3EF",
"|.	c #75ADEE",
"1.	c #74ACEE",
"2.	c #5297E7",
"3.	c #015FE5",
"4.	c #3F3F4F",
"5.	c #9A99AA",
"6.	c #FFFCFF",
"7.	c #3678D9",
"8.	c #025FD9",
"9.	c #559AEB",
"0.	c #8FBFF5",
"a.	c #8FC2F7",
"b.	c #93C7F9",
"c.	c #91C3F9",
"d.	c #619EEB",
"e.	c #5191E5",
"f.	c #5293E7",
"g.	c #5393E7",
"h.	c #5897E9",
"i.	c #2C77DD",
"j.	c #004EDC",
"k.	c #084091",
"l.	c #7F7F8E",
"m.	c #A7A7B8",
"n.	c #BABACA",
"o.	c #D4D4E2",
"p.	c #DEDEEC",
"q.	c #DBD9E3",
"r.	c #DCE3F2",
"s.	c #1665D9",
"t.	c #146CDD",
"u.	c #4693E9",
"v.	c #85C0F6",
"w.	c #8BC2F9",
"x.	c #8BC3F7",
"y.	c #8BC2F7",
"z.	c #4185E4",
"A.	c #2E76DE",
"B.	c #337AE1",
"C.	c #347CE1",
"D.	c #367DE2",
"E.	c #357DE2",
"F.	c #3E82E3",
"G.	c #3A7FE2",
"H.	c #0052D3",
"I.	c #0038CF",
"J.	c #0955C9",
"K.	c #CECEDB",
"L.	c #E3E1E5",
"M.	c #BFD0EE",
"N.	c #0454D5",
"O.	c #0036CC",
"P.	c #0048D1",
"Q.	c #2B78E2",
"R.	c #7EBCF6",
"S.	c #8BC8FA",
"T.	c #8EC9FA",
"U.	c #78B8F5",
"V.	c #2B75DE",
"W.	c #1F68DC",
"X.	c #1E68DC",
"Y.	c #1963DB",
"Z.	c #1964DB",
"`.	c #1A64DB",
" +	c #1A65DB",
".+	c #0958D5",
"++	c #0255D5",
"@+	c #0051D7",
"#+	c #0759D8",
"$+	c #C7C7D5",
"%+	c #FAFAFD",
"&+	c #E4E1E5",
"*+	c #B3CAEC",
"=+	c #0042CF",
"-+	c #0030C8",
";+	c #0031C9",
">+	c #002DC8",
",+	c #1B68DB",
"'+	c #77BAF6",
")+	c #8BCCFC",
"!+	c #91D0FD",
"~+	c #89C9FC",
"{+	c #8CCAFC",
"]+	c #3982E5",
"^+	c #0046D0",
"/+	c #014FD3",
"(+	c #024ED3",
"_+	c #0049D1",
":+	c #0041CF",
"<+	c #1968DC",
"[+	c #2373DE",
"}+	c #1568DE",
"|+	c #2171E3",
"1+	c #B4B4C9",
"2+	c #F0F0FA",
"3+	c #E2DDE3",
"4+	c #B9CEEB",
"5+	c #0043CC",
"6+	c #0037C9",
"7+	c #0033C8",
"8+	c #002FC7",
"9+	c #0028C3",
"0+	c #307DE2",
"a+	c #8FD3FF",
"b+	c #91D4FF",
"c+	c #99D8FF",
"d+	c #A7E4FF",
"e+	c #61A6F0",
"f+	c #003ACA",
"g+	c #0036C8",
"h+	c #0031C8",
"i+	c #002AC6",
"j+	c #2C78E2",
"k+	c #6DB5F5",
"l+	c #2D7CE2",
"m+	c #2F7EE4",
"n+	c #509BEF",
"o+	c #404051",
"p+	c #6C6C81",
"q+	c #8E8EA6",
"r+	c #A7A7BF",
"s+	c #D0CFDB",
"t+	c #D4DDEC",
"u+	c #044BCF",
"v+	c #0042CC",
"w+	c #0033C7",
"x+	c #0021BF",
"y+	c #044ED0",
"z+	c #82C7FA",
"A+	c #A0DEFF",
"B+	c #ACE5FF",
"C+	c #B5EAFF",
"D+	c #BEF0FF",
"E+	c #90C8FC",
"F+	c #1052D1",
"G+	c #0348CE",
"H+	c #0034C7",
"I+	c #0B56D4",
"J+	c #80C6FA",
"K+	c #559EEC",
"L+	c #236EDC",
"M+	c #66ACF5",
"N+	c #5197E4",
"O+	c #8B8A9A",
"P+	c #FAF9FA",
"Q+	c #2C67D1",
"R+	c #0446CE",
"S+	c #003FC9",
"T+	c #0243CC",
"U+	c #5EA4EF",
"V+	c #B0ECFF",
"W+	c #BEEFFF",
"X+	c #C1F4FF",
"Y+	c #C2F4FF",
"Z+	c #C7F6FF",
"`+	c #BAECFF",
" @	c #2C68D9",
".@	c #0846CC",
"+@	c #1D5CD5",
"@@	c #70B3F5",
"#@	c #A0E1FF",
"$@	c #5299EB",
"%@	c #0141C9",
"&@	c #0F52DB",
"*@	c #275CA3",
"=@	c #FFFAFF",
"-@	c #88A8DD",
";@	c #0038C9",
">@	c #4E81E1",
",@	c #8ACCFC",
"'@	c #AFEEFF",
")@	c #BFF4FF",
"!@	c #C8F7FF",
"~@	c #C9F9FF",
"{@	c #D5FFFF",
"]@	c #75ACF0",
"^@	c #2863D5",
"/@	c #8CC2F7",
"(@	c #C2F6FF",
"_@	c #74B7F6",
":@	c #70B3F4",
"<@	c #4074DB",
"[@	c #1155D9",
"}@	c #738FB7",
"|@	c #2F2D3D",
"1@	c #BAB9C6",
"2@	c #E5EAF2",
"3@	c #245FD1",
"4@	c #5389E4",
"5@	c #D1FAFF",
"6@	c #B1ECFF",
"7@	c #C7F7FF",
"8@	c #CAFAFF",
"9@	c #CEFAFF",
"0@	c #CFFAFF",
"a@	c #D0FCFF",
"b@	c #CCF9FF",
"c@	c #D1FFFF",
"d@	c #C8F9FF",
"e@	c #7DBAF6",
"f@	c #C1EBFF",
"g@	c #A4D8FF",
"h@	c #73ACEE",
"i@	c #D7D9EA",
"j@	c #515065",
"k@	c #6F6F80",
"l@	c #F2EEF2",
"m@	c #A3BADE",
"n@	c #2B68D9",
"o@	c #C6EAFF",
"p@	c #DCFFFF",
"q@	c #D1FCFF",
"r@	c #D4FCFF",
"s@	c #D5FCFF",
"t@	c #D5FDFF",
"u@	c #D3FDFF",
"v@	c #DDFFFF",
"w@	c #D8FDFF",
"x@	c #A2E1FF",
"y@	c #BFD3EA",
"z@	c #ADABBF",
"A@	c #151522",
"B@	c #ADAFC1",
"C@	c #E9E4EA",
"D@	c #94B5DE",
"E@	c #AFE9FF",
"F@	c #E3FFFF",
"G@	c #EBFFFF",
"H@	c #E9FFFF",
"I@	c #E2FFFF",
"J@	c #E7FFFF",
"K@	c #ECFFFF",
"L@	c #E1FFFF",
"M@	c #B0EAFF",
"N@	c #AAC8E9",
"O@	c #BCBAC8",
"P@	c #7F7F9B",
"Q@	c #6A6A7F",
"R@	c #9494A6",
"S@	c #ECECF4",
"T@	c #E2E2EA",
"U@	c #BCBACA",
"V@	c #E1DEE7",
"W@	c #A4C1E2",
"X@	c #B3E7FF",
"Y@	c #F2FFFF",
"Z@	c #B0E4FF",
"`@	c #ACC8E7",
" #	c #BFBECC",
".#	c #8A8AA2",
"+#	c #A4A4BE",
"@#	c #262634",
"##	c #5C5C6A",
"$#	c #D9D9E7",
"%#	c #BAB9C9",
"&#	c #E2E1E9",
"*#	c #BCC9DE",
"=#	c #A3C8EA",
"-#	c #5581DC",
";#	c #5378DB",
">#	c #7595E4",
",#	c #97B1EE",
"'#	c #8CA7EB",
")#	c #97B3EF",
"!#	c #BFDEFF",
"~#	c #C7ECFF",
"{#	c #ADD1EF",
"]#	c #BEC9E2",
"^#	c #BAB8C8",
"/#	c #8E8CA6",
"(#	c #CFCFDB",
"_#	c #ECECF2",
":#	c #70708C",
"<#	c #C8C8D9",
"[#	c #B0B0C6",
"}#	c #82829E",
"|#	c #D0CED9",
"1#	c #D9D9E9",
"2#	c #A4B3D8",
"3#	c #5E7AC6",
"4#	c #3656BA",
"5#	c #2E52BC",
"6#	c #2A4EBA",
"7#	c #3758BA",
"8#	c #738ECF",
"9#	c #C2CCE3",
"0#	c #D0CFDE",
"a#	c #9E9BB0",
"b#	c #7E7E9B",
"c#	c #C2C2D3",
"d#	c #E1E1E9",
"e#	c #E3E3EB",
"f#	c #B5B5C9",
"g#	c #33334B",
"h#	c #C1C1D3",
"i#	c #EFEFF6",
"j#	c #A2A2BA",
"k#	c #43435D",
"l#	c #6C6A7D",
"m#	c #B5B3C2",
"n#	c #D0CCD3",
"o#	c #D3D1D7",
"p#	c #C9C9D3",
"q#	c #C9C8D1",
"r#	c #CECCD4",
"s#	c #BFBCC9",
"t#	c #8E8CA1",
"u#	c #38384B",
"v#	c #35353F",
"w#	c #8C8CA3",
"x#	c #BEBED0",
"y#	c #E5E5EC",
"z#	c #C3C3D4",
"A#	c #41415E",
"B#	c #B4B4C7",
"C#	c #D5D5E5",
"D#	c #6E6E89",
"E#	c #121221",
"F#	c #9595AF",
"G#	c #AFAFC1",
"H#	c #B0AFC1",
"I#	c #9898B0",
"J#	c #474762",
"K#	c #4F4F65",
"L#	c #9E9EB7",
"M#	c #8B8BA7",
"N#	c #B3B3C2",
"O#	c #313146",
"P#	c #A1A1B5",
"Q#	c #F2F2F6",
"R#	c #F4F4F7",
"S#	c #BABACF",
"T#	c #242437",
"U#	c #1B1B2A",
"V#	c #30304B",
"W#	c #414152",
"X#	c #ECECF9",
"Y#	c #818197",
"Z#	c #DEDEEA",
"`#	c #EEEEF4",
" $	c #9494AD",
".$	c #2B2B3A",
"+$	c #545466",
"@$	c #EAEAF2",
"#$	c #6E6E8B",
"$$	c #2E2E3E",
"%$	c #C2C2D9",
"&$	c #C7C7DC",
"*$	c #474763",
"=$	c #21212D",
"-$	c #1A1A27",
";$	c #181825",
"                                                                ",
"      . + @ #                                                   ",
"      $ % & * = -                                               ",
"        ; > > > , '                                             ",
"        ) > > > > ! ~ { ]     ^ / ( _                           ",
"          : > > > < [ } | 1 2 3 4 5 6 7 8 9                     ",
"          0 a > b c d e f g h i j k l m h n o                   ",
"            p q r s t u v w x y z A A B A C D E                 ",
"            F G H I J K L M N O P Q Q R R S T U V               ",
"            W X Y Z `  ...+.@.#.$.%.&.*.=.-.;.>.,.'.            ",
"            > ).!.~.{.].^./.(._.:.<.[.}.|.:.:.1.2.3.            ",
"        4.5.6.7.8.9.0.a.b.c.d.e.f.f.f.f.f.g.f.h.i.j.k.          ",
"l.m.n.o.p.q.r.s.t.u.v.w.x.y.z.A.B.C.D.E.E.D.F.G.H.I.J.          ",
"K.> > > > L.M.N.O.P.Q.R.S.T.U.V.W.X.Y.Z.`. +W..+++@+#+          ",
"$+> > > %+&+*+=+-+;+>+,+'+)+!+~+{+]+^+/+(+_+:+<+[+}+|+          ",
"1+2+> > > 3+4+5+6+7+8+9+0+a+b+c+d+e+f+g+h+i+j+k+l+m+n+          ",
"  o+p+q+r+s+t+u+v+w+x+y+z+A+B+C+D+E+F+G+H+I+J+K+L+M+N+          ",
"          O+P+Q+R+S+T+U+V+W+X+Y+Z+`+ @.@+@@@#@$@%@&@*@          ",
"            =@-@;@>@,@'@)@Z+!@~@~@{@]@^@/@(@_@:@<@[@}@|@        ",
"            1@2@3@4@5@6@7@8@9@0@0@a@b@Z+c@d@e@f@g@h@i@j@        ",
"            k@l@m@n@o@p@q@0@a@r@s@r@t@u@9@a@v@w@x@y@z@A@        ",
"            B@n.C@D@E@F@G@H@F@F@I@I@I@I@J@K@L@M@N@O@P@Q@        ",
"          R@S@T@U@V@W@X@L@g > > > > > > Y@p@Z@`@ #.#K.+#@#      ",
"        ##$#> > + %#&#*#=#-#;#>#,#'#)#!#~#{#]#^#/#(#_#% :#      ",
"        <#> > > > [#}#|#1#2#3#4#5#6#7#8#9#0#a#b#c#_#d#e#f#g#    ",
"        h#> > i#j#k#    l#m#n#o#p#q#r#s#t#u#  v#w#x#d#y#z#A#    ",
"          B#C#D#E#          F#G#H#H#I#J#          K#L#x#M#N#    ",
"            O#              P#i#Q#R#S#T#            U#V#W#X#w#  ",
"                            Y#Z#`#_# $                    .$    ",
"                            +$& R#@$#$                          ",
"                            $$%$p.&$*$                          ",
"                              =$-$;$                            "};
