/* XPM */
static char * mail_xpm[] = {
"32 32 119 2",
"  	c None",
". 	c #FFFFFF",
"+ 	c #FEFEFE",
"@ 	c #F9F9F9",
"# 	c #E4E4E6",
"$ 	c #DBDCDE",
"% 	c #DFDFE1",
"& 	c #E1E1E3",
"* 	c #E6E6E8",
"= 	c #93949A",
"- 	c #707179",
"; 	c #7D7E85",
"> 	c #83848B",
", 	c #83838A",
"' 	c #82838A",
") 	c #DCDCDD",
"! 	c #929298",
"~ 	c #65666E",
"{ 	c #54555F",
"] 	c #4E4F59",
"^ 	c #52535D",
"/ 	c #54555E",
"( 	c #F8F8F7",
"_ 	c #E4E1E0",
": 	c #DDDBDA",
"< 	c #E7E6E7",
"[ 	c #C1C2C6",
"} 	c #6C6D76",
"| 	c #484954",
"1 	c #565760",
"2 	c #5C5D66",
"3 	c #5B5C65",
"4 	c #F5F4F4",
"5 	c #D7D3D3",
"6 	c #DAD6D4",
"7 	c #FFFDFC",
"8 	c #ECEBEC",
"9 	c #9E9FA4",
"0 	c #60616A",
"a 	c #595A64",
"b 	c #5D5E67",
"c 	c #5F6069",
"d 	c #F6F5F5",
"e 	c #DBD8D7",
"f 	c #D2CDCC",
"g 	c #DCD8D7",
"h 	c #E4E2E1",
"i 	c #C5C6C9",
"j 	c #4C4D57",
"k 	c #F7F6F6",
"l 	c #DDDAD9",
"m 	c #CECAC9",
"n 	c #CCC7C6",
"o 	c #DDD9D8",
"p 	c #FFFEFD",
"q 	c #ECECED",
"r 	c #A1A1A7",
"s 	c #72737B",
"t 	c #CFCBCA",
"u 	c #D0CCCB",
"v 	c #D4D0CF",
"w 	c #DCD9D7",
"x 	c #E6E4E3",
"y 	c #F3F2F2",
"z 	c #CCCCCF",
"A 	c #4B4D57",
"B 	c #D2CECD",
"C 	c #D1CDCB",
"D 	c #D9D6D5",
"E 	c #EAE9EA",
"F 	c #D5D5D8",
"G 	c #98999F",
"H 	c #585962",
"I 	c #D0CBCA",
"J 	c #D1CDCC",
"K 	c #D7D2D1",
"L 	c #DFDBD8",
"M 	c #C5C2C2",
"N 	c #87878E",
"O 	c #8D8E95",
"P 	c #CCCDD0",
"Q 	c #73747C",
"R 	c #464852",
"S 	c #DDD9D9",
"T 	c #D6D2D1",
"U 	c #C4C1C1",
"V 	c #A3A1A4",
"W 	c #706F76",
"X 	c #F2F1F1",
"Y 	c #74767D",
"Z 	c #F6F6F6",
"` 	c #DCD9D8",
" .	c #D4D0CE",
"..	c #E0DBD9",
"+.	c #807F85",
"@.	c #75757C",
"#.	c #E3E0E0",
"$.	c #E2E2E3",
"%.	c #E2E3E5",
"&.	c #F8F7F7",
"*.	c #E1DEDC",
"=.	c #CFCAC9",
"-.	c #C3BFC0",
";.	c #A5A3A6",
">.	c #F7F5F5",
",.	c #FBFAF9",
"'.	c #EBE7E5",
").	c #C1BDBD",
"!.	c #7E7E84",
"~.	c #D4D1D0",
"{.	c #E1DEDD",
"].	c #F3F2F3",
"^.	c #CDCACB",
"/.	c #A19FA1",
"(.	c #73737A",
"_.	c #6F6F76",
":.	c #E4E4E5",
"<.	c #909298",
"[.	c #F8F8F9",
"                                                                ",
"                                                                ",
"                                                                ",
"                                                                ",
"                                                                ",
"                                                                ",
"    . . + . . . . . . . . . . . . . . . . . . . . . . + . .     ",
"    . . . @ # $ % & & & & & & & & & & & & & & % $ # @ . . .     ",
"    . . . * = - ; > , ' ' ' ' ' ' ' ' ' ' , > ; - = * . . .     ",
"    . . . ) ! ~ { ] ^ { { / / / / / / { { ^ ] { ~ ! ) . . .     ",
"    . ( _ : < [ } | 1 2 2 3 3 3 3 3 3 2 2 1 | } [ < : _ ( .     ",
"    . 4 5 6 7 8 9 - 0 a b c c c c c c b a 0 - 9 8 7 6 5 4 .     ",
"    . d e f g h 8 i - j a 0 c c c c 0 a j - i 8 h g f e d .     ",
"    . k l m n o p q r s 0 a b c c b a 0 s r q p o n m l k .     ",
"    . k l t u v w x y z s A a 0 0 a A s z y x w v u t l k .     ",
"    . k l u B B C D E F G s 0 H H 0 s G F E D C B B u l k .     ",
"    . k l I J K L M N O F P Q R R Q P F O N M L K J I l k .     ",
"    . k S J T B U V W N E X 9 Y Y 9 X E N W V U B T J S k .     ",
"    . Z `  ...U +.@.V M D #.$.%.%.$.#.D M V @.+.U .. .` Z .     ",
"    . &.*.=.-.;.@.+.U L C D >.. . >.D C L U +.@.;.-.=.*.&..     ",
"    . ,.'.).!.@.;.U B K B ~.o {.{.o ~.B K B U ;.@.!.).'.,..     ",
"    . ].^./.(.!.-...T J B J I =.=.I J B J T ..-.!.(./.^.]..     ",
"    . & N _./.).=. .J I u I t =.=.t I u I J  .=.)./._.N & .     ",
"    . :.<.N ^.'.*.` S l l l l l l l l l l S ` *.'.^.N <.:..     ",
"    . [.:.& ].,.&.Z k k k k k k k k k k k k Z &.,.].& :.[..     ",
"    + . . . . . . . . . . . . . . . . . . . . . . . . . . +     ",
"                                                                ",
"                                                                ",
"                                                                ",
"                                                                ",
"                                                                ",
"                                                                "};
