/* XPM */
static char *midori[] = {
/* columns rows colors chars-per-pixel */
"16 14 134 2",
"   c #245204",
".  c #275307",
"X  c #295508",
"o  c #2E5A0D",
"O  c #305C0F",
"+  c #315D10",
"@  c #2B6700",
"#  c #2C6503",
"$  c #2B6304",
"%  c #2D6306",
"&  c #2D6405",
"*  c #2E6506",
"=  c #2B6800",
"-  c #2C6A00",
";  c #2D6803",
":  c #2F6E02",
">  c #35670F",
",  c #326B08",
"<  c #336F08",
"1  c #346F09",
"2  c #346C0B",
"3  c #356A0F",
"4  c #356C0D",
"5  c #357307",
"6  c #347208",
"7  c #37750B",
"8  c #38750B",
"9  c #377808",
"0  c #3B7D0C",
"q  c #356013",
"w  c #376316",
"e  c #3E6B1A",
"r  c #3D7612",
"t  c #40701C",
"y  c #467223",
"u  c #477324",
"i  c #497625",
"p  c #408110",
"a  c #418410",
"s  c #438413",
"d  c #428114",
"f  c #478815",
"g  c #49881B",
"h  c #4E8F1E",
"j  c #4F8526",
"k  c #518A25",
"l  c #52832C",
"z  c #53852C",
"x  c #569427",
"c  c #559128",
"v  c #569029",
"b  c #5A8636",
"n  c #5B8736",
"m  c #61903B",
"M  c #66A137",
"N  c #6CA73D",
"B  c #73D216",
"V  c #75D319",
"C  c #77D31D",
"Z  c #78D31D",
"A  c #79D41F",
"S  c #7BD522",
"D  c #7DD627",
"F  c #669241",
"G  c #689840",
"H  c #699841",
"J  c #6FA641",
"K  c #6FA840",
"L  c #79AB4F",
"P  c #81D72B",
"I  c #84D831",
"U  c #87DA36",
"Y  c #8CDC3E",
"T  c #80AC59",
"R  c #82B258",
"E  c #84B759",
"W  c #86B85B",
"Q  c #87BC5A",
"!  c #8EBD64",
"~  c #8AD444",
"^  c #8FDC42",
"/  c #92DE48",
"(  c #96DF4D",
")  c #94D750",
"_  c #99E153",
"`  c #9BE155",
"'  c #90C264",
"]  c #95C36B",
"[  c #96C26D",
"{  c #9CDA60",
"}  c #9AC671",
"|  c #9CCA73",
" . c #A4DF68",
".. c #A5DE6E",
"X. c #A1CE78",
"o. c #A1D077",
"O. c #A2D376",
"+. c #A9DE74",
"@. c #A6D67A",
"#. c #A7D37D",
"$. c #AAD77F",
"%. c #AEDF7E",
"&. c #A1E360",
"*. c #A8E26F",
"=. c #AAE56F",
"-. c #ACE872",
";. c #B2E97A",
":. c #B3EA7C",
">. c #B3EA7D",
",. c #ADDC80",
"<. c #B5E583",
"1. c #B2E284",
"2. c #B3E384",
"3. c #B3E485",
"4. c #B5E784",
"5. c #B7EB83",
"6. c #B7EB87",
"7. c #B9EC85",
"8. c #B9ED86",
"9. c #B8E68B",
"0. c #B8E989",
"q. c #BBEB8B",
"w. c #BCEA8D",
"e. c #BCEB8D",
"r. c #BDEB8F",
"t. c #BDEE8D",
"y. c #BDE991",
"u. c #C1EE93",
"i. c #C0EC94",
"p. c #C0ED94",
"a. c #C2F097",
"s. c #C4F098",
"d. c #C5F199",
"f. c None",
/* pixels */
"f.f.f.f.f.f.f.f.d 6 = @ , f.f.f.",
"f.f.f.f.f.f.s g J 8 6 f.f.$ f.f.",
"f.f.f.f.h 0 Q ,.6 f.f.f.* 3 z f.",
"f.f.f.a M 2.e.8 f.f.f.* ! G l f.",
"f.f.f K e.*.' - f.; 3 O.d.H e f.",
"f.f.x 6.{  .@.# 4 L y.` 8.m f.f.",
"f.p O...) ~ =.s.d.5.^ B t.e f.f.",
"f.g e.<.2.U B S D B B A p.  f.f.",
"f.c u.N E / D +.&.B B I | + f.f.",
"f.c a.7 9.S >.+ ;.B B ) T w f.f.",
"f.k d.: 0.A $.+ ;.B B ;.b f.f.f.",
"f.r W 1 4.V } y -.B D ,.X f.f.f.",
"f.f.j % ] Y 4.. 0.` 0.u u f.f.f.",
"f.f.f.R 3 | y.i n [ F O f.f.f.f."
};
