/* XPM */
static char *mozilla2[] = {
/* width height num_colors chars_per_pixel */
"    16    14       80            2",
/* colors */
".. c #182838",
".# c #202420",
".a c #202830",
".b c #202c38",
".c c #182c40",
".d c #202c40",
".e c #203040",
".f c #203448",
".g c #203848",
".h c #283440",
".i c #283848",
".j c #203850",
".k c #283c50",
".l c #284050",
".m c #284458",
".n c #304050",
".o c #304458",
".p c #304c60",
".q c #385068",
".r c #305070",
".s c #385470",
".t c #385c78",
".u c #405870",
".v c #406078",
".w c #285480",
".x c #406088",
".y c #406888",
".z c #486480",
".A c #486888",
".B c #406c98",
".C c #506c80",
".D c #506c88",
".E c #507088",
".F c #587488",
".G c #507090",
".H c #587898",
".I c #4070a0",
".J c None",
".K c #4878a8",
".L c #487cb0",
".M c #4880b0",
".N c #5880a0",
".O c #5884a8",
".P c #688098",
".Q c #6080a0",
".R c #6084a8",
".S c #6088a8",
".T c #6888a8",
".U c #688cb0",
".V c #6890b0",
".W c #708ca8",
".X c #7090b0",
".Y c #7094b8",
".Z c #7098b8",
".0 c #7898b0",
".1 c #5890c0",
".2 c #7098c0",
".3 c #789cc0",
".4 c #78a0c8",
".5 c #78b0e8",
".6 c #809cb8",
".7 c #80a0c0",
".8 c #88acc8",
".9 c #80acd0",
"#. c #90acc0",
"## c #90acc8",
"#a c #90b0c8",
"#b c #90b4d0",
"#c c #90b4d8",
"#d c #98bcd8",
"#e c #88bcf0",
"#f c #90bce0",
"#g c #a0bcd8",
"#h c #a0c4e0",
"#i c #a8c8e8",
"#j c #b8dcf8",
"#k c #c0e0f8",
"#l c #c0e8f8",
"#m c #c8e8f8",
"#n c #b0c0d8",
/* pixels */
".J.J#n#n#n#n#n#n#n#n#n#n#n#n.J.J",
".J#n#n.4.Z.V.U.T.S.S.Q.H.D#n#n.J",
".J#n.9.4.Y.U.R.R.Q.H.H.A.v.p#n.J",
".J#n.3.2.U.R.H.H.H.O.H.y.q.l#n.J",
".J#n.Y#c#j#m#l#j#l#f#l.S.p.g#n.J",
".J#n.V.S.4#k.T.0#i.Z.Z.7.m.e#n.J",
".J#n.U.R#b#b.C.0#a.y.X.W.l.c#n.J",
".J#n.U.R#i.X.A##.W.y.8.G.l.c#n.J",
".J#n.S.Q#k.G.z#g.E.x#d.r.k..#n.J",
".J#n.R.T#h.z.C#..s.A.8.m.g..#n.J",
".J#n.N.0.6.u.F.P.q.E.H.j.e..#n.J",
".J#n.G.z.s.p.o.m.l.k.g.e.b..#n.J",
".J#n#n.q.o.g.f.e.e.c.c....#n#n.J",
".J.J#n#n#n#n#n#n#n#n#n#n#n#n.J.J"
};
