/* XPM */
static char * opera_xpm[] = {
"32 32 139 2",
"  	c None",
". 	c #9E0002",
"+ 	c #B50000",
"@ 	c #BE0001",
"# 	c #C60001",
"$ 	c #CC0001",
"% 	c #D70000",
"& 	c #910001",
"* 	c #A30001",
"= 	c #AB0002",
"- 	c #A80002",
"; 	c #930001",
"> 	c #8A0002",
", 	c #B10002",
"' 	c #B70000",
") 	c #790002",
"! 	c #710000",
"~ 	c #260002",
"{ 	c #310001",
"] 	c #6A0001",
"^ 	c #A30003",
"/ 	c #AB0003",
"( 	c #BA0100",
"_ 	c #7A0001",
": 	c #9C0700",
"< 	c #2A0001",
"[ 	c #AC0001",
"} 	c #660003",
"| 	c #B40002",
"1 	c #B80002",
"2 	c #AA0002",
"3 	c #AA0000",
"4 	c #3C0000",
"5 	c #A70003",
"6 	c #A90600",
"7 	c #DB0900",
"8 	c #C40002",
"9 	c #B70300",
"0 	c #3D0002",
"a 	c #730001",
"b 	c #730700",
"c 	c #F32300",
"d 	c #EF1B00",
"e 	c #C50002",
"f 	c #BA0000",
"g 	c #5A0001",
"h 	c #A90002",
"i 	c #A70001",
"j 	c #910900",
"k 	c #F72900",
"l 	c #F32200",
"m 	c #C80600",
"n 	c #4D0000",
"o 	c #990001",
"p 	c #A90001",
"q 	c #560000",
"r 	c #F92400",
"s 	c #D51300",
"t 	c #470001",
"u 	c #740B00",
"v 	c #450001",
"w 	c #A80003",
"x 	c #940C00",
"y 	c #FC2700",
"z 	c #410000",
"A 	c #970100",
"B 	c #E90500",
"C 	c #E50A00",
"D 	c #EE1100",
"E 	c #F21B00",
"F 	c #3F0000",
"G 	c #980000",
"H 	c #D10002",
"I 	c #C90002",
"J 	c #D30200",
"K 	c #3C0002",
"L 	c #900100",
"M 	c #C20001",
"N 	c #BC0002",
"O 	c #3D0000",
"P 	c #8B0002",
"Q 	c #B20002",
"R 	c #AD0004",
"S 	c #08000F",
"T 	c #B80001",
"U 	c #4B0200",
"V 	c #950002",
"W 	c #7D0001",
"X 	c #D40002",
"Y 	c #310008",
"Z 	c #C61600",
"` 	c #D40001",
" .	c #CB0001",
"..	c #C20003",
"+.	c #5F0000",
"@.	c #2A000A",
"#.	c #C01900",
"$.	c #FD2B00",
"%.	c #DA0200",
"&.	c #C80000",
"*.	c #400004",
"=.	c #330007",
"-.	c #FC2C00",
";.	c #FB2000",
">.	c #1C0009",
",.	c #8B0000",
"'.	c #BE0300",
").	c #440005",
"!.	c #000214",
"~.	c #630000",
"{.	c #B10001",
"].	c #5A0400",
"^.	c #F12400",
"/.	c #240006",
"(.	c #830800",
"_.	c #FF2900",
":.	c #4C0001",
"<.	c #1C000D",
"[.	c #08000C",
"}.	c #000A1E",
"|.	c #5C0003",
"1.	c #0D000B",
"2.	c #540004",
"3.	c #A30000",
"4.	c #E81C00",
"5.	c #410002",
"6.	c #C30000",
"7.	c #B60001",
"8.	c #B20400",
"9.	c #000416",
"0.	c #16000B",
"a.	c #410004",
"b.	c #920001",
"c.	c #830001",
"d.	c #750300",
"e.	c #1A0009",
"f.	c #2B0007",
"g.	c #340006",
"h.	c #360007",
"                                                                ",
"                                                                ",
"                                  . + @ # $ %                   ",
"                              & * = - ; > ; = , '               ",
"                          ) * = = * ! ~ ~ { ] ^ / - (           ",
"                        _ = , = = :         < ] = = - [         ",
"                      } | 1 , 2 3             4 ; , = - 5       ",
"                      6 7 8 1 , 9             0 a = = 2 *       ",
"                    b c d 7 e f                 g * = = h i     ",
"                    j   k l 7 m                 n o = = - p     ",
"                  q         r s                 t o = = = - h   ",
"                  u                             v ; = = = h w   ",
"                  x r r y                       z > , = = - 3   ",
"                  A B C D E r                   F > , = = 2 h   ",
"                  G H I H H J                   K > , , = 2 2   ",
"                  L M N N N N                   O P 1 Q Q = R   ",
"                S > T Q Q , ,                   U V e N N Q Q   ",
"                  W , = = = =                   0 6 X I 8 M T   ",
"                  ! | = = ^ -                   Y Z D 7 `  ...  ",
"                  +.= = = = h                   @.#.$.E C %.&.  ",
"                  *.- = = = h                   =.    -.;.D     ",
"                  >.,., = = - '.                ).      $.c     ",
"                  !.~., = = h {.                ].^.            ",
"                    /.; = = 2 p               !.(._.            ",
"                    !.:.= , 2 -               <.6 ;.y           ",
"                      [.] | = - {.          }.|.H D _.          ",
"                        1.~.= | 2 9         2.3.X C 4.          ",
"                          [.5.> 2 Q ( 6.7.3., M e 8.            ",
"                            9.0.a.] ,.; o o b.c.d.              ",
"                                    e.f.g.h.                    ",
"                                                                ",
"                                                                "};
