/* XPM */
static char * ram_xpm[] = {
"32 32 212 2",
"  	c None",
". 	c #595959",
"+ 	c #616161",
"@ 	c #717172",
"# 	c #79797A",
"$ 	c #777777",
"% 	c #797978",
"& 	c #7E7E7D",
"* 	c #6F6F6F",
"= 	c #4D4D4D",
"- 	c #707070",
"; 	c #7E7E7E",
"> 	c #787878",
", 	c #5A5A5A",
"' 	c #626262",
") 	c #8E8E8F",
"! 	c #9C9C9D",
"~ 	c #999999",
"{ 	c #99999A",
"] 	c #9E9E9F",
"^ 	c #858585",
"/ 	c #4E4E4E",
"( 	c #4F4F4F",
"_ 	c #898989",
": 	c #A2A2A3",
"< 	c #9B9B9C",
"[ 	c #989899",
"} 	c #8B8B8B",
"| 	c #6E6F6F",
"1 	c #747475",
"2 	c #909091",
"3 	c #CBCBCC",
"4 	c #E7E7E8",
"5 	c #DFDFE1",
"6 	c #DEDEE0",
"7 	c #E3E3E5",
"8 	c #B3B3B5",
"9 	c #525252",
"0 	c #BFBFBE",
"a 	c #EFEFEF",
"b 	c #E3E3E4",
"c 	c #E0E1E2",
"d 	c #C3C4C5",
"e 	c #8B8B8C",
"f 	c #717171",
"g 	c #7C7C7D",
"h 	c #9F9FA0",
"i 	c #E9E9EA",
"j 	c #FFFFFF",
"k 	c #C8C8CB",
"l 	c #555554",
"m 	c #DADAD9",
"n 	c #DDDEE0",
"o 	c #777778",
"p 	c #7A7A7B",
"q 	c #FBFBFC",
"r 	c #F6F7F8",
"s 	c #F7F8FB",
"t 	c #BFBFC3",
"u 	c #4E4E4F",
"v 	c #555555",
"w 	c #D6D6D5",
"x 	c #F8F8FA",
"y 	c #F8F8FC",
"z 	c #D4D5D9",
"A 	c #929294",
"B 	c #737374",
"C 	c #DFDFE0",
"D 	c #FEFEFF",
"E 	c #F4F3F5",
"F 	c #EFEFF1",
"G 	c #F0F0F5",
"H 	c #BABBBE",
"I 	c #4D4D4E",
"J 	c #565555",
"K 	c #D3D3D3",
"L 	c #F9F9FA",
"M 	c #F0F0F3",
"N 	c #EFEFF4",
"O 	c #CECED2",
"P 	c #8F8F92",
"Q 	c #727273",
"R 	c #DDDDDF",
"S 	c #FAFAFD",
"T 	c #ECECEF",
"U 	c #E7E7EB",
"V 	c #ECECF2",
"W 	c #B9B9BE",
"X 	c #D2D1D2",
"Y 	c #F3F3F6",
"Z 	c #E8E9ED",
"` 	c #E8E8ED",
" .	c #C9C9CD",
"..	c #757575",
"+.	c #DADADC",
"@.	c #F5F5F8",
"#.	c #E5E5EA",
"$.	c #E1E2E7",
"%.	c #EAEAF0",
"&.	c #B8B8BD",
"*.	c #D0D0D1",
"=.	c #ECEDF1",
"-.	c #E1E2E8",
";.	c #C5C5CA",
">.	c #8F8F91",
",.	c #767676",
"'.	c #7A7A7A",
").	c #979798",
"!.	c #D5D5D8",
"~.	c #EFEFF3",
"{.	c #E0E0E5",
"].	c #DDDEE4",
"^.	c #E8E8EE",
"/.	c #CECECF",
"(.	c #FEFFFF",
"_.	c #E6E7EC",
":.	c #DBDCE3",
"<.	c #DCDDE5",
"[.	c #C2C2C9",
"}.	c #969697",
"|.	c #D0D0D4",
"1.	c #E9E9EE",
"2.	c #DCDDE3",
"3.	c #DBDCE2",
"4.	c #E6E7ED",
"5.	c #B7B8BC",
"6.	c #CBCBCD",
"7.	c #FAFBFE",
"8.	c #E3E4E9",
"9.	c #D8D9E0",
"0.	c #D9DBE3",
"a.	c #C0C1C7",
"b.	c #8E8E91",
"c.	c #777677",
"d.	c #949496",
"e.	c #CBCCD0",
"f.	c #E4E5EA",
"g.	c #D9DAE1",
"h.	c #DADBE2",
"i.	c #E5E6EC",
"j.	c #B6B7BC",
"k.	c #545454",
"l.	c #C7C7CA",
"m.	c #F6F7FB",
"n.	c #D7D8DF",
"o.	c #D8D9E2",
"p.	c #BFC0C6",
"q.	c #8E8E90",
"r.	c #939496",
"s.	c #C9CACF",
"t.	c #E2E3E9",
"u.	c #D9DAE2",
"v.	c #DADBE3",
"w.	c #E5E6ED",
"x.	c #535353",
"y.	c #C5C5C9",
"z.	c #F4F5FA",
"A.	c #E1E1E8",
"B.	c #D7D8E0",
"C.	c #BFC0C7",
"D.	c #797A7A",
"E.	c #CACBD1",
"F.	c #E4E5EC",
"G.	c #DBDCE4",
"H.	c #E6E7F0",
"I.	c #B6B7BD",
"J.	c #4E4F4F",
"K.	c #C4C5C9",
"L.	c #F4F5FC",
"M.	c #E2E3EB",
"N.	c #D9DAE3",
"O.	c #DADBE5",
"P.	c #C0C1C9",
"Q.	c #707171",
"R.	c #858688",
"S.	c #B2B3B8",
"T.	c #C7C8CE",
"U.	c #C0C1C8",
"V.	c #C1C2C9",
"W.	c #C9CAD1",
"X.	c #A3A4A9",
"Y.	c #515251",
"Z.	c #ADADB1",
"`.	c #D3D4DA",
" +	c #C6C6CD",
".+	c #BFC0C9",
"++	c #AAABB2",
"@+	c #838385",
"#+	c #606161",
"$+	c #6C6C6D",
"%+	c #848487",
"&+	c #909093",
"*+	c #8C8D90",
"=+	c #8E8F91",
"-+	c #7E7E80",
";+	c #818183",
">+	c #979799",
",+	c #909092",
"'+	c #8C8C8F",
")+	c #8D8D90",
"!+	c #818184",
"~+	c #6B6C6C",
"{+	c #606060",
"]+	c #6F6E70",
"^+	c #767677",
"/+	c #747575",
"(+	c #757677",
"_+	c #6D6D6D",
":+	c #4E4D4E",
"<+	c #757476",
"[+	c #6D6E6F",
"}+	c #595A5A",
"                                                                ",
"                                                                ",
"                                                                ",
"                                                                ",
"                                                                ",
"                                                                ",
"                                                                ",
"                                                                ",
"            . + @ # $ % & * = = - ; # $ > - + ,                 ",
"            ' - ) ! ~ { ] ^ / ( _ : < [ { } | +                 ",
"            1 2 3 4 5 6 7 8 ( 9 0 a b 6 c d e f                 ",
"            g h i j j j j k ( l m j j j j n [ o                 ",
"            p < b j q r s t u v w j j x y z A B                 ",
"            # { C D E F G H I J K j L M N O P Q                 ",
"            # { R S T U V W I v X j Y Z `  .2 ..                ",
"            # [ +.@.#.$.%.&.I v *.j =.-.-.;.>.,.                ",
"            '.).!.~.{.].^.&./ l /.(._.:.<.[.>.,.                ",
"            '.}.|.1.2.3.4.5./ l 6.7.8.9.0.a.b.c.                ",
"            p d.e.f.g.h.i.j.u k.l.m.-.n.o.p.q.$                 ",
"            p r.s.t.u.v.w.j.u x.y.z.A.B.o.C.b.$                 ",
"            D.r.E.F.G.<.H.I.J.x.K.L.M.N.O.P.P >                 ",
"            Q.R.S.T.U.V.W.X.u Y.Z.`. +C..+++@+-                 ",
"            #+$+%+&+*+=+r.-+/ ( ;+>+,+'+)+!+~++                 ",
"            . {+]+^+/+(+p _+:+I _+p ,.1 <+[+#+}+                ",
"                                                                ",
"                                                                ",
"                                                                ",
"                                                                ",
"                                                                ",
"                                                                ",
"                                                                ",
"                                                                "};
