/* XPM */
static char * skype_xpm[] = {
"32 32 422 2",
"  	c None",
". 	c #229DD3",
"+ 	c #23A2DA",
"@ 	c #26AAE4",
"# 	c #24A5DE",
"$ 	c #249FD5",
"% 	c #219BD3",
"& 	c #38B0E8",
"* 	c #92D3F2",
"= 	c #C6EAF8",
"- 	c #DEF1FD",
"; 	c #96D5F2",
"> 	c #48B7E9",
", 	c #24A7E4",
"' 	c #23A0D7",
") 	c #1D93C8",
"! 	c #1E9BD3",
"~ 	c #6AC3EB",
"{ 	c #C9EBF8",
"] 	c #C2E6F8",
"^ 	c #B7E0F6",
"/ 	c #B1DFF6",
"( 	c #B2E0F6",
"_ 	c #BFE4F8",
": 	c #CFEBFB",
"< 	c #D8EFFA",
"[ 	c #DEF1FA",
"} 	c #DEF3FD",
"| 	c #D4EFFA",
"1 	c #B5E0F6",
"2 	c #82CBEF",
"3 	c #50B8E9",
"4 	c #1EA0DD",
"5 	c #1D91C7",
"6 	c #1892C9",
"7 	c #78CAEF",
"8 	c #C5E8F8",
"9 	c #AEDEF6",
"0 	c #A0D9F4",
"a 	c #9BD5F2",
"b 	c #99D4F2",
"c 	c #94D3F2",
"d 	c #8ACEF0",
"e 	c #85CDEF",
"f 	c #84CDF3",
"g 	c #88CDF3",
"h 	c #8AD0F3",
"i 	c #A0D9F2",
"j 	c #BDE4F8",
"k 	c #55BBE9",
"l 	c #1B9BD9",
"m 	c #38ACE4",
"n 	c #A5D9F2",
"o 	c #97D4F0",
"p 	c #93D3F0",
"q 	c #7BC8EC",
"r 	c #5EBDE8",
"s 	c #69C1E9",
"t 	c #C6E8F8",
"u 	c #C8E8F8",
"v 	c #A0D7F2",
"w 	c #71C6EB",
"x 	c #81CAEC",
"y 	c #AADAF3",
"z 	c #C9EAF8",
"A 	c #8DD0F0",
"B 	c #1D9CDB",
"C 	c #1080BA",
"D 	c #82CBF0",
"E 	c #A4D7F4",
"F 	c #91D1F0",
"G 	c #8ED0F0",
"H 	c #67C0EB",
"I 	c #63BFE9",
"J 	c #C5E6F8",
"K 	c #FFFFFF",
"L 	c #AEDBF3",
"M 	c #59BBE8",
"N 	c #8BCEEF",
"O 	c #B8E0F6",
"P 	c #A4D9F2",
"Q 	c #1698D9",
"R 	c #0E8CCE",
"S 	c #A2D7F4",
"T 	c #92D0F0",
"U 	c #8ACDEF",
"V 	c #79C6EB",
"W 	c #53B5E5",
"X 	c #EDF8FD",
"Y 	c #F5FCFF",
"Z 	c #C2E4F6",
"` 	c #55B7E5",
" .	c #94D0F0",
"..	c #B1DEF3",
"+.	c #0E8DCF",
"@.	c #0D90D9",
"#.	c #9BD3F2",
"$.	c #84CAEF",
"%.	c #83C8EF",
"&.	c #51B3E8",
"*.	c #A6D7F2",
"=.	c #F5FAFF",
"-.	c #D5EBFB",
";.	c #96D0F0",
">.	c #5EB9E9",
",.	c #8ACBF0",
"'.	c #81C8EF",
").	c #60B9E9",
"!.	c #91CEF0",
"~.	c #B2DEF6",
"{.	c #3EA9E4",
"].	c #0771AD",
"^.	c #088AD0",
"/.	c #90CDF0",
"(.	c #7AC3EC",
"_.	c #7EC6EC",
":.	c #32A4E1",
"<.	c #EAF5FD",
"[.	c #4CB0E5",
"}.	c #6DBFEB",
"|.	c #A0D4F2",
"1.	c #69BDE9",
"2.	c #84C8EF",
"3.	c #AEDAF3",
"4.	c #45ACE4",
"5.	c #80C7EC",
"6.	c #92CEF0",
"7.	c #0088D3",
"8.	c #0071B4",
"9.	c #7EC6EF",
"0.	c #6FBFEB",
"a.	c #77C1EC",
"b.	c #259AE1",
"c.	c #F2FAFF",
"d.	c #C1E3F8",
"e.	c #3DA7E4",
"f.	c #90CBF0",
"g.	c #8BCAF0",
"h.	c #93CEF0",
"i.	c #48ACE5",
"j.	c #B4DBF6",
"k.	c #9CD1F2",
"l.	c #41A8E6",
"m.	c #31A2E2",
"n.	c #0065A1",
"o.	c #004C7C",
"p.	c #61B8EB",
"q.	c #67B9E9",
"r.	c #6EBDEB",
"s.	c #6FBDEB",
"t.	c #1A95DD",
"u.	c #F2FAFD",
"v.	c #89C8EF",
"w.	c #2599E0",
"x.	c #37A3E2",
"y.	c #4CADE5",
"z.	c #62B8E9",
"A.	c #69BBEB",
"B.	c #309FE1",
"C.	c #93CDF0",
"D.	c #5BB4E8",
"E.	c #61B8E9",
"F.	c #0077BE",
"G.	c #158BD4",
"H.	c #68B8E9",
"I.	c #68B9E9",
"J.	c #69B9E9",
"K.	c #2B9AE0",
"L.	c #9ED1F0",
"M.	c #E7F3FD",
"N.	c #92CBF0",
"O.	c #57B1E8",
"P.	c #2899E0",
"Q.	c #1C91DC",
"R.	c #56B0E5",
"S.	c #4BABE4",
"T.	c #7FC3EC",
"U.	c #78C1EB",
"V.	c #007DD0",
"W.	c #0077D0",
"X.	c #62B8E8",
"Y.	c #62B4E8",
"Z.	c #61B4E8",
"`.	c #46A6E2",
" +	c #2B98DD",
".+	c #CBE6F6",
"++	c #D1EAF8",
"@+	c #6EB9E9",
"#+	c #118AD8",
"$+	c #47A6E2",
"%+	c #5EB1E8",
"&+	c #6AB8E9",
"*+	c #81C6EC",
"=+	c #007BD5",
"-+	c #0077D5",
";+	c #6ABDEB",
">+	c #5CB1E5",
",+	c #59B0E5",
"'+	c #49A8E2",
")+	c #0086D7",
"!+	c #A4D4F0",
"~+	c #F1FAFD",
"{+	c #E5F3FD",
"]+	c #65B7E8",
"^+	c #2091DC",
"/+	c #50ABE4",
"(+	c #78C3EC",
"_+	c #0072D1",
":+	c #5FB8E9",
"<+	c #53AFE4",
"[+	c #52ACE4",
"}+	c #65B5E8",
"|+	c #64B4E8",
"1+	c #1C8FD8",
"2+	c #319ADD",
"3+	c #8EC7EC",
"4+	c #D9EEFA",
"5+	c #F1F8FD",
"6+	c #5FB2E5",
"7+	c #178DD8",
"8+	c #6ABCEB",
"9+	c #0074D1",
"0+	c #006ED0",
"a+	c #47ADE4",
"b+	c #4EA8E2",
"c+	c #4BA7E2",
"d+	c #2491DB",
"e+	c #0080D6",
"f+	c #59AFE5",
"g+	c #6BB7E9",
"h+	c #1E8EDB",
"i+	c #0075D1",
"j+	c #1A8DDB",
"k+	c #54ACE4",
"l+	c #AFD7F2",
"m+	c #0A86D7",
"n+	c #369BE0",
"o+	c #5EB7E9",
"p+	c #0061BE",
"q+	c #37A7E4",
"r+	c #47A4E2",
"s+	c #43A2E2",
"t+	c #007ED7",
"u+	c #3098E0",
"v+	c #89C4EF",
"w+	c #228FDC",
"x+	c #1589DB",
"y+	c #8AC8EF",
"z+	c #A6D9F3",
"A+	c #6DBBEB",
"B+	c #369DE1",
"C+	c #007BD6",
"D+	c #1F8EDC",
"E+	c #D5EBF8",
"F+	c #EEF8FD",
"G+	c #1A8CDB",
"H+	c #44A2E2",
"I+	c #5BB3E8",
"J+	c #0083D7",
"K+	c #004C9B",
"L+	c #2198DD",
"M+	c #3EA1E2",
"N+	c #3C9DDF",
"O+	c #2790DB",
"P+	c #0077D3",
"Q+	c #DFEFFA",
"R+	c #006FD0",
"S+	c #248FDB",
"T+	c #3D9DDF",
"U+	c #52ABE4",
"V+	c #6BBBE9",
"W+	c #8BCEF0",
"X+	c #1389D8",
"Y+	c #70B7E8",
"Z+	c #4BA4E2",
"`+	c #007CD5",
" @	c #3E9DDF",
".@	c #50A9E4",
"+@	c #3DA4E2",
"@@	c #0054AA",
"#@	c #002F63",
"$@	c #2C9BE0",
"%@	c #3397DC",
"&@	c #1481D6",
"*@	c #1A83D6",
"=@	c #70B4E8",
"-@	c #3698DD",
";@	c #84BFEB",
">@	c #4B9FE1",
",@	c #0076D1",
"'@	c #42A1E1",
")@	c #4BAFE5",
"!@	c #005BC3",
"~@	c #0056BA",
"{@	c #1398DD",
"]@	c #2691DB",
"^@	c #2D92DC",
"/@	c #0055C6",
"(@	c #D3E8F8",
"_@	c #EDF5FD",
":@	c #2A87D7",
"<@	c #0063CB",
"[@	c #0067CD",
"}@	c #0574D1",
"|@	c #1A7DD5",
"1@	c #0E7CD5",
"2@	c #2E92DC",
"3@	c #3597DD",
"4@	c #3EA9E2",
"5@	c #005CC9",
"6@	c #002E65",
"7@	c #0078D3",
"8@	c #098DDB",
"9@	c #238CD8",
"0@	c #006DD0",
"a@	c #5DA2E1",
"b@	c #84B8E9",
"c@	c #4B97DD",
"d@	c #3A8DDB",
"e@	c #70ADE5",
"f@	c #DFEEFA",
"g@	c #BDD9F3",
"h@	c #0055C8",
"i@	c #278EDB",
"j@	c #2A8FDB",
"k@	c #2FA4E2",
"l@	c #005AC9",
"m@	c #004BAE",
"n@	c #0088D8",
"o@	c #0A86D6",
"p@	c #0F7DD2",
"q@	c #0071D1",
"r@	c #69A7E2",
"s@	c #D3E6F8",
"t@	c #005ECA",
"u@	c #218AD8",
"v@	c #238DD8",
"w@	c #1B97DD",
"x@	c #0057C8",
"y@	c #0052BF",
"z@	c #0085D7",
"A@	c #1E91DC",
"B@	c #006CD1",
"C@	c #5697DF",
"D@	c #91BBEB",
"E@	c #004FC8",
"F@	c #0076D5",
"G@	c #1B85D8",
"H@	c #1A85D8",
"I@	c #1688DB",
"J@	c #0489DB",
"K@	c #004AB3",
"L@	c #001C3D",
"M@	c #0050C0",
"N@	c #007CD6",
"O@	c #007ED5",
"P@	c #1C9AE0",
"Q@	c #006DCF",
"R@	c #004AC2",
"S@	c #2671D0",
"T@	c #4588D8",
"U@	c #7DACE4",
"V@	c #91B9E9",
"W@	c #357DD5",
"X@	c #1C90DB",
"Y@	c #1F8FDB",
"Z@	c #1580D6",
"`@	c #0E7ED5",
" #	c #0068CF",
".#	c #002D6D",
"+#	c #00142F",
"@#	c #0044B1",
"##	c #0067D0",
"$#	c #0075D5",
"%#	c #05AAE4",
"&#	c #28B8E9",
"*#	c #108CDC",
"=#	c #005ACA",
"-#	c #0052C8",
";#	c #0076D3",
">#	c #0A80D7",
",#	c #32B7E9",
"'#	c #35B9E9",
")#	c #1587D8",
"!#	c #0D7DD6",
"~#	c #0079D5",
"{#	c #007FD7",
"]#	c #0045B2",
"^#	c #003384",
"/#	c #004CC3",
"(#	c #005ECB",
"_#	c #0092DD",
":#	c #00A2E1",
"<#	c #00B3E8",
"[#	c #00B8E9",
"}#	c #0099E0",
"|#	c #007DD6",
"1#	c #0074D3",
"2#	c #0075D3",
"3#	c #006ED1",
"4#	c #004ABB",
"5#	c #000F24",
"6#	c #002D73",
"7#	c #0042AF",
"8#	c #004AC3",
"9#	c #0050C6",
"0#	c #0069D0",
"a#	c #006AD0",
"b#	c #0065CF",
"c#	c #0063CD",
"d#	c #006DD1",
"e#	c #003FA6",
"f#	c #000F20",
"g#	c #001937",
"h#	c #002051",
"i#	c #001A3A",
"j#	c #001127",
"k#	c #001D4A",
"l#	c #00358D",
"m#	c #0040B0",
"n#	c #0048C2",
"o#	c #001E4D",
"                                                                ",
"                                                                ",
"              . + @ # $                                         ",
"          % & * = - - = ; > , , , , , ' )                       ",
"        ! ~ { ] ^ / / ( _ : < [ } | 1 2 3 4 5                   ",
"      6 7 8 9 0 a b b a c d e f g h i j : ^ k l                 ",
"      m j n o p p p q r s a t t t u v w x y z A B               ",
"    C D E F G G G H I J K K K K K K K K L M N O P Q             ",
"    R S T U U U V W X K Y Y Y Y Y Y Y Y K Z `  ...x +.          ",
"    @.#.$.%.%.%.&.*.K =.=.-.;.>.>.,.=.=.=.K '.).!.~.{.].        ",
"    ^./.(._._._.:.<.=.=.=.[.}.|.|.1.2.=.=.=.3.4.5.6.;.7.        ",
"    8.9.0.a.a.a.b.K c.c.d.e.f.g.g.h.i.j.c.c.k.l.a.9.|.m.n.      ",
"    o.p.q.r.s.s.t.u.u.u.K v.w.x.y.z.A.B.C.C.w.D.s.s.v.E.F.      ",
"      G.H.I.J.J.K.L.u.u.u.K M.N.O.P.Q.R.S.S.T.J.J.J.U.a.V.      ",
"      W.X.Y.Z.Z.`. +.+u.u.u.K K K K ++@+#+$+%+Z.Z.Z.&+*+=+      ",
"      -+;+>+,+,+,+'+)+!+~+~+~+~+~+~+K K {+]+^+/+,+,+>+(+-+      ",
"      _+:+<+[+[+[+}+|+1+2+3+4+5+5+5+5+5+K K 6+7+[+[+[+8+9+      ",
"      0+a+b+c+c+c+d+e+f+g+h+i+j+k+l+5+5+5+5+K m+n+c+c+o+0+      ",
"      p+q+r+s+s+t+u+v+w+x+y+z+A+B+C+D+E+F+F+F+u+G+s+H+I+J+      ",
"      K+L+M+N+O+P+K K Q+R+S+T+U+V+W+X+Y+F+F+F+Z+`+T+ @.@+@@@    ",
"      #@=+$@%@&@*@F+F+K =@0+-@-@-@-@R+;@F+F+F+>@,@-@-@'@)@!@    ",
"        ~@{@]@^@/@(@_@_@K :@<@R+9+[@}@K _@_@_@|@1@2@2@3@4@5@    ",
"        6@7@8@9@0@a@_@_@_@K b@c@d@e@f@_@_@_@g@h@i@i@i@j@k@l@    ",
"          m@n@o@p@q@r@<.<.<.K K K K K <.<.s@t@q@u@u@u@v@w@x@    ",
"            y@z@e+A@B@C@<.<.<.<.<.<.<.<.D@E@F@G@G@G@H@I@J@K@    ",
"            L@M@N@O@P@Q@R@S@T@U@V@T@W@R@x@X@Y@Z@Z@Z@`@)+ #.#    ",
"              +#@###$#%#&#*#P+=#-#;#>#,#'#)#!#!#!#~#P+{#]#      ",
"                  ^#/#(#-+_#:#<#[#:#}#|#q@1#2#2#1#3#2#4#        ",
"                    5#6#7#8#8#8#8#8#9#0#a#b#c#0#d#(#e#          ",
"                          f#g#h#h#i#j#k#l#m#n#m#l#o#            ",
"                                                                ",
"                                                                "};
