/* XPM */
static char * term_xpm[] = {
"32 32 203 2",
"  	c None",
". 	c #C0BFBE",
"+ 	c #B8B8B6",
"@ 	c #B7B7B6",
"# 	c #C1BFBE",
"$ 	c #B7B8B6",
"% 	c #CFCDCD",
"& 	c #EBE8EA",
"* 	c #EAE7E9",
"= 	c #CAC9C8",
"- 	c #B5B5B4",
"; 	c #E9E5E7",
"> 	c #D9D5D6",
", 	c #D3D0D0",
"' 	c #DEDADB",
") 	c #E8E4E5",
"! 	c #B6B6B5",
"~ 	c #B4B4B3",
"{ 	c #EAE6E8",
"] 	c #000000",
"^ 	c #B2B2B1",
"/ 	c #898989",
"( 	c #B0B0AF",
"_ 	c #E8E5E7",
": 	c #848383",
"< 	c #FFFFFF",
"[ 	c #B0AFAE",
"} 	c #010101",
"| 	c #7E7E7E",
"1 	c #AEADAC",
"2 	c #AFAFAE",
"3 	c #E7E3E4",
"4 	c #010201",
"5 	c #767474",
"6 	c #ABABAA",
"7 	c #ADACAB",
"8 	c #E6E2E3",
"9 	c #030302",
"0 	c #6D6B6B",
"a 	c #6E6C6C",
"b 	c #A9A8A7",
"c 	c #AAAAA9",
"d 	c #E5E1E2",
"e 	c #050604",
"f 	c #666262",
"g 	c #A6A6A5",
"h 	c #A7A7A6",
"i 	c #E3E0E2",
"j 	c #060706",
"k 	c #5C5957",
"l 	c #5D5A58",
"m 	c #A3A3A2",
"n 	c #A4A4A3",
"o 	c #E2DEE0",
"p 	c #0B0C09",
"q 	c #53514F",
"r 	c #DFDBDC",
"s 	c #A0A09F",
"t 	c #A1A1A0",
"u 	c #E1DEDF",
"v 	c #0E100E",
"w 	c #4C4B48",
"x 	c #4C4B4A",
"y 	c #4E4C4A",
"z 	c #DDDADC",
"A 	c #9D9D9C",
"B 	c #A09F9E",
"C 	c #E0DDDE",
"D 	c #111310",
"E 	c #181A16",
"F 	c #191B17",
"G 	c #1B1C18",
"H 	c #1C1D19",
"I 	c #1D1E1A",
"J 	c #DCD9DA",
"K 	c #999998",
"L 	c #9F9E9D",
"M 	c #161814",
"N 	c #1E201C",
"O 	c #1F211D",
"P 	c #21221E",
"Q 	c #22231F",
"R 	c #232420",
"S 	c #242521",
"T 	c #DBD7D8",
"U 	c #969695",
"V 	c #9E9E9D",
"W 	c #181B17",
"X 	c #222420",
"Y 	c #232521",
"Z 	c #242622",
"` 	c #252823",
" .	c #272925",
"..	c #282A26",
"+.	c #292B27",
"@.	c #292C28",
"#.	c #2A2C28",
"$.	c #1A1C18",
"%.	c #D9D7D7",
"&.	c #939493",
"*.	c #9C9C9B",
"=.	c #DCDADB",
"-.	c #282925",
";.	c #292A26",
">.	c #2A2B27",
",.	c #2B2C28",
"'.	c #2C2D29",
").	c #2E2F2B",
"!.	c #2F302C",
"~.	c #30312D",
"{.	c #31322E",
"].	c #D8D6D7",
"^.	c #919191",
"/.	c #989998",
"(.	c #DCD8D9",
"_.	c #21221F",
":.	c #2B2C2B",
"<.	c #2C2D2B",
"[.	c #2F302D",
"}.	c #30312E",
"|.	c #31322F",
"1.	c #333332",
"2.	c #343433",
"3.	c #363734",
"4.	c #363735",
"5.	c #373835",
"6.	c #373836",
"7.	c #353633",
"8.	c #343432",
"9.	c #313231",
"0.	c #2E2F2C",
"a.	c #D7D4D5",
"b.	c #8E8E8E",
"c.	c #969796",
"d.	c #242522",
"e.	c #393936",
"f.	c #3A3A38",
"g.	c #3C3D3A",
"h.	c #3E3E3B",
"i.	c #3E3E3C",
"j.	c #3F3F3C",
"k.	c #3B3B39",
"l.	c #393938",
"m.	c #333330",
"n.	c #D7D4D4",
"o.	c #8C8C8C",
"p.	c #40403E",
"q.	c #414140",
"r.	c #444341",
"s.	c #454542",
"t.	c #454544",
"u.	c #424240",
"v.	c #41413F",
"w.	c #3C3D3B",
"x.	c #D1CFCF",
"y.	c #383935",
"z.	c #3A3B38",
"A.	c #3B3C39",
"B.	c #3E3F3B",
"C.	c #40413E",
"D.	c #424340",
"E.	c #444642",
"F.	c #464744",
"G.	c #474845",
"H.	c #494A47",
"I.	c #4A4A47",
"J.	c #484946",
"K.	c #454642",
"L.	c #424441",
"M.	c #40423F",
"N.	c #3F403C",
"O.	c #3C3E3A",
"P.	c #393A36",
"Q.	c #D0CECF",
"R.	c #878787",
"S.	c #8F8F8F",
"T.	c #D7D5D6",
"U.	c #3B3B38",
"V.	c #3E3E3A",
"W.	c #40403C",
"X.	c #42423F",
"Y.	c #454541",
"Z.	c #474744",
"`.	c #4A4946",
" +	c #4B4A47",
".+	c #4F4E4B",
"++	c #504F4C",
"@+	c #484845",
"#+	c #464642",
"$+	c #444340",
"%+	c #41413E",
"&+	c #3F3F3B",
"*+	c #3C3C39",
"=+	c #CFCECE",
"-+	c #909090",
";+	c #A2A2A1",
">+	c #B1B1B0",
",+	c #828181",
"'+	c #D6D4D4",
")+	c #CDCCCC",
"!+	c #808080",
"~+	c #7B7A7A",
"{+	c #676363",
"                                                                ",
"                                                                ",
"                                                                ",
"                                                                ",
"                                                                ",
"                                                                ",
"      . + + + + + + + + + + + + + + + + + + + + + + + @ #       ",
"    $ % & & & & & & & & & & & & & & & & & & & & & & & * = $     ",
"    - ; > , , , , , , , , , , , , , , , , , , , , , , ' ) !     ",
"    ~ { ] ] ] ] ] ] ] ] ] ] ] ] ] ] ] ] ] ] ] ] ] ] ] ] { ~     ",
"    ^ ; ] / / / / / / / / / / / / / / / / / / / / / / ] ; ^     ",
"    ( _ ] : < : : : : : : : : : : : : : : : : : : : : ] _ (     ",
"    [ ) } | | < | | | | | | | | | | | | | | | | | | | } ) 1     ",
"    2 3 4 5 < 5 5 < < 5 5 5 5 5 5 5 5 5 5 5 5 5 5 5 5 4 3 6     ",
"    7 8 9 0 0 0 0 0 0 0 0 0 a a a a a 0 0 0 0 0 0 0 0 9 8 b     ",
"    c d e f f f f f f f f f f f f f f f f f f f f f f e d g     ",
"    h i j k k k k k k k k k k l l k k k k k k k k k k j i m     ",
"    n o p q q q q q q q q q q q q q q q q q q q q q q p r s     ",
"    t u v w w w x x x y y y y y y y y y y y x x x w w v z A     ",
"    B C D E F F F G G H H I I I I I I H H H G G F F E D J K     ",
"    L r M N N O O P Q Q R R S S S S R R Q Q P P O O N M T U     ",
"    V z W X Y Z Z `  ...+.+.@.#.#.#.+.+... . .` Z Y Y $.%.&.    ",
"    *.=.I -.;.>.,.'.).!.!.~.{.{.{.{.~.~.!.).'.,.>.;.-.I ].^.    ",
"    /.(._.:.<.[.}.|.1.2.3.4.5.6.6.6.5.3.7.8.9.}.[.0.<._.a.b.    ",
"    c.T d.}.|.8.7.4.e.f.g.h.i.j.j.j.h.g.k.l.5.3.8.m.|.d.n.o.    ",
"    &.%.-.7.3.6.f.g.i.p.q.r.s.s.t.s.r.u.v.j.w.k.e.4.7.-.x./     ",
"    ^.].+.y.z.A.B.C.D.E.F.G.H.I.I.H.J.G.K.L.M.N.O.z.P.#.Q.R.    ",
"    S.T.).U.V.W.X.Y.Z.`. +y .+.+++.+y w `.@+#+$+%+&+*+).=+:     ",
"    -+a.;+;+;+;+;+;+;+;+;+;+;+;+;+;+;+;+;+;+;+;+;+;+;+>+% ,+    ",
"    ^.'+'+'+'+'+'+'+'+'+'+'+'+'+'+'+'+'+'+'+'+'+'+'+'+'+)+!+    ",
"    0 | | | | | | | | | | | | | | | | | | | | | | | | | ~+{+    ",
"                                                                "};
