/* XPM */
static char *text[] = {
/* columns rows colors chars-per-pixel */
"16 14 27 1",
"  c #000000",
". c #0a0a0a",
"X c #2d2d2d",
"o c #303030",
"O c #3e3e3e",
"+ c gray26",
"@ c #4c4c4c",
"# c gray33",
"$ c #585858",
"% c gray42",
"& c gray44",
"* c gray53",
"= c #898989",
"- c #9a9a9a",
"; c #a5a5a5",
": c #adadad",
"> c #b4b4b4",
", c #bcbcbc",
"< c gray77",
"1 c gray80",
"2 c #d2d2d2",
"3 c #dddddd",
"4 c #e2e2e2",
"5 c #ebebeb",
"6 c #f4f4f4",
"7 c #fefefe",
"8 c None",
/* pixels */
"88=33333>=-$8888",
"88=377775=7-$888",
"88=377777=77-X88",
"88=377777=&%+o88",
"88=3777<763>=X88",
"88=377$ $763>o88",
"88=372   265<o88",
"88=37O 7 +53,o88",
"88=31 @6@ >3>o88",
"88=3$ 13- o3>o88",
"88=>       :>o88",
"88=o XO+OX o:o88",
"88=..54331  ;o88",
"88=-11<,>>>*;o88",
};
