/* XPM */
static char * unison_xpm[] = {
"32 32 278 2",
"  	c None",
". 	c #434314",
"+ 	c #444417",
"@ 	c #4F4F1A",
"# 	c #DBDF49",
"$ 	c #727326",
"% 	c #737526",
"& 	c #DDE148",
"* 	c #5A5A1E",
"= 	c #CBCE43",
"- 	c #FAFE52",
"; 	c #F4F850",
"> 	c #626420",
", 	c #656621",
"' 	c #F3F750",
") 	c #D0D444",
"! 	c #B9BD3D",
"~ 	c #E8EC4C",
"{ 	c #585A1C",
"] 	c #53551C",
"^ 	c #EAED4D",
"/ 	c #B6B83B",
"( 	c #9B9D33",
"_ 	c #D9DC47",
": 	c #D5D645",
"< 	c #FAFA50",
"[ 	c #F9F950",
"} 	c #F9F850",
"| 	c #F9F74F",
"1 	c #F9F64F",
"2 	c #A09D32",
"3 	c #8A8B2D",
"4 	c #FAFD52",
"5 	c #C6C941",
"6 	c #C3C03D",
"7 	c #F9F44E",
"8 	c #F9F34E",
"9 	c #F9F24D",
"0 	c #F9F14D",
"a 	c #F9F04D",
"b 	c #F8EF4C",
"c 	c #837E28",
"d 	c #2F3110",
"e 	c #808129",
"f 	c #767726",
"g 	c #FAFB51",
"h 	c #979630",
"i 	c #817E29",
"j 	c #424114",
"k 	c #434014",
"l 	c #807B27",
"m 	c #A19C31",
"n 	c #F8EC4B",
"o 	c #F8EB4B",
"p 	c #F8EA4A",
"q 	c #F8E94A",
"r 	c #EBDD46",
"s 	c #726B22",
"t 	c #7E7726",
"u 	c #302D0E",
"v 	c #767224",
"w 	c #807826",
"x 	c #F7E548",
"y 	c #F7E448",
"z 	c #F7E348",
"A 	c #F7E347",
"B 	c #E2CE41",
"C 	c #F8ED4C",
"D 	c #F8EB4A",
"E 	c #766E24",
"F 	c #807324",
"G 	c #F7DE46",
"H 	c #F7DE45",
"I 	c #F7DD45",
"J 	c #F6DC45",
"K 	c #E1C83E",
"L 	c #F8E649",
"M 	c #F7E549",
"N 	c #756B22",
"O 	c #7F7124",
"P 	c #F6D843",
"Q 	c #F6D743",
"R 	c #F6D642",
"S 	c #F6D542",
"T 	c #E1C23C",
"U 	c #F7DF46",
"V 	c #756721",
"W 	c #7F6C22",
"X 	c #F5D140",
"Y 	c #F5D040",
"Z 	c #F5CF40",
"` 	c #F5CE3F",
" .	c #E0BB3A",
"..	c #F6D944",
"+.	c #F6D643",
"@.	c #75641F",
"#.	c #7F6921",
"$.	c #F5CA3E",
"%.	c #F4C93D",
"&.	c #F4C83D",
"*.	c #F4C73D",
"=.	c #DFB537",
"-.	c #F5D241",
";.	c #F5D141",
">.	c #F5CE40",
",.	c #73601E",
"'.	c #7F671F",
").	c #F4C33B",
"!.	c #F4C23B",
"~.	c #F4C13B",
"{.	c #F4C03A",
"].	c #DFAF35",
"^.	c #F5CB3E",
"/.	c #F5C93E",
"(.	c #735D1E",
"_.	c #7D621E",
":.	c #F3BC39",
"<.	c #F3BB38",
"[.	c #F3BA38",
"}.	c #DEA932",
"|.	c #F4C43C",
"1.	c #F4C13A",
"2.	c #735A1C",
"3.	c #7D5E1C",
"4.	c #F2B536",
"5.	c #F2B436",
"6.	c #F2B435",
"7.	c #F2B335",
"8.	c #DDA330",
"9.	c #F3BD39",
"0.	c #F3BC38",
"a.	c #73571A",
"b.	c #7D5B1B",
"c.	c #F2AE33",
"d.	c #F2AD33",
"e.	c #F1AC32",
"f.	c #DC9C2E",
"g.	c #F3B636",
"h.	c #F2B636",
"i.	c #735419",
"j.	c #7C571A",
"k.	c #F1A831",
"l.	c #F1A730",
"m.	c #F1A630",
"n.	c #F1A530",
"o.	c #DC962B",
"p.	c #F2B034",
"q.	c #F2AF33",
"r.	c #735117",
"s.	c #7C5418",
"t.	c #F0A12E",
"u.	c #F0A02E",
"v.	c #F09F2D",
"w.	c #F09E2D",
"x.	c #DB8F29",
"y.	c #F1A931",
"z.	c #734E17",
"A.	c #7C5017",
"B.	c #F09A2B",
"C.	c #F0992B",
"D.	c #EF982B",
"E.	c #EF972A",
"F.	c #DA8926",
"G.	c #F0A22E",
"H.	c #724B16",
"I.	c #7C4D15",
"J.	c #EF9228",
"K.	c #EF9028",
"L.	c #EE8E27",
"M.	c #EE8D26",
"N.	c #D87E22",
"O.	c #EF9A2C",
"P.	c #EF982A",
"Q.	c #724714",
"R.	c #7D4612",
"S.	c #ED8423",
"T.	c #ED8222",
"U.	c #ED8021",
"V.	c #ED7F21",
"W.	c #D16E1C",
"X.	c #E78F28",
"Y.	c #EF9328",
"Z.	c #EF9128",
"`.	c #EF8F27",
" +	c #734312",
".+	c #7F4111",
"++	c #EC761D",
"@+	c #EC741D",
"#+	c #EC721C",
"$+	c #EC701B",
"%+	c #C95F16",
"&+	c #DC7C21",
"*+	c #EE8423",
"=+	c #ED8322",
"-+	c #ED8122",
";+	c #773E10",
">+	c #823B0D",
",+	c #EB6818",
"'+	c #EB6617",
")+	c #EA6416",
"!+	c #EA6216",
"~+	c #C25011",
"{+	c #C9661A",
"]+	c #EC751D",
"^+	c #EC731C",
"/+	c #EC711B",
"(+	c #803B0F",
"_+	c #89350B",
":+	c #E95A12",
"<+	c #E95812",
"[+	c #E95611",
"}+	c #E95410",
"|+	c #AF3D0C",
"1+	c #9F4812",
"2+	c #EA6517",
"3+	c #EA6316",
"4+	c #AA470F",
"5+	c #A8380A",
"6+	c #E84C0D",
"7+	c #E84A0C",
"8+	c #E8480B",
"9+	c #E8460B",
"0+	c #8F2A06",
"a+	c #88350B",
"b+	c #E95711",
"c+	c #E95510",
"d+	c #E85310",
"e+	c #632207",
"f+	c #581903",
"g+	c #E63F08",
"h+	c #E73D07",
"i+	c #E73C07",
"j+	c #E63A06",
"k+	c #E63805",
"l+	c #811E03",
"m+	c #602107",
"n+	c #E8480C",
"o+	c #E8470B",
"p+	c #E7450A",
"q+	c #E14109",
"r+	c #732004",
"s+	c #5F1601",
"t+	c #D62F03",
"u+	c #E63102",
"v+	c #E52F02",
"w+	c #E52E01",
"x+	c #E52C00",
"y+	c #E52B00",
"z+	c #561000",
"A+	c #A52B04",
"B+	c #E63905",
"C+	c #E63705",
"D+	c #E63504",
"E+	c #E63303",
"F+	c #D42D03",
"G+	c #9E2201",
"H+	c #8B1C01",
"I+	c #8A1A00",
"J+	c #961D00",
"K+	c #C32500",
"L+	c #A11E00",
"M+	c #C22701",
"N+	c #E52C01",
"O+	c #C92600",
"P+	c #AC2000",
"Q+	c #601300",
"R+	c #9E1E00",
"S+	c #DF2A00",
"T+	c #DC2900",
"U+	c #A41F00",
"V+	c #661400",
"W+	c #6E1400",
"X+	c #751600",
"Y+	c #7D1700",
"Z+	c #7E1700",
"`+	c #781700",
" @	c #721500",
".@	c #631200",
"              .                                 +               ",
"            @ # $                             % & *             ",
"            = - ; >                         , ' - )             ",
"          ! - - - ~ {                     ] ^ - - - /           ",
"        ( - - - - - _                     : < [ } | 1 2         ",
"      3 - - - - - - 4 5                 6 7 8 9 0 a b b c       ",
"    d e f g < [ } | h i j             k l m n o p q r s t u     ",
"          7 8 9 0 0 v                     w x y z A B           ",
"          C n o D p E                     F G H I J K           ",
"          L M x y z N                     O P Q R S T           ",
"          U U G I J V                     W X Y Z `  .          ",
"          ..P Q +.S @.                    #.$.%.&.*.=.          ",
"          -.;.Y Z >.,.                    '.).!.~.{.].          ",
"          ^.$./.&.*.(.                    _.:.<.[.[.}.          ",
"          |.).!.~.1.2.                    3.4.5.6.7.8.          ",
"          9.:.0.<.[.a.                    b.c.c.d.e.f.          ",
"          g.h.4.6.7.i.                    j.k.l.m.n.o.          ",
"          p.q.c.d.e.r.                    s.t.u.v.w.x.          ",
"          y.k.l.m.n.z.                    A.B.C.D.E.F.          ",
"          G.t.u.v.w.H.                    I.J.K.L.M.N.          ",
"          O.B.C.D.P.Q.                    R.S.T.U.V.W.          ",
"          X.Y.Z.`.M. +                    .+++@+#+$+%+          ",
"          &+*+=+-+V.;+                    >+,+'+)+!+~+          ",
"          {+++]+^+/+(+                    _+:+<+[+}+|+          ",
"          1+,+'+2+3+4+                    5+6+7+8+9+0+          ",
"          a+:+<+b+c+d+e+                f+g+h+i+j+k+l+          ",
"          m+6+7+n+o+p+q+r+            s+t+u+v+w+x+y+z+          ",
"            A+i+j+B+C+D+E+F+G+H+I+J+K+y+y+y+y+y+y+L+            ",
"              M+N+y+y+y+y+y+y+y+y+y+y+y+y+y+y+y+O+              ",
"                L+y+y+y+y+y+y+y+y+y+y+y+y+y+y+P+                ",
"                  Q+R+S+y+y+y+y+y+y+y+y+T+U+V+                  ",
"                        Q+W+X+Y+Z+`+ @.@                        "};
