/* XPM */
static char * volume_xpm[] = {
"16 14 3 1",
" 	c None",
".	c #989898",
"+	c #FBFBFB",
"            ..  ",
"           . .  ",
"          .  .  ",
"         .   .  ",
"        .+   .  ",
"       .++   .  ",
"      .+++   .  ",
"     .++++   .  ",
"    .+++++   .  ",
"   .++++++   .  ",
"  .+++++++   .  ",
" .++++++++   .  ",
" .............  ",
"                "};
