/* XPM */
static char * volume5_xpm[] = {
"32 32 3 1",
" 	c None",
".	c #5F5F5F",
"+	c #E2E2E2",
"                                ",
"                                ",
"                                ",
"                                ",
"                                ",
"                                ",
"                            ... ",
"                            ... ",
"                         ...... ",
"                         ...... ",
"                      ......... ",
"                      ......... ",
"                   ............ ",
"                   ............ ",
"                ............... ",
"                ............... ",
"             +++............... ",
"             +++............... ",
"          ++++++............... ",
"          ++++++............... ",
"       +++++++++............... ",
"       +++++++++............... ",
"    ++++++++++++............... ",
"    ++++++++++++............... ",
" +++++++++++++++............... ",
" +++++++++++++++............... ",
"                                ",
"                                ",
"                                ",
"                                ",
"                                ",
"                                "};
