/* XPM */
static char * wifi1_xpm[] = {
"32 32 3 1",
" 	c None",
".	c #E6E6E6",
"+	c #E7E7E7",
"                                ",
"                                ",
"                                ",
"                                ",
"                                ",
"                                ",
"                                ",
"                                ",
"                                ",
"                                ",
"                                ",
"                                ",
"                                ",
"                                ",
"                                ",
"                                ",
"            ........            ",
"           ..........           ",
"         ..............         ",
"         ...+      +...         ",
"         ...        +..         ",
"              ...               ",
"             ......             ",
"             ......             ",
"             ......             ",
"             ......             ",
"              ....              ",
"               ..               ",
"                                ",
"                                ",
"                                ",
"                                "};
