/* XPM */
static char *arora[] = {
/* columns rows colors chars-per-pixel */
"16 14 143 2",
"   c #182E50",
".  c #0E3673",
"X  c #0E3774",
"o  c #1C3A76",
"O  c #1B3F79",
"+  c #0A467D",
"@  c #0F487E",
"#  c #1D407A",
"$  c #21416D",
"%  c #26427A",
"&  c #26427B",
"*  c #29447A",
"=  c #29467F",
"-  c #224C78",
";  c #224D78",
":  c #1F4881",
">  c #1C5487",
",  c #1E5888",
"<  c #1C5F8D",
"1  c #234D82",
"2  c #2F4F84",
"3  c #295886",
"4  c #205A88",
"5  c #335288",
"6  c #35538B",
"7  c #3B598E",
"8  c #03608E",
"9  c #07618F",
"0  c #026490",
"q  c #016792",
"w  c #046893",
"e  c #056A94",
"r  c #066A94",
"t  c #176592",
"y  c #196390",
"u  c #1E6391",
"i  c #1D6491",
"p  c #166D98",
"a  c #157298",
"s  c #1B779D",
"d  c #2B7CA1",
"f  c #2A7EA1",
"g  c #425F89",
"h  c #405F96",
"j  c #496495",
"k  c #4D6990",
"l  c #4B6F9E",
"z  c #586C92",
"x  c #51739E",
"c  c #697185",
"v  c #61738F",
"b  c #5E7AA4",
"n  c #5B7DA7",
"m  c #3083A4",
"M  c #5E84AD",
"N  c #4792AF",
"B  c #579AB6",
"V  c #5E99B5",
"C  c #599DB8",
"Z  c #7084A0",
"A  c #7284A5",
"S  c #7595AC",
"D  c #7D90A8",
"F  c #699EB9",
"G  c #7D9DB3",
"H  c #62A3BC",
"J  c #7AA8C2",
"K  c #78B1C6",
"L  c #818B9D",
"P  c #8C94A4",
"I  c #8192AB",
"U  c #8696AA",
"Y  c #8C96AA",
"T  c #949EAE",
"R  c #8F9CB2",
"E  c #909EB3",
"W  c #95A0B2",
"Q  c #96A2B6",
"!  c #98A2B3",
"~  c #9BA5B5",
"^  c #9EAAB9",
"/  c #9CABBA",
"(  c #A3ABBB",
")  c #A3AEBA",
"_  c #A4ACBB",
"`  c #A2AFBF",
"'  c #A6AFBE",
"]  c #AAB2BF",
"[  c #85B8CB",
"{  c #A3AFC0",
"}  c #AAB5C3",
"|  c #AFB9C3",
" . c #B6BDC2",
".. c #93C3D2",
"X. c #BAC3CD",
"o. c #BBC4CE",
"O. c #BBC4CF",
"+. c #BDC7CE",
"@. c #A7C6D7",
"#. c #A9C4D2",
"$. c #A7D0DC",
"%. c #AAD1DD",
"&. c #C2CACF",
"*. c #C1C9D0",
"=. c #C0C9D1",
"-. c #C2CAD0",
";. c #C3CBD0",
":. c #C3CAD1",
">. c #C3CDD1",
",. c #C4CDD3",
"<. c #C5CED2",
"1. c #C6CFD2",
"2. c #C8CFD5",
"3. c #C7CFD8",
"4. c #C7D0D2",
"5. c #C7D0D4",
"6. c #C7D0D5",
"7. c #C8D1D3",
"8. c #CAD2D5",
"9. c #CAD3D5",
"0. c #CBD3D5",
"q. c #CAD0D6",
"w. c #CAD1D7",
"e. c #CBD2D6",
"r. c #CBD3D7",
"t. c #CCD4D6",
"y. c #CDD5DC",
"u. c #D2D9DB",
"i. c #D4DADD",
"p. c #D4DBDD",
"a. c #D8DEE0",
"s. c #D9DFE1",
"d. c #DCE1E3",
"f. c #DCE2E3",
"g. c #DDE2E6",
"h. c #DFE4E6",
"j. c #E4E8E9",
"k. c #EBEEEF",
"l. c #EDF0F1",
"z. c #EFF1F2",
"x. c #F0F2F3",
"c. c #F1F3F4",
"v. c None",
/* pixels */
"v.v.v.v.v.v.' g.s.w.&.+.W v.v.v.",
"v.v.v.v.v._ x.j.u.7.7.1.o.Y v.v.",
"v.v.v.v._ x.l.p.7.1.+.w.=.! v.v.",
"v.v.v.] x.z.d.0.0.} ` &.1.T v.v.",
"v.v._ y.3.d.&.) w.6.Q &.w.~ v.v.",
"v.v.w.h.i./ G M A i.{ k =.o.v.v.",
"v.v.w.2./ #.%.J j &.R & Z 6.L v.",
"v.P  .I b @.$.[ V  .E & U D v.v.",
"v.c v x h n ..K B S z & # > v.v.",
"v.v.g l 6 5 F H N f 1 o X , v.v.",
"v.v.v.7 = 2 V N m a @ X 0 - v.v.",
"v.v.v.% : # d s e 0 + 8 u v.v.v.",
"v.v.v.v.3 p r q q 0 r u   v.v.v.",
"v.v.v.v.v.$ 4 t t < - v.v.v.v.v."
};
