/* XPM */
static char * bat_online_xpm[] = {
"16 16 4 1",
" 	c None",
".	c #C3C4C9",
"+	c #C2C2C7",
"@	c #717273",
"      ....      ",
"      .++.      ",
"   ....  ....   ",
"   . @@@@@@ .   ",
"   . @@@@@@ .   ",
"   .        .   ",
"   . @@@@@@ .   ",
"   . @@@@@@ .   ",
"   .        .   ",
"   . @@@@@@ .   ",
"   . @@@@@@ .   ",
"   .        .   ",
"   . @@@@@@ .   ",
"   . @@@@@@ .   ",
"   .        .   ",
"   ..........   "};
