/* XPM */
static char * disk_xpm[] = {
"16 14 40 1",
" 	c None",
".	c #070706",
"+	c #090908",
"@	c #0C0C0A",
"#	c #0F0F0D",
"$	c #131210",
"%	c #1E1E19",
"&	c #2A2A26",
"*	c #0A0908",
"=	c #0D0C0B",
"-	c #0F0F0C",
";	c #161512",
">	c #21201B",
",	c #24241E",
"'	c #2E2E2A",
")	c #100F0D",
"!	c #1D1C17",
"~	c #24231D",
"{	c #26251F",
"]	c #272720",
"^	c #383733",
"/	c #11100D",
"(	c #201F1A",
"_	c #25241E",
":	c #27261F",
"<	c #292821",
"[	c #2B2A23",
"}	c #3A3934",
"|	c #1F1E19",
"1	c #282721",
"2	c #2A2A23",
"3	c #2D2C24",
"4	c #2E2D26",
"5	c #3D3C35",
"6	c #26251E",
"7	c #282720",
"8	c #2B2A22",
"9	c #2F2E26",
"0	c #323128",
"a	c #3F3E39",
"                ",
"                ",
"                ",
"                ",
"     .+@#$%&    ",
"     *=-;>,'    ",
"     @)!~{]^    ",
"     /(_:<[}    ",
"     |{12345    ",
"     678390a    ",
"                ",
"                ",
"                ",
"                "};
