/* XPM */
static char *emacs[] = {
/* columns rows colors chars-per-pixel */
"16 14 9 1",
"  c black",
". c gray19",
"X c #585858",
"o c #808080",
"O c #A0A0A4",
"+ c #C0C0C0",
"@ c gray100",
"m c #ff0000",
"# c None",
/* pixels */
"## .  ######  O#",
"# .########### #",
"  O###  #  ###  ",
"  ###       ##  ",
"     @O@OXoO mm#",
"#   @@@O@@O@mmmm",
"## O@@@ @@ @#mm#",
"## @@+@@++@ #mm#",
"## X+@@@+X ##mm#",
"### @+@@@@@ ####",
"### @@@@OOO #mm#",
"#### @ @@oo##mm#",
"##### @ @+ #####",
"###### # + #####",
};
