/* XPM */
static char *foot___[] = {
/* columns rows colors chars-per-pixel */
"16 14 48 1",
"  c #0B0B0B",
". c #101112",
"X c #121314",
"o c #151819",
"O c #191D1F",
"+ c #1A1D1F",
"@ c #1E2326",
"# c #21282C",
"$ c #22292D",
"% c #242D32",
"& c #293237",
"* c #263238",
"= c #27363E",
"- c #353738",
"; c #363A3D",
": c #273943",
"> c #2D3B43",
", c #263D48",
"< c #253F4D",
"1 c #2E444E",
"2 c #244252",
"3 c #254353",
"4 c #2F4854",
"5 c #354E5B",
"6 c #4E5152",
"7 c #555656",
"8 c #526168",
"9 c #566770",
"0 c #5C727D",
"q c #676A6B",
"w c #626A6F",
"e c #6A6D6E",
"r c #707172",
"t c #787B7E",
"y c #979898",
"u c #92999D",
"i c #8999A1",
"p c #899BA4",
"a c #9FA3A5",
"s c #92A2AB",
"d c #B4BDC1",
"f c #C1C2C3",
"g c #C1CACF",
"h c #C8C9C9",
"j c #D4D8DA",
"k c #EFF0F1",
"l c #F6F6F6",
"z c None",
/* pixels */
"zzzzzzzzzzz  zzz",
"zzzzzzz.7z..Xzzz",
"zzzzo-zoyooorzzz",
"zzzzO6zqzO+elzzz",
"zz@;zhzzzzfzzzzz",
"zzztz$#####zzzzz",
"zzzz&%%%%%%azzzz",
"zzz*******wzzzzz",
"zzz=====>uzzzzzz",
"zzz::::8jzzzzzzz",
"zzzz,,1kz,,9zzzz",
"zzzz4<<5z<<dzzzz",
"zzzzz03222izzzzz",
"zzzzzzzpsgzzzzzz",
};
