/* XPM */
static char *hopdac[] = {
/* columns rows colors chars-per-pixel */
"16 16 112 2 ",
"   c #313131",
".  c gray20",
"X  c #343434",
"o  c gray23",
"O  c gray26",
"+  c #434343",
"@  c #444444",
"#  c gray27",
"$  c #464646",
"%  c gray29",
"&  c #505050",
"*  c #535353",
"=  c gray34",
"-  c gray35",
";  c gray36",
":  c #5D5D5D",
">  c gray37",
",  c #5F5F5F",
"<  c #606060",
"1  c #626262",
"2  c gray39",
"3  c #646464",
"4  c #656565",
"5  c gray40",
"6  c DimGray",
"7  c #6A6A6A",
"8  c gray42",
"9  c #6D6D6D",
"0  c gray43",
"q  c #6F6F6F",
"w  c gray44",
"e  c gray45",
"r  c #747474",
"t  c gray46",
"y  c gray47",
"u  c #7B7B7B",
"i  c #7E7E7E",
"p  c #808080",
"a  c gray51",
"s  c gray53",
"d  c gray54",
"f  c #8B8B8B",
"g  c gray55",
"h  c #8D8D8D",
"j  c #989898",
"k  c gray60",
"l  c #9A9A9A",
"z  c #9B9B9B",
"x  c gray61",
"c  c #9D9D9D",
"v  c gray62",
"b  c #A7A7A7",
"n  c gray66",
"m  c #A9A9A9",
"M  c gray67",
"N  c gray68",
"B  c #AEAEAE",
"V  c #AFAFAF",
"C  c gray69",
"Z  c #B1B1B1",
"A  c #B2B2B2",
"S  c gray70",
"D  c #B4B4B4",
"F  c gray71",
"G  c #B7B7B7",
"H  c gray72",
"J  c #B9B9B9",
"K  c gray73",
"L  c #BBBBBB",
"P  c #BCBCBC",
"I  c gray",
"U  c #CBCBCB",
"Y  c #CDCDCD",
"T  c #D0D0D0",
"R  c #D5D5D5",
"E  c gray84",
"W  c #D8D8D8",
"Q  c gray85",
"!  c #DADADA",
"~  c #DDDDDD",
"^  c gray87",
"/  c #DFDFDF",
"(  c #E1E1E1",
")  c #E2E2E2",
"_  c gray89",
"`  c #E4E4E4",
"'  c gray90",
"]  c #E6E6E6",
"[  c #E7E7E7",
"{  c gray91",
"}  c #E9E9E9",
"|  c #EAEAEA",
" . c gray92",
".. c #ECECEC",
"X. c gray93",
"o. c #EEEEEE",
"O. c #EFEFEF",
"+. c gray94",
"@. c #F1F1F1",
"#. c gray95",
"$. c #F3F3F3",
"%. c #F4F4F4",
"&. c gray96",
"*. c #F6F6F6",
"=. c gray97",
"-. c #F8F8F8",
";. c #F9F9F9",
":. c gray98",
">. c #FBFBFB",
",. c gray99",
"<. c #FDFDFD",
"1. c None",
/* pixels */
"1.1.1.1.1.1.1.1.1.1.1.1.1.1.1.1.",
"1.3 ;.<.<.;.&.&.;.&.&.&.&.X.> 1.",
"1.y <.;.;.s % % L @.@.@.X.X.t 1.",
"1.y <.;.W L T } x @.X.X.X.X.w 1.",
"1.t ;.;.} &.E Y ] X.X.X.} } q 1.",
"1.t ;.&.&.&.@.I X.X.X.} } } 7 1.",
"1.w ;.~ G G G g G C f % n } 3 1.",
"1.q &.&.@.@.X.L X.} V $ x } 3 1.",
"1.7 &.W G C C f C V a X x ] 1 1.",
"1.7 &.@.X.X.X.L } } n $ x ] > 1.",
"1.3 @.W G C C f V V i X z ( > 1.",
"1.3 @.X.X.L 1 w ] ] n + z ( - 1.",
"1.> X.E V 3 f $ V n i   z ~ = 1.",
"1.1 X.X.} I s W ( ( b + j ~ * 1.",
"1.o X.W G C C C C C n z Y ]   1.",
"1.1.1.1.1.1.1.1.1.1.1.1.1.1.1.1."
};
