/* XPM */
static char *konqueror[] = {
/* columns rows colors chars-per-pixel */
"16 14 245 2",
"   c #2E54B0",
".  c #3456B0",
"X  c #3561BB",
"o  c #3665BA",
"O  c #3765BE",
"+  c #3B62B8",
"@  c #3A68BF",
"#  c #3A6FBF",
"$  c #2F6FCB",
"%  c #2B7AD9",
"&  c #396FC7",
"*  c #3B6EC4",
"=  c #3A7CD3",
"-  c #397CD4",
";  c #435DA9",
":  c #4660AB",
">  c #4661AB",
",  c #4760AB",
"<  c #4662AB",
"1  c #4663AB",
"2  c #4664AC",
"3  c #4665AC",
"4  c #4666AC",
"5  c #4667AD",
"6  c #4568AE",
"7  c #4569AE",
"8  c #446AAF",
"9  c #456AAE",
"0  c #476DAF",
"q  c #466FAF",
"w  c #4C67AF",
"e  c #4B6DBE",
"r  c #4D74B4",
"t  c #4D77B5",
"y  c #506BB1",
"u  c #5470B3",
"i  c #527AB6",
"p  c #557CB8",
"a  c #567EB8",
"s  c #5874B5",
"d  c #5B78B7",
"f  c #5C7EBA",
"g  c #5D7EBA",
"h  c #5F7CB9",
"j  c #5E7EBA",
"k  c #5F7EBA",
"l  c #5F7FBA",
"z  c #4373C2",
"x  c #427CCF",
"c  c #457BCB",
"v  c #4B74C5",
"b  c #4F72C1",
"n  c #4D74C1",
"m  c #4C75C2",
"M  c #4F76C5",
"N  c #4978CB",
"B  c #4E7FCC",
"V  c #5174C1",
"C  c #5176C4",
"Z  c #2E83D9",
"A  c #3382DD",
"S  c #3B8EDC",
"D  c #3A91E0",
"F  c #5383BE",
"G  c #5186BB",
"H  c #5685BF",
"J  c #5589BD",
"K  c #5A82BA",
"L  c #5B87BF",
"P  c #5D81BC",
"I  c #5D85BE",
"U  c #5D85BF",
"Y  c #5C86BE",
"T  c #5E87BC",
"R  c #5988BF",
"E  c #5989BF",
"W  c #588ABF",
"Q  c #598ABF",
"!  c #5D8BBF",
"~  c #5E8CBF",
"^  c #608BBE",
"/  c #618BBE",
"(  c #618CBF",
")  c #628DBF",
"_  c #4482CA",
"`  c #4789CE",
"'  c #4C88CE",
"]  c #4D82D2",
"[  c #4C86D8",
"{  c #4E8EDE",
"}  c #4897DE",
"|  c #5C8CC0",
" . c #5C8FCF",
".. c #5F8AD4",
"X. c #5698D6",
"o. c #5A95DE",
"O. c #5D9CD9",
"+. c #5F9CDB",
"@. c #448DE0",
"#. c #4E93E4",
"$. c #5E9AE0",
"%. c #5DA4E6",
"&. c #6D8CCA",
"*. c #609ADC",
"=. c #639ADE",
"-. c #6A96D6",
";. c #6A9DDD",
":. c #6BA6DD",
">. c #75A7DA",
",. c #7DB0DF",
"<. c #61A4E0",
"1. c #63A4E3",
"2. c #65A8E8",
"3. c #69A1E2",
"4. c #6BA0E1",
"5. c #69A6E3",
"6. c #6EA6E7",
"7. c #6EA8E2",
"8. c #77A7E3",
"9. c #75A8E5",
"0. c #77AEE8",
"q. c #79AEE1",
"w. c #7EAFE2",
"e. c #7DACE5",
"r. c #7EADE6",
"t. c #7EB3E3",
"y. c #7FB4E4",
"u. c #7DB0EB",
"i. c #808EBF",
"p. c #8699BF",
"a. c #8799BF",
"s. c #8EA6C0",
"d. c #85A4D8",
"f. c #89B4DF",
"g. c #8EB4DF",
"h. c #95B1DE",
"j. c #9FB7DF",
"k. c #84B1E1",
"l. c #85B7E4",
"z. c #80B3EB",
"x. c #80B2EC",
"c. c #82B9E5",
"v. c #85B9E6",
"b. c #86B8E5",
"n. c #89B3E6",
"m. c #89B7E3",
"M. c #8ABAE8",
"N. c #89B9ED",
"B. c #93BCE4",
"V. c #96BBE5",
"C. c #95BCE5",
"Z. c #97BCE4",
"A. c #93BAE9",
"S. c #93BAEA",
"D. c #90BEE9",
"F. c #93BDED",
"G. c #98BAE6",
"H. c #99BAE6",
"J. c #9DBAE1",
"K. c #9CBBE2",
"L. c #9FBFE5",
"P. c #9BBDE9",
"I. c #91BEF0",
"U. c #A1BCE3",
"Y. c #A0BFE4",
"T. c #A4BDE2",
"R. c #A7BFE3",
"E. c #9AC0E7",
"W. c #98C2E9",
"Q. c #9EC0EA",
"!. c #9AC3F1",
"~. c #A6C0E4",
"^. c #A1C6EC",
"/. c #A6C7ED",
"(. c #A4C8E9",
"). c #A5CAEA",
"_. c #A5CBEB",
"`. c #A9C2E6",
"'. c #AEC7E7",
"]. c #A9C5EA",
"[. c #A8C7EC",
"{. c #ABCEED",
"}. c #AEC9EC",
"|. c #ACCFED",
" X c #A2C8F4",
".X c #A5C8F0",
"XX c #A7C8F0",
"oX c #A8CCF4",
"OX c #ADD0EE",
"+X c #AFD0EC",
"@X c #B7CDEB",
"#X c #B5D3ED",
"$X c #B8D0EE",
"%X c #BDD2EF",
"&X c #B2D2F6",
"*X c #B0D4F0",
"=X c #B5D4F6",
"-X c #B5DDF4",
";X c #BFD4F0",
":X c #BCD7F5",
">X c #C1D9F2",
",X c #C7DBF2",
"<X c #C3DCF9",
"1X c #C3DEFB",
"2X c #C5DEF9",
"3X c #CADBF0",
"4X c #CADCF2",
"5X c #CFDEF1",
"6X c #CCE0F2",
"7X c #D3E0F3",
"8X c #D7E2F2",
"9X c #D5E7F7",
"0X c #D7E8F6",
"qX c #D0E9F8",
"wX c #D7EBF8",
"eX c #D7EDFA",
"rX c #DDE6F4",
"tX c #D8EAF7",
"yX c #DFE8F5",
"uX c #DFEAF6",
"iX c #E0E9F5",
"pX c #E1EBF7",
"aX c #E0ECF8",
"sX c #E1ECF8",
"dX c #E5EFF9",
"fX c #E6EFF9",
"gX c #E4F1FB",
"hX c #E5F2FA",
"jX c #E5F2FB",
"kX c #EAF4FC",
"lX c #EEF3F9",
"zX c #ECF5FC",
"xX c #EFF8FD",
"cX c #F1F7FC",
"vX c #F3FAFD",
"bX c #F4F9FE",
"nX c #F6FAFE",
"mX c #F7FCFF",
"MX c #FAFDFF",
"NX c #FBFCFE",
"BX c #FDFDFC",
"VX c #FCFEFF",
"CX c #FEFEFE",
"ZX c #FEFFFF",
"AX c gray100",
/* pixels */
"; h.~.~.R.R.U.j.j.L.E.C.Z.E.f.q ",
"w V.*XOX{.{.|.gXwX).).qXeX-Xy.t ",
"y t.v.y.t.,.B.nX0X>.#XgXeXc.:.i ",
"y 9.<.W.0Xv.m.nX6Xf.kXgX,.X.O.a ",
"s 1.} M.ZXZX(.cXgXsXxXg._ ` ' K ",
"d %.D S sXM.*.ZXNXNXzX .# o z T ",
"j 2.5.^.>XZ *.ZX5X'.ZX3X+ . n / ",
"h 0.iXZXXX% =.ZX7Xc uXZXj.  V ) ",
"k N.n.$X>X@.:.ZXyX$ -.ZXZX&.e ) ",
"h !.x.9.iXk.o.H.;.= V.U.d.n b / ",
"k oXF.].cXlXQ.o.3.,XZX4X* X C ! ",
"f =X.X@X8XP.%XZXfX8.}.uXB X M ! ",
"f 1X:X.XS.u.e.ZX[.% - x * * v | ",
"r 1X1X&X XI.x.S.6.#.{ [ ] N ..G ",
};
