/* XPM */
static char * lock_xpm[] = {
"16 16 54 1",
" 	c None",
".	c #B9B9B9",
"+	c #B5B5B5",
"@	c #BCBCBC",
"#	c #BABABA",
"$	c #797979",
"%	c #4B4B4B",
"&	c #6C6C6C",
"*	c #B8B8B8",
"=	c #646464",
"-	c #999999",
";	c #979797",
">	c #5A5A5A",
",	c #545454",
"'	c #B3B3B3",
")	c #9D9D9D",
"!	c #626262",
"~	c #B1B1B1",
"{	c #4C4C4C",
"]	c #959595",
"^	c #757575",
"/	c #636363",
"(	c #616161",
"_	c #767676",
":	c #CCCCCC",
"<	c #6F6F6F",
"[	c #686868",
"}	c #BFBFBF",
"|	c #BEBEBE",
"1	c #676767",
"2	c #707070",
"3	c #CACACA",
"4	c #E1C069",
"5	c #DDC174",
"6	c #B19A63",
"7	c #AB945D",
"8	c #D1B676",
"9	c #D9B358",
"0	c #D0B676",
"a	c #CDA04A",
"b	c #CB9430",
"c	c #E3C26B",
"d	c #E6CA74",
"e	c #E3C36B",
"f	c #DBB458",
"g	c #CC922D",
"h	c #C48319",
"i	c #C9912B",
"j	c #E5C873",
"k	c #C5841C",
"l	c #E2C36C",
"m	c #E1C067",
"n	c #CE9A35",
"o	c #CA912A",
"      .++@      ",
"     #$%%&+     ",
"    **=-;>,'    ",
"    )!~  ~{]    ",
"    ^/@  *(_    ",
"   :<[}  |123   ",
"   :<[}  |123   ",
"  4567899076ab  ",
" cdeffffffffghi ",
" jdeffffffffghk ",
" ddeffffffffghh ",
" ddeffffffffghh ",
" ddeffffffffghh ",
" ddeffffffffghh ",
" ddeffffffffghh ",
" llm99999999noo "};
