/* XPM */
static char * ram_xpm[] = {
"16 14 62 1",
" 	c None",
".	c #A0A0A0",
"+	c #7D7D7C",
"@	c #7E7E7E",
"#	c #7B7B7B",
"$	c #BABABA",
"%	c #797979",
"&	c #7E7E7D",
"*	c #7F7F7F",
"=	c #7A7A79",
"-	c #030302",
";	c #0A0A08",
">	c #11110E",
",	c #C7C7C7",
"'	c #000000",
")	c #080806",
"!	c #0E0D0B",
"~	c #7F7F7E",
"{	c #7C7C7B",
"]	c #060605",
"^	c #0E0E0D",
"/	c #1C1B17",
"(	c #C6C6C6",
"_	c #0C0C0A",
":	c #161611",
"<	c #848482",
"[	c #0C0C09",
"}	c #1D1D19",
"|	c #20201A",
"1	c #040503",
"2	c #191814",
"3	c #23231D",
"4	c #818181",
"5	c #7C7C7C",
"6	c #171713",
"7	c #272620",
"8	c #22221C",
"9	c #C5C5C6",
"0	c #0B0A08",
"a	c #25241E",
"b	c #2B2A22",
"c	c #818180",
"d	c #22211C",
"e	c #2A2922",
"f	c #C5C5C5",
"g	c #13130F",
"h	c #282720",
"i	c #2E2D25",
"j	c #81807F",
"k	c #C4C4C5",
"l	c #1D1C16",
"m	c #2C2B23",
"n	c #333228",
"o	c #828281",
"p	c #A1A1A1",
"q	c #838381",
"r	c #848382",
"s	c #80807F",
"t	c #B9B9B9",
"u	c #838382",
"v	c #858583",
"w	c #A1A0A0",
"                ",
"                ",
"                ",
"    .+@#$%&*.   ",
"    =-;>,')!~   ",
"    {]^/('_:<   ",
"    {[}|(1234   ",
"    567890abc   ",
"    +deafghic   ",
"    jhibklmno   ",
"    pqrst~uvw   ",
"                ",
"                ",
"                "};
