/* XPM */
static char * volume8_xpm[] = {
"16 14 3 1",
" 	c None",
".	c #B4B4B4",
"+	c #040404",
"                ",
"                ",
"            .   ",
"           ..   ",
"          +..   ",
"         ++..   ",
"        +++..   ",
"       ++++..   ",
"      +++++..   ",
"     ++++++..   ",
"    +++++++..   ",
"   ++++++++..   ",
"  +++++++++..   ",
"                "};
