/* XPM */
static char * volume10_xpm[] = {
"16 14 2 1",
" 	c None",
".	c #040404",
"                ",
"                ",
"            .   ",
"           ..   ",
"          ...   ",
"         ....   ",
"        .....   ",
"       ......   ",
"      .......   ",
"     ........   ",
"    .........   ",
"   ..........   ",
"  ...........   ",
"                "};
