/* XPM */
static char * wifi1_xpm[] = {
"16 14 3 1",
" 	c None",
".	c #DEDEDE",
"+	c #3B3B3B",
"                ",
"                ",
"     ......     ",
"   ..........   ",
" .....    ....  ",
"  ..  ++++  ..  ",
"    ++++++++    ",
"    ++++++++    ",
"    +      +    ",
"      ++++      ",
"      ++++      ",
"       ++       ",
"                ",
"                "};
