/* XPM */
static char * wifi5_xpm[] = {
"16 16 15 1",
" 	c None",
".	c #5F5F5F",
"+	c #606060",
"@	c #565656",
"#	c #5B5B5B",
"$	c #7D7D7D",
"%	c #A2A2A2",
"&	c #9E9E9E",
"*	c #F3F3F3",
"=	c #A7A7A7",
"-	c #C8C8C8",
";	c #EAEAEA",
">	c #E6E6E6",
",	c #898989",
"'	c #BCBCBC",
"                ",
"                ",
"     . .. .     ",
"   ...+@@+...   ",
" ..#$%&**&%$#.. ",
".#=-;>>>>>>;-$#.",
" ,;>>>>>>>>>>;' ",
"  >>>>>>>>>>>>  ",
"   >>>>>>>>>>   ",
"    >>>>>>>>    ",
"     >>>>>>     ",
"      >>>>>     ",
"      >>>>      ",
"       >>       ",
"                ",
"                "};
