/* XPM */
static char * wifi6_xpm[] = {
"16 16 2 1",
" 	c None",
".	c #E6E6E6",
"                ",
"                ",
"     . .. .     ",
"   ..........   ",
" .............. ",
"................",
" .............. ",
"  ............  ",
"   ..........   ",
"    ........    ",
"     ......     ",
"      .....     ",
"      ....      ",
"       ..       ",
"                ",
"                "};
