/* XPM */
static char * wifi3_xpm[] = {
"16 16 15 1",
" 	c None",
".	c #5F5F5F",
"+	c #5B5B5B",
"@	c #575757",
"#	c #525252",
"$	c #A7A7A7",
"%	c #565656",
"&	c #606060",
"*	c #CACACA",
"=	c #EEEEEE",
"-	c #EFEFEF",
";	c #E5E5E5",
">	c #F3F3F3",
",	c #A2A2A2",
"'	c #E6E6E6",
"                ",
"                ",
"     . .. .     ",
"   ..........   ",
" .............. ",
"................",
" .............. ",
"  ............  ",
"   .+@#$$#%&.   ",
"    *=-;;->,    ",
"     ''''''     ",
"      '''''     ",
"      ''''      ",
"       ''       ",
"                ",
"                "};
