/* XPM */
static char * lock_xpm[] = {
"64 64 109 2",
"  	c None",
". 	c #CCCCCC",
"+ 	c #CBCBCB",
"@ 	c #C3C3C3",
"# 	c #ABABAB",
"$ 	c #7F7F7F",
"% 	c #5C5C5C",
"& 	c #4A4A4A",
"* 	c #494949",
"= 	c #4B4B4B",
"- 	c #5D5D5D",
"; 	c #808080",
"> 	c #ACACAC",
", 	c #A2A2A2",
"' 	c #595959",
") 	c #5A5A5A",
"! 	c #A3A3A3",
"~ 	c #CDCDCD",
"{ 	c #CACACA",
"] 	c #C9C9C9",
"^ 	c #BEBEBE",
"/ 	c #555555",
"( 	c #6E6E6E",
"_ 	c #C1C1C1",
": 	c #C6C6C6",
"< 	c #777777",
"[ 	c #BBBBBB",
"} 	c #C4C4C4",
"| 	c #C8C8C8",
"1 	c #575757",
"2 	c #656565",
"3 	c #757575",
"4 	c #7E7E7E",
"5 	c #646464",
"6 	c #696969",
"7 	c #8C8C8C",
"8 	c #4C4C4C",
"9 	c #858585",
"0 	c #BFBFBF",
"a 	c #838383",
"b 	c #8B8B8B",
"c 	c #C7C7C7",
"d 	c #9A9A9A",
"e 	c #535353",
"f 	c #B0B0B0",
"g 	c #AEAEAE",
"h 	c #525252",
"i 	c #4F4F4F",
"j 	c #C2C2C2",
"k 	c #B3B3B3",
"l 	c #B2B2B2",
"m 	c #4D4D4D",
"n 	c #AFAFAF",
"o 	c #888888",
"p 	c #606060",
"q 	c #A4A4A4",
"r 	c #A7A7A7",
"s 	c #5F5F5F",
"t 	c #909090",
"u 	c #545454",
"v 	c #8A8A8A",
"w 	c #828282",
"x 	c #8D8D8D",
"y 	c #767676",
"z 	c #A5A5A5",
"A 	c #7A7A7A",
"B 	c #6A6A6A",
"C 	c #B7B7B7",
"D 	c #B4B4B4",
"E 	c #616161",
"F 	c #E1BF67",
"G 	c #DCC17D",
"H 	c #D1C4A5",
"I 	c #86795A",
"J 	c #7A6D4E",
"K 	c #CCBFA0",
"L 	c #D2C096",
"M 	c #D2C098",
"N 	c #CABD9E",
"O 	c #887B5C",
"P 	c #CFA75B",
"Q 	c #CC9630",
"R 	c #E2C269",
"S 	c #E4C671",
"T 	c #E6CA74",
"U 	c #E3C56D",
"V 	c #DBB458",
"W 	c #CA8F29",
"X 	c #C48319",
"Y 	c #C68920",
"Z 	c #CC922D",
"` 	c #E4C871",
" .	c #C5871E",
"..	c #E2C16A",
"+.	c #C5831A",
"@.	c #CC9530",
"#.	c #E5C974",
"$.	c #C4831B",
"%.	c #E4C770",
"&.	c #DFC169",
"*.	c #CC9531",
"=.	c #E3C46D",
"-.	c #C98E28",
";.	c #E4C872",
">.	c #C6871D",
",.	c #E1C26A",
"'.	c #E0BE65",
").	c #CD9836",
"!.	c #CA942F",
"                                                                                                                                ",
"                                                          . . . . + +                                                           ",
"                                                  + + . . . . . . . . . . . +                                                   ",
"                                              . . . . . . + @ @ @ @ + . . . . . +                                               ",
"                                            + . . + # $ % & * * * * = - ; > + . . .                                             ",
"                                        + + . . , ' * * * * * * * * * * * * ) ! . . . ~                                         ",
"                                      { . . ] . ^ / * * * * * * * * * * * * * * ( _ . . +                                       ",
"                                      + . : . . . < * * * * * * * * * * * * * * * - [ . .                                       ",
"                                    ~ . } . . . | ) * * * * * * * * * * * * * * * * 1 ^ . .                                     ",
"                                  . . { + . . + < * * * & 2 3 4 4 3 5 & * * * * * * * 6 { . .                                   ",
"                                  . . @ . . . 7 * * 8 9 0 . . . . . . ^ a = * * * * * * b . .                                   ",
"                                . . c . . . d & * e f . . . + + + + . . . g h * * * * * i j . +                                 ",
"                                . . k . . l = * m l . . +             . . . n 8 * * * * * o . .                                 ",
"                              . . + p q r s * * t . . +                 { . . 7 * * * * * u + . .                               ",
"                              . . n * * * * * / c . .                     . . : h * * * * * l . +                               ",
"                              + . v * * * * * w . .                         . . 4 * * * * * x . .                               ",
"                              . . y * * * * * z . +                         . . , * * * * * A . .                               ",
"                              . . B * * * * * C . +                         . . D * * * * * ( . .                               ",
"                              . . s * * * * * j . {                         + . 0 * * * * * E . .                               ",
"                              . . % * * * * * } . +                         . . j * * * * * s . .                               ",
"                              . . % * * * * * } . +                         . . j * * * * * s . .                               ",
"                              . . % * * * * * } . +                         . . j * * * * * s . .                               ",
"                              . . % * * * * * } . +                         . . j * * * * * s . .                               ",
"                              . . % * * * * * } . +                         . . j * * * * * s . .                               ",
"                              . . % * * * * * } . +                         . . j * * * * * s . .                               ",
"                              . . % * * * * * } . +                         . . j * * * * * s . .                               ",
"                              . . % * * * * * } . +                         . . j * * * * * s . .                               ",
"                              . . % * * * * * } . +                         . . j * * * * * s . .                               ",
"                              . . % * * * * * } . +                         . . j * * * * * s . .                               ",
"                          F G H H I J J J J J K H L                         M H N J J J J J O H H P Q                           ",
"                  R S T T T U V V V V V V V V V V V V V V V V V V V V V V V V V V V V V V V V V V W X X X Y Z                   ",
"                ` T T T T T U V V V V V V V V V V V V V V V V V V V V V V V V V V V V V V V V V V W X X X X X  .                ",
"            ..T T T T T T T U V V V V V V V V V V V V V V V V V V V V V V V V V V V V V V V V V V W X X X X X X +.@.            ",
"            #.T T T T T T T U V V V V V V V V V V V V V V V V V V V V V V V V V V V V V V V V V V W X X X X X X X $.            ",
"          %.T T T T T T T T U V V V V V V V V V V V V V V V V V V V V V V V V V V V V V V V V V V W X X X X X X X X Y           ",
"        &.T T T T T T T T T U V V V V V V V V V V V V V V V V V V V V V V V V V V V V V V V V V V W X X X X X X X X X *.        ",
"        =.T T T T T T T T T U V V V V V V V V V V V V V V V V V V V V V V V V V V V V V V V V V V W X X X X X X X X X -.        ",
"        ;.T T T T T T T T T U V V V V V V V V V V V V V V V V V V V V V V V V V V V V V V V V V V W X X X X X X X X X >.        ",
"        T T T T T T T T T T U V V V V V V V V V V V V V V V V V V V V V V V V V V V V V V V V V V W X X X X X X X X X X         ",
"        T T T T T T T T T T U V V V V V V V V V V V V V V V V V V V V V V V V V V V V V V V V V V W X X X X X X X X X X         ",
"        T T T T T T T T T T U V V V V V V V V V V V V V V V V V V V V V V V V V V V V V V V V V V W X X X X X X X X X X         ",
"        T T T T T T T T T T U V V V V V V V V V V V V V V V V V V V V V V V V V V V V V V V V V V W X X X X X X X X X X         ",
"        T T T T T T T T T T U V V V V V V V V V V V V V V V V V V V V V V V V V V V V V V V V V V W X X X X X X X X X X         ",
"        T T T T T T T T T T U V V V V V V V V V V V V V V V V V V V V V V V V V V V V V V V V V V W X X X X X X X X X X         ",
"        T T T T T T T T T T U V V V V V V V V V V V V V V V V V V V V V V V V V V V V V V V V V V W X X X X X X X X X X         ",
"        T T T T T T T T T T U V V V V V V V V V V V V V V V V V V V V V V V V V V V V V V V V V V W X X X X X X X X X X         ",
"        T T T T T T T T T T U V V V V V V V V V V V V V V V V V V V V V V V V V V V V V V V V V V W X X X X X X X X X X         ",
"        T T T T T T T T T T U V V V V V V V V V V V V V V V V V V V V V V V V V V V V V V V V V V W X X X X X X X X X X         ",
"        T T T T T T T T T T U V V V V V V V V V V V V V V V V V V V V V V V V V V V V V V V V V V W X X X X X X X X X X         ",
"        T T T T T T T T T T U V V V V V V V V V V V V V V V V V V V V V V V V V V V V V V V V V V W X X X X X X X X X X         ",
"        T T T T T T T T T T U V V V V V V V V V V V V V V V V V V V V V V V V V V V V V V V V V V W X X X X X X X X X X         ",
"        T T T T T T T T T T U V V V V V V V V V V V V V V V V V V V V V V V V V V V V V V V V V V W X X X X X X X X X X         ",
"        T T T T T T T T T T U V V V V V V V V V V V V V V V V V V V V V V V V V V V V V V V V V V W X X X X X X X X X X         ",
"        T T T T T T T T T T U V V V V V V V V V V V V V V V V V V V V V V V V V V V V V V V V V V W X X X X X X X X X X         ",
"        T T T T T T T T T T U V V V V V V V V V V V V V V V V V V V V V V V V V V V V V V V V V V W X X X X X X X X X X         ",
"        T T T T T T T T T T U V V V V V V V V V V V V V V V V V V V V V V V V V V V V V V V V V V W X X X X X X X X X X         ",
"        T T T T T T T T T T U V V V V V V V V V V V V V V V V V V V V V V V V V V V V V V V V V V W X X X X X X X X X X         ",
"        T T T T T T T T T T U V V V V V V V V V V V V V V V V V V V V V V V V V V V V V V V V V V W X X X X X X X X X X         ",
"        T T T T T T T T T T U V V V V V V V V V V V V V V V V V V V V V V V V V V V V V V V V V V W X X X X X X X X X X         ",
"        T T T T T T T T T T U V V V V V V V V V V V V V V V V V V V V V V V V V V V V V V V V V V W X X X X X X X X X X         ",
"        T T T T T T T T T T U V V V V V V V V V V V V V V V V V V V V V V V V V V V V V V V V V V W X X X X X X X X X X         ",
"        T T T T T T T T T T U V V V V V V V V V V V V V V V V V V V V V V V V V V V V V V V V V V W X X X X X X X X X X         ",
"        ,.,.,.,.,.,.,.,.,.,.'.                                                                    ).!.!.!.!.!.!.!.!.!.!.        ",
"                                                                                                                                "};
