/* XPM */
static char *browser[] = {
/* columns rows colors chars-per-pixel */
"16 14 190 2",
"   c #090E29",
".  c #091339",
"X  c #0D173C",
"o  c #141C3C",
"O  c #083727",
"+  c #0A3F2F",
"@  c #083E34",
"#  c #013F3E",
"$  c #05561F",
"%  c #046311",
"&  c #014321",
"*  c #014525",
"=  c #034928",
"-  c #065722",
";  c #095A24",
":  c #095B29",
">  c #0F5730",
",  c #096921",
"<  c #176C38",
"1  c #0C0E4A",
"2  c #0B0D53",
"3  c #0A1852",
"4  c #142042",
"5  c #182447",
"6  c #071765",
"7  c #21246D",
"8  c #2C3E72",
"9  c #2C3F73",
"0  c #343F73",
"q  c #084646",
"w  c #124B45",
"e  c #1B4C43",
"r  c #0A5240",
"t  c #0E5741",
"y  c #225546",
"u  c #24564C",
"i  c #2A5E59",
"p  c #236D6F",
"a  c #247669",
"s  c #4A706C",
"d  c #28824A",
"f  c #3A9161",
"g  c #308676",
"h  c #388075",
"j  c #34897B",
"k  c #428F7B",
"l  c #41987F",
"z  c #4BA377",
"x  c #56A975",
"c  c #111297",
"v  c #273BA5",
"b  c #2A3AA3",
"n  c #284785",
"m  c #354A9A",
"M  c #385B99",
"N  c #2F7685",
"B  c #386F92",
"V  c #3B609F",
"C  c #3C749D",
"Z  c #3041AF",
"A  c #3A58AC",
"S  c #3B55B7",
"D  c #3F70AA",
"F  c #426197",
"G  c #456696",
"H  c #5C6BA2",
"J  c #457CAD",
"K  c #5074BE",
"L  c #328A86",
"P  c #3A839E",
"I  c #3B8AB7",
"U  c #3D91B1",
"Y  c #4D868B",
"T  c #4E9C9D",
"R  c #7C9995",
"E  c #53A981",
"W  c #61BB86",
"Q  c #62B689",
"!  c #478FA3",
"~  c #4493AA",
"^  c #418BB1",
"/  c #418EB6",
"(  c #5D97BB",
")  c #6FB2A8",
"_  c #7EB5A5",
"`  c #7DA8B3",
"'  c #5E93C9",
"]  c #6E9CC6",
"[  c #7C9AC6",
"{  c #54A3DB",
"}  c #72B2C9",
"|  c #61AFD4",
" . c #6BACDB",
".. c #56A9E3",
"X. c #54AAED",
"o. c #5BAEF5",
"O. c #5AAEFF",
"+. c #5EB1FF",
"@. c #5DB3FF",
"#. c #5FB4FF",
"$. c #67B0E5",
"%. c #7BBDE1",
"&. c #63B3F5",
"*. c #60B3FF",
"=. c #65B7FF",
"-. c #62B8FF",
";. c #70B9FF",
":. c #73BBFF",
">. c #74BAFF",
",. c #72BEFF",
"<. c #7DC0FF",
"1. c #86A885",
"2. c #8FA69F",
"3. c #8FA7A0",
"4. c #90A9A6",
"5. c #93ABA8",
"6. c #95C7BD",
"7. c #8ED3BF",
"8. c #B5CDBA",
"9. c #ABD8B7",
"0. c #BED8BE",
"q. c #8592C7",
"w. c #8ABAEC",
"e. c #9EB7E2",
"r. c #B8CFC2",
"t. c #B7D0C4",
"y. c #BAD1C6",
"u. c #BFD8C0",
"i. c #BCD5CD",
"p. c #8EC7ED",
"a. c #83C5FD",
"s. c #8DC9F8",
"d. c #8FC8FF",
"f. c #8EC9FF",
"g. c #8CCAFF",
"h. c #93CAFF",
"j. c #94CBFF",
"k. c #9CCFFF",
"l. c #9FD2FF",
"z. c #B9C8EB",
"x. c #ABD5EE",
"c. c #B9D2E0",
"v. c #BADDE0",
"b. c #ADC8F2",
"n. c #A9D6FF",
"m. c #BDD9F6",
"M. c #B2DBFF",
"N. c #B7DEFF",
"B. c #B9DCFF",
"V. c #BBDCFF",
"C. c #BDDDFF",
"Z. c #C1D9C3",
"A. c #CADFC0",
"S. c #D1E9CC",
"D. c #D6E7D5",
"F. c #DCEAD5",
"G. c #D6E8D9",
"H. c #CEF5DF",
"J. c #CFF8DD",
"K. c #E5F0DE",
"L. c #E9F6DB",
"P. c #E7F8DB",
"I. c #D8E9E5",
"U. c #CFF0EB",
"Y. c #D6F5E6",
"T. c #DFFAE9",
"R. c #C2E0FF",
"E. c #C3E0FF",
"W. c #CEEAFF",
"Q. c #D4E4FD",
"!. c #D1EAFF",
"~. c #DAEEF9",
"^. c #E3EFE3",
"/. c #EDF5EC",
"(. c #E0EEF1",
"). c #E5EFFF",
"_. c #E1F0FF",
"`. c #E9F4F8",
"'. c #ECF7F8",
"]. c #EAF6FF",
"[. c #E1F8FF",
"{. c #E3FDFF",
"}. c #F2FEFA",
"|. c #F6FFFF",
" X c #FFFFFB",
".X c #F8FDFF",
"XX c #F9FFFF",
"oX c #FAFFFF",
"OX c #FFFFFF",
"+X c None",
/* pixels */
"+X+X+XZ e.'.OXOX X}.m.K 6 +X+X+X",
"+X+XS v.P.K./.^.D.F.L.U.' 3 +X+X",
"+Xv 6.S.I.`..XG.0.u.Z.A.9.J +X+X",
"c C _ ~._.].(.r.y.i.t.8.1.h n +X",
"b ^ X.g.N.c.2.3.5.4.R s O + D +X",
"A N I o.,. .i y u e @ # q w B 4 ",
"V > & p ..=.{ / r * = t P ! ( 5 ",
"M < - $ U @.#.-.a ; : ~ $.} w.o ",
"m d , j &.@.O.@.L % g a.T f ]   ",
"7 k z s.>.>.;.,.| l %.p.) x G +X",
"+XF 7.M.n.h.g.h.j.l.n.x.[.b.X +X",
"+X1 [ [.W.R.B.N.C.E.!.|.Q.9 +X+X",
"+X+X2 q._.J.Y.Y.^..X.Xz.9 +X+X+X",
"+X+X+X+X0 Y E W W ` H . +X+X+X+X"
};
