/* XPM */
static char * chromium_xpm[] = {
"32 32 316 2",
"  	c None",
". 	c #5A84AE",
"+ 	c #5E88B2",
"@ 	c #6089B3",
"# 	c #618AB4",
"$ 	c #628BB4",
"% 	c #608AB3",
"& 	c #5F88B2",
"* 	c #5D87B1",
"= 	c #5A85AF",
"- 	c #5780AB",
"; 	c #5681AD",
"> 	c #5A85B0",
", 	c #5C87B1",
"' 	c #648CB5",
") 	c #638CB5",
"! 	c #5F89B3",
"~ 	c #5D87B2",
"{ 	c #5B86B0",
"] 	c #5985AF",
"^ 	c #5783AE",
"/ 	c #5682AD",
"( 	c #5883AE",
"_ 	c #618AB3",
": 	c #5B85B0",
"< 	c #5984AF",
"[ 	c #5581AD",
"} 	c #517EAA",
"| 	c #4C79A4",
"1 	c #527FAB",
"2 	c #5481AC",
"3 	c #5C86B1",
"4 	c #5480AC",
"5 	c #517FAB",
"6 	c #4B78A5",
"7 	c #406E9C",
"8 	c #4877A5",
"9 	c #4D7BA8",
"0 	c #5884AF",
"a 	c #5883AF",
"b 	c #5380AC",
"c 	c #4C7AA7",
"d 	c #4776A4",
"e 	c #40709F",
"f 	c #3D6D9E",
"g 	c #4172A1",
"h 	c #4675A3",
"i 	c #4A79A6",
"j 	c #4E7CA9",
"k 	c #5582AD",
"l 	c #4E7CA8",
"m 	c #4978A6",
"n 	c #4575A3",
"o 	c #4071A0",
"p 	c #3D6D9A",
"q 	c #6D9ED0",
"r 	c #37679C",
"s 	c #3D6E9D",
"t 	c #4B7AA7",
"u 	c #4F7DA9",
"v 	c #507EAA",
"w 	c #4B79A7",
"x 	c #4474A3",
"y 	c #4172A0",
"z 	c #75A7D8",
"A 	c #5F8FBF",
"B 	c #305E93",
"C 	c #3E6F9E",
"D 	c #4273A1",
"E 	c #5C85AE",
"F 	c #99AECA",
"G 	c #BCC9DE",
"H 	c #BFCEE6",
"I 	c #B2C7E1",
"J 	c #97B4D4",
"K 	c #85A9CC",
"L 	c #85A8CC",
"M 	c #86A9CC",
"N 	c #88AACC",
"O 	c #89ACCD",
"P 	c #8BACCE",
"Q 	c #8CADCE",
"R 	c #8DAFCE",
"S 	c #8EAECE",
"T 	c #93B3D0",
"U 	c #6FA0D4",
"V 	c #79AADA",
"W 	c #81B2DD",
"X 	c #416FA1",
"Y 	c #315F93",
"Z 	c #4373A2",
"` 	c #A9BCD2",
" .	c #D7DEEF",
"..	c #BDD0EA",
"+.	c #ABC6E5",
"@.	c #AAC5E5",
"#.	c #BACEE9",
"$.	c #D6E0F1",
"%.	c #CFDCEF",
"&.	c #B4CFE9",
"*.	c #B4CFEA",
"=.	c #B6D0EA",
"-.	c #B9D2EB",
";.	c #BBD4EC",
">.	c #C0D7ED",
",.	c #C4DBEE",
"'.	c #C8DDEF",
").	c #CADEEF",
"!.	c #73A5D7",
"~.	c #7CADDB",
"{.	c #86B5E0",
"].	c #77A6D1",
"^.	c #2F5C92",
"/.	c #316093",
"(.	c #3E6F9F",
"_.	c #AEC0D8",
":.	c #C9D8EC",
"<.	c #90B5DF",
"[.	c #8CB2DD",
"}.	c #8DB4DE",
"|.	c #C1D3EB",
"1.	c #D8E3F2",
"2.	c #BAD2EB",
"3.	c #C6DBEE",
"4.	c #CCDFEF",
"5.	c #CCDFF0",
"6.	c #CBDFF0",
"7.	c #C2D5E6",
"8.	c #679ACC",
"9.	c #7FAFDD",
"0.	c #89B7E1",
"a.	c #8BBBE1",
"b.	c #4F7EAD",
"c.	c #2E5C91",
"d.	c #326093",
"e.	c #7899BC",
"f.	c #D3DDEE",
"g.	c #85AEDA",
"h.	c #83ACD9",
"i.	c #CCDBEE",
"j.	c #D7E3F3",
"k.	c #CDE0F1",
"l.	c #CDE0F0",
"m.	c #CCE0F0",
"n.	c #C8DAEC",
"o.	c #6B9CD0",
"p.	c #77A8D9",
"q.	c #81B1DE",
"r.	c #89B8E1",
"s.	c #8BBCE1",
"t.	c #82B3D7",
"u.	c #326094",
"v.	c #D2DBEA",
"w.	c #B0CAE6",
"x.	c #79A5D5",
"y.	c #95B8DE",
"z.	c #EFF3F9",
"A.	c #CFE0F1",
"B.	c #CBDDEF",
"C.	c #6C9FD2",
"D.	c #78A9DA",
"E.	c #82B2DE",
"F.	c #8AB8E1",
"G.	c #8CBCE1",
"H.	c #8EC0E1",
"I.	c #6192BA",
"J.	c #356194",
"K.	c #F8FAFD",
"L.	c #75A2D3",
"M.	c #709ED1",
"N.	c #F7F9FB",
"O.	c #D5E4F3",
"P.	c #CBDEF0",
"Q.	c #6DA0D3",
"R.	c #83B2DE",
"S.	c #8AB9E1",
"T.	c #8DC2DF",
"U.	c #527BA7",
"V.	c #FAFBFD",
"W.	c #6698CE",
"X.	c #6798CE",
"Y.	c #F2F6FA",
"Z.	c #E1ECF7",
"`.	c #90C4E1",
" +	c #74A5C7",
".+	c #FDFEFE",
"++	c #6596CD",
"@+	c #5D91CA",
"#+	c #F1F5F9",
"$+	c #DAE8F5",
"%+	c #CADEF0",
"&+	c #6A9CD1",
"*+	c #8DBFE1",
"=+	c #8FC2E1",
"-+	c #91C6E1",
";+	c #F5F7FA",
">+	c #A4C1E1",
",+	c #548AC6",
"'+	c #548BC6",
")+	c #6999CD",
"!+	c #EEF2F8",
"~+	c #689ACD",
"{+	c #8BBAE1",
"]+	c #8DBEE1",
"^+	c #8EC1E1",
"/+	c #CCE0EC",
"(+	c #EDF2F8",
"_+	c #4F87C4",
":+	c #4A84C2",
"<+	c #4B84C2",
"[+	c #BED0E8",
"}+	c #D6E0ED",
"|+	c #C7DBED",
"1+	c #86B4E0",
"2+	c #8FC3E1",
"3+	c #EBF1F6",
"4+	c #BFD0E8",
"5+	c #4982C1",
"6+	c #417DBE",
"7+	c #4480BF",
"8+	c #A1BEDF",
"9+	c #C9D9EE",
"0+	c #BCD3E7",
"a+	c #70A2D5",
"b+	c #82B1DE",
"c+	c #8CBDE1",
"d+	c #90C2E1",
"e+	c #C7D9E9",
"f+	c #D1DDEE",
"g+	c #95B4DA",
"h+	c #6D9ACC",
"i+	c #6B98CC",
"j+	c #8CAFD8",
"k+	c #C9D7ED",
"l+	c #B4CAE7",
"m+	c #C0D7EC",
"n+	c #C9DDF0",
"o+	c #6799CB",
"p+	c #7DAEDC",
"q+	c #85B4DF",
"r+	c #8CBEE1",
"s+	c #97C0E1",
"t+	c #B2C7E0",
"u+	c #B6CAE4",
"v+	c #B0C7E6",
"w+	c #A0BEE2",
"x+	c #7FABD9",
"y+	c #94BADF",
"z+	c #B8D1E9",
"A+	c #70A2D4",
"B+	c #78AADA",
"C+	c #80AFDD",
"D+	c #77A9DA",
"E+	c #699DD3",
"F+	c #73A4D6",
"G+	c #C7DCEF",
"H+	c #BBD5EC",
"I+	c #7AABDA",
"J+	c #85B3DF",
"K+	c #88B6E1",
"L+	c #87B6E0",
"M+	c #83B2DF",
"N+	c #7EAEDC",
"O+	c #6FA2D6",
"P+	c #A4C4E4",
"Q+	c #BAD4EC",
"R+	c #A5C6E3",
"S+	c #699CCE",
"T+	c #74A6D8",
"U+	c #81B0DD",
"V+	c #80B0DD",
"W+	c #77A9D9",
"X+	c #6A9ED3",
"Y+	c #7AA8D8",
"Z+	c #C5DBEF",
"`+	c #B6D2EB",
" @	c #A6C7E5",
".@	c #6A9CCF",
"+@	c #72A5D7",
"@@	c #76A8D9",
"#@	c #7BACDB",
"$@	c #7BABDB",
"%@	c #B1CEE8",
"&@	c #BED7ED",
"*@	c #B0CEEA",
"=@	c #A1C4E4",
"-@	c #6699CA",
";@	c #72A4D7",
">@	c #73A5D8",
",@	c #71A3D6",
"'@	c #6EA1D5",
")@	c #86AFDC",
"!@	c #BFD7ED",
"~@	c #B3D0EA",
"{@	c #A7C9E7",
"]@	c #98BEE1",
"^@	c #689CD2",
"/@	c #6C9FD4",
"(@	c #6B9FD4",
"_@	c #BAD3EB",
":@	c #C6DCEF",
"<@	c #C0D8EE",
"[@	c #B9D4EC",
"}@	c #B1CFEA",
"|@	c #9BC1E4",
"1@	c #90B7DC",
"2@	c #6699CD",
"3@	c #89B2DD",
"4@	c #B2D0EA",
"5@	c #AECDE9",
"6@	c #A8C9E8",
"7@	c #A1C5E6",
"8@	c #97BFE2",
"9@	c #8EB7DA",
"0@	c #6498C9",
"a@	c #88B1D8",
"                                                                ",
"                                                                ",
"                                                                ",
"                      . + @ # $ $ % & * = -                     ",
"                  ; > , + % $ ' ) # ! ~ { ] ^                   ",
"                / ( ] { * & @ _ % ! + , : < ^ [ }               ",
"            | 1 2 / ( < > 3 , * * , { > < ^ [ 4 5 6             ",
"          7 8 9 1 4 [ / ^ 0 < < < < a ^ / [ b } c d e           ",
"          f g h i j 1 b 4 [ [ k k [ [ 4 b 5 l m n o o p         ",
"        q r s o g n 8 t 9 u } } } v u 9 w 8 x y o o o o         ",
"        z A B C o o o o D E F G H I J K L M N O P Q R S T       ",
"      U V W X Y C o o Z `  ...+.@.#.$.%.&.*.=.-.;.>.,.'.).      ",
"      !.~.{.].^./.(.y _.:.<.[.[.[.[.}.|.1.2.>.3.4.5.5.6.6.7.    ",
"    8.z 9.0.a.b.c.d.e.f.g.h.h.h.h.h.h.h.i.j.k.k.l.m.5.5.6.n.    ",
"    o.p.q.r.s.t.u.c.v.w.x.x.x.x.x.x.x.x.y.z.A.k.l.m.5.5.6.B.    ",
"    C.D.E.F.G.H.I.J.K.L.M.M.M.M.M.M.M.M.M.N.O.k.l.m.5.5.6.P.    ",
"    Q.D.R.S.G.H.T.U.V.W.W.W.W.W.W.W.X.X.X.Y.Z.k.l.5.5.6.6.P.    ",
"    Q.D.E.F.G.H.`. +.+++@+@+@+@+@+@+@+@+@+#+$+l.m.5.5.6.6.%+    ",
"    &+p.q.r.a.*+=+-+;+>+,+,+,+,+,+'+'+'+)+!+k.l.m.5.6.6.P.%+    ",
"    ~+z 9.0.{+]+^+`./+(+_+:+:+:+:+:+:+<+[+}+l.m.5.5.6.6.%+|+    ",
"      !.~.1+S.G.*+^+2+3+4+5+6+6+6+6+7+8+9+l.m.5.5.6.6.P.%+0+    ",
"      a+V b+0.{+c+*+H.d+e+f+g+h+i+j+k+l+m+m.5.5.6.6.P.%+n+      ",
"      o+z p+q+F.{+G.c+r+c+s+t+u+v+w+x+y+5.5.5.6.6.P.%+%+z+      ",
"        A+B+C+{.r.S.{+a.{+S.r.q+D+E+F+G+5.5.6.6.P.%+%+H+        ",
"          !.I+C+J+K+r.r.0.L+M+N+O+E+P+5.6.6.6.P.%+%+Q+R+        ",
"          S+T+V N+U+R.R.E.V+~.W+X+Y+).6.6.P.%+%+Z+`+ @          ",
"            .@+@@@V #@#@$@D.z a+E+%@6.P.%+%+%+&@*@=@            ",
"              -@O+;@>@T+!.,@'@E+)@%+%+%+n+!@~@{@]@              ",
"                  ^@/@/@(@E+E+X+_@:@<@[@}@{@|@1@                ",
"                      2@E+E+E+3@4@5@6@7@8@9@                    ",
"                            0@a@                                ",
"                                                                "};
