/* XPM */
static char * debug_xpm[] = {
"32 32 12 1",
" 	c None",
".	c #000100",
"+	c #504D46",
"@	c #3E4850",
"#	c #BBBDBA",
"$	c #FFFFFF",
"%	c #D15237",
"&	c #EBA291",
"*	c #C43107",
"=	c #751805",
"-	c #974F3D",
";	c #6B6B66",
"                                ",
"                                ",
"                                ",
"                                ",
"      ..    +....+              ",
"     ....+.@#$$$$#..+....       ",
"    ..  +.$$$$$$$$$#..  ..      ",
"     . .%&$$$$$$$$$#*=.  .      ",
"     ..%&&%$###$$$$***=...      ",
"     -.&&%%&#####$&****..       ",
"     .&&&%*=.....;*%****.       ",
"     ;$&%*=..    .=*&**&..      ",
"    +$$#%*..      .=&&$#..      ",
"    .$$##-.        =&$$#+.      ",
"    .$$###.        .$$$#;.      ",
"    .$$###.        .$$##+.      ",
"    .$$$##.        ;$$##..      ",
"    +#$$##-.      .&$$##..      ",
"     .$$$&%=.    .-&&##;..      ",
"     .#&%%&%=...+&&&%*&..       ",
"     +.***%&&$$$$&&***...       ",
"     ..=****&$$$$&***=...       ",
"     . .=***$$$###%*... .       ",
"     .  ..*#######+...  .       ",
"      .......+++.....  ..       ",
"           ........ ....        ",
"                                ",
"                                ",
"                                ",
"                                ",
"                                ",
"                                "};
