/* XPM */
static char * disk_xpm[] = {
"32 32 154 2",
"  	c None",
". 	c #F8F8F9",
"+ 	c #F7F7F8",
"@ 	c #F6F6F7",
"# 	c #F4F4F6",
"$ 	c #F3F3F5",
"% 	c #F1F1F3",
"& 	c #F1F0F3",
"* 	c #F0F0F2",
"= 	c #F0F0F1",
"- 	c #EEEFF0",
"; 	c #EAEBED",
"> 	c #E6E6EA",
", 	c #E2E2E6",
"' 	c #DDDDE2",
") 	c #D8D8DD",
"! 	c #F8F7F8",
"~ 	c #F5F5F6",
"{ 	c #F2F2F4",
"] 	c #EFEFF1",
"^ 	c #ECEDEF",
"/ 	c #E9EAEC",
"( 	c #E5E5E9",
"_ 	c #E1E1E6",
": 	c #EDEDEF",
"< 	c #EBEBEE",
"[ 	c #E8E9EC",
"} 	c #E5E6EA",
"| 	c #E3E3E7",
"1 	c #E0E0E4",
"2 	c #DBDBE1",
"3 	c #D7D7DC",
"4 	c #F6F7F8",
"5 	c #F5F6F7",
"6 	c #F5F5F5",
"7 	c #F4F4F5",
"8 	c #F3F2F5",
"9 	c #EEEFF2",
"0 	c #ECEDF0",
"a 	c #E9EAED",
"b 	c #E6E7EA",
"c 	c #E3E4E8",
"d 	c #DFDFE5",
"e 	c #DADADF",
"f 	c #D5D5DA",
"g 	c #F4F5F6",
"h 	c #F3F5F5",
"i 	c #F2F3F4",
"j 	c #F1F1F4",
"k 	c #F0F0F3",
"l 	c #EEEFF1",
"m 	c #E2E3E7",
"n 	c #DFE0E5",
"o 	c #DDDEE4",
"p 	c #DDDDE3",
"q 	c #D3D3D8",
"r 	c #F2F4F5",
"s 	c #F1F2F4",
"t 	c #EAEAEE",
"u 	c #E7E8EC",
"v 	c #E4E5E9",
"w 	c #E1E2E6",
"x 	c #DEDFE4",
"y 	c #DCDDE2",
"z 	c #DBDBE2",
"A 	c #D9D9E0",
"B 	c #D6D6DC",
"C 	c #D1D1D5",
"D 	c #F3F4F5",
"E 	c #F1F2F3",
"F 	c #EAEBEE",
"G 	c #E1E2E7",
"H 	c #DDDEE3",
"I 	c #DBDCE1",
"J 	c #DADBE1",
"K 	c #D8D8DF",
"L 	c #D4D4DB",
"M 	c #CECFD3",
"N 	c #F4F3F6",
"O 	c #EFF0F1",
"P 	c #EBECEF",
"Q 	c #E6E7EB",
"R 	c #E2E3E8",
"S 	c #DFE0E6",
"T 	c #DADBE0",
"U 	c #D9DAE0",
"V 	c #D9DAE1",
"W 	c #D7D8DE",
"X 	c #D3D3D9",
"Y 	c #CCCDD1",
"Z 	c #F0F1F3",
"` 	c #E7E8EB",
" .	c #DEDFE5",
"..	c #DCDDE3",
"+.	c #DBDCE2",
"@.	c #D8D9E0",
"#.	c #D6D7DD",
"$.	c #D1D2D8",
"%.	c #CACBD0",
"&.	c #EEEEF1",
"*.	c #E8E9ED",
"=.	c #DADBE2",
"-.	c #D7D8DF",
";.	c #D4D5DC",
">.	c #D0D1D8",
",.	c #C9CAD0",
"'.	c #EFF0F3",
").	c #EEEEF2",
"!.	c #E0E1E6",
"~.	c #D6D7DE",
"{.	c #D4D5DB",
"].	c #CFD0D7",
"^.	c #C9CACF",
"/.	c #EBECF0",
"(.	c #E9EBEF",
"_.	c #D7D7DF",
":.	c #D5D6DD",
"<.	c #D3D4DA",
"[.	c #CECFD5",
"}.	c #C8C9CF",
"|.	c #E5E6E9",
"1.	c #D8D9DF",
"2.	c #D6D6DD",
"3.	c #D5D5DD",
"4.	c #D3D4DC",
"5.	c #D1D2D9",
"6.	c #CDCED5",
"7.	c #C7C8CE",
"8.	c #DFE0E4",
"9.	c #D5D5DC",
"0.	c #D4D4DC",
"a.	c #D2D3DB",
"b.	c #CCCDD4",
"c.	c #C6C7CE",
"d.	c #D3D4DB",
"e.	c #D1D2DA",
"f.	c #CFD0D8",
"g.	c #CBCCD3",
"h.	c #C5C6CD",
"i.	c #D5D6DE",
"j.	c #D4D5DD",
"k.	c #D0D1D9",
"l.	c #CECFD7",
"m.	c #CACBD3",
"n.	c #C4C5CC",
"o.	c #CFD0D9",
"p.	c #CDCED7",
"q.	c #C9CAD2",
"r.	c #C4C5CB",
"s.	c #D8D9E1",
"t.	c #CECFD8",
"u.	c #CCCDD6",
"v.	c #C9CAD1",
"w.	c #C3C4CA",
"                                                                ",
"                                                                ",
"                                                                ",
"                                                                ",
"                                                                ",
"                                                                ",
"                                                                ",
"              . . . + + @ # # $ % & * = - ; > , ' )             ",
"              . . ! + @ ~ # $ { % * ] - ^ / ( _ ' )             ",
"              . + + @ ~ # $ { { * ] : < [ } | 1 2 3             ",
"              4 4 5 6 7 $ 8 { % 9 0 a b c _ d ' e f             ",
"              4 5 g h i { j k l ^ a } m n o p 2 ) q             ",
"              5 g g r s * 9 0 t u v w x y z z A B C             ",
"              # # D D E l F u v G n H y I J J K L M             ",
"              N $ i E O P Q R S o y J T U V V W X Y             ",
"              $ { Z l F ` R  ...+.J @.@.@.@.@.#.$.%.            ",
"              i % &.*.v w x ..=.V V @.-.-.W -.;.>.,.            ",
"              '.).t v !...+.J V A @.-.-.~.#.~.{.].^.            ",
"              /.(.Q !...J U @.@.K -._.~.:.:.:.<.[.}.            ",
"              } |.m x +.U 1.1.W #.2.3.;.4.4.;.5.6.7.            ",
"              w !.8.+.V 1.1.W #.2.9.0.4.a.a.a.>.b.c.            ",
"              o H y V @.-.W #.2.9.L d.a.e.e.e.f.g.h.            ",
"              =.+.J @.@.-.~.i.j.4.4.a.e.e.k.k.l.m.n.            ",
"              V V U @.-.~.i.j.4.4.a.e.e.k.o.o.p.q.r.            ",
"              V s.@.-.W ~.j.4.4.a.e.e.k.o.o.t.u.v.w.            ",
"                                                                ",
"                                                                ",
"                                                                ",
"                                                                ",
"                                                                ",
"                                                                ",
"                                                                "};
