/* XPM */
static char * emacs_mod_xpm[] = {
"32 32 287 2",
"  	c None",
". 	c #674EA3",
"+ 	c #654BA3",
"@ 	c #6349A2",
"# 	c #6247A1",
"$ 	c #654AA2",
"% 	c #6346A7",
"& 	c #5B3DA3",
"* 	c #50329A",
"= 	c #4A2B94",
"- 	c #472791",
"; 	c #6346AA",
"> 	c #4E3097",
", 	c #401F8C",
"' 	c #3D1C8B",
") 	c #3E1C8B",
"! 	c #3E1D8B",
"~ 	c #3F1E8C",
"{ 	c #3D1B8A",
"] 	c #6449A5",
"^ 	c #56389E",
"/ 	c #3F1E8B",
"( 	c #40208D",
"_ 	c #41218D",
": 	c #41208D",
"< 	c #42228E",
"[ 	c #44278F",
"} 	c #472B90",
"| 	c #472B8F",
"1 	c #45288E",
"2 	c #45288D",
"3 	c #6449A4",
"4 	c #674BAA",
"5 	c #4C2E94",
"6 	c #3C1B8A",
"7 	c #41208C",
"8 	c #42238D",
"9 	c #45278F",
"0 	c #44268E",
"a 	c #41218C",
"b 	c #3C178B",
"c 	c #2F0087",
"d 	c #1B0082",
"e 	c #0E007E",
"f 	c #1A0081",
"g 	c #250083",
"h 	c #3E1F8B",
"i 	c #4C2F94",
"j 	c #3D1A8A",
"k 	c #42218E",
"l 	c #401F8D",
"m 	c #42238E",
"n 	c #2D0085",
"o 	c #300086",
"p 	c #3A118A",
"q 	c #3F1D8C",
"r 	c #6B5BA0",
"s 	c #9E96BE",
"t 	c #C0BBD4",
"u 	c #D4D1E1",
"v 	c #CBC7DB",
"w 	c #948BB8",
"x 	c #350089",
"y 	c #42218D",
"z 	c #390F89",
"A 	c #4E3592",
"B 	c #796CA9",
"C 	c #7264A5",
"D 	c #584396",
"E 	c #380D89",
"F 	c #2B0086",
"G 	c #6D5DA1",
"H 	c #ACA5C6",
"I 	c #FDFDFE",
"J 	c #FFFFFF",
"K 	c #B1ABCA",
"L 	c #270084",
"M 	c #42258C",
"N 	c #42228D",
"O 	c #3D198B",
"P 	c #4C3392",
"Q 	c #E8E6EF",
"R 	c #FEFEFE",
"S 	c #F6F5F8",
"T 	c #E9E7EF",
"U 	c #D7D4E3",
"V 	c #C3BED5",
"W 	c #B0AAC9",
"X 	c #A59EC2",
"Y 	c #E8E7EF",
"Z 	c #F3F2F7",
"` 	c #462A8F",
" .	c #3F1C8B",
"..	c #3F208B",
"+.	c #644AA2",
"@.	c #41228C",
"#.	c #44268D",
"$.	c #EEEDF3",
"%.	c #FDFDFD",
"&.	c #FAFAFC",
"*.	c #F8F7FA",
"=.	c #FDFCFD",
"-.	c #DBD8E6",
";.	c #340088",
">.	c #43258E",
",.	c #3F1D8B",
"'.	c #462A8E",
").	c #230082",
"!.	c #9288B6",
"~.	c #A39BC0",
"{.	c #3A128A",
"].	c #4F3792",
"^.	c #4B3190",
"/.	c #5E4B99",
"(.	c #8175AC",
"_.	c #A8A1C3",
":.	c #ADA7C7",
"<.	c #584397",
"[.	c #370989",
"}.	c #43248E",
"|.	c #674CA2",
"1.	c #3D1C8A",
"2.	c #40208C",
"3.	c #46298E",
"4.	c #B3ADCA",
"5.	c #D5D2E1",
"6.	c #2A0084",
"7.	c #43258D",
"8.	c #350088",
"9.	c #280084",
"0.	c #1C0081",
"a.	c #1A0080",
"b.	c #3A1189",
"c.	c #6449A2",
"d.	c #472B8E",
"e.	c #3B168A",
"f.	c #00007D",
"g.	c #9E96BD",
"h.	c #F0EFF4",
"i.	c #6E5EA1",
"j.	c #1D0081",
"k.	c #4A2F90",
"l.	c #42248E",
"m.	c #6247A2",
"n.	c #45278E",
"o.	c #2C0085",
"p.	c #401E8C",
"q.	c #5C4998",
"r.	c #6E5FA1",
"s.	c #887DB0",
"t.	c #EAE8F0",
"u.	c #FCFCFD",
"v.	c #978EB9",
"w.	c #08007E",
"x.	c #6146A1",
"y.	c #472891",
"z.	c #42228C",
"A.	c #7F73AB",
"B.	c #C9C5D9",
"C.	c #E9E8EF",
"D.	c #F7F6F9",
"E.	c #FBFAFC",
"F.	c #F8F8FA",
"G.	c #CDC9DC",
"H.	c #543E94",
"I.	c #3D1A8B",
"J.	c #45288F",
"K.	c #2B0085",
"L.	c #ABA5C6",
"M.	c #E0DEE9",
"N.	c #D6D3E2",
"O.	c #CFCBDD",
"P.	c #D8D5E3",
"Q.	c #9F97BE",
"R.	c #370789",
"S.	c #42248D",
"T.	c #6147A1",
"U.	c #3E1C8C",
"V.	c #F4F4F7",
"W.	c #FFFFFE",
"X.	c #FAF9FB",
"Y.	c #64529C",
"Z.	c #390E89",
"`.	c #290084",
" +	c #240083",
".+	c #13007F",
"++	c #340087",
"@+	c #6348A1",
"#+	c #44278E",
"$+	c #D1CEDF",
"%+	c #F9F8FA",
"&+	c #8D83B3",
"*+	c #000078",
"=+	c #44278D",
"-+	c #472A8E",
";+	c #51329A",
">+	c #6248A1",
",+	c #634AA0",
"'+	c #3D1B8B",
")+	c #370889",
"!+	c #574296",
"~+	c #ECEBF2",
"{+	c #BCB6D0",
"]+	c #330087",
"^+	c #D21818",
"/+	c #320088",
"(+	c #554096",
"_+	c #E3E1EB",
":+	c #9C93BC",
"<+	c #5D4A99",
"[+	c #160080",
"}+	c #6248A0",
"|+	c #401E8D",
"1+	c #380B89",
"2+	c #2D0086",
"3+	c #968DB8",
"4+	c #E1DFEA",
"5+	c #E4E3EC",
"6+	c #C0BBD3",
"7+	c #948BB7",
"8+	c #8C3C6A",
"9+	c #A31037",
"0+	c #42046B",
"a+	c #3C168A",
"b+	c #41228D",
"c+	c #783D82",
"d+	c #D11717",
"e+	c #130080",
"f+	c #1F0082",
"g+	c #6C5CA0",
"h+	c #A79FC3",
"i+	c #D0CDDE",
"j+	c #DD5A5B",
"k+	c #AB203A",
"l+	c #5C1972",
"m+	c #5D1C71",
"n+	c #B22440",
"o+	c #D11818",
"p+	c #62489F",
"q+	c #56389D",
"r+	c #3C1A89",
"s+	c #614E9B",
"t+	c #7263A3",
"u+	c #6C5DA1",
"v+	c #6C5CA1",
"w+	c #796CA7",
"x+	c #8E84B4",
"y+	c #E7E5EE",
"z+	c #F1BEBE",
"A+	c #DC4F4F",
"B+	c #D21717",
"C+	c #5E4B9A",
"D+	c #8377AE",
"E+	c #9D94BD",
"F+	c #B1ABC9",
"G+	c #C8C4D9",
"H+	c #CDCADC",
"I+	c #C4BFD6",
"J+	c #B4AECC",
"K+	c #8A2A5B",
"L+	c #674AAA",
"M+	c #380D8A",
"N+	c #2C0086",
"O+	c #230084",
"P+	c #1D0082",
"Q+	c #190080",
"R+	c #190081",
"S+	c #4B0664",
"T+	c #A61131",
"U+	c #46298F",
"V+	c #472A8F",
"W+	c #A81D3B",
"X+	c #A71938",
"Y+	c #6F3181",
"Z+	c #61489F",
"`+	c #6346A9",
" @	c #3E1B8B",
".@	c #73195F",
"+@	c #692A7C",
"@@	c #5B4593",
"#@	c #62479F",
"$@	c #6246A7",
"%@	c #5A3DA3",
"&@	c #604799",
"*@	c #61479E",
"=@	c #60469F",
"-@	c #60459F",
"                                                                ",
"                                                                ",
"                        . + @ # # @ + .                         ",
"                    $ % & * = - - = * & % $                     ",
"                + ; > , ' ) ! ~ ~ ! ) { , > ; +                 ",
"              ] ^ / ) ( _ _ _ _ : < [ } | 1 2 ^ 3               ",
"            4 5 6 7 _ ( 8 9 0 8 a b c d e f g h i 4             ",
"          ] 5 j k : l m b n o p q r s t u v w x j i ]           ",
"        + ^ 6 y ( ( m z A B C D E F m G H I J K L M ^ +         ",
"        ; / 7 : : N O P Q J R S T U V W X Y J Z `  ...;         ",
"      +.> ) _ ( : @.q #.$.J %.J &.*.=.J J J J -.;.>.,.> +.      ",
"      % , ( : : ( ( '.).!.J J ~.{.].^./.(._.:.<.[.}.( , %       ",
"    |.& 1._ ( : 7 7 2.3.g 4.J 5.;.6.7.8.9.0.a.b.m l _ 1.& |.    ",
"    c.* ) _ : 7 ( 1 d.7 e.f.g.J h.i.j.k.| '.| l., : _ ) * c.    ",
"    m.= ! _ ( ( n.o.j.p.q.r.D s.t.u.v.w.z 8 , 7 ( : _ ! = m.    ",
"    x.y./ : : z.6.A.B.C.D.E.J F.$.J J G.H.I.8 7 7 : _ / y.x.    ",
"    x.y./ _ J.K.L.J J J J J u.T M.N.O.P.Q.R.S.7 7 : _ / y.x.    ",
"    T.= ! N U.` V.J E.W.X.W Y.Z.6.`. +.+++8 , 7 ( : _ ! = T.    ",
"    @+* ) _ #+K.$+J %+J &+*+a #.=+1 3.-+7., 7 : 7 : _ ) ;+>+    ",
"    ,+& '+_ >.)+!+~+J J {+]+g )+#.| 3.7.7 2.7 7 ^+^+_ '+& ,+    ",
"      % , ( l 9 /+(+U J J _+:+<+n [+).8.7.| N ( ^+^+( , %       ",
"      }+> 1._ |+J.1+2+3+4+J J J 5+6+7+8+9+0+a+b+^+^+1.> c+d+    ",
"        ; / 7 : l >.#.e+f+g+h+i+C.V.J j+^+^+k+l+^+^+m+n+^+^+o+  ",
"        p+q+r+y : ( : s+t+u+v+w+x+s y+J z+A+^+^+^+^+^+^+B+      ",
"          ] i j < _ |+C+D+E+F+6+G+H+v I+J+x+K+^+^+^+^+          ",
"            L+i r+7 _ M+N+O+P+a.Q+R+P+P+S+T+^+^+^+^+^+^+B+      ",
"              ] q+/ 1.m J.U+V+} } } } W+^+^+X+Y+^+^+  d+^+^+o+  ",
"                Z+`+> , j ) ! ~ ~ !  @.@X++@`+Z+^+^+      d+    ",
"                  @@#@$@%@* = y.y.= * %@$@#@@@  ^+^+            ",
"                        &@*@=@-@-@=@*@&@        ^+^+            ",
"                                                                ",
"                                                                "};
