/* XPM */
static char *mail[] = {
/* columns rows colors chars-per-pixel */
"16 14 33 1",
". c #525152",
"X c #5b5b5b",
"o c #605f60",
"O c #646464",
"+ c #6b6b6b",
"@ c #706f70",
"# c #757475",
"$ c #7d7c7d",
"% c #a500ff",
"& c #b959ff",
"* c #888788",
"= c #8e8c8e",
"- c #908d90",
"; c #949294",
": c #999699",
"> c #9b999b",
", c #a19fa1",
"< c #a4a2a4",
"1 c #a8a6a8",
"2 c #b4b2b4",
"3 c #c987ff",
"4 c #c4c0c4",
"5 c #cbc7cb",
"6 c #ccc9cc",
"7 c #d0cdd0",
"8 c #d4d1d4",
"9 c #d9d6d9",
"0 c #dcd9dc",
"q c #e0dce0",
"w c #e4e0e4",
"e c #ebe8eb",
"r c #f4f4f4",
"  c None",
/* pixels */
"                ",
"                ",
"rrrrrrrrrrrrrr; ",
"reeeeewwq09982* ",
"r<++<qww00&%81@ ",
"reeeqwq0003&8<O ",
"r<+*2wq008888<O ",
"rqwqq00098666>X ",
"r1+++0++<6666:X ",
"rwq0000886666;. ",
"rq09998666444;. ",
"62<>:;=====;:=. ",
".=$#@+OoX...... ",
"                "
};
