/* XPM */
static char *epiphany[] = {
/* columns rows colors chars-per-pixel */
"16 14 87 1",
"  c #23731E",
". c #225E23",
"X c #226623",
"o c #246725",
"O c #276827",
"+ c #2C772C",
"@ c #29782A",
"# c #297A2A",
"$ c #2B7D2C",
"% c #2C7F2C",
"& c #2F7F2F",
"* c #347D34",
"= c #385068",
"- c #38526B",
"; c #3F556A",
": c #3B5373",
"> c #395674",
", c #3B5774",
"< c #3A5875",
"1 c #3F5B75",
"2 c #3C5A77",
"3 c #3D5A78",
"4 c #3F5D7A",
"5 c #3F5D7B",
"6 c #435A70",
"7 c #415B76",
"8 c #405B77",
"9 c #415F7A",
"0 c #405E7B",
"q c #415F7B",
"w c #425E7A",
"e c #46617C",
"r c #47627E",
"t c #4A637C",
"y c #4D657D",
"u c #2D812D",
"i c #2F812F",
"p c #308430",
"a c #328732",
"s c #338A33",
"d c #348A34",
"f c #348B34",
"g c #368B36",
"h c #388838",
"j c #388E38",
"k c #3A8F3A",
"l c #3B913B",
"z c #3C943C",
"x c #3D963D",
"c c #3E953E",
"v c #3F983F",
"b c #456381",
"n c #466380",
"m c #476583",
"M c #496684",
"N c #496784",
"B c #4A6784",
"V c #4B6885",
"C c #4B6886",
"Z c #4B6987",
"A c #4C6986",
"S c #4D6A86",
"D c #4D6A87",
"F c #4F6C88",
"G c #4F6D8B",
"H c #516E8A",
"J c #516E8B",
"K c #536F8A",
"L c #53708D",
"P c #54708D",
"I c #54718E",
"U c #55728F",
"Y c #597692",
"T c #5A7692",
"R c #5B7895",
"E c #5D7894",
"W c #5D7995",
"Q c #647E99",
"! c #6B829A",
"~ c #69849F",
"^ c #6683A0",
"/ c #6A86A3",
"( c #6F8AA5",
") c #7893AE",
"_ c #7A96B2",
"` c #839EB9",
"' c None",
/* pixels */
"'''''''ck''fkch'",
"''''v*'s&'uisf''",
"''''f+'$o'@uuO''",
"'cl'@X''''' ''''",
"''a.'''891:'''''",
"'''''9CFJGCe''''",
"''''9Dt''YYF='''",
"'''<M;'''~~P''''",
"'''4r''''_Q'''''",
"'''4Sy')`!''''''",
"'''3SR/(''''''''",
"'''>nLE'''EP7'''",
"''''3CL6''UD='''",
"'''''3bCrMm<''''"
};
