/* XPM */
static char *gnu[] = {
/* width height num_colors chars_per_pixel */
"    16    14       98            2",
/* colors */
".. c None",
".# c #00003d",
".a c #001527",
".b c #00152e",
".c c #002762",
".d c #063382",
".e c #151500",
".f c #151515",
".g c #151c2b",
".h c #1c1515",
".i c #1c1c15",
".j c #1c2e4e",
".k c #1c355a",
".l c #224ca3",
".m c #273b5f",
".n c #2b2b2b",
".o c #2e3238",
".p c #2e4e89",
".q c #30569f",
".r c #3365c2",
".s c #354c80",
".t c #383838",
".u c #383d44",
".v c #395fa9",
".w c #3961ad",
".x c #3b598d",
".y c #3c5da4",
".z c #4071c8",
".A c #4377d1",
".B c #444448",
".C c #464a55",
".D c #4669af",
".E c #486eba",
".F c #4875bc",
".G c #4c525c",
".H c #4e6aa0",
".I c #4e75be",
".J c #506699",
".K c #517dc7",
".L c #525457",
".M c #527dc7",
".N c #5282dc",
".O c #528be1",
".P c #537dcc",
".Q c #5575b2",
".R c #5776b5",
".S c #5978b2",
".T c #5a5d65",
".U c #5c7dbf",
".V c #5f90da",
".W c #6182c8",
".X c #6291e0",
".Y c #638ccf",
".Z c #6395e8",
".0 c #6487cb",
".1 c #649ae6",
".2 c #657ca9",
".3 c #6787c1",
".4 c #696f7e",
".5 c #6989c4",
".6 c #6a6d75",
".7 c #6a727e",
".8 c #6a768f",
".9 c #6a85bc",
"#. c #6a9bf1",
"## c #6c8cc6",
"#a c #6c9ae2",
"#b c #6ca1e9",
"#c c #6d9de7",
"#d c #6e7586",
"#e c #71a4ee",
"#f c #737781",
"#g c #7384a9",
"#h c #747c8f",
"#i c #7588b1",
"#j c #75a8f8",
"#k c #77abee",
"#l c #78abee",
"#m c #7a8cb3",
"#n c #7aa4e7",
"#o c #7bb1fd",
"#p c #7c93c4",
"#q c #83b4ea",
"#r c #85b8ee",
"#s c #879bc7",
"#t c #89baee",
"#u c #89bdf5",
"#v c #8db0e7",
"#w c #9091b6",
"#x c #91c4f3",
"#y c #92c4f1",
"#z c #95b4e9",
"#A c #96baef",
"#B c #981c15",
"#C c #a1b2d5",
"#D c #ad4034",
"#E c #b1bdd8",
"#F c #b6c1dc",
/* pixels */
".t...........................d..",
"#i...........................l.o",
".R.v.......B.4.8#d.T......#h.v.j",
".Q.D.w#g.9#p#C#F#E#s.U#m.2.v.I.k",
".u.q.E.F.5.5.U.3.5####.0.I.I.y..",
".....E.g.P.s.F.M.M.J.x.K........",
"......#f.z#w#B.V.S#D.Y.P........",
".......6.A#a#A#v#z#v.X.N........",
".........r.Z#c#n#n#b#..q........",
".........e.p#e#k#k#j.m..........",
"...........7#b#q#y#o............",
"...........L.1#t#x#l............",
".............O#r#u.W............",
".............H#j#o..............",
};
