/* XPM */
static char *hopdac[] = {
/* columns rows colors chars-per-pixel */
"32 32 137 2 ",
"   c black",
".  c #020202",
"X  c #101010",
"o  c #161616",
"O  c gray11",
"+  c #1D1D1D",
"@  c #1E1E1E",
"#  c gray12",
"$  c #282828",
"%  c gray18",
"&  c #343434",
"*  c #373737",
"=  c #3C3C3C",
"-  c gray25",
";  c gray26",
":  c #434343",
">  c #444444",
",  c gray27",
"<  c #464646",
"1  c gray28",
"2  c #484848",
"3  c gray32",
"4  c #535353",
"5  c gray33",
"6  c #555555",
"7  c #565656",
"8  c #5A5A5A",
"9  c #5B5B5B",
"0  c #5F5F5F",
"q  c gray38",
"w  c #626262",
"e  c gray39",
"r  c #646464",
"t  c DimGray",
"y  c #6A6A6A",
"u  c #6C6C6C",
"i  c gray43",
"p  c #6F6F6F",
"a  c gray44",
"s  c #717171",
"d  c #727272",
"f  c gray45",
"g  c #747474",
"h  c gray46",
"j  c #767676",
"k  c #777777",
"l  c gray47",
"z  c #797979",
"x  c gray48",
"c  c #7B7B7B",
"v  c #7C7C7C",
"b  c gray49",
"n  c #7E7E7E",
"m  c #808080",
"M  c #848484",
"N  c gray52",
"B  c #868686",
"V  c gray53",
"C  c #888888",
"Z  c #898989",
"A  c gray54",
"S  c #8B8B8B",
"D  c gray55",
"F  c #8D8D8D",
"G  c #8E8E8E",
"H  c gray56",
"J  c #909090",
"K  c gray57",
"L  c #929292",
"P  c #939393",
"I  c gray58",
"U  c #959595",
"Y  c gray59",
"T  c #989898",
"R  c gray60",
"E  c #9A9A9A",
"W  c #9B9B9B",
"Q  c #9D9D9D",
"!  c gray62",
"~  c #9F9F9F",
"^  c #A0A0A0",
"/  c gray63",
"(  c #A4A4A4",
")  c #B2B2B2",
"_  c #B4B4B4",
"`  c #B6B6B6",
"'  c #B9B9B9",
"]  c gray76",
"[  c #C3C3C3",
"{  c #C5C5C5",
"}  c #C6C6C6",
"|  c gray78",
" . c #C8C8C8",
".. c #CACACA",
"X. c #CBCBCB",
"o. c gray80",
"O. c gray82",
"+. c gray85",
"@. c #DADADA",
"#. c gray86",
"$. c gainsboro",
"%. c #DDDDDD",
"&. c gray87",
"*. c #DFDFDF",
"=. c gray88",
"-. c #E1E1E1",
";. c #E2E2E2",
":. c gray89",
">. c #E4E4E4",
",. c gray90",
"<. c #E6E6E6",
"1. c #E7E7E7",
"2. c gray91",
"3. c #E9E9E9",
"4. c #EAEAEA",
"5. c gray92",
"6. c #ECECEC",
"7. c gray93",
"8. c #EEEEEE",
"9. c #EFEFEF",
"0. c gray94",
"q. c #F1F1F1",
"w. c gray95",
"e. c #F3F3F3",
"r. c #F4F4F4",
"t. c gray96",
"y. c #F6F6F6",
"u. c gray97",
"i. c #F8F8F8",
"p. c #F9F9F9",
"a. c gray98",
"s. c #FBFBFB",
"d. c gray99",
"f. c #FDFDFD",
"g. c #FEFEFE",
"h. c white",
"j. c None",
/* pixels */
"j.j.j.j.j.j.j.j.j.j.j.j.j.j.j.j.j.j.j.j.j.j.j.j.j.j.j.j.j.j.j.j.",
"j.j.j.j.; ; ; ; ; ; ; ; ; ; ; ; ; ; ; ; ; ; ; ; ; ; ; ; j.j.j.j.",
"j.j.j.w 2.h.h.h.s.h.h.h.h.s.h.s.s.s.s.s.y.s.s.s.s.s.y.1.0 j.j.j.",
"j.j.j.Q h.h.h.s.s.s.s.y.y.@.1.y.e.y.y.e.e.e.9.9.9.9.9.9.Q j.j.j.",
"j.j.j./ h.h.s.s.s.s.y.P o . . > @.e.e.e.e.9.e.9.9.9.9.9./ j.j.j.",
"j.j.j.Q s.s.s.s.s.y.m @ V ) ( 6 @ =.e.e.e.9.9.9.9.9.2.9.Q j.j.j.",
"j.j.j.Q s.s.s.s.s.+.; 1.y.y.y.e./ i e.9.9.9.9.9.2.9.9.9.Q j.j.j.",
"j.j.j.W s.s.s.s.s.D &.y.y.y { y.e.x e.9.9.9.9.2.2.9.2.9.Q j.j.j.",
"j.j.j.Q s.s.s.s.y.' y.y.e.b X.&.e.` 1.9.9.9.9.9.9.2.2.9.W j.j.j.",
"j.j.j.W s.s.y.y.y.y.y.y.e.e.e.C e.9.9.9.9.9.2.9.9.2.9.2.W j.j.j.",
"j.j.j.W s.y.s.y.y.e.e.e.e.e.e.D 9.9.9.9.2.9.9.2.2.9.2.9.W j.j.j.",
"j.j.j.Y s.y.y.y.y.y.y.e.e.e.e.C 9.9.9.9.2.9.2.2.2.2.2.2.Y j.j.j.",
"j.j.j.Y s.y.y.P x x k x k x k > k x k k w i 0 = b 2.1.2.Y j.j.j.",
"j.j.j.Y y.y.e.y.e.e.e.e.e.9.e.C 9.2.9.2.P X.D . 6 1.1.1.Y j.j.j.",
"j.j.j.Y y.y.y.y.e.e.e.e.9.9.9.C 9.9.9.2.P X.C . 6 1.1.1.Y j.j.j.",
"j.j.j.P y.y.e.e.e.e.9.9.9.9.9.V 9.2.9.2.P X.D . 6 1.1.1.P j.j.j.",
"j.j.j.P y.e.e.D x k k k k x k > k k k f > r > . 6 1.=.2.P j.j.j.",
"j.j.j.P y.e.e.e.9.e.9.9.9.2.9.C 2.2.2.2.P X.D . 6 =.1.1.D j.j.j.",
"j.j.j.D y.e.e.e.9.9.9.9.9.2.9.V 2.9.2.2.P { C . 6 1.=.1.P j.j.j.",
"j.j.j.D e.e.9.e.9.9.9.2.9.9.2.C 2.2.2.2.D X.C . 4 =.=.2.D j.j.j.",
"j.j.j.D e.e.9.D k k k k x k f ; k f f f > w > . 6 1.=.=.D j.j.j.",
"j.j.j.C e.9.9.9.9.9.9.2.2.2.2.V 2.1.1.1.P { C . 4 =.=.1.C j.j.j.",
"j.j.j.D e.9.9.9.2.9.2.=.x & = 6 1.1.1.1.D { C . 4 =.=.1.D j.j.j.",
"j.j.j.C 9.9.9.9.9.9.=.$ @ ( 1.4 1.1.1.=.D { C . 4 =.=.=.C j.j.j.",
"j.j.j.V e.9.2.D f f > @ y f = @ f i f i > w ; . 4 &.&.=.C j.j.j.",
"j.j.j.V 9.9.9.9.9.2.b X.O.6 X ) 1.1.=.1.D ] V . 4 &.&.=.V j.j.j.",
"j.j.j.V 9.9.2.2.9.2.{ 4 o ; { 1.=.1.1.=.D ] V . 4 &.@.=.V j.j.j.",
"j.j.j.V 9.9.2.9.2.2.2.1.1.1.1.=.1.=.=.=.D ] V . 4 &.&.&.m j.j.j.",
"j.j.j.b 9.2.2.D k f f f f f f f f i f f 8 r 8 * k @.@.=.b j.j.j.",
"j.j.j.% &.y.y.s.y.e.y.y.y.e.e.e.e.e.e.e.e.e.e.e.9.e.e.@.$ j.j.j.",
"j.j.j.j.. . . . . . . . . . . . . . . . . . . . . . . . j.j.j.j.",
"j.j.j.j.j.j.j.j.j.j.j.j.j.j.j.j.j.j.j.j.j.j.j.j.j.j.j.j.j.j.j.j."
};
