/* XPM */
static char * ie2_xpm[] = {
"16 14 165 2",
"  	c None",
". 	c #F1F6F9",
"+ 	c #F2F5F8",
"@ 	c #DFE9F2",
"# 	c #C2CFE2",
"$ 	c #BBC5D5",
"% 	c #D3DCE4",
"& 	c #DFE4EB",
"* 	c #93ABC3",
"= 	c #D4DEE5",
"- 	c #F8FCFE",
"; 	c #B8DCFA",
"> 	c #72B2F1",
", 	c #3F8CD6",
"' 	c #327CC2",
") 	c #216EB5",
"! 	c #5883B3",
"~ 	c #D1D8DF",
"{ 	c #CBD9E7",
"] 	c #C6D5E1",
"^ 	c #EEFEFF",
"/ 	c #8EDAFF",
"( 	c #3D9FEE",
"_ 	c #5097D6",
": 	c #2F81D0",
"< 	c #116FCB",
"[ 	c #106CC4",
"} 	c #065CB0",
"| 	c #115698",
"1 	c #8EA8C1",
"2 	c #CCDBEC",
"3 	c #E1E9F0",
"4 	c #F3F9FF",
"5 	c #76C4F4",
"6 	c #3D8ECC",
"7 	c #769ABC",
"8 	c #4B8CC7",
"9 	c #1378DD",
"0 	c #1273CD",
"a 	c #0A67C0",
"b 	c #1570C6",
"c 	c #0E68BD",
"d 	c #01509F",
"e 	c #92AEC7",
"f 	c #81B1E2",
"g 	c #266CAF",
"h 	c #9FB0C2",
"i 	c #69A4DB",
"j 	c #1E85E8",
"k 	c #93B8E0",
"l 	c #C3D0D8",
"m 	c #618EB9",
"n 	c #0B60B2",
"o 	c #1872CC",
"p 	c #0C6AC3",
"q 	c #1A66AF",
"r 	c #D8DDE6",
"s 	c #E2EAF4",
"t 	c #356A9F",
"u 	c #AFB7C1",
"v 	c #94CDFB",
"w 	c #1578D6",
"x 	c #5E8EBE",
"y 	c #337DC4",
"z 	c #136BC4",
"A 	c #1776D2",
"B 	c #0569C7",
"C 	c #8CAECF",
"D 	c #CEDAE4",
"E 	c #B3BDC7",
"F 	c #B3D8F7",
"G 	c #3491ED",
"H 	c #106BC2",
"I 	c #256EB7",
"J 	c #5184B8",
"K 	c #68A6DE",
"L 	c #7EBFF1",
"M 	c #287BC9",
"N 	c #106EC8",
"O 	c #177FE5",
"P 	c #0A7CEC",
"Q 	c #659ED4",
"R 	c #E5EEFA",
"S 	c #499FF5",
"T 	c #1C74CD",
"U 	c #1878D5",
"V 	c #1B86EE",
"W 	c #1277D9",
"X 	c #1472D0",
"Y 	c #1470C9",
"Z 	c #126DC2",
"` 	c #1C7AD5",
" .	c #2085EA",
"..	c #1C8EFB",
"+.	c #63A1DA",
"@.	c #92C6FD",
"#.	c #1F7EDB",
"$.	c #1670C6",
"%.	c #0F7CE6",
"&.	c #60A3E4",
"*.	c #C9D4E1",
"=.	c #BFCEDC",
"-.	c #BDCCD6",
";.	c #BDCED9",
">.	c #B8CADA",
",.	c #B6C8DA",
"'.	c #B1C8DA",
").	c #CAD7E3",
"!.	c #DBEAFB",
"~.	c #328BE1",
"{.	c #156EC5",
"].	c #1873CC",
"^.	c #0E73D5",
"/.	c #3E81C2",
"(.	c #84D0FF",
"_.	c #3E8DD4",
":.	c #2970AF",
"<.	c #1D72BE",
"[.	c #A5C4E0",
"}.	c #8FB7E1",
"|.	c #0C5DAE",
"1.	c #0D64BC",
"2.	c #1270CB",
"3.	c #1874D4",
"4.	c #095FB6",
"5.	c #477DB4",
"6.	c #91BCE6",
"7.	c #65B3F4",
"8.	c #2684DA",
"9.	c #156FCB",
"0.	c #0E79E7",
"a.	c #2F86E2",
"b.	c #D1D6DD",
"c.	c #4986C1",
"d.	c #6D94BD",
"e.	c #7DA0C7",
"f.	c #035BAD",
"g.	c #0A69C5",
"h.	c #1572CF",
"i.	c #0D6AC4",
"j.	c #0C6DCC",
"k.	c #1572D1",
"l.	c #177BDF",
"m.	c #1489FB",
"n.	c #2C94F5",
"o.	c #B0C5DA",
"p.	c #256CB3",
"q.	c #B6CADC",
"r.	c #94AFCA",
"s.	c #296AAF",
"t.	c #0C6CC6",
"u.	c #0A75DD",
"v.	c #0B7BE7",
"w.	c #0D7DEA",
"x.	c #1E86F0",
"y.	c #4E98E6",
"z.	c #BBCBDA",
"A.	c #3571AC",
"B.	c #A6BFD8",
"C.	c #D0DAE2",
"D.	c #7FA6CD",
"E.	c #6EA1D3",
"F.	c #70A4D6",
"G.	c #87B2D9",
"H.	c #BCCDDC",
"              . + @ # $ % & * = ",
"        - ; > , ' ) ! ~     { ] ",
"      ^ / ( _ : < [ } | 1   2 3 ",
"    4 5 6 7 8 9 0 a b c d e     ",
"    f g h i j k l m n o p q r   ",
"  s t u v w x       y z A B C   ",
"  D E F G H I J K L M N O P Q   ",
"    R S T U V W X Y Z `  ...+.  ",
"    @.#.$.%.&.*.=.-.;.>.,.'.).  ",
"  !.~.{.].^./.      (._.:.<.[.  ",
"  }.|.1.2.3.4.5.6.7.8.9.0.a.b.  ",
"  c.d.e.f.g.h.i.j.k.l.m.n.o.    ",
"  p.q.  r.s.t.u.v.w.x.y.z.      ",
"  A.B.    C.D.E.F.G.H.          "};
