/* XPM */
static char * moz_xpm[] = {
"32 32 633 2",
"  	c None",
". 	c #00224C",
"+ 	c #002A56",
"@ 	c #002753",
"# 	c #002C5B",
"$ 	c #00305E",
"% 	c #002656",
"& 	c #001C47",
"* 	c #001739",
"= 	c #002046",
"- 	c #003163",
"; 	c #00264C",
"> 	c #001E43",
", 	c #00163A",
"' 	c #002859",
") 	c #324100",
"! 	c #484C00",
"~ 	c #372700",
"{ 	c #C84C00",
"] 	c #001B41",
"^ 	c #004686",
"/ 	c #00325F",
"( 	c #00141F",
"_ 	c #644A00",
": 	c #C37200",
"< 	c #B55700",
"[ 	c #792400",
"} 	c #DC3300",
"| 	c #8A1F00",
"1 	c #002C55",
"2 	c #AC5300",
"3 	c #E97400",
"4 	c #0068AD",
"5 	c #001A39",
"6 	c #552600",
"7 	c #AE6000",
"8 	c #E28F00",
"9 	c #DF9800",
"0 	c #CF6C00",
"a 	c #902D00",
"b 	c #A02000",
"c 	c #C21E00",
"d 	c #AF1F00",
"e 	c #772600",
"f 	c #893F00",
"g 	c #9C4600",
"h 	c #7C3800",
"i 	c #CA5B00",
"j 	c #FF7800",
"k 	c #662F00",
"l 	c #004A7F",
"m 	c #00609F",
"n 	c #0070BA",
"o 	c #0074C1",
"p 	c #0072BE",
"q 	c #0072BD",
"r 	c #006EB3",
"s 	c #005E9C",
"t 	c #003860",
"u 	c #00203D",
"v 	c #00080C",
"w 	c #715300",
"x 	c #EDD200",
"y 	c #F1E600",
"z 	c #CC8100",
"A 	c #732000",
"B 	c #8C0B00",
"C 	c #B92A00",
"D 	c #CD5500",
"E 	c #D25900",
"F 	c #D75F00",
"G 	c #DB6100",
"H 	c #E06400",
"I 	c #E66600",
"J 	c #DD6300",
"K 	c #001327",
"L 	c #00427A",
"M 	c #008AC5",
"N 	c #0089CE",
"O 	c #007ECB",
"P 	c #007BCA",
"Q 	c #007AC7",
"R 	c #0077C0",
"S 	c #0070B6",
"T 	c #00588F",
"U 	c #002D58",
"V 	c #00172A",
"W 	c #000416",
"X 	c #342000",
"Y 	c #EBA500",
"Z 	c #F2AE00",
"` 	c #BF5C00",
" .	c #7E3500",
"..	c #871A00",
"+.	c #C94F00",
"@.	c #CC5800",
"#.	c #CF5C00",
"$.	c #D65F00",
"%.	c #D76000",
"&.	c #D96000",
"*.	c #DC6300",
"=.	c #D45700",
"-.	c #480900",
";.	c #004F8A",
">.	c #0062B7",
",.	c #0078CB",
"'.	c #0096DD",
").	c #0086D7",
"!.	c #0082D2",
"~.	c #007FCB",
"{.	c #0079C5",
"].	c #0078B9",
"^.	c #004D8C",
"/.	c #004572",
"(.	c #001D2A",
"_.	c #000D1E",
":.	c #4C2300",
"<.	c #F78C00",
"[.	c #E67100",
"}.	c #B75E00",
"|.	c #AA4200",
"1.	c #C35000",
"2.	c #C75500",
"3.	c #D05D00",
"4.	c #D86000",
"5.	c #DA6000",
"6.	c #DD6400",
"7.	c #D05200",
"8.	c #AD1E00",
"9.	c #AC2D00",
"0.	c #BB3A00",
"a.	c #6F1B00",
"b.	c #0064BD",
"c.	c #00A1E8",
"d.	c #008EDC",
"e.	c #0084D5",
"f.	c #0080CF",
"g.	c #007DC3",
"h.	c #005199",
"i.	c #005B9D",
"j.	c #004D7E",
"k.	c #001B2D",
"l.	c #000615",
"m.	c #934500",
"n.	c #FD6B00",
"o.	c #CA7000",
"p.	c #877500",
"q.	c #7C2600",
"r.	c #B13C00",
"s.	c #C55400",
"t.	c #CC5B00",
"u.	c #D55F00",
"v.	c #D45800",
"w.	c #A42300",
"x.	c #C94500",
"y.	c #FF6300",
"z.	c #722C00",
"A.	c #0053BE",
"B.	c #0075DD",
"C.	c #0096E4",
"D.	c #0090DF",
"E.	c #008FD8",
"F.	c #0086C9",
"G.	c #004D9C",
"H.	c #007CB6",
"I.	c #005898",
"J.	c #00335A",
"K.	c #170D00",
"L.	c #713000",
"M.	c #E36300",
"N.	c #D38300",
"O.	c #A89400",
"P.	c #983500",
"Q.	c #B54400",
"R.	c #C45500",
"S.	c #DD6100",
"T.	c #E36C00",
"U.	c #181100",
"V.	c #004388",
"W.	c #0083D3",
"X.	c #0082E5",
"Y.	c #009AE8",
"Z.	c #009EE7",
"`.	c #0081CD",
" +	c #0063B5",
".+	c #0073B6",
"++	c #007ABA",
"@+	c #00355F",
"#+	c #201500",
"$+	c #CC7200",
"%+	c #D37600",
"&+	c #DFA600",
"*+	c #BB8400",
"=+	c #9F3200",
"-+	c #BA4C00",
";+	c #D15C00",
">+	c #D95E00",
",+	c #DA6100",
"'+	c #D96100",
")+	c #E76700",
"!+	c #FF7900",
"~+	c #1A0400",
"{+	c #002471",
"]+	c #0064C7",
"^+	c #00B2F8",
"/+	c #00ABF8",
"(+	c #009EE9",
"_+	c #0097E1",
":+	c #0067C4",
"<+	c #005FBA",
"[+	c #0091CF",
"}+	c #0069B3",
"|+	c #00649F",
"1+	c #003355",
"2+	c #070100",
"3+	c #D89F00",
"4+	c #E09C00",
"5+	c #EBC400",
"6+	c #C56F00",
"7+	c #541C00",
"8+	c #9F3400",
"9+	c #B84C00",
"0+	c #C55600",
"a+	c #D75D00",
"b+	c #D65B00",
"c+	c #D95B00",
"d+	c #DC5D00",
"e+	c #DF5E00",
"f+	c #F86A00",
"g+	c #FF9700",
"h+	c #00172D",
"i+	c #0054BA",
"j+	c #0094EB",
"k+	c #00A2F9",
"l+	c #00A1F3",
"m+	c #007DDD",
"n+	c #0096E5",
"o+	c #0097DC",
"p+	c #0061BA",
"q+	c #0081C8",
"r+	c #007DBF",
"s+	c #005E96",
"t+	c #003555",
"u+	c #040002",
"v+	c #DAB800",
"w+	c #E7BE00",
"x+	c #E9C900",
"y+	c #CE6300",
"z+	c #7A2700",
"A+	c #A23500",
"B+	c #B95000",
"C+	c #C95900",
"D+	c #D35C00",
"E+	c #D35600",
"F+	c #D35300",
"G+	c #CB4900",
"H+	c #AC2900",
"I+	c #A21C00",
"J+	c #4D0B00",
"K+	c #0B0700",
"L+	c #00326F",
"M+	c #0060C7",
"N+	c #00A5F0",
"O+	c #0099F4",
"P+	c #009BF2",
"Q+	c #00A2EC",
"R+	c #0093E0",
"S+	c #008FDA",
"T+	c #0089D0",
"U+	c #0083C7",
"V+	c #007AB5",
"W+	c #002F6C",
"X+	c #00163B",
"Y+	c #0E0600",
"Z+	c #E5B900",
"`+	c #EBD300",
" @	c #E8D600",
".@	c #C95700",
"+@	c #842B00",
"@@	c #661C00",
"#@	c #9C2900",
"$@	c #BD5300",
"%@	c #CF5500",
"&@	c #D05000",
"*@	c #C64000",
"=@	c #991400",
"-@	c #951100",
";@	c #921A00",
">@	c #000A29",
",@	c #003282",
"'@	c #0048AF",
")@	c #0071CE",
"!@	c #00ACEE",
"~@	c #0092E9",
"{@	c #0091E4",
"]@	c #0086D9",
"^@	c #0087D4",
"/@	c #007CC8",
"(@	c #0083C1",
"_@	c #002E73",
":@	c #002C5F",
"<@	c #1C1000",
"[@	c #6D3100",
"}@	c #F7A400",
"|@	c #EBCA00",
"1@	c #E7C200",
"2@	c #C45B00",
"3@	c #783E00",
"4@	c #560C00",
"5@	c #902100",
"6@	c #BE5500",
"7@	c #C35400",
"8@	c #CA5000",
"9@	c #CE4C00",
"0@	c #AE2900",
"a@	c #931300",
"b@	c #9B1900",
"c@	c #B63700",
"d@	c #2A1900",
"e@	c #002371",
"f@	c #004AAB",
"g@	c #0051BA",
"h@	c #0077CB",
"i@	c #0084C9",
"j@	c #0073BB",
"k@	c #007BC8",
"l@	c #0084D1",
"m@	c #0076BF",
"n@	c #007CBC",
"o@	c #00457D",
"p@	c #000730",
"q@	c #553B00",
"r@	c #EE8100",
"s@	c #EE8900",
"t@	c #F0B600",
"u@	c #DD9400",
"v@	c #BB6D00",
"w@	c #725500",
"x@	c #8A2100",
"y@	c #BD5400",
"z@	c #C05400",
"A@	c #C75000",
"B@	c #CB4A00",
"C@	c #A82500",
"D@	c #991B00",
"E@	c #9D1F00",
"F@	c #B43400",
"G@	c #EC8900",
"H@	c #3B2800",
"I@	c #002554",
"J@	c #003071",
"K@	c #00122C",
"L@	c #7B5700",
"M@	c #A16400",
"N@	c #5D4700",
"O@	c #005E93",
"P@	c #0077C2",
"Q@	c #006EB6",
"R@	c #006AAF",
"S@	c #006295",
"T@	c #001334",
"U@	c #5E4600",
"V@	c #FFB300",
"W@	c #EF7600",
"X@	c #EC9C00",
"Y@	c #D47900",
"Z@	c #B38800",
"`@	c #801F00",
" #	c #B44A00",
".#	c #BC5200",
"+#	c #C55000",
"@#	c #CA4A00",
"##	c #B63400",
"$#	c #9E2000",
"%#	c #A62900",
"&#	c #AA2D00",
"*#	c #E66800",
"=#	c #FF9500",
"-#	c #D17A00",
";#	c #BF6D00",
">#	c #E57A00",
",#	c #EE7600",
"'#	c #F07100",
")#	c #FF8700",
"!#	c #3F4B00",
"~#	c #006CB6",
"{#	c #0068AB",
"]#	c #005A9A",
"^#	c #005082",
"/#	c #000E2D",
"(#	c #7D5A00",
"_#	c #FFD900",
":#	c #E87100",
"<#	c #E67C00",
"[#	c #D08D00",
"}#	c #AA9700",
"|#	c #6B1200",
"1#	c #A53300",
"2#	c #BA5200",
"3#	c #C35200",
"4#	c #C74E00",
"5#	c #C54400",
"6#	c #AF3000",
"7#	c #A82D00",
"8#	c #B03600",
"9#	c #B03000",
"0#	c #E56400",
"a#	c #E66500",
"b#	c #DB5D00",
"c#	c #DC5900",
"d#	c #863200",
"e#	c #00375A",
"f#	c #005D95",
"g#	c #0066A8",
"h#	c #005895",
"i#	c #00497A",
"j#	c #002944",
"k#	c #120008",
"l#	c #A38300",
"m#	c #FCED00",
"n#	c #E37200",
"o#	c #DC7100",
"p#	c #CFA500",
"q#	c #947100",
"r#	c #4B0500",
"s#	c #871400",
"t#	c #C15800",
"u#	c #C55300",
"v#	c #C84F00",
"w#	c #C64600",
"x#	c #B43900",
"y#	c #B43B00",
"z#	c #B83C00",
"A#	c #9B1E00",
"B#	c #8D1800",
"C#	c #A22A00",
"D#	c #8B2700",
"E#	c #020005",
"F#	c #00659E",
"G#	c #006BB3",
"H#	c #005FA2",
"I#	c #005591",
"J#	c #003C69",
"K#	c #002442",
"L#	c #692D00",
"M#	c #501800",
"N#	c #DDC100",
"O#	c #EFC800",
"P#	c #DE7000",
"Q#	c #D68E00",
"R#	c #C18200",
"S#	c #6E3600",
"T#	c #670005",
"U#	c #A52F00",
"V#	c #BB4F00",
"W#	c #C25800",
"X#	c #C85400",
"Y#	c #C95100",
"Z#	c #C54B00",
"`#	c #BE4700",
" $	c #C04900",
".$	c #C24A00",
"+$	c #531B00",
"@$	c #001023",
"#$	c #003A62",
"$$	c #005387",
"%$	c #004278",
"&$	c #005287",
"*$	c #00477A",
"=$	c #00335C",
"-$	c #001A33",
";$	c #C55500",
">$	c #B45C00",
",$	c #F4C500",
"'$	c #DD8900",
")$	c #CE8200",
"!$	c #AA5B00",
"~$	c #4D0006",
"{$	c #820700",
"]$	c #AF3200",
"^$	c #B74A00",
"/$	c #C95D00",
"($	c #C85500",
"_$	c #C95300",
":$	c #CA5200",
"<$	c #C85000",
"[$	c #D05600",
"}$	c #8E3C00",
"|$	c #1B0C00",
"1$	c #002343",
"2$	c #002142",
"3$	c #002139",
"4$	c #000000",
"5$	c #883B00",
"6$	c #CB5800",
"7$	c #E58B00",
"8$	c #E59500",
"9$	c #D29200",
"0$	c #CBA400",
"a$	c #BD5200",
"b$	c #823800",
"c$	c #610002",
"d$	c #9A1800",
"e$	c #9F1F00",
"f$	c #C25300",
"g$	c #CB5D00",
"h$	c #CA5A00",
"i$	c #CD5D00",
"j$	c #CA5600",
"k$	c #C95500",
"l$	c #D75A00",
"m$	c #D45C00",
"n$	c #B44D00",
"o$	c #793400",
"p$	c #974300",
"q$	c #C95800",
"r$	c #C65600",
"s$	c #D46700",
"t$	c #E87D00",
"u$	c #DB8900",
"v$	c #CBCF00",
"w$	c #C57200",
"x$	c #9D3500",
"y$	c #370002",
"z$	c #6F0100",
"A$	c #981300",
"B$	c #991800",
"C$	c #C95400",
"D$	c #C04400",
"E$	c #BE4200",
"F$	c #CE5F00",
"G$	c #CD5E00",
"H$	c #CB5A00",
"I$	c #D45D00",
"J$	c #DD5F00",
"K$	c #DF6200",
"L$	c #DB6200",
"M$	c #D25D00",
"N$	c #C75A00",
"O$	c #CC5C00",
"P$	c #E36900",
"Q$	c #DC8200",
"R$	c #D1CA00",
"S$	c #BEA700",
"T$	c #621E00",
"U$	c #430001",
"V$	c #6F0000",
"W$	c #8B0800",
"X$	c #8C0600",
"Y$	c #B93300",
"Z$	c #A60F00",
"`$	c #A91700",
" %	c #C74A00",
".%	c #C95200",
"+%	c #C64B00",
"@%	c #C95600",
"#%	c #CB5E00",
"$%	c #CA5D00",
"%%	c #C85C00",
"&%	c #C65900",
"*%	c #DA7C00",
"=%	c #CDAE00",
"-%	c #C2B800",
";%	c #994000",
">%	c #6E1A00",
",%	c #480003",
"'%	c #6A0000",
")%	c #7D0001",
"!%	c #860100",
"~%	c #9A0E00",
"{%	c #950000",
"]%	c #9A0001",
"^%	c #AB1600",
"/%	c #B82D00",
"(%	c #BF3600",
"_%	c #BF3F00",
":%	c #C14700",
"<%	c #C45400",
"[%	c #C35600",
"}%	c #CA5F00",
"|%	c #CC7100",
"1%	c #C68700",
"2%	c #C09300",
"3%	c #984D00",
"4%	c #6B1A00",
"5%	c #440003",
"6%	c #5E0000",
"7%	c #7B0000",
"8%	c #860000",
"9%	c #8E0000",
"0%	c #900000",
"a%	c #970100",
"b%	c #A30E00",
"c%	c #AC1B00",
"d%	c #B22300",
"e%	c #B73000",
"f%	c #BC3E00",
"g%	c #BE4B00",
"h%	c #BD5800",
"i%	c #BC6400",
"j%	c #B36600",
"k%	c #8F3F00",
"l%	c #661900",
"m%	c #510000",
"n%	c #6D0000",
"o%	c #790000",
"p%	c #810100",
"q%	c #880100",
"r%	c #8D0200",
"s%	c #940800",
"t%	c #9B1300",
"u%	c #A32000",
"v%	c #A82A00",
"w%	c #A73100",
"x%	c #973700",
"y%	c #792D00",
"z%	c #370200",
"A%	c #500100",
"B%	c #5B0000",
"C%	c #630000",
"D%	c #670000",
"E%	c #6B0000",
"F%	c #710000",
"G%	c #780000",
"H%	c #7F0300",
"I%	c #851300",
"J%	c #821F00",
"K%	c #722200",
"L%	c #511800",
"M%	c #3E0200",
"N%	c #460002",
"O%	c #4B0000",
"P%	c #4C0000",
"                                                                ",
"                          . + @ # $ % & *                       ",
"                    =                   - ; >                   ",
"                , '                         ) ! ~               ",
"        {     ]                 ^         / ( _ : < [           ",
"        } | 1         2 3   4             5 6 7 8 9 0 a         ",
"      b c d e f g h i j k l m n o p q r s t u v w x y z A       ",
"      B C D E F G H I J K L M N O P Q R S T U V W X Y Z `  .    ",
"      ..+.@.#.$.%.&.*.=.-.;.>.,.'.).!.~.{.].^./.(._.:.<.[.}.    ",
"      |.1.2.3.4.G 5.6.7.8.9.0.a.b.c.d.e.f.g.h.i.j.k.l.m.n.o.p.  ",
"    q.r.s.t.u.G G G 6.v.w.x.y.z.A.B.C.D.E.F.G.H.I.J.K.L.M.N.O.  ",
"    P.Q.R.#.%.G G G G S.T.  U.V.W.X.Y.Z.`. +.+++I.@+#+$+%+&+*+  ",
"    =+-+R.;+>+,+&.5.'+)+!+~+{+]+^+/+(+_+:+<+[+}+|+1+2+3+4+5+6+7+",
"    8+9+0+;+a+b+c+d+e+f+g+h+i+j+k+l+m+n+o+p+q+r+s+t+u+v+w+x+y+z+",
"    A+B+C+D+E+F+G+H+I+J+K+L+M+N+O+P+Q+R+S+T+U+V+W+X+Y+Z+`+ @.@+@",
"  @@#@$@R.%@&@*@=@-@;@>@,@'@)@!@~@~@{@]@^@/@(@_@:@<@[@}@|@1@2@3@",
"  4@5@6@7@8@9@0@a@b@c@d@e@f@g@h@i@j@k@l@O m@n@o@p@q@r@s@t@u@v@w@",
"    x@y@z@A@B@C@D@E@F@G@H@I@J@K@L@M@N@O@P@Q@R@S@T@U@V@W@X@Y@Z@  ",
"    `@ #.#+#@###$#%#&#*#=#-#;#>#,#'#)#!#~#{#]#^#/#(#_#:#<#[#}#  ",
"    |#1#2#3#4#5#6#7#8#9#x.0#a#b#c#d#e#f#g#h#i#j#k#l#m#n#o#p#q#  ",
"    r#s#9+t#u#v#w#x#y#z#A#B#C#D#E#F#G#H#I#J#K#L#M#N#O#P#Q#R#S#  ",
"      T#U#V#W#X#Y#Z#`# $.$+$@$#$$$%$&$*$=$-$[@;$>$,$'$[#)$!$    ",
"      ~${$]$^$/$($_$:$<$:$[$}$|$V 1$2$3$4$5$J 6$7$8$9$0$a$b$    ",
"        c$d$e$f$g$h$i$j$k$k$l$m$n$}$o$p$q$&.r$s$t$u$v$w$x$      ",
"        y$z$A$B$C$D$E$F$G$q$.@H$I$J$K$L$M$N$O$P$Q$R$S$=+T$      ",
"          U$V$W$X$Y$Z$`$ %.%+%@%/$#%$%%%N$&%'+*%=%-%;%>%        ",
"            ,%'%)%!%~%{%]%^%/%(%_%:%+#<%[%}%|%1%2%3%4%          ",
"              5%6%V$7%8%9%0%a%b%c%d%e%f%g%h%i%j%k%l%            ",
"                  m%6%n%o%p%q%r%s%t%u%v%w%A+x%y%                ",
"                    z%A%B%C%D%E%F%G%H%I%J%K%L%                  ",
"                            M%N%O%P%                            ",
"                                                                "};
