/* XPM */
static char *pencil[] = {
/* width height num_colors chars_per_pixel */
"    16    14       23            1",
/* colors */
". c #000000",
"# c #303030",
"a c #400000",
"b c #800000",
"c c #808080",
"d c #a0a0a0",
"e c #c00000",
"f c #c3c3c3",
"g c #cccccc",
"h c #cecece",
"i c #d2d2d2",
"j c #d4d4d4",
"k c #d9d9d9",
"l c #dadada",
"m c #dbdbdb",
"n c #dcdcdc",
"o c #f2f2f2",
"p c #f3f3f3",
"q c #f7f7f7",
"r c #f9f9f9",
"s c #fefefe",
"t c #ffc0c0",
"u c None",
/* pixels */
"uuuuuuuuubeteeeb",
"uuuuuuuubeteeebb",
"uuuuuuubeteeebb.",
"uuuuuubeteeebb.u",
"uuuuubeteeebb.uu",
"uuuubeteeebb.uuu",
"uuubeteeebb.uuuu",
"uuuufeeebb.uuuuu",
"uununfebb.uuuuuu",
"uuunffcb.uuuuuuu",
"uunffc#.uuuuuuuu",
"uefd#.uuuuuuuuuu",
"eba.uuuuuuuuuuuu",
"bahiuuuuuuuuuuuu",
};
