/* XPM */
static char * ram_xpm[] = {
"32 32 154 2",
"  	c None",
". 	c #F8F8F9",
"+ 	c #F7F7F8",
"@ 	c #F6F6F7",
"# 	c #F4F4F6",
"$ 	c #EAEBED",
"% 	c #E6E6EA",
"& 	c #E2E2E6",
"* 	c #DDDDE2",
"= 	c #D8D8DD",
"- 	c #D5D5DA",
"; 	c #D4D4D8",
"> 	c #F8F7F8",
", 	c #F5F5F6",
"' 	c #E9EAEC",
") 	c #E5E5E9",
"! 	c #E1E1E6",
"~ 	c #D5D5D9",
"{ 	c #D3D3D7",
"] 	c #F3F3F5",
"^ 	c #E5E6EA",
"/ 	c #E3E3E7",
"( 	c #E0E0E4",
"_ 	c #DBDBE1",
": 	c #D7D7DC",
"< 	c #D3D3D6",
"[ 	c #F6F7F8",
"} 	c #F5F6F7",
"| 	c #F5F5F5",
"1 	c #F4F4F5",
"2 	c #F3F2F5",
"3 	c #DFDFE5",
"4 	c #DADADF",
"5 	c #D2D2D5",
"6 	c #F4F5F6",
"7 	c #F3F5F5",
"8 	c #F2F3F4",
"9 	c #F2F2F4",
"0 	c #F1F1F4",
"a 	c #DDDEE4",
"b 	c #DDDDE3",
"c 	c #D3D3D8",
"d 	c #D1D1D5",
"e 	c #D0D0D4",
"f 	c #F2F4F5",
"g 	c #F1F2F4",
"h 	c #F0F0F2",
"i 	c #EEEFF2",
"j 	c #DBDBE2",
"k 	c #D9D9E0",
"l 	c #D6D6DC",
"m 	c #CECED2",
"n 	c #CDCDD1",
"o 	c #F3F4F5",
"p 	c #F1F2F3",
"q 	c #EEEFF1",
"r 	c #EAEBEE",
"s 	c #DADBE1",
"t 	c #D8D8DF",
"u 	c #D4D4DB",
"v 	c #CECFD3",
"w 	c #CACBCE",
"x 	c #C9C9CD",
"y 	c #F4F3F6",
"z 	c #EFF0F1",
"A 	c #EBECEF",
"B 	c #E6E7EB",
"C 	c #D9DAE1",
"D 	c #D7D8DE",
"E 	c #D3D3D9",
"F 	c #CCCDD1",
"G 	c #C7C9CC",
"H 	c #C5C7CA",
"I 	c #F0F1F3",
"J 	c #E7E8EB",
"K 	c #E2E3E8",
"L 	c #D8D9E0",
"M 	c #D6D7DD",
"N 	c #D1D2D8",
"O 	c #CACBD0",
"P 	c #C6C7CB",
"Q 	c #C3C5C8",
"R 	c #F1F1F3",
"S 	c #EEEEF1",
"T 	c #E8E9ED",
"U 	c #E4E5E9",
"V 	c #E1E2E6",
"W 	c #DEDFE4",
"X 	c #D7D8DF",
"Y 	c #D4D5DC",
"Z 	c #D0D1D8",
"` 	c #C9CAD0",
" .	c #C5C6CB",
"..	c #C4C5C9",
"+.	c #EFF0F3",
"@.	c #EEEEF2",
"#.	c #EAEAEE",
"$.	c #E0E1E6",
"%.	c #DCDDE3",
"&.	c #DBDCE2",
"*.	c #D6D7DE",
"=.	c #D4D5DB",
"-.	c #CFD0D7",
";.	c #C9CACF",
">.	c #C3C4C9",
",.	c #EBECF0",
"'.	c #E9EBEF",
").	c #D9DAE0",
"!.	c #D5D6DD",
"~.	c #D3D4DA",
"{.	c #CECFD5",
"].	c #C8C9CF",
"^.	c #C4C5CB",
"/.	c #C2C3C9",
"(.	c #E5E6E9",
"_.	c #E2E3E7",
":.	c #D8D9DF",
"<.	c #D3D4DC",
"[.	c #D1D2D9",
"}.	c #CDCED5",
"|.	c #C7C8CE",
"1.	c #C3C4CA",
"2.	c #C1C2C9",
"3.	c #DFE0E4",
"4.	c #D2D3DB",
"5.	c #CCCDD4",
"6.	c #C6C7CE",
"7.	c #C2C3CA",
"8.	c #C0C1C8",
"9.	c #DDDEE3",
"0.	c #DCDDE2",
"a.	c #D1D2DA",
"b.	c #CFD0D8",
"c.	c #CBCCD3",
"d.	c #C5C6CD",
"e.	c #C0C1C7",
"f.	c #DADBE2",
"g.	c #D0D1D9",
"h.	c #CECFD7",
"i.	c #CACBD3",
"j.	c #C4C5CC",
"k.	c #C1C2C7",
"l.	c #BFC0C5",
"m.	c #D5D6DE",
"n.	c #CFD0D9",
"o.	c #CDCED7",
"p.	c #C9CAD2",
"q.	c #C0C1C6",
"r.	c #BFC0C4",
"s.	c #D8D9E1",
"t.	c #D4D5DD",
"u.	c #CECFD8",
"v.	c #CCCDD6",
"w.	c #C9CAD1",
"                                                                ",
"                                                                ",
"                                                                ",
"                                                                ",
"                                                                ",
"                                                                ",
"                                                                ",
"                . . . + + @ #         $ % & * = - ;             ",
"                . . > + @ , #         ' ) ! * = ~ {             ",
"                . + + @ , # ]         ^ / ( _ : ; <             ",
"                [ [ } | 1 ] 2         ! 3 * 4 - { 5             ",
"                [ } 6 7 8 9 0         a b _ = c d e             ",
"                } 6 6 f g h i         j j k l d m n             ",
"                # # o o p q r         s s t u v w x             ",
"                y ] 8 p z A B         C C D E F G H             ",
"                ] 9 I q r J K         L L M N O P Q             ",
"                8 R S T U V W         D X Y Z `  ...            ",
"                +.@.#.U $.%.&.        M *.=.-.;. .>.            ",
"                ,.'.B $.%.s ).        !.!.~.{.].^./.            ",
"                ^ (._.W &.).:.        <.Y [.}.|.1.2.            ",
"                V $.3.&.C :.:.        4.4.Z 5.6.7.8.            ",
"                a 9.0.C L X D         a.a.b.c.d.2.e.            ",
"                f.&.s L L X *.        g.g.h.i.j.k.l.            ",
"                C C ).L X *.m.        n.n.o.p.^.q.r.            ",
"                C s.L X D *.t.        n.u.v.w.1.q.r.            ",
"                                                                ",
"                                                                ",
"                                                                ",
"                                                                ",
"                                                                ",
"                                                                ",
"                                                                "};
