/* XPM */
static char * terminal_xpm[] = {
"32 32 156 2",
"  	g None",
". 	g #4D4D4D",
"+ 	g #6A6A6A",
"@ 	g #737373",
"# 	g #606060",
"$ 	g #E5E5E5",
"% 	g #D7D7D7",
"& 	g #565656",
"* 	g #393939",
"= 	g #000000",
"- 	g #4F4F4F",
"; 	g #5D5D5D",
"> 	g #646464",
", 	g #6B6B6B",
"' 	g #717171",
") 	g #787878",
"! 	g #7F7F7F",
"~ 	g #868686",
"{ 	g #8C8C8C",
"] 	g #909090",
"^ 	g #919191",
"/ 	g #8D8D8D",
"( 	g #878787",
"_ 	g #808080",
": 	g #7A7A7A",
"< 	g #6C6C6C",
"[ 	g #656565",
"} 	g #5E5E5E",
"| 	g #585858",
"1 	g #505050",
"2 	g #757575",
"3 	g #C3C3C3",
"4 	g #828282",
"5 	g #727272",
"6 	g #8E8E8E",
"7 	g #949494",
"8 	g #959595",
"9 	g #8F8F8F",
"0 	g #898989",
"a 	g #818181",
"b 	g #747474",
"c 	g #6D6D6D",
"d 	g #5F5F5F",
"e 	g #8A8A8A",
"f 	g #FFFFFF",
"g 	g #B5B5B5",
"h 	g #7E7E7E",
"i 	g #848484",
"j 	g #8B8B8B",
"k 	g #858585",
"l 	g #797979",
"m 	g #545454",
"n 	g #EBEBEB",
"o 	g #E4E4E4",
"p 	g #7D7D7D",
"q 	g #838383",
"r 	g #7B7B7B",
"s 	g #6F6F6F",
"t 	g #696969",
"u 	g #626262",
"v 	g #5C5C5C",
"w 	g #555555",
"x 	g #4E4E4E",
"y 	g #4B4B4B",
"z 	g #515151",
"A 	g #777777",
"B 	g #E1E1E1",
"C 	g #E3E3E3",
"D 	g #7C7C7C",
"E 	g #595959",
"F 	g #525252",
"G 	g #4C4C4C",
"H 	g #474747",
"I 	g #B8B8B8",
"J 	g #686868",
"K 	g #707070",
"L 	g #5A5A5A",
"M 	g #484848",
"N 	g #424242",
"O 	g #C7C7C7",
"P 	g #929292",
"Q 	g #D9D9D9",
"R 	g #DADADA",
"S 	g #DBDBDB",
"T 	g #676767",
"U 	g #616161",
"V 	g #494949",
"W 	g #434343",
"X 	g #3D3D3D",
"Y 	g #F5F5F5",
"Z 	g #AFAFAF",
"` 	g #3E3E3E",
" .	g #373737",
"..	g #3C3C3C",
"+.	g #414141",
"@.	g #454545",
"#.	g #4A4A4A",
"$.	g #535353",
"%.	g #575757",
"&.	g #464646",
"*.	g #383838",
"=.	g #303030",
"-.	g #363636",
";.	g #3A3A3A",
">.	g #3B3B3B",
",.	g #323232",
"'.	g #2A2A2A",
").	g #2E2E2E",
"!.	g #3F3F3F",
"~.	g #404040",
"{.	g #333333",
"].	g #2F2F2F",
"^.	g #2B2B2B",
"/.	g #232323",
"(.	g #272727",
"_.	g #313131",
":.	g #343434",
"<.	g #353535",
"[.	g #282828",
"}.	g #242424",
"|.	g #1B1B1B",
"1.	g #1F1F1F",
"2.	g #262626",
"3.	g #292929",
"4.	g #2C2C2C",
"5.	g #202020",
"6.	g #1C1C1C",
"7.	g #141414",
"8.	g #181818",
"9.	g #1E1E1E",
"0.	g #252525",
"a.	g #212121",
"b.	g #151515",
"c.	g #0C0C0C",
"d.	g #0F0F0F",
"e.	g #131313",
"f.	g #1A1A1A",
"g.	g #1D1D1D",
"h.	g #191919",
"i.	g #161616",
"j.	g #101010",
"k.	g #040404",
"l.	g #070707",
"m.	g #0A0A0A",
"n.	g #0D0D0D",
"o.	g #121212",
"p.	g #171717",
"q.	g #0B0B0B",
"r.	g #080808",
"s.	g #050505",
"t.	g #010101",
"u.	g #020202",
"v.	g #090909",
"w.	g #0E0E0E",
"x.	g #030303",
"y.	g #DCDCDC",
"                                                                ",
"                                                                ",
"  . . . . . . . . . . . . . . . . . . . . . . . . . . . . . .   ",
". . + @ @ @ @ @ @ @ @ @ @ @ @ @ @ @ @ @ @ @ @ @ @ @ @ @ @ + . . ",
". # $ $ $ $ $ $ $ $ $ $ $ $ $ $ $ $ $ $ $ $ $ $ $ $ $ $ $ $ # . ",
". @ $ % & * * * * * * * * * * * * * * * * * * * * * * & % $ @ . ",
". @ $ @ = = = = = = = = = = = = = = = = = = = = = = = = @ $ @ . ",
". @ $ @ = - & ; > , ' ) ! ~ { ] ^ / ( _ : @ < [ } | 1 = @ $ @ . ",
". @ $ @ = 1 2 3 4 , 5 : _ ( 6 7 8 9 0 a : b c [ d | 1 = @ $ @ . ",
". @ $ @ = - e f f g ' ) h i e 6 9 j k _ l 5 < [ } | 1 = @ $ @ . ",
". @ $ @ = . m i n f o p : ! q k k q _ r 2 s t u v w x = @ $ @ . ",
". @ $ @ = y z A B f C ) @ ) r D D r ) b s + [ d E F G = @ $ @ . ",
". @ $ @ = H i f f I c J < s 5 @ @ 5 K c t > d L m x M = @ $ @ . ",
". @ $ @ = N + O h | v P Q R R S S g T [ U ; E m x V W = @ $ @ . ",
". @ $ @ = X N M G z w { Y f f f f Z } v E & F . V W ` = @ $ @ . ",
". @ $ @ =  ...+.@.#.. 1 $.w %.| | %.& $.z x y &.N X *.= @ $ @ . ",
". @ $ @ = =.-.;.` N @.M y G . x x x . y V &.N ` >.-.,.= @ $ @ . ",
". @ $ @ = '.).,.-.;.X !.+.W @.@.@.@.W N ~.X >. .{.].^.= @ $ @ . ",
". @ $ @ = /.(.^.)._.:. .* ;.>.....>.;.*  .<.,.].^.[.}.= @ $ @ . ",
". @ $ @ = |.1./.2.3.4.).=._.,.,.{.,._.=.).4.'.(.}.5.6.= @ $ @ . ",
". @ $ @ = 7.8.|.9.5./.0.(.[.3.3.3.3.[.(.2.}.a.9.|.8.b.= @ $ @ . ",
". @ $ @ = c.d.e.b.8.f.6.g.1.1.5.5.1.1.9.6.|.h.i.e.j.c.= @ $ @ . ",
". @ $ @ = k.l.m.n.d.o.e.b.i.i.p.p.p.i.b.7.o.j.n.q.r.s.= @ $ @ . ",
". @ $ @ = = t.u.k.l.v.m.q.c.n.n.w.n.c.c.m.v.l.s.x.t.= = @ $ @ . ",
". @ $ @ = = = = = = t.u.x.k.k.s.s.k.k.x.u.t.= = = = = = @ $ @ . ",
". @ $ @ = = = = = = = = = = = = = = = = = = = = = = = = @ $ @ . ",
". @ $ % @ @ @ @ @ @ @ @ @ @ @ @ @ @ @ @ @ @ @ @ @ @ @ @ % $ @ . ",
". # y.$ $ $ $ $ $ $ $ $ $ $ $ $ $ $ $ $ $ $ $ $ $ $ $ $ $ y.# . ",
". . # @ @ @ @ @ @ @ @ @ @ @ @ @ @ @ @ @ @ @ @ @ @ @ @ @ @ # . . ",
"  . . . . . . . . . . . . . . . . . . . . . . . . . . . . . .   ",
"                                                                ",
"                                                                "};
