/* XPM */
static char * vbox_xpm[] = {
"16 14 213 2",
"  	c None",
". 	c #CFE5EC",
"+ 	c #ADDFF0",
"@ 	c #B0E4F6",
"# 	c #A3DBF1",
"$ 	c #8ECBE4",
"% 	c #7CBEDA",
"& 	c #68AFCD",
"* 	c #58A5C5",
"= 	c #459BBD",
"- 	c #2A8DB2",
"; 	c #1081A8",
"> 	c #0879A2",
", 	c #006B97",
"' 	c #005E8E",
") 	c #045F90",
"! 	c #468BB8",
"~ 	c #C9E1EA",
"{ 	c #ABDFF2",
"] 	c #FFFFFF",
"^ 	c #FFFEFE",
"/ 	c #F4FEFE",
"( 	c #E3FEFE",
"_ 	c #CDF7FD",
": 	c #CBFDFE",
"< 	c #C0F4FE",
"[ 	c #A5DFF8",
"} 	c #A5DFFB",
"| 	c #98D4F6",
"1 	c #8ACAED",
"2 	c #00558A",
"3 	c #3A82B1",
"4 	c #C3DDE7",
"5 	c #9ED6ED",
"6 	c #FEFDFD",
"7 	c #F8FEFE",
"8 	c #E9FEFE",
"9 	c #DDFEFD",
"0 	c #9AD8EB",
"a 	c #BBF2FC",
"b 	c #B0E9FB",
"c 	c #78BCDE",
"d 	c #9BD9F7",
"e 	c #8ECEF1",
"f 	c #84C7ED",
"g 	c #004F87",
"h 	c #377EB0",
"i 	c #BBD8E4",
"j 	c #86C3DC",
"k 	c #FDFEFE",
"l 	c #F8FDFD",
"m 	c #EBFEFE",
"n 	c #DFFEFE",
"o 	c #D7FFFF",
"p 	c #5EB4D4",
"q 	c #93D3EB",
"r 	c #89CAE7",
"s 	c #4392BC",
"t 	c #95D5F7",
"u 	c #86CAEF",
"v 	c #7EC4EA",
"w 	c #004985",
"x 	c #347AAF",
"y 	c #AFD3E0",
"z 	c #75B6D3",
"A 	c #F0FFFF",
"B 	c #E9FFFE",
"C 	c #DEFEFE",
"D 	c #D4FDFD",
"E 	c #C2F7FC",
"F 	c #48A0C7",
"G 	c #5AAACF",
"H 	c #55A1C8",
"I 	c #3181AE",
"J 	c #86C9EE",
"K 	c #7FC5EC",
"L 	c #78C1E9",
"M 	c #004483",
"N 	c #3076AF",
"O 	c #A2CEDC",
"P 	c #65ABCA",
"Q 	c #A0D6E5",
"R 	c #9CD5E5",
"S 	c #ACE5F2",
"T 	c #CAFCFE",
"U 	c #9EDDF1",
"V 	c #53A6CC",
"W 	c #3C91BB",
"X 	c #3586B4",
"Y 	c #4290BE",
"Z 	c #5EA6D1",
"` 	c #78C1EA",
" .	c #6FBBE6",
"..	c #003C80",
"+.	c #2C71AC",
"@.	c #93C8D7",
"#.	c #54A1C0",
"$.	c #7FC4D9",
"%.	c #72C1D8",
"&.	c #399CC4",
"*.	c #AEE9F9",
"=.	c #65B1D2",
"-.	c #70B8DB",
";.	c #4893C0",
">.	c #3684B3",
",.	c #62AAD5",
"'.	c #317DB0",
").	c #65B5E2",
"!.	c #00347B",
"~.	c #286BAA",
"{.	c #85C1D3",
"].	c #3F94B6",
"^.	c #C9FBFF",
"/.	c #C6F9FF",
"(.	c #5BADD0",
"_.	c #78BFDE",
":.	c #398CB8",
"<.	c #8CCDEF",
"[.	c #5FA7D2",
"}.	c #4B94C2",
"|.	c #70B7E2",
"1.	c #185E97",
"2.	c #55A2D2",
"3.	c #4E9DCF",
"4.	c #002B78",
"5.	c #2365A6",
"6.	c #76B8CE",
"7.	c #2488AC",
"8.	c #B9EEFD",
"9.	c #B1EAFC",
"0.	c #82C3E4",
"a.	c #4194BE",
"b.	c #277BAA",
"c.	c #8DCFF3",
"d.	c #72B8E1",
"e.	c #67B0DB",
"f.	c #69B5E0",
"g.	c #21639E",
"h.	c #00337A",
"i.	c #002976",
"j.	c #002374",
"k.	c #1E5CA2",
"l.	c #62ADC8",
"m.	c #097BA2",
"n.	c #ABE2FC",
"o.	c #A1DCF9",
"p.	c #91CFF0",
"q.	c #1A709F",
"r.	c #3784B3",
"s.	c #82C8EE",
"t.	c #76BEE8",
"u.	c #6AB7E2",
"v.	c #63B2DF",
"w.	c #5BAFDD",
"x.	c #52AADB",
"y.	c #47A4D6",
"z.	c #00176D",
"A.	c #18529D",
"B.	c #50A2C2",
"C.	c #007099",
"D.	c #9ED8F8",
"E.	c #92D0F2",
"F.	c #8DCDF1",
"G.	c #2877A7",
"H.	c #579ECA",
"I.	c #75BEE7",
"J.	c #6BB7E2",
"K.	c #63B3DF",
"L.	c #59ACDB",
"M.	c #50A8D8",
"N.	c #46A2D4",
"O.	c #3E9FD3",
"P.	c #000B68",
"Q.	c #134998",
"R.	c #499ABD",
"S.	c #006591",
"T.	c #92CFF0",
"U.	c #88C8EC",
"V.	c #82C5EB",
"W.	c #4A92BF",
"X.	c #6DB6E0",
"Y.	c #6CB8E3",
"Z.	c #63B3E0",
"`.	c #59ADDB",
" +	c #50A8D9",
".+	c #3C9CD0",
"++	c #3197CD",
"@+	c #000064",
"#+	c #0D4192",
"$+	c #4492B8",
"%+	c #005C8C",
"&+	c #89C8EB",
"*+	c #83C6EC",
"=+	c #68B0DB",
"-+	c #6FBBE5",
";+	c #66B6E2",
">+	c #5BB0DE",
",+	c #52ABDB",
"'+	c #3C9ED1",
")+	c #2592CA",
"!+	c #00005D",
"~+	c #073E8E",
"{+	c #4C95BC",
"]+	c #055F90",
"^+	c #005489",
"/+	c #00337B",
"(+	c #002A76",
"_+	c #002172",
":+	c #00166D",
"<+	c #000A67",
"[+	c #000062",
"}+	c #000060",
"|+	c #00408D",
". + @ # $ % & * = - ; > , ' ) ! ",
"~ { ] ^ ^ / ( _ : < [ } | 1 2 3 ",
"4 5 ^ 6 7 8 9 0 a b c d e f g h ",
"i j k l m n o p q r s t u v w x ",
"y z A B C D E F G H I J K L M N ",
"O P Q R S T U V W X Y Z `  ...+.",
"@.#.$.%.&.*.=.-.;.>.,.'. .).!.~.",
"{.].^./.(._.:.<.[.}.|.1.2.3.4.5.",
"6.7.8.9.0.a.b.c.d.e.f.g.h.i.j.k.",
"l.m.n.o.p.q.r.s.t.u.v.w.x.y.z.A.",
"B.C.D.E.F.G.H.I.J.K.L.M.N.O.P.Q.",
"R.S.T.U.V.W.X.Y.Z.`. +N..+++@+#+",
"$+%+&+*+v =+-+;+>+,+y.'+++)+!+~+",
"{+]+^+g w M ../+(+_+:+<+[+!+}+|+"};
