/* XPM */
static char * volume10_xpm[] = {
"32 32 2 1",
" 	c None",
".	c #E2E2E2",
"                                ",
"                                ",
"                                ",
"                                ",
"                                ",
"                                ",
"                            ... ",
"                            ... ",
"                         ...... ",
"                         ...... ",
"                      ......... ",
"                      ......... ",
"                   ............ ",
"                   ............ ",
"                ............... ",
"                ............... ",
"             .................. ",
"             .................. ",
"          ..................... ",
"          ..................... ",
"       ........................ ",
"       ........................ ",
"    ........................... ",
"    ........................... ",
" .............................. ",
" .............................. ",
"                                ",
"                                ",
"                                ",
"                                ",
"                                ",
"                                "};
