/* XPM */
static char * who2_xpm[] = {
"16 14 113 2",
"  	c None",
". 	c #0D0D0E",
"+ 	c #141414",
"@ 	c #393A3B",
"# 	c #171A1B",
"$ 	c #221E1B",
"% 	c #202324",
"& 	c #161718",
"* 	c #000206",
"= 	c #3F3A32",
"- 	c #3A362F",
"; 	c #202124",
"> 	c #17191B",
", 	c #010202",
"' 	c #231711",
") 	c #C89576",
"! 	c #C1A087",
"~ 	c #8D7F70",
"{ 	c #25292B",
"] 	c #C39B7E",
"^ 	c #FFFACA",
"/ 	c #FFDFB1",
"( 	c #FFF8D5",
"_ 	c #FFE8C8",
": 	c #5B4B3E",
"< 	c #433329",
"[ 	c #FEEABC",
"} 	c #FFE2B4",
"| 	c #FFD1A9",
"1 	c #FFCFA3",
"2 	c #EEC09C",
"3 	c #F6BF9A",
"4 	c #3E3E3D",
"5 	c #5E514B",
"6 	c #644535",
"7 	c #F9B997",
"8 	c #BE7F63",
"9 	c #A37359",
"0 	c #E7B691",
"a 	c #FFD9AF",
"b 	c #B68B6F",
"c 	c #DD8B6C",
"d 	c #593D35",
"e 	c #3D2715",
"f 	c #FFF2C2",
"g 	c #8B7363",
"h 	c #D59578",
"i 	c #FFC29B",
"j 	c #C59999",
"k 	c #A56D6B",
"l 	c #DF8764",
"m 	c #FFC598",
"n 	c #A77361",
"o 	c #CCA1A7",
"p 	c #592E22",
"q 	c #FBB572",
"r 	c #DC8F71",
"s 	c #BB7E68",
"t 	c #FFCFA1",
"u 	c #DACEBD",
"v 	c #DFB69D",
"w 	c #FF9C6F",
"x 	c #FFC496",
"y 	c #D9AA8A",
"z 	c #FFDBC4",
"A 	c #5D4232",
"B 	c #DF9D7E",
"C 	c #FBA78B",
"D 	c #DC8067",
"E 	c #FFB98F",
"F 	c #FFCEA1",
"G 	c #FFCA9A",
"H 	c #FFBB8F",
"I 	c #FBCAA7",
"J 	c #ECC09E",
"K 	c #FFD3A8",
"L 	c #32221C",
"M 	c #151C1E",
"N 	c #462E2B",
"O 	c #F18E72",
"P 	c #FFAB7E",
"Q 	c #FFBA8A",
"R 	c #FFD1A6",
"S 	c #FBC09A",
"T 	c #F9BB96",
"U 	c #FFD5AF",
"V 	c #FFB992",
"W 	c #000101",
"X 	c #000001",
"Y 	c #CC785F",
"Z 	c #FFA581",
"` 	c #FFBD96",
" .	c #FFB28E",
"..	c #FD6253",
"+.	c #FF4A41",
"@.	c #FFAF8D",
"#.	c #90624A",
"$.	c #6F3527",
"%.	c #D88063",
"&.	c #F9B193",
"*.	c #FFD2B4",
"=.	c #FFB399",
"-.	c #FF9C80",
";.	c #F9A381",
">.	c #001515",
",.	c #320000",
"'.	c #350000",
").	c #724632",
"!.	c #CB997E",
"~.	c #FBC6A5",
"{.	c #F2B894",
"].	c #2E221C",
"^.	c #271C15",
"            + @ # $             ",
"        . . + @ # $ % .         ",
"      . . . & * . = - ; >       ",
"      . . , . ' ) ! . ~ {       ",
"      . . . . ] ^ / ( _ :       ",
"    . . . . < [ } | 1 2 3 4     ",
"    . 5 . 6 7 8 9 0 a b c d     ",
"    e f g h i j k l m n o p     ",
"      q r s t u v w x y z A     ",
"      B C D E F G H I J K L     ",
"        N O P Q R S T U V       ",
"          Y Z `  ...+.@.#.      ",
"          $.%.&.*.=.-.;.        ",
"              ).!.~.{.          "};
