/* XPM */
static char * wifi1_xpm[] = {
"32 32 5 1",
" 	c None",
".	c #5F5F5F",
"+	c #E6E6E6",
"@	c #E5E5E5",
"#	c #E7E7E7",
"                                ",
"                                ",
"                                ",
"                                ",
"              ....              ",
"         ..............         ",
"       ..................       ",
"     ......................     ",
"    .........................   ",
"  ............................  ",
" .............................. ",
" .............................. ",
"  ............++++............  ",
"   ......+++++++++++++.......   ",
"    ...++++++++++++++++++...    ",
"     +++@++++++++++++++@+++.    ",
"     ++++++++++++++++++++++     ",
"      ++++++++++++++++++++      ",
"       ++++++++++++++++++       ",
"        ++++#++++++#++++        ",
"         +++++++++++#++         ",
"          ++++++++++++          ",
"           ++++++++++           ",
"            +++++++++           ",
"            ++++++++            ",
"             ++++++             ",
"              ++++              ",
"               ++               ",
"                                ",
"                                ",
"                                ",
"                                "};
