/* XPM */
static char * wifi6_xpm[] = {
"32 32 4 1",
" 	c None",
".	c #E6E6E6",
"+	c #E5E5E5",
"@	c #E7E7E7",
"                                ",
"                                ",
"                                ",
"                                ",
"              ....              ",
"         ..............         ",
"       ..................       ",
"     ......................     ",
"    .........................   ",
"  ............................  ",
" .............................. ",
" .............................. ",
"  ............................  ",
"   ..........................   ",
"    ........................    ",
"     ...+..............+....    ",
"     ......................     ",
"      ....................      ",
"       ..................       ",
"        ....@......@....        ",
"         ...........@..         ",
"          ............          ",
"           ..........           ",
"            .........           ",
"            ........            ",
"             ......             ",
"              ....              ",
"               ..               ",
"                                ",
"                                ",
"                                ",
"                                "};
