/* XPM */
static char * xrandr_xpm[] = {
"32 32 564 2",
"  	c None",
". 	c #A7A8AA",
"+ 	c #BCBDBF",
"@ 	c #D0D2D4",
"# 	c #D2D4D6",
"$ 	c #D5D6D8",
"% 	c #D7D9DA",
"& 	c #D9DBDC",
"* 	c #DCDDDE",
"= 	c #DEDFE0",
"- 	c #E0E1E3",
"; 	c #E3E4E5",
"> 	c #E5E6E7",
", 	c #E7E8E9",
"' 	c #E9EAEB",
") 	c #ECEDEE",
"! 	c #EEEFF0",
"~ 	c #F1F2F2",
"{ 	c #F3F3F4",
"] 	c #F5F6F7",
"^ 	c #F7F8F9",
"/ 	c #F9FAFA",
"( 	c #FBFBFB",
"_ 	c #FBFBFC",
": 	c #FAFAFA",
"< 	c #EFEFEF",
"[ 	c #E2E2E2",
"} 	c #D4D4D5",
"| 	c #A9AAAB",
"1 	c #B1B5AE",
"2 	c #CAD5AE",
"3 	c #CAD5AD",
"4 	c #CCD8AD",
"5 	c #CEDAAD",
"6 	c #CFDBAE",
"7 	c #CEDBB0",
"8 	c #CED9B2",
"9 	c #CDD7B3",
"0 	c #CAD6B3",
"a 	c #C8D4B2",
"b 	c #C6D2B2",
"c 	c #C6D1B2",
"d 	c #C5D1B2",
"e 	c #C4D0B2",
"f 	c #C4CFB2",
"g 	c #C3CEB2",
"h 	c #C2CDB2",
"i 	c #C1CCB2",
"j 	c #C0CCB2",
"k 	c #BFCBB2",
"l 	c #BFCAB2",
"m 	c #B0BDA2",
"n 	c #929D88",
"o 	c #D4D4D4",
"p 	c #ADADAE",
"q 	c #9FA19F",
"r 	c #80847B",
"s 	c #83887E",
"t 	c #898E83",
"u 	c #888C81",
"v 	c #808479",
"w 	c #7E8277",
"x 	c #7D8276",
"y 	c #7D8075",
"z 	c #7C7F75",
"A 	c #7B7F75",
"B 	c #7A7E76",
"C 	c #7A7F77",
"D 	c #797E75",
"E 	c #797D75",
"F 	c #797C75",
"G 	c #787C75",
"H 	c #797D77",
"I 	c #797E78",
"J 	c #7A7F7A",
"K 	c #565B58",
"L 	c #141D14",
"M 	c #4F554F",
"N 	c #D1D2D2",
"O 	c #B0B1B1",
"P 	c #9C9E9E",
"Q 	c #67696C",
"R 	c #9E9FA1",
"S 	c #E1E1E1",
"T 	c #DDDDDD",
"U 	c #7A7B7D",
"V 	c #646566",
"W 	c #646465",
"X 	c #636364",
"Y 	c #636363",
"Z 	c #636464",
"` 	c #646466",
" .	c #636465",
"..	c #626263",
"+.	c #646567",
"@.	c #616265",
"#.	c #2B2D32",
"$.	c #080B12",
"%.	c #07090F",
"&.	c #4B4E4F",
"*.	c #CECFCF",
"=.	c #B3B4B5",
"-.	c #9C9E9D",
";.	c #5F6064",
">.	c #ADAEAF",
",.	c #CCCCCC",
"'.	c #D1D1D0",
").	c #8B8D8D",
"!.	c #5B5C5E",
"~.	c #5A5B5C",
"{.	c #5A5A5B",
"].	c #5A5A5A",
"^.	c #5B5B5D",
"/.	c #707174",
"(.	c #6B6B6D",
"_.	c #59595A",
":.	c #595A5A",
"<.	c #5A5A5C",
"[.	c #4B4D4F",
"}.	c #13151A",
"|.	c #080B10",
"1.	c #090C13",
"2.	c #080A10",
"3.	c #4C4F50",
"4.	c #CBCCCC",
"5.	c #B6B7B7",
"6.	c #57585C",
"7.	c #585A5D",
"8.	c #5B5C5F",
"9.	c #5D5F60",
"0.	c #595B5B",
"a.	c #535456",
"b.	c #525354",
"c.	c #515253",
"d.	c #515153",
"e.	c #505152",
"f.	c #67686B",
"g.	c #7F8186",
"h.	c #A5A8AE",
"i.	c #828488",
"j.	c #DBDFE8",
"k.	c #ADB0B7",
"l.	c #323335",
"m.	c #07090C",
"n.	c #07090E",
"o.	c #090C12",
"p.	c #0B0E14",
"q.	c #090C11",
"r.	c #4D5051",
"s.	c #C8C8C9",
"t.	c #B9BABA",
"u.	c #4F5156",
"v.	c #525459",
"w.	c #525458",
"x.	c #4F5054",
"y.	c #4C4E51",
"z.	c #4B4C4E",
"A.	c #4A4A4C",
"B.	c #494A4B",
"C.	c #4A4B4C",
"D.	c #585A5C",
"E.	c #CACDD6",
"F.	c #7B7D82",
"G.	c #8C8F95",
"H.	c #A6A9B1",
"I.	c #CED2DB",
"J.	c #5F6164",
"K.	c #434446",
"L.	c #1A1B1D",
"M.	c #030508",
"N.	c #05070C",
"O.	c #0B0E15",
"P.	c #0D1017",
"Q.	c #0B0D14",
"R.	c #4E5152",
"S.	c #C5C6C6",
"T.	c #BCBDBD",
"U.	c #9D9E9D",
"V.	c #484A50",
"W.	c #AEAFAE",
"X.	c #7E7E80",
"Y.	c #45474B",
"Z.	c #434548",
"`.	c #424346",
" +	c #414245",
".+	c #55575B",
"++	c #AAAEB6",
"@+	c #606267",
"#+	c #585A5E",
"$+	c #76787E",
"%+	c #7C7F85",
"&+	c #505256",
"*+	c #333437",
"=+	c #0A0C0F",
"-+	c #05070B",
";+	c #0A0D13",
">+	c #0D1118",
",+	c #0F131B",
"'+	c #4F5254",
")+	c #C2C3C3",
"!+	c #BFC0C0",
"~+	c #9D9E9E",
"{+	c #42454B",
"]+	c #A5A5A5",
"^+	c #DDDEDC",
"/+	c #D9D9D8",
"(+	c #67686A",
"_+	c #3C3E42",
":+	c #3A3C40",
"<+	c #393A3E",
"[+	c #38393D",
"}+	c #54565B",
"|+	c #A6AAB2",
"1+	c #D6DBE5",
"2+	c #D7DBE6",
"3+	c #D7DCE6",
"4+	c #6D7078",
"5+	c #04060A",
"6+	c #070A0F",
"7+	c #11151D",
"8+	c #13171F",
"9+	c #10141B",
"0+	c #515456",
"a+	c #BFC0C1",
"b+	c #C3C3C4",
"c+	c #9C9F9E",
"d+	c #3D4047",
"e+	c #A1A599",
"f+	c #E6E6E6",
"g+	c #C1C4BA",
"h+	c #717473",
"i+	c #36393E",
"j+	c #34363B",
"k+	c #323439",
"l+	c #313338",
"m+	c #83878E",
"n+	c #D5DAE4",
"o+	c #D4D9E4",
"p+	c #B7BDC8",
"q+	c #23272F",
"r+	c #06080E",
"s+	c #06090E",
"t+	c #0A0D14",
"u+	c #151922",
"v+	c #171C25",
"w+	c #141921",
"x+	c #525659",
"y+	c #BCBDBE",
"z+	c #C6C6C6",
"A+	c #9D9F9F",
"B+	c #393D45",
"C+	c #474C4A",
"D+	c #575A60",
"E+	c #4C5150",
"F+	c #3C4041",
"G+	c #32353C",
"H+	c #303239",
"I+	c #2D3035",
"J+	c #2B2F34",
"K+	c #8A8F97",
"L+	c #D3D8E4",
"M+	c #D0D6E1",
"N+	c #838893",
"O+	c #1A1E27",
"P+	c #0F131C",
"Q+	c #0D1119",
"R+	c #0B0F15",
"S+	c #0E1118",
"T+	c #161B24",
"U+	c #1A1F29",
"V+	c #1C212B",
"W+	c #1A1F28",
"X+	c #55595C",
"Y+	c #B9BABB",
"Z+	c #C9C9C9",
"`+	c #363B44",
" @	c #393E48",
".@	c #383D47",
"+@	c #353A42",
"@@	c #32363F",
"#@	c #2F333B",
"$@	c #2C3037",
"%@	c #2B2D34",
"&@	c #282B33",
"*@	c #4A4D56",
"=@	c #CBD1DD",
"-@	c #A6ABB7",
";@	c #171B25",
">@	c #ABB1BD",
",@	c #7A7F8B",
"'@	c #141922",
")@	c #131820",
"!@	c #151A23",
"~@	c #171B24",
"{@	c #191E27",
"]@	c #202530",
"^@	c #222732",
"/@	c #1F2530",
"(@	c #585C60",
"_@	c #B6B7B8",
":@	c #9EA1A2",
"<@	c #333843",
"[@	c #40454F",
"}@	c #5A5D65",
"|@	c #52555D",
"1@	c #313640",
"2@	c #2D323B",
"3@	c #2B2F38",
"4@	c #292D36",
"5@	c #252931",
"6@	c #1B1F28",
"7@	c #575C66",
"8@	c #C3C9D6",
"9@	c #AFB5C1",
"0@	c #BEC4D1",
"a@	c #3A404B",
"b@	c #1C222D",
"c@	c #1E242F",
"d@	c #1D232D",
"e@	c #1D222C",
"f@	c #1F242F",
"g@	c #222733",
"h@	c #252A36",
"i@	c #262C39",
"j@	c #242A36",
"k@	c #5B5F64",
"l@	c #B2B4B5",
"m@	c #CECECE",
"n@	c #9EA1A1",
"o@	c #2F3542",
"p@	c #4D5059",
"q@	c #707074",
"r@	c #6F7073",
"s@	c #313642",
"t@	c #2B303B",
"u@	c #292E39",
"v@	c #262B35",
"w@	c #1F242E",
"x@	c #1D212B",
"y@	c #2A303B",
"z@	c #4D535F",
"A@	c #2C323E",
"B@	c #222835",
"C@	c #232A36",
"D@	c #222833",
"E@	c #232834",
"F@	c #272D39",
"G@	c #292F3C",
"H@	c #2A303E",
"I@	c #5D6266",
"J@	c #B0B1B2",
"K@	c #9C9FA0",
"L@	c #2C3341",
"M@	c #3E434C",
"N@	c #5F5F61",
"O@	c #2A303D",
"P@	c #292F3B",
"Q@	c #272D3A",
"R@	c #262C38",
"S@	c #252B37",
"T@	c #232934",
"U@	c #262D3A",
"V@	c #272E3B",
"W@	c #272D3B",
"X@	c #282F3C",
"Y@	c #282E3A",
"Z@	c #2B313F",
"`@	c #2D3442",
" #	c #5E6369",
".#	c #ACAEAF",
"+#	c #CACBCA",
"@#	c #2E3644",
"##	c #373D4A",
"$#	c #60616C",
"%#	c #5C5E67",
"&#	c #2C3340",
"*#	c #2B323F",
"=#	c #2B313E",
"-#	c #2A313E",
";#	c #282E3B",
">#	c #2B3240",
",#	c #2C3240",
"'#	c #2E3543",
")#	c #2F3645",
"!#	c #303746",
"~#	c #60656B",
"{#	c #A9ABAD",
"]#	c #C8C8C8",
"^#	c #9C9FA1",
"/#	c #313847",
"(#	c #313948",
"_#	c #303847",
":#	c #2F3746",
"<#	c #2D3441",
"[#	c #292F3D",
"}#	c #262B37",
"|#	c #2E3443",
"1#	c #2F3644",
"2#	c #2F3745",
"3#	c #303846",
"4#	c #313947",
"5#	c #61676D",
"6#	c #A6A8AA",
"7#	c #9EA59F",
"8#	c #3F5642",
"9#	c #405643",
"0#	c #415743",
"a#	c #425742",
"b#	c #415642",
"c#	c #3D5542",
"d#	c #405641",
"e#	c #415541",
"f#	c #42533E",
"g#	c #3E503A",
"h#	c #3B4D36",
"i#	c #3E533E",
"j#	c #415641",
"k#	c #455642",
"l#	c #435641",
"m#	c #425541",
"n#	c #435642",
"o#	c #415643",
"p#	c #405544",
"q#	c #425743",
"r#	c #425442",
"s#	c #415241",
"t#	c #69736B",
"u#	c #A3A5A6",
"v#	c #C4C4C4",
"w#	c #BAC5B3",
"x#	c #8FB46E",
"y#	c #90B66C",
"z#	c #91B86B",
"A#	c #92B96A",
"B#	c #91B76A",
"C#	c #8FB56A",
"D#	c #92B66A",
"E#	c #94B869",
"F#	c #93B669",
"G#	c #94B769",
"H#	c #96B967",
"I#	c #96B868",
"J#	c #95B768",
"K#	c #93B569",
"L#	c #8CAE6C",
"M#	c #88A86D",
"N#	c #86A46F",
"O#	c #86A36F",
"P#	c #8CAA6E",
"Q#	c #8BA76F",
"R#	c #89A470",
"S#	c #8AA670",
"T#	c #8CA86E",
"U#	c #9DAC8D",
"V#	c #A1A3A5",
"W#	c #C1C2C2",
"X#	c #E2E3E3",
"Y#	c #F4F5F5",
"Z#	c #F2F3F4",
"`#	c #F0F2F2",
" $	c #EEF0F1",
".$	c #ECEEEF",
"+$	c #EBECED",
"@$	c #E9EBEB",
"#$	c #E7E9E9",
"$$	c #E5E7E8",
"%$	c #E4E5E7",
"&$	c #E2E4E5",
"*$	c #E0E2E3",
"=$	c #DEE0E1",
"-$	c #DCDFE0",
";$	c #DBDDDE",
">$	c #D7DADB",
",$	c #D6D8D9",
"'$	c #D3D6D7",
")$	c #D0D3D4",
"!$	c #CED1D2",
"~$	c #C6C9CA",
"{$	c #B8BBBC",
"]$	c #ABAEAF",
"^$	c #9FA1A3",
"/$	c #C0C0C1",
"($	c #DFDFE0",
"_$	c #EFF0F1",
":$	c #EDEFEF",
"<$	c #EAECEC",
"[$	c #E7E9EA",
"}$	c #E6E8E9",
"|$	c #E3E5E6",
"1$	c #E1E3E4",
"2$	c #DFE1E2",
"3$	c #DBDDDF",
"4$	c #D8DBDC",
"5$	c #D1D4D5",
"6$	c #CFD2D3",
"7$	c #CFD1D3",
"8$	c #C7CACB",
"9$	c #BABDBD",
"0$	c #ACAFAF",
"a$	c #333333",
"b$	c #222222",
"c$	c #282828",
"d$	c #2D2D2D",
"e$	c #111111",
"f$	c #242424",
"g$	c #868788",
"h$	c #969697",
"i$	c #434343",
"j$	c #2F2F2F",
"k$	c #343434",
"l$	c #8A8B8C",
"m$	c #828383",
"n$	c #939596",
"o$	c #BEBFC0",
"p$	c #BDBEBF",
"q$	c #5E5E5F",
"r$	c #595959",
"s$	c #3C3C3C",
"t$	c #3B3B3B",
"u$	c #3A3A3B",
"v$	c #3A3A3A",
"w$	c #4E4E4E",
"x$	c #575858",
"y$	c #C7C9C9",
"z$	c #9FA0A1",
"A$	c #B5B7B9",
"B$	c #B5B6B7",
"C$	c #A4A5A5",
"D$	c #919292",
"E$	c #818281",
"F$	c #494949",
"G$	c #3E3D3E",
"H$	c #393939",
"I$	c #383838",
"J$	c #3E3E3E",
"K$	c #4C4C4C",
"L$	c #7C7D7D",
"M$	c #939393",
"N$	c #B2B3B4",
"O$	c #C9CACB",
"P$	c #CACCCD",
"Q$	c #858686",
"R$	c #888A8A",
"S$	c #979898",
"T$	c #B7B9B9",
"U$	c #DBDBDC",
"V$	c #EDEEEE",
"W$	c #F7F7F7",
"X$	c #F9F9F9",
"Y$	c #F8F9F8",
"Z$	c #F8F7F8",
"`$	c #F0F0F0",
" %	c #E0E1E1",
".%	c #CCCCCD",
"+%	c #B5B5B6",
"@%	c #A9A9AA",
"#%	c #8F9090",
"$%	c #CBCBCB",
"%%	c #C2C2C2",
"&%	c #BFBEBF",
"*%	c #BFBFBF",
"=%	c #C3C3C3",
"-%	c #CDCDCD",
";%	c #E8E8E8",
"                                                                ",
"    . + @ # $ % & * = - ; > , ' ) ! ~ { ] ^ / ( ( _ : < [ }     ",
"    | 1 2 3 4 5 6 7 8 9 0 a b c d d e f g h i i j k l m n o     ",
"    p q r s t u v w x y z A B B C B D E F G G H I J K L M N     ",
"    O P Q R S T U V W X Y X Z ` `  .X Y ..X  .+.@.#.$.%.&.*.    ",
"    =.-.;.>.,.'.).!.~.{.].{.~.^.^.{./.(._.:.<.[.}.|.1.2.3.4.    ",
"    5.-.6.7.8.9.0.a.b.c.d.e.f.g.h.i.j.k.e.c.l.m.n.o.p.q.r.s.    ",
"    t.-.u.v.w.x.y.z.A.B.C.D.E.F.G.H.I.J.K.L.M.N.2.O.P.Q.R.S.    ",
"    T.U.V.v.W.X.Y.Z.`. +.+++@+#+$+%+&+*+=+M.-+n.;+>+,+P.'+)+    ",
"    !+~+{+]+^+/+(+_+:+<+[+}+|+1+2+3+4+5+5+N.6+;+P.7+8+9+0+a+    ",
"    b+c+d+e+f+g+h+i+j+k+l+m+n+n+o+p+q+r+s+|.t+>+7+u+v+w+x+y+    ",
"    z+A+B+C+D+E+F+G+H+I+J+K+L+M+N+O+P+Q+R+S+9+8+T+U+V+W+X+Y+    ",
"    Z+A+`+ @.@+@@@#@$@%@&@*@=@-@;@>@,@'@)@!@~@{@V+]@^@/@(@_@    ",
"    ,.:@<@[@}@|@1@2@3@4@5@6@7@8@9@0@a@b@c@d@e@f@g@h@i@j@k@l@    ",
"    m@n@o@p@q@r@s@t@u@v@w@x@w@y@z@A@B@C@C@D@E@h@F@G@H@G@I@J@    ",
"    ,.K@L@M@` N@O@P@Q@R@S@g@T@R@U@V@W@X@Q@F@Y@G@Z@L@`@L@ #.#    ",
"    +#K@@###$#%#L@&#*#=#-#;#h@G@&#-#>#*#Z@*#,#`@'#)#!#)#~#{#    ",
"    ]#^#/#(#_#:#!#)#@#'#'#<#[#}#O@`@|#1#'#@#1#2#3#(#(#4#5#6#    ",
"    z+7#8#9#9#0#a#b#c#d#e#e#f#g#h#i#j#k#l#m#n#o#p#q#r#s#t#u#    ",
"    v#w#x#y#z#A#B#C#D#E#F#G#H#I#J#H#K#L#M#N#O#P#Q#R#S#T#U#V#    ",
"    W#X#Y#Z#`# $.$+$@$#$$$%$&$*$=$-$;$& >$,$'$# )$!$~${$]$^$    ",
"    /$($`#_$:$) <$' [$, }$#$$$|$&$1$2$3$4$,$'$5$6$7$8$9$0$^$    ",
"                          a$b$b$b$b$c$                          ",
"                          d$e$e$e$e$f$                          ",
"                      g$h$i$j$j$j$j$k$l$m$                      ",
"                n$o$p$q$r$s$t$t$t$u$v$w$x$o$y$z$                ",
"                A$B$C$D$E$F$G$H$I$J$K$L$M$N$O$P$                ",
"                Q$R$S$T$U$V$W$X$Y$Z$`$ %.%+%@%#%                ",
"                      [ $%%%&%%%%%*%=%-%;%                      ",
"                                                                ",
"                                                                ",
"                                                                "};
