/* XPM */
static char *calendar[] = {
/* columns rows colors chars-per-pixel */
"16 14 157 2",
"   c #0C0500",
".  c #0F0B06",
"X  c #0F0D0A",
"o  c #0D0C0C",
"O  c #171413",
"+  c #141415",
"@  c #191512",
"#  c #201F24",
"$  c #232425",
"%  c #312D2D",
"&  c #21283D",
"*  c #2F3537",
"=  c #303131",
"-  c #32333B",
";  c #3C3C3C",
":  c #333B4E",
">  c #2C3857",
",  c #283F72",
"<  c #3C455E",
"1  c #45484A",
"2  c #4D525A",
"3  c #535C61",
"4  c #50627A",
"5  c #6E6D6E",
"6  c #676679",
"7  c #707274",
"8  c #717374",
"9  c #70707F",
"0  c #31518D",
"q  c #2657B0",
"w  c #3866AA",
"e  c #4A6C96",
"r  c #687E87",
"t  c #466AAB",
"y  c #336BC8",
"u  c #2476EB",
"i  c #7B8997",
"p  c #6B8EB6",
"a  c #3A85EF",
"s  c #4983DC",
"d  c #7BAAD8",
"f  c #4C9FFE",
"g  c #529BFD",
"h  c #6DAEE9",
"j  c #68B3FF",
"k  c #70BBFF",
"l  c #80818D",
"z  c #80898C",
"x  c #878992",
"c  c #8E9192",
"v  c #8D9FA8",
"b  c #9D9EA8",
"n  c #809EBD",
"m  c #9EA2A5",
"M  c #A7AAB5",
"N  c #B0B6B8",
"B  c #FE8283",
"V  c #FF8A89",
"C  c #FD8E8F",
"Z  c #FF9191",
"A  c #FD9192",
"S  c #FC9696",
"D  c #FD9999",
"F  c #FC9E9E",
"G  c #FFA9A8",
"H  c #FDAAAA",
"J  c #FEACAC",
"K  c #FFB4B3",
"L  c #FCBABA",
"P  c #B9B9C1",
"I  c #BAC8CE",
"U  c #B1C2D0",
"Y  c #89CCFF",
"T  c #8DCFFF",
"R  c #9BDDFF",
"E  c #B3D2EA",
"W  c #A7D9FF",
"Q  c #B6DFFE",
"!  c #B7E6FF",
"~  c #B3E9FF",
"^  c #C2C6CD",
"/  c #D1D2D3",
"(  c #D1D7D9",
")  c #D9DADC",
"_  c #F7C6C7",
"`  c #FDC1C1",
"'  c #FEC0C1",
"]  c #FDC3C3",
"[  c #FFCACB",
"{  c #FFCECB",
"}  c #FCCDCE",
"|  c #F8D5D6",
" . c #FED8D6",
".. c #F8DADB",
"X. c #FED9DA",
"o. c #F8DEDE",
"O. c #C5DAE2",
"+. c #D9DCE0",
"@. c #FBDFE0",
"#. c #D8E7EE",
"$. c #DFE8EB",
"%. c #CAECFF",
"&. c #D5FBFF",
"*. c #E6E8EB",
"=. c #EAEDEF",
"-. c #FCE2E2",
";. c #F8E5E6",
":. c #F6EDEE",
">. c #FEE8E9",
",. c #EDEFF0",
"<. c #EFF0F1",
"1. c #EFF0F2",
"2. c #EDF2F2",
"3. c #EFF2F3",
"4. c #E3F3FA",
"5. c #E0F5FF",
"6. c #EEF6F9",
"7. c #E3FAFF",
"8. c #E7FAFF",
"9. c #E4FDFF",
"0. c #E7FCFF",
"q. c #F1F3F4",
"w. c #F2F4F6",
"e. c #F3F6F6",
"r. c #F4F4F4",
"t. c #FBF1F1",
"y. c #F8F6F3",
"u. c #F9F5F6",
"i. c #F9F7F7",
"p. c #FCF6F7",
"a. c #F4F9F9",
"s. c #F7F8F9",
"d. c #F6F8FA",
"f. c #F5FAFF",
"g. c #F2FFFF",
"h. c #F4FDFD",
"j. c #F6FCFF",
"k. c #F7FDFF",
"l. c #F4FEFF",
"z. c #F4FFFF",
"x. c #F6FFFF",
"c. c #F7FFFF",
"v. c #F9F8F8",
"b. c #FBFAF9",
"n. c #F8FAFA",
"m. c #FBFAFA",
"M. c #FBFBFB",
"N. c #F9FCFF",
"B. c #F8FEFF",
"V. c #F9FFFF",
"C. c #FAFEFF",
"Z. c #FBFFFF",
"A. c #FDFDFF",
"S. c #FCFFFF",
"D. c #FDFFFF",
"F. c gray100",
"G. c None",
/* pixels */
"G.G.G.6 9 l b P ) F./ = G.G.G.G.",
"G.5 x M ^ +.*.1.<.b.3.8 G.G.G.G.",
"c ( 2.=.w.,.e.a.C.D.F.N + G.G.G.",
"m 6.r.q.n.m.>.X.-.M.F.$.1 G.G.G.",
"7 #.S.D.p.[ ' ] G } D.Z.z G.G.G.",
"; U x.S.u.@.v.i.J ` V.F.I $ G.G.",
"G.i 5.D.k.c.s.L Z H ;.F.4.3 G.G.",
"G.2 E V.N.j.d.o...D A t.V.v o G.",
"G.% n 7.A.f.l.z.h.F B :.F.O.* G.",
"G.G.4 Q S.z._ S C V  .D.F.8.r G.",
"G.G.- d 0.B.| K { y.9.%.W Y p @ ",
"G.G.G.e ! F.g.&.~ T j g s t < X ",
"G.G.G.: h R k f a y 0 > # . G.G.",
"G.G.G.G.w u q , & O   G.G.G.G.G."
};
