/* XPM */
static char *mini-edit[] = {
/* width height num_colors chars_per_pixel */
"    16    12       5            1",
/* colors */
"  c None",
". c black",
"# c gray50",
"i c white",
"o c red",
/* pixels */
"   ########     ",
"   #iiiiii#.    ",
"   #iiiiii#i.   ",
"   #iooiii#...  ",
"   #iiooiiiii.  ",
"   #iiiooiiii.  ",
"   #iiioooiii.  ",
"   #iiooiooii.  ",
"   #iooiiiooi.  ",
"   #iiiiiiiii.  ",
"   #i########.  ",
"    ..........  "
};
