/* XPM */
static char * fennec14_xpm[] = {
"16 14 104 2",
"  	c None",
". 	c #3C90C2",
"+ 	c #99CFE1",
"@ 	c #68ACD3",
"# 	c #24538A",
"$ 	c #D6C8B4",
"% 	c #E0D5BE",
"& 	c #5BA8D0",
"* 	c #ADD8EB",
"= 	c #BFE9EF",
"- 	c #AFDAEB",
"; 	c #91B6CD",
"> 	c #303A70",
", 	c #DCCFB9",
"' 	c #A29888",
") 	c #D2C3AE",
"! 	c #E3D7C0",
"~ 	c #F8EBCF",
"{ 	c #558AAB",
"] 	c #6EADC7",
"^ 	c #8ED2DF",
"/ 	c #90D6E1",
"( 	c #8BD3E1",
"_ 	c #86C2D3",
": 	c #46638E",
"< 	c #88B0BC",
"[ 	c #E2D4BB",
"} 	c #C9B8A5",
"| 	c #CFBFAB",
"1 	c #D2C5B0",
"2 	c #CEC1AC",
"3 	c #DDD0BA",
"4 	c #DFE1CE",
"5 	c #68A9BC",
"6 	c #69B0C3",
"7 	c #6CB6C6",
"8 	c #61A7BA",
"9 	c #518EA6",
"0 	c #81BCC6",
"a 	c #E9DEC6",
"b 	c #C6B6A3",
"c 	c #DDD1BA",
"d 	c #C3B5A2",
"e 	c #AFA08E",
"f 	c #C5B5A2",
"g 	c #D2C5AF",
"h 	c #EADDC4",
"i 	c #B0BDB7",
"j 	c #3A728A",
"k 	c #417B90",
"l 	c #32647C",
"m 	c #112A47",
"n 	c #FBF5DB",
"o 	c #F3EACF",
"p 	c #E6DCC6",
"q 	c #CABAA7",
"r 	c #61594F",
"s 	c #B0A090",
"t 	c #C8BFB6",
"u 	c #D9CFC3",
"v 	c #F0E2CA",
"w 	c #B0B4AB",
"x 	c #D7D4CA",
"y 	c #BEC0B8",
"z 	c #D9D2BE",
"A 	c #EAE3D4",
"B 	c #E9E7E4",
"C 	c #D6CDC1",
"D 	c #918476",
"E 	c #9E9084",
"F 	c #D9D3CF",
"G 	c #E9E5DF",
"H 	c #E7D9C1",
"I 	c #E5DAC6",
"J 	c #E4D7C0",
"K 	c #E5D9C3",
"L 	c #EEF1F4",
"M 	c #D7CDC3",
"N 	c #6C635F",
"O 	c #000000",
"P 	c #81746B",
"Q 	c #D3C5B0",
"R 	c #D8CBB5",
"S 	c #D5C6B0",
"T 	c #D5C7B1",
"U 	c #D7C8B3",
"V 	c #CDC0AE",
"W 	c #3C363A",
"X 	c #312C29",
"Y 	c #CCC3BC",
"Z 	c #887F75",
"` 	c #C3B3A0",
" .	c #AA9C8B",
"..	c #C3C0BB",
"+.	c #7E7167",
"@.	c #121013",
"#.	c #B5A694",
"$.	c #EFECE8",
"%.	c #C1B2A1",
"&.	c #F5F2EE",
"*.	c #CEC2B4",
"=.	c #9B8D7E",
"-.	c #B9AA9E",
";.	c #928E8A",
"                                ",
"                                ",
"            . + @ #             ",
"$ %       & * = - ; >       , ' ",
"  ) ! ~ { ] ^ / ( _ : < [ } |   ",
"  1 2 3 4 5 6 7 8 9 0 a b c d   ",
"  e f g h i j k l m n o p q r   ",
"    s t u v w x y z A B C D     ",
"      E F G H I J K L M N       ",
"      O P Q R S T U V W         ",
"        X Y Z `  ...+.@.        ",
"          #.$.%.&.*.=.          ",
"              -.;.              ",
"                                "};
