/* XPM */
static char *galeon[] = {
/* columns rows colors chars-per-pixel */
"16 14 196 2",
"   c #000008",
".  c #00041A",
"X  c #00041E",
"o  c #040A24",
"O  c #00092E",
"+  c #050C2C",
"@  c #0C0F28",
"#  c #010B30",
"$  c #0A1232",
"%  c #23263C",
"&  c #05174B",
"*  c #021652",
"=  c #0C1E55",
"-  c #071C59",
";  c #262A41",
":  c #072162",
">  c #002960",
",  c #0B2B7B",
"<  c #003571",
"1  c #05357C",
"2  c #0A377C",
"3  c #323864",
"4  c #134477",
"5  c #18497F",
"6  c #474856",
"7  c #505262",
"8  c #5E5E6E",
"9  c #033F86",
"0  c #0B3984",
"q  c #0B4584",
"w  c #1B4A8E",
"e  c #224480",
"r  c #294A84",
"t  c #204089",
"y  c #29458B",
"u  c #2C528E",
"i  c #354997",
"p  c #355593",
"a  c #3B5C92",
"s  c #325F9D",
"d  c #0541B1",
"f  c #0B56BE",
"g  c #2565A7",
"h  c #3C63A7",
"j  c #2663BB",
"k  c #2860BE",
"l  c #266BBD",
"z  c #3765B2",
"x  c #3663B6",
"c  c #346DB6",
"v  c #2E70BC",
"b  c #3A77B4",
"n  c #3E78BA",
"m  c #4661A7",
"M  c #4876A2",
"N  c #5A72A9",
"B  c #4273BE",
"V  c #4774BD",
"C  c #1E65C0",
"Z  c #2B69C6",
"A  c #2369C9",
"S  c #3972CB",
"D  c #3F7FD4",
"F  c #477DC7",
"G  c #4C79CB",
"H  c #527DC5",
"J  c #6A83A3",
"K  c #6080B4",
"L  c #7187B0",
"P  c #3B81C6",
"I  c #3D85D1",
"U  c #4787CC",
"Y  c #5C85C7",
"T  c #5382CD",
"R  c #528AD5",
"E  c #5B88D0",
"W  c #5F8FD4",
"Q  c #5B93D2",
"!  c #5D98D8",
"~  c #638DC9",
"^  c #7A92C2",
"/  c #7697CD",
"(  c #7F9DC8",
")  c #6490D4",
"_  c #6A93D7",
"`  c #6A9EDD",
"'  c #7E9FD4",
"]  c #578FE0",
"[  c #6592E6",
"{  c #5CA5E8",
"}  c #63A2E4",
"|  c #73A6EC",
" . c #7CADEA",
".. c #7EB1E4",
"X. c #74B3EA",
"o. c #73B6F5",
"O. c #7EB4F3",
"+. c #79C1FD",
"@. c #8089A0",
"#. c #9496AE",
"$. c #8A91B3",
"%. c #8E92BB",
"&. c #9099BF",
"*. c #9498BD",
"=. c #8E9EC0",
"-. c #8B9DC8",
";. c #8096D6",
":. c #8FA1C2",
">. c #8BA4C7",
",. c #8EA3CB",
"<. c #95A5CA",
"1. c #9BAACB",
"2. c #94A2D4",
"3. c #98A2D0",
"4. c #AEACC0",
"5. c #AFAEC5",
"6. c #A1A4C8",
"7. c #A2A6C8",
"8. c #A6AACC",
"9. c #A3B0CF",
"0. c #A4B0CC",
"q. c #A6B5CD",
"w. c #B1B0C6",
"e. c #BBBBCC",
"r. c #A2A6D0",
"t. c #AAB9D9",
"y. c #B6B7D3",
"u. c #BEBBD1",
"i. c #81A1E2",
"p. c #80A9E5",
"a. c #82B0E1",
"s. c #90B7E1",
"d. c #96BBE8",
"f. c #C1BDCE",
"g. c #B4C2DD",
"h. c #B7C3DD",
"j. c #BDCBDD",
"k. c #85C1FA",
"l. c #91CEFF",
"z. c #9ECFFA",
"x. c #9BD1FE",
"c. c #BDD2EB",
"v. c #BDD2EC",
"b. c #A2CCF2",
"n. c #ABCFF6",
"m. c #A6CDFC",
"M. c #A2D0FA",
"N. c #BADBF9",
"B. c #C5C0CF",
"V. c #C5C3D0",
"C. c #C2C2D7",
"Z. c #C5C3D5",
"A. c #C6C6D7",
"S. c #CBCAD9",
"D. c #CBCBD9",
"F. c #C0CDE2",
"G. c #CBD0E2",
"H. c #CCD2E3",
"J. c #C0D3EA",
"K. c #D7D6E0",
"L. c #D6D7E2",
"P. c #DBDBE5",
"I. c #DFDCE4",
"U. c #DEDCE8",
"Y. c #DDDFEC",
"T. c #DCDFED",
"R. c #E1DEE3",
"E. c #E0DFE7",
"W. c #C1E3FF",
"Q. c #C4E9FF",
"!. c #C7EFFF",
"~. c #D8E6F5",
"^. c #D5E9F9",
"/. c #D0F4FF",
"(. c #E8E4E7",
"). c #E5E5EC",
"_. c #E7E8ED",
"`. c #EBE8ED",
"'. c #EEEDEF",
"]. c #F5EEED",
"[. c #F4EEEF",
"{. c #EBEBF0",
"}. c #E3EFFC",
"|. c #E8F5FD",
" X c #EBF5FD",
".X c #EBF9FF",
"XX c #F9F2F4",
"oX c #F8F6F7",
"OX c #FDF9F7",
"+X c #F0F6FC",
"@X c #F8F7F8",
"#X c #FFFAF8",
"$X c #FDFFFF",
"%X c #FEFEFE",
"&X c gray100",
"*X c None",
/* pixels */
"*X*X*XZ d.}.$X&X&X.Xn.V * *X*X*X",
"*X*XD N.|.~.+X Xv.t.F.W.] - *X*X",
"*XA ..^.J.<.G.c.,.L.C.9.z.S # *X",
"f I ( h.j.B.&.>.D.[.6.L M v t *X",
"j n q.8.s.-.a J f.%.e 4 > 5 z o ",
"^ $.r h } ` s u p 2 < q g b B $ ",
"F N 0 K g.H.T.Y.1.w 9 P { X.W + ",
"C c 0.#XOXoX@X%XXXm l +.U ! H X ",
"1 ' ].{.)._.'.(.r.G o.k.Q R y *X",
"*X:.`.P.E.R.y.;.| l.x.M.!._ O *X",
"*X@.U.K.S.3.i. .a.b.Q./.p.= *X*X",
"*X7 e.I.7.[ O.=.4.2.m.Y & *X*X*X",
"*X*X8 Z.A./ ~ V.u.i : . *X*X*X*X",
"*X*X*X6 #.5.w.*.3   *X*X*X*X*X*X"
};
