/* XPM */
static char *gchrome[] = {
/* columns rows colors chars-per-pixel */
"16 14 154 2",
"   c #300707",
".  c #3A0005",
"X  c #32070A",
"o  c #370310",
"O  c #16230C",
"+  c #1C2A10",
"@  c #163316",
"#  c #203E17",
"$  c #253D14",
"%  c #1D283E",
"&  c #1C2B3E",
"*  c #273A3A",
"=  c #410A0D",
"-  c #501114",
";  c #531215",
":  c #6E020E",
">  c #600810",
",  c #4D3F1F",
"<  c #7E343D",
"1  c #1A4118",
"2  c #1E5031",
"3  c #2D6C2B",
"4  c #39753D",
"5  c #6C5D15",
"6  c #786F0E",
"7  c #47452B",
"8  c #52412D",
"9  c #484A31",
"0  c #4B7427",
"q  c #666D21",
"w  c #1D314D",
"e  c #18425C",
"r  c #36475E",
"t  c #174F62",
"y  c #124276",
"u  c #7F4F59",
"i  c #4A6D44",
"p  c #4E7248",
"a  c #4B6A5E",
"s  c #417859",
"d  c #706155",
"f  c #64726D",
"g  c #830812",
"h  c #B3121C",
"j  c #98321C",
"k  c #9C2C2D",
"l  c #CD000F",
"z  c #C60016",
"x  c #DC0316",
"c  c #DE0D17",
"v  c #D80918",
"b  c #E70916",
"n  c #E10919",
"m  c #F40D13",
"M  c #F20D16",
"N  c #FF1B1E",
"B  c #D71426",
"V  c #F01A21",
"C  c #E1262A",
"Z  c #FF2326",
"A  c #F12932",
"S  c #FC3032",
"D  c #F43338",
"F  c #A77C1B",
"G  c #B17119",
"H  c #89412D",
"J  c #94402E",
"K  c #B97924",
"L  c #E33F40",
"P  c #E83941",
"I  c #8F4950",
"U  c #B34348",
"Y  c #049B3E",
"T  c #0EA534",
"R  c #11AB3F",
"E  c #2EAA31",
"W  c #30AA33",
"Q  c #44AA28",
"!  c #5DAE23",
"~  c #55B839",
"^  c #62A92A",
"/  c #66B222",
"(  c #68A630",
")  c #66B236",
"_  c #6AB731",
"`  c #72C12D",
"'  c #358A46",
"]  c #32934A",
"[  c #3FAE42",
"{  c #20B345",
"}  c #578D43",
"|  c #4FB94E",
" . c #5DBA42",
".. c #56A67F",
"X. c #3EC16F",
"o. c #A58F13",
"O. c #B08910",
"+. c #97872D",
"@. c #C7AE0A",
"#. c #FFA800",
"$. c #FFA900",
"%. c #FFAB00",
"&. c #FFAD01",
"*. c #FFB400",
"=. c #FFBE00",
"-. c #D7B624",
";. c #D3B929",
":. c #D5B03D",
">. c #FFC000",
",. c #FFC500",
"<. c #FFC600",
"1. c #FFCE00",
"2. c #FFCC02",
"3. c #E9DF07",
"4. c #FFD600",
"5. c #FFDA0F",
"6. c #F8CE1D",
"7. c #FFE003",
"8. c #FFEE00",
"9. c #FFE609",
"0. c #FFF80D",
"q. c #FFE212",
"w. c #D7C532",
"e. c #FFD620",
"r. c #F6DB2B",
"t. c #FFCB38",
"y. c #FFE222",
"u. c #FFBB47",
"i. c #FFBF4E",
"p. c #D1B07B",
"a. c #80C247",
"s. c #87C448",
"d. c #FFC45D",
"f. c #F2C964",
"g. c #F5C26A",
"h. c #115C8B",
"j. c #00729F",
"k. c #31648B",
"l. c #37759A",
"z. c #1F819B",
"x. c #1588B5",
"c. c #1C9BC0",
"v. c #1EA5C7",
"b. c #15ADD5",
"n. c #3EAFCB",
"m. c #46C5E2",
"M. c #72CFE4",
"N. c #7ED6E9",
"B. c #A49180",
"V. c #A09B8B",
"C. c #9FB48D",
"Z. c #BBA996",
"A. c #FFD584",
"S. c None",
/* pixels */
"S.S.S.S.S.S.  - - = S.S.S.S.S.S.",
"S.S.S.S.X k C m M n h > S.S.S.S.",
"S.S.S.1 H N Z S D A b n g S.S.S.",
"S.S.+ ) q V L I u U P v x : S.S.",
"S.S.0 ` ^ J r n.M.z.< B l z . S.",
"S.O ( / s.p j.m.N.b.t K G j o S.",
"S.$ _ ! a.i h.c.v.x.e w.0.3.6 S.",
"S.# ~ Q  .} w k.l.y 9 r.7.8.@.S.",
"S.@ [ E W | 4 & & 7 ;.q.4.9.o.S.",
"S.S.] { T R ' +.-.6.5.2.2.y.5 S.",
"S.S.2 X.Y 3 O.<.2.<.>.=.e.:.S.S.",
"S.S.S.s ..F *.$.$.$.&.t.f., S.S.",
"S.S.S.S.a C.g.d.u.d.A.p.8 S.S.S.",
"S.S.S.S.S.* f V.Z.B.d S.S.S.S.S."
};
