/* XPM */
static char *gimp[] = {
/* width height num_colors chars_per_pixel */
"    16    12      123            2",
/* colors */
".. c #000000",
".# c #000408",
".a c #101010",
".b c #282828",
".c c #303430",
".d c #383c38",
".e c #403c60",
".f c #403c60",
".g c #584810",
".h c #504c30",
".i c #605010",
".j c #705800",
".k c #785800",
".l c #605420",
".m c #605428",
".n c #706028",
".o c #706038",
".p c #706438",
".q c #706830",
".r c #404440",
".s c #484840",
".t c #505058",
".u c #585858",
".v c #404060",
".w c #404460",
".x c #404468",
".y c #404868",
".z c #404868",
".A c #404c68",
".B c #586068",
".C c #686858",
".D c #606470",
".E c #606870",
".F c #686870",
".G c #707070",
".H c #787498",
".I c #886800",
".J c #906c00",
".K c #987000",
".L c #907420",
".M c #a07400",
".N c #a07800",
".O c #a07800",
".P c #a07808",
".Q c #a87c00",
".R c #a87c00",
".S c #b08000",
".T c #b88800",
".U c #b89000",
".V c #a08428",
".W c #b89428",
".X c #a08c50",
".Y c #b89c50",
".Z c #b8a458",
".0 c #a8a078",
".1 c #a8a078",
".2 c #c09800",
".3 c #c0a458",
".4 c #c0ac58",
".5 c #c0b068",
".6 c #c8b060",
".7 c #c0b478",
".8 c #c8b478",
".9 c #d8c058",
"#. c #808480",
"## c #888480",
"#a c #909498",
"#b c #909898",
"#c c #989c98",
"#d c #8898b0",
"#e c #9094a0",
"#f c #9094a8",
"#g c #909cb0",
"#h c #909cb8",
"#i c #a09888",
"#j c #a0a4a0",
"#k c #a0a4a8",
"#l c #a0a8a8",
"#m c #b0b0b0",
"#n c #90a0c0",
"#o c #90a0c0",
"#p c #98a8c8",
"#q c #98a8c8",
"#r c #98acd0",
"#s c #a0acc0",
"#t c #a0b0d0",
"#u c #a0b4d0",
"#v c #a8b8d8",
"#w c #a8b8d8",
"#x c #b0bcd8",
"#y c #b8c0c8",
"#z c #b0c0d8",
"#A c #b8c0d0",
"#B c #b8c4e0",
"#C c #b8c8e0",
"#D c #c8bc88",
"#E c #c0b8a0",
"#F c #d8cc98",
"#G c #d0cca8",
"#H c #e0d4b8",
"#I c #c0c4c8",
"#J c #c0c4c8",
"#K c #c0c4c8",
"#L c #c0c4d8",
"#M c #c8ccd8",
"#N c #d0d4e8",
"#O c #d0d8e0",
"#P c #d0d8e8",
"#Q c #d8e0e8",
"#R c #e0e0e8",
"#S c #e0e4e8",
"#T c #e0e4f0",
"#U c #e0e4f0",
"#V c #e0e4f0",
"#W c #e0e8f0",
"#X c #e0e8f0",
"#Y c #e8e8f0",
"#Z c #e8ecf0",
"#0 c #e8f0f0",
"#1 c #f0f0f8",
"#2 c #f0f4f8",
"#3 c #f0f4f8",
"#4 c #b0c0d8",
/* pixels */
"#3#3#3#3#2#1#0#Z#Z#X#W#U#T#C#r#r",
"#3#3#3#3#2#1#0#Z#X#X#W#U#T#C#r#r",
"#3#3#3#K#b#1#0#Z#Z#X#W#O.p.h#r#r",
"#3#3#3#i.S.n#a.1.0#c#O.m.T.i#n#r",
"#j#3#J#J#E.6#F.9.2.U.j.S.Q.h#o#r",
".G#..r#m#I#S#I#k.4.R.O.O.I.B#q#r",
".b.c.a.C#l#y#k.d.5.N.K.J.g#d#r#r",
"...#...I.T.W#G.8.M.Y.V.k.E#p#r#r",
"#3.H.q.U.S.R.O.P.Z#H.L.s#h#t#r#r",
"#3#3#R##.l.X.3#D.7.o.u#g#u#t#r#r",
"#3#3#Y#V#M#e.F.t.D#f#s#w#v#t#r#r",
"#3#3#Y#V#Q#P#N#L#A#B#z#x#v#t#r#r"
};
