/* XPM */
static char *linux[] = {
/* columns rows colors chars-per-pixel */
"16 16 193 2",
"   c #0A0B13",
".  c #191416",
"X  c #18171C",
"o  c #1E1B1E",
"O  c #1E1C21",
"+  c #201C1D",
"@  c #231F1F",
"#  c #211F22",
"$  c #221F20",
"%  c #232021",
"&  c #232124",
"*  c #242223",
"=  c #252324",
"-  c #262324",
";  c #262425",
":  c #272425",
">  c #232329",
",  c #25252A",
"<  c #282627",
"1  c #292627",
"2  c #292728",
"3  c #2A2728",
"4  c #28272E",
"5  c #2A2829",
"6  c #2B292A",
"7  c #2C2A2B",
"8  c #2D2B2C",
"9  c #2E2C2D",
"0  c #2F2D2E",
"q  c #282A32",
"w  c #2D2E33",
"e  c #2E2D32",
"r  c #302D2F",
"t  c #302E2F",
"y  c #302F2F",
"u  c #302E31",
"i  c #322F30",
"p  c #313031",
"a  c #313033",
"s  c #323031",
"d  c #323132",
"f  c #333132",
"g  c #333233",
"h  c #323134",
"j  c #343233",
"k  c #363331",
"l  c #353435",
"z  c #373434",
"x  c #363437",
"c  c #373739",
"v  c #383636",
"b  c #383737",
"n  c #393737",
"m  c #393738",
"M  c #393839",
"N  c #3B3A3B",
"B  c #3D3D3E",
"V  c #403C3A",
"C  c #403F40",
"Z  c #403F41",
"A  c #47413B",
"S  c #4B4239",
"D  c #564837",
"F  c #67543C",
"G  c #414143",
"H  c #424143",
"J  c #434243",
"K  c #424144",
"L  c #434244",
"P  c #434445",
"I  c #464749",
"U  c #4A4A4D",
"Y  c #4A4B4D",
"T  c #4B4B4D",
"R  c #4D4C4E",
"E  c #4F4F52",
"W  c #524F4B",
"Q  c #52504C",
"!  c #5B554A",
"~  c #525356",
"^  c #535456",
"/  c #555557",
"(  c #565658",
")  c #5E5D5D",
"_  c #5E5F62",
"`  c #6D5A43",
"'  c #796142",
"]  c #716653",
"[  c #726650",
"{  c #606062",
"}  c #606166",
"|  c #636365",
" . c #676763",
".. c #6E6F6D",
"X. c #707173",
"o. c #717271",
"O. c #727776",
"+. c #767573",
"@. c #757578",
"#. c #75767A",
"$. c #77787B",
"%. c #7D7A73",
"&. c #787B80",
"*. c #806037",
"=. c #927B57",
"-. c #967952",
";. c #A97F49",
":. c #9A815B",
">. c #9F977F",
",. c #A78959",
"<. c #A6885E",
"1. c #B08D5C",
"2. c #D89E50",
"3. c #DDA85D",
"4. c #C0A06D",
"5. c #FFBB58",
"6. c #F9BB62",
"7. c #FFBD60",
"8. c #FFBE61",
"9. c #FFC265",
"0. c #FCC576",
"q. c #FFCA7A",
"w. c #FFCF7D",
"e. c #91958E",
"r. c #939291",
"t. c #909294",
"y. c #919395",
"u. c #909396",
"i. c #959597",
"p. c #9D9E95",
"a. c #999B9D",
"s. c #9A9C9E",
"d. c #A4A29A",
"f. c #B0A78C",
"g. c #BBA981",
"h. c #B3AD9F",
"j. c #B4AD9C",
"k. c #B9B197",
"l. c #A5A8A1",
"z. c #A6A9AE",
"x. c #A9ACA8",
"c. c #ABACAC",
"v. c #AAACAE",
"b. c #ACAEB0",
"n. c #AEB0AF",
"m. c #B1B0AD",
"M. c #B2B4AB",
"N. c #B0B1B5",
"B. c #B0B2B4",
"V. c #B4B6B8",
"C. c #B6B8BD",
"Z. c #B9BABD",
"A. c #BBBDBD",
"S. c #BFC2C4",
"D. c #CBB383",
"F. c #FFD489",
"G. c #FFD68A",
"H. c #FFDB94",
"J. c #FADC9B",
"K. c #FFDE9D",
"L. c #EBD8A6",
"P. c #E0D6B9",
"I. c #F0DBA1",
"U. c #F1DBA6",
"Y. c #FFF1AD",
"T. c #C4C6C2",
"R. c #C6C7C3",
"E. c #C9CDC2",
"W. c #CED0C5",
"Q. c #CFD2C4",
"!. c #CED0C8",
"~. c #D2D4C7",
"^. c #D0D1C8",
"/. c #D1D3CB",
"(. c #D2D3CB",
"). c #D2D4C9",
"_. c #D3D5CE",
"`. c #D5D7CC",
"'. c #D6DACC",
"]. c #D8D2C0",
"[. c #D8DCCF",
"{. c #D7DAD3",
"}. c #D7D9DA",
"|. c #D8D9D3",
" X c #D8DAD0",
".X c #D9DAD5",
"XX c #DADBD6",
"oX c #DBDCD4",
"OX c #DFDFDC",
"+X c #E4E6E8",
"@X c #E7E9E9",
"#X c gray100",
"$X c None",
/* pixels */
"$X$X$X$X$X$XR i.s.X.B $X$X$X$X$X",
"$X$X$X$X$XZ a.S.N.N.{ $X$X$X$X$X",
"$X$X$X$X$X( v.z.C.Z.@.$X$X$X$X$X",
"$X$X$X$X$XT r.j.h.v.$.: $X$X$X$X",
"$X$X$X$X$X4 >.Y.L.d.$.g $X$X$X$X",
"$X$X$X$X$X~ m.P.].b.$.V $X$X$X$X",
"$X$X$X$Xl y.}.+X@XR.{ ^ k $X$X$X",
"$X$X$X$X| V.OXXX{.Q.X.E H e $X$X",
"$X$X$Xm y.A.XX`./.{.l.I H g $X$X",
"$X$X$X| u.R.{./.^.`.M.P c e $X$X",
"$X$XH %.+.v.oX^.Q.~.p.e , k $X$X",
"$XQ f.U.D.) x./.Q.E.k.] =.:.v $X",
"$XW L.K.F.1...[.'.e.g.H.q.6.' $X",
"$X! J.F.0.7.-.O. .* 4.w.7.2.F $X",
"$Xk ] <.3.5.'   . X ,.9.;.z $X$X",
"$X$X$Xg D F y $X$X$XV D B $X$X$X"
};
