/* XPM */
static char *moz[] = {
/* columns rows colors chars-per-pixel */
"16 14 85 1",
"  c black",
". c gray12",
"X c #301F20",
"o c #202020",
"O c #2F2F2F",
"+ c #3F2F2F",
"@ c gray19",
"# c #2F4050",
"$ c #30405F",
"% c #304F5F",
"& c #3F506F",
"* c #3F5070",
"= c #3F5F70",
"- c #4F2F2F",
"; c #402F30",
": c #403030",
"> c #502F2F",
", c #601010",
"< c #7F1F1F",
"1 c #6F2020",
"2 c #6F2F2F",
"3 c #702F2F",
"4 c #70503F",
"5 c #505050",
"6 c #405F70",
"7 c #40607F",
"8 c #605F5F",
"9 c #606060",
"0 c #706060",
"q c #50709F",
"w c #507F9F",
"e c #5F7F9F",
"r c #5F7FA0",
"t c #5F80A0",
"y c #5F80AF",
"u c #6F90BF",
"i c #6F9FC0",
"p c #709FCF",
"a c #70A0CF",
"s c #7FAFDF",
"d c #7FAFE0",
"f c #7FB0E0",
"g c #800000",
"h c #8F0F0F",
"j c #803030",
"k c #903030",
"l c #AF2000",
"z c #A02020",
"x c #AF2F2F",
"c c #AF3030",
"v c #B02020",
"b c #B03030",
"n c #BF3030",
"m c #AF4040",
"M c #BF5F40",
"N c #C00F0F",
"B c #CF1F1F",
"V c #DF2F2F",
"C c #DF302F",
"Z c #E03030",
"A c #EF3030",
"S c #CF4020",
"D c #CF4030",
"F c #D05030",
"G c #DF5F30",
"H c #EF4030",
"J c #E0603F",
"K c #C04040",
"L c #CF4F4F",
"P c #CF5F40",
"I c #DF5F4F",
"U c #EF6F40",
"Y c #EF6F5F",
"T c #F07F4F",
"R c #F07050",
"E c #F07F5F",
"W c #FF9000",
"Q c #EF8060",
"! c #F0806F",
"~ c #F0907F",
"^ c #AFAFAF",
"/ c #B0D0EF",
"( c #D0DFE0",
") c gray100",
"_ c None",
/* pixels */
"pa))))))))))))%$",
"i)/fdB<hzjk+yy)%",
"u)ddso1,GUj49Xt ",
"w)sANO^xYSYKOX;_",
"~BZTFncnzJGIb.;;",
".TRUYUMYMCUYc+:_",
"3MYM8ooYUQxJb-;;",
"TMo0oMPUYLvEk-5_",
"w28MYYMMLlKGbX:;",
"w)c2222jHRQV-+;_",
"w)trq(&@m!UkAog_",
"w)ew(* @PUAHZ>;_",
"6)q(* WjDKDjXXg_",
"=#)* gg;:;jggg__",
};
