/* XPM */
static char *mozilla3[] = {
/* width height num_colors chars_per_pixel */
"    16    14       60           2",
/* colors */
".. c #181818",
".# c #301820",
".a c #202020",
".b c #282828",
".c c #382828",
".d c #303030",
".e c #482828",
".f c #402830",
".g c #403030",
".h c #502828",
".i c #601010",
".j c #781818",
".k c #682020",
".l c #682828",
".m c #702828",
".n c #705038",
".o c #505050",
".p c #605858",
".q c #606060",
".r c #706060",
".s c #880808",
".t c #803030",
".u c #903030",
".v c #a82000",
".w c #a02020",
".x c #a82828",
".y c #a83030",
".z c #b02020",
".A c #b03030",
".B c #b83030",
".D c #a84040",
".E c #b85840",
".F c #c00808",
".G c #c81818",
".H c #d82828",
".I c #d83028",
".J c #e03030",
".K c #e83030",
".L c #c84020",
".M c #c84030",
".N c #d05030",
".O c #d85830",
".P c #e84030",
".R c #e87000",
".S c #e06038",
".T c #c04040",
".U c #c84848",
".V c #c85840",
".W c #d85848",
".X c #e86840",
".Y c #e86858",
".Z c #f07848",
".0 c #f07050",
".1 c #f07858",
".4 c #e88460",
".5 c #f08468",
".6 c #f09478",
".9 c #a8aca8",
"#. c None",
"## c None",
/* pixels */
"#.#########################.####",
"#.########.G.j.s.w.t.u.c.R#.####",
"#.########.a.k.i.O.X.t.n.q.##.##",
"#.####.K.F.b.9.x.Y.L.Y.T.b.#.f#.",
".6.G.J.Z.N.B.y.B.w.S.O.W.A...f.f",
"...Z.0.X.Y.X.E.Y.E.I.X.Y.y.c.g#.",
".m.E.Y.E.p.a.a.Y.X.4.x.S.A.e.f.f",
".Z.E.a.r.a.E.V.X.Y.U.z.1.u.e.o#.",
"#..l.p.E.Y.Y.E.E.U.v.T.O.A.#.g.f",
"#.##.y.l.l.l.l.t.P.0.4.H.e.c.f#.",
"#.##########.x.d.D.5.X.u.K.a#.##",
"#.############.d.V.X.K.P.J.h.f#.",
"#.############.t.M.T.M.t.#.##.##",
"#.#.#.#.#.#.#..f.g.f.t#.#.#.####"
};
