/* XPM */
static char *xterm[] = {
/* columns rows colors chars-per-pixel */
"16 14 39 1",
"  c None",
". c #0d0d0d",
"X c gray8",
"o c #1d1d1d",
"O c #232323",
"+ c #2a2a2a",
"@ c #313131",
"# c #3c3c3c",
"$ c #205f20",
"% c #444444",
"& c #4a4a4a",
"* c #555555",
"= c #5d5d5d",
"- c #636363",
"; c #6b6b6b",
": c #717171",
"> c #7d7d7d",
", c #008400",
"< c #009c00",
"1 c #00b600",
"2 c #208020",
"3 c #22bb22",
"4 c #00cc00",
"5 c #00d800",
"6 c #07e707",
"7 c #06ec06",
"8 c green",
"9 c #63ff63",
"0 c gray51",
"q c #898989",
"w c #979797",
"e c gray60",
"r c #a4a4a4",
"t c #98ff98",
"y c gray87",
"u c #e3e3e3",
"i c #ececec",
"p c #f4f4f4",
"a c #fefefe",
/* pixels */
"aaaaaaaappiiuu> ",
"a+@#%&**==*=r>+ ",
"a#0q0;=&@O. u>@ ",
"a#qt98,4<,X u>@ ",
"a&0q0:=&@O. i>@ ",
"a&:t8636<O. p>+ ",
"p===-*&#+X  a0@ ",
"p*&841$$4,  a>+ ",
"p*@##$+o.   a:@ ",
"i*OOOoX.    a;@ ",
"u>yyippaaaaaa=@ ",
"r>>>0>>>>:;-=*@ ",
"@@@e:==*%%#@@@+ ",
"   ueq>;=*&@    ",
};
