/* XPM */
static char * skype_xpm[] = {
"16 14 32 1",
" 	c None",
".	c #10B5EF",
"+	c #94DEFF",
"@	c #B5E7FF",
"#	c #ADE7FF",
"$	c #63CEF7",
"%	c #18B5EF",
"&	c #21B5EF",
"*	c #39BDEF",
"=	c #9CE7FF",
"-	c #84DEFF",
";	c #52CEF7",
">	c #4AC6F7",
",	c #42C6F7",
"'	c #29BDF7",
")	c #00ADEF",
"!	c #7BD6F7",
"~	c #C6EFFF",
"{	c #D6F7FF",
"]	c #31BDEF",
"^	c #6BD6F7",
"/	c #F7FFFF",
"(	c #FFFFFF",
"_	c #CEF7FF",
":	c #73D6F7",
"<	c #A5E7FF",
"[	c #EFFFFF",
"}	c #5ACEF7",
"|	c #08B5EF",
"1	c #8CDEFF",
"2	c #31B5E7",
"3	c #DEF7FF",
" .+@#$.%&*      ",
"%+@#=-$;>,'&    ",
")@#=!$~{{@;].   ",
")#=-^/(__(/>'&  ",
"&^+:=(<&'-[}&|  ",
" .1^+([+$.||))2 ",
" .!^,#((([#)))& ",
" &$&))]!@[(+)). ",
" 2$)>_%))$({))| ",
"  ))-(3^}{(+)))&",
"  &..</(((#.%%%)",
"   %]'&}^&']***)",
"    &];;;;}}}},.",
"      2&..>!!;| "};
