/* XPM */
static char *term[] = {
/* columns rows colors chars-per-pixel */
"16 14 53 1",
"  c None",
". c #00000e",
"X c #000013",
"o c #00011e",
"O c #000123",
"+ c #00022e",
"@ c #000233",
"# c #00023b",
"$ c #2f2f2f",
"% c #303030",
"& c #3e3e3e",
"* c #000343",
"= c #00034b",
"- c #000353",
"; c #00045b",
": c #000464",
"> c #00046c",
", c #000573",
"< c #00057b",
"1 c #434343",
"2 c #4a4a4a",
"3 c #555555",
"4 c #5b5b5b",
"5 c #646464",
"6 c #6b6b6b",
"7 c #727272",
"8 c #7d7d7d",
"9 c #000682",
"0 c #00068a",
"q c #000692",
"w c #00079d",
"e c #01099d",
"r c #0007a3",
"t c #0008b0",
"y c #0008bc",
"u c #0810b0",
"i c #0f17ba",
"p c #1a22bd",
"a c #0009cd",
"s c #000ade",
"d c #000bef",
"f c #4d54d5",
"g c #5057d8",
"h c #898989",
"j c #979797",
"k c gray60",
"l c #a4a4a4",
"z c gray87",
"x c #c1c6ff",
"c c #e3e3e3",
"v c #ececec",
"b c #f4f4f4",
"n c #fefefe",
/* pixels */
"nnnnnnnnbbbvcc  ",
"n$%112343333l8  ",
"n%dsayrq9,;=c8  ",
"n1sxfpe9,;=#c8  ",
"n1ague0,:-*@v8  ",
"n2yiw0,:-*+ob8  ",
"b3tw0<>-*@o.n8  ",
"b3e0<>-*@O. n8  ",
"b309>;=@OX  n7  ",
"v49>;=#OX   n6  ",
"c8cccbbnnnnnn5  ",
"l8888888866544  ",
"   k654321&     ",
"   ckh86431     ",
};
