/* XPM */
static char *tux1[] = {
/* width height num_colors chars_per_pixel */
"    16    14       77            2",
/* colors */
".. c None",
".# c #000004",
".a c #020202",
".b c #030303",
".c c #060606",
".d c #160e00",
".e c #1f1600",
".f c #221500",
".g c #242424",
".h c #252525",
".i c #292929",
".j c #323234",
".k c #343434",
".l c #353639",
".m c #363636",
".n c #373737",
".o c #3f3f41",
".p c #484a4d",
".q c #494949",
".r c #4a3900",
".s c #4e3d00",
".t c #503900",
".u c #515151",
".v c #5e4400",
".w c #5e5e5e",
".x c #656565",
".y c #68696d",
".z c #6b6b6b",
".A c #6c6d74",
".B c #706539",
".C c #725400",
".D c #767676",
".E c #7c7758",
".F c #828385",
".G c #867a43",
".H c #919191",
".I c #987500",
".J c #a0a0a0",
".K c #a1a1a1",
".L c #a37d00",
".M c #a3a3a3",
".N c #a88b10",
".O c #a8aaba",
".P c #aaaaaa",
".Q c #ababab",
".R c #b1b2b8",
".S c #b4b8c7",
".T c #b68c08",
".U c #b9b9ba",
".V c #babdd2",
".W c #bf9600",
".X c #bfbfbf",
".Y c #c39a00",
".Z c #c5b45d",
".0 c #c7c7c7",
".1 c #d6d6d6",
".2 c #d9a910",
".3 c #e3ba07",
".4 c #e3bc00",
".5 c #e9d059",
".6 c #e9e9ea",
".7 c #f1c90f",
".8 c #f7f9ff",
".9 c #f8f9fa",
"#. c #fbfbfb",
"## c #fbfeff",
"#a c #fdcd00",
"#b c #ffd800",
"#c c #ffda00",
"#d c #ffdd48",
"#e c #ffed4f",
"#f c #fffb64",
"#g c #ffff0b",
"#h c #ffff37",
"#i c #ffff7b",
"#j c #ffff80",
"#k c #ffffff",
/* pixels */
"................................",
"...............a................",
".........b.g.k.n.i.c............",
".......m.Q.J.w.u.q.D.z..........",
".....h#.#k#k.K.q.X#k#k.0........",
".....P#k#k#k.9.F#k#k#k#k.x......",
".....1#k#k.A.S.V.8.y.6#k.M......",
".....U#k.O...B.5.p...R#k.H......",
".....l#k#k.N#c#b.I.E#k##.j......",
".......G#h#g#j#f#a.4.Z.o.#......",
".......r.W.7#e#i#d.3.Y.s........",
"...........t.L.2.T.C.e..........",
".............f.v.d..............",
"................................",
};
