/* XPM */
static char * unison_xpm[] = {
"16 16 86 1",
" 	c None",
".	c #979931",
"+	c #959931",
"@	c #F5F950",
"#	c #DFE44A",
"$	c #DEE149",
"%	c #F6FA51",
"&	c #EDF14D",
"*	c #FAFE52",
"=	c #D4D645",
"-	c #D2D143",
";	c #F9F54E",
">	c #F9F34E",
",	c #EEE549",
"'	c #BCBA3B",
")	c #F9F54F",
"!	c #F9F44E",
"~	c #88842B",
"{	c #8C852B",
"]	c #F8E749",
"^	c #F7E649",
"/	c #AFA132",
"(	c #BEB238",
"_	c #F8E849",
":	c #F8E649",
"<	c #F6DA44",
"[	c #F6D843",
"}	c #AF9730",
"|	c #BCA735",
"1	c #F6D944",
"2	c #F5CC3F",
"3	c #F5CB3E",
"4	c #AD902B",
"5	c #BB9E31",
"6	c #F5CD3F",
"7	c #F3BF3A",
"8	c #F3BD39",
"9	c #AC8528",
"0	c #B9932E",
"a	c #F3BE39",
"b	c #F2B134",
"c	c #F2B034",
"d	c #AC7C25",
"e	c #B88929",
"f	c #F2B234",
"g	c #F1A42F",
"h	c #F0A22E",
"i	c #AA7120",
"j	c #B97F25",
"k	c #F0A22F",
"l	c #EF962A",
"m	c #EF9529",
"n	c #A9671C",
"o	c #B1711F",
"p	c #EF972A",
"q	c #ED7D20",
"r	c #EC791F",
"s	c #A25214",
"t	c #A95C18",
"u	c #ED7A1F",
"v	c #EA6115",
"w	c #EA5D14",
"x	c #983B0B",
"y	c #EA6215",
"z	c #EA5E14",
"A	c #AB420F",
"B	c #A83509",
"C	c #E7450A",
"D	c #E74109",
"E	c #D54109",
"F	c #E74209",
"G	c #E73F08",
"H	c #B02D04",
"I	c #9C2704",
"J	c #AC2501",
"K	c #E12C01",
"L	c #E52B00",
"M	c #CF2700",
"N	c #D62700",
"O	c #D72800",
"P	c #8F1B00",
"Q	c #A92000",
"R	c #B32200",
"S	c #BC2300",
"T	c #B52200",
"U	c #AB2100",
"   .        +   ",
"   @#      $%   ",
"  &**=    -;>,  ",
"  ')!~    {]^/  ",
"  (_:      <[}  ",
"  |<1      234  ",
"  563      789  ",
"  07a      bcd  ",
"  efc      ghi  ",
"  jgk      lmn  ",
"  opm      qrs  ",
"  tqu      vwx  ",
"   yzA    BCD   ",
"   EFGHI JKLM   ",
"    NLLLLLLOP   ",
"     QRSSTU     "};
