/* XPM */
static char * wifi_xpm[] = {
"16 14 2 1",
" 	c None",
".	c #F1F1F1",
"                ",
"                ",
"     ......     ",
"   ..........   ",
" .....    ....  ",
"  ..  ....  ..  ",
"    ........    ",
"    ........    ",
"    .      .    ",
"      ....      ",
"      ....      ",
"       ..       ",
"                ",
"                "};
