/* XPM */
static char * wifi1_xpm[] = {
"16 14 3 1",
" 	c None",
".	c #636363",
"+	c #F1F1F1",
"                ",
"                ",
"     ......     ",
"   ..........   ",
" .....    ....  ",
"  ..  ....  ..  ",
"    ........    ",
"    ........    ",
"    .      .    ",
"      ++++      ",
"      ++++      ",
"       ++       ",
"                ",
"                "};
