/* XPM */
static char * lock_xpm[] = {
"32 32 66 1",
" 	c None",
".	c #C8C8C8",
"+	c #CCCCCC",
"@	c #C9C9C9",
"#	c #CBCBCB",
"$	c #CACACA",
"%	c #A7A7A7",
"&	c #6E6E6E",
"*	c #505050",
"=	c #494949",
"-	c #6F6F6F",
";	c #959595",
">	c #757575",
",	c #BDBDBD",
"'	c #777777",
")	c #515151",
"!	c #626262",
"~	c #717171",
"{	c #C7C7C7",
"]	c #B8B8B8",
"^	c #8B8B8B",
"/	c #4C4C4C",
"(	c #939393",
"_	c #4B4B4B",
":	c #9C9C9C",
"<	c #9E9E9E",
"[	c #9F9F9F",
"}	c #4A4A4A",
"|	c #989898",
"1	c #C6C6C6",
"2	c #5C5C5C",
"3	c #5A5A5A",
"4	c #585858",
"5	c #BABABA",
"6	c #A0A0A0",
"7	c #7C7C7C",
"8	c #7A7A7A",
"9	c #A2A2A2",
"0	c #868686",
"a	c #C5C5C5",
"b	c #858585",
"c	c #979797",
"d	c #878787",
"e	c #C4C4C4",
"f	c #D0C7B6",
"g	c #9E998D",
"h	c #5C574B",
"i	c #928D81",
"j	c #C7C2B5",
"k	c #C8C3B6",
"l	c #908B7F",
"m	c #CCC3AF",
"n	c #E3C46C",
"o	c #E5C973",
"p	c #E6CA74",
"q	c #DFBD63",
"r	c #DBB458",
"s	c #D3A241",
"t	c #C48319",
"u	c #C4841B",
"v	c #CB912A",
"w	c #E4C770",
"x	c #C78921",
"y	c #E3C26C",
"z	c #CB922D",
"A	c #C5871F",
"                                ",
"            ..+..+.@            ",
"          #$%&*==*-%@+          ",
"         $$.;=======>$#         ",
"         $,#'=)!!)===~$         ",
"        {]+^/;$$$@(_==:{        ",
"        #<[}|1    {;==2+        ",
"       #]==3#      #4==5$       ",
"       $6==71      18==9#       ",
"       +;==0a      1b==c#       ",
"       #;==de      ab==;+       ",
"       #;==de      ab==;+       ",
"       #;==de      ab==;+       ",
"       #;==de      ab==;+       ",
"       fghhij      klhhgm       ",
"    nopqrrrrrrrrrrrrrrrrstuv    ",
"   wpppqrrrrrrrrrrrrrrrrstttx   ",
"  yppppqrrrrrrrrrrrrrrrrsttttz  ",
"  wppppqrrrrrrrrrrrrrrrrsttttA  ",
"  pppppqrrrrrrrrrrrrrrrrsttttt  ",
"  pppppqrrrrrrrrrrrrrrrrsttttt  ",
"  pppppqrrrrrrrrrrrrrrrrsttttt  ",
"  pppppqrrrrrrrrrrrrrrrrsttttt  ",
"  pppppqrrrrrrrrrrrrrrrrsttttt  ",
"  pppppqrrrrrrrrrrrrrrrrsttttt  ",
"  pppppqrrrrrrrrrrrrrrrrsttttt  ",
"  pppppqrrrrrrrrrrrrrrrrsttttt  ",
"  pppppqrrrrrrrrrrrrrrrrsttttt  ",
"  pppppqrrrrrrrrrrrrrrrrsttttt  ",
"  pppppqrrrrrrrrrrrrrrrrsttttt  ",
"  pppppqrrrrrrrrrrrrrrrrsttttt  ",
"                                "};
