/* XPM */
static char * lock_xpm[] = {
"48 48 95 2",
"  	c None",
". 	c #CBCBCB",
"+ 	c #CCCCCC",
"@ 	c #CACACA",
"# 	c #C3C3C3",
"$ 	c #A3A3A3",
"% 	c #777777",
"& 	c #585858",
"* 	c #4C4C4C",
"= 	c #494949",
"- 	c #787878",
"; 	c #A4A4A4",
"> 	c #C1C1C1",
", 	c #868686",
"' 	c #636363",
") 	c #AFAFAF",
"! 	c #C5C5C5",
"~ 	c #C9C9C9",
"{ 	c #4A4A4A",
"] 	c #4B4B4B",
"^ 	c #9A9A9A",
"/ 	c #BFBFBF",
"( 	c #A9A9A9",
"_ 	c #9E9E9E",
": 	c #C0C0C0",
"< 	c #BBBBBB",
"[ 	c #545454",
"} 	c #888888",
"| 	c #A7A7A7",
"1 	c #B2B2B2",
"2 	c #A6A6A6",
"3 	c #505050",
"4 	c #B8B8B8",
"5 	c #C2C2C2",
"6 	c #5E5E5E",
"7 	c #717171",
"8 	c #C4C4C4",
"9 	c #6E6E6E",
"0 	c #707070",
"a 	c #B5B5B5",
"b 	c #6F6F6F",
"c 	c #696969",
"d 	c #656565",
"e 	c #838383",
"f 	c #646464",
"g 	c #676767",
"h 	c #B9B9B9",
"i 	c #B6B6B6",
"j 	c #858585",
"k 	c #6C6C6C",
"l 	c #606060",
"m 	c #929292",
"n 	c #8E8E8E",
"o 	c #A1A1A1",
"p 	c #BABABA",
"q 	c #A5A5A5",
"r 	c #BCBCBC",
"s 	c #E2C26B",
"t 	c #E3C46C",
"u 	c #E4C46D",
"v 	c #D7BA76",
"w 	c #D3B673",
"x 	c #B49754",
"y 	c #CDB06D",
"z 	c #D7BA77",
"A 	c #DBB45C",
"B 	c #DBB358",
"C 	c #DBB55D",
"D 	c #CCAF6C",
"E 	c #D5B671",
"F 	c #C98C25",
"G 	c #C98D27",
"H 	c #CB912C",
"I 	c #E3C56E",
"J 	c #E6CA74",
"K 	c #DCB65A",
"L 	c #DBB458",
"M 	c #D9B154",
"N 	c #C48319",
"O 	c #C78A24",
"P 	c #E4C872",
"Q 	c #C4851D",
"R 	c #E5C870",
"S 	c #C6881F",
"T 	c #E2C16A",
"U 	c #CB932E",
"V 	c #E3C56F",
"W 	c #C78A23",
"X 	c #E5C974",
"Y 	c #C4831B",
"Z 	c #E3C66F",
"` 	c #DCB659",
" .	c #DAB357",
"..	c #D8B052",
"+.	c #C78B23",
"                                                                                                ",
"                                        . . . . . . + @                                         ",
"                                    + + + + . # # . + + + .                                     ",
"                                + + . $ % & * = = * & - ; . + @                                 ",
"                              . + > , = = = = = = = = = = ' ) + +                               ",
"                            . + ! + ~ { = = = = = = = = = = ] ^ + +                             ",
"                          + + / + + ( = = = = = = = = = = = = { _ + +                           ",
"                          . : + + < [ = [ } | 1 1 2 } [ = = = = 3 4 .                           ",
"                        @ + ~ + 5 6 = 7 8 + + @ @ + + 8 9 = = = = 0 + .                         ",
"                        . a . + b = c @ . +         + . ~ d = = = { 1 +                         ",
"                      . + e f g = { h .                 + i { = = = j + .                       ",
"                      . + 6 = = = 9 + .                 . + k = = = l + .                       ",
"                      . . { = = = m +                     + n = = = * . +                       ",
"                      . : = = = = o +                     + _ = = = = # .                       ",
"                      . p = = = = q +                     + ; = = = = r +                       ",
"                      . p = = = = q +                     + ; = = = = r +                       ",
"                      . p = = = = q +                     + ; = = = = r +                       ",
"                      . p = = = = q +                     + ; = = = = r +                       ",
"                      . p = = = = q +                     + ; = = = = r +                       ",
"                      . p = = = = q +                     + ; = = = = r +                       ",
"                      . p = = = = q +                     + ; = = = = r +                       ",
"                      . p = = = = q +                     + ; = = = = r +                       ",
"                s t u v w x x x x y z A B B B B B B B B C z D x x x x w E F G H                 ",
"            I J J J J K L L L L L L L L L L L L L L L L L L L L L L L L M N N N N O             ",
"          P J J J J J K L L L L L L L L L L L L L L L L L L L L L L L L M N N N N N Q           ",
"        R J J J J J J K L L L L L L L L L L L L L L L L L L L L L L L L M N N N N N N S         ",
"      T J J J J J J J K L L L L L L L L L L L L L L L L L L L L L L L L M N N N N N N N U       ",
"      V J J J J J J J K L L L L L L L L L L L L L L L L L L L L L L L L M N N N N N N N W       ",
"      X J J J J J J J K L L L L L L L L L L L L L L L L L L L L L L L L M N N N N N N N Y       ",
"      J J J J J J J J K L L L L L L L L L L L L L L L L L L L L L L L L M N N N N N N N N       ",
"      J J J J J J J J K L L L L L L L L L L L L L L L L L L L L L L L L M N N N N N N N N       ",
"      J J J J J J J J K L L L L L L L L L L L L L L L L L L L L L L L L M N N N N N N N N       ",
"      J J J J J J J J K L L L L L L L L L L L L L L L L L L L L L L L L M N N N N N N N N       ",
"      J J J J J J J J K L L L L L L L L L L L L L L L L L L L L L L L L M N N N N N N N N       ",
"      J J J J J J J J K L L L L L L L L L L L L L L L L L L L L L L L L M N N N N N N N N       ",
"      J J J J J J J J K L L L L L L L L L L L L L L L L L L L L L L L L M N N N N N N N N       ",
"      J J J J J J J J K L L L L L L L L L L L L L L L L L L L L L L L L M N N N N N N N N       ",
"      J J J J J J J J K L L L L L L L L L L L L L L L L L L L L L L L L M N N N N N N N N       ",
"      J J J J J J J J K L L L L L L L L L L L L L L L L L L L L L L L L M N N N N N N N N       ",
"      J J J J J J J J K L L L L L L L L L L L L L L L L L L L L L L L L M N N N N N N N N       ",
"      J J J J J J J J K L L L L L L L L L L L L L L L L L L L L L L L L M N N N N N N N N       ",
"      J J J J J J J J K L L L L L L L L L L L L L L L L L L L L L L L L M N N N N N N N N       ",
"      J J J J J J J J K L L L L L L L L L L L L L L L L L L L L L L L L M N N N N N N N N       ",
"      J J J J J J J J K L L L L L L L L L L L L L L L L L L L L L L L L M N N N N N N N N       ",
"      J J J J J J J J K L L L L L L L L L L L L L L L L L L L L L L L L M N N N N N N N N       ",
"      J J J J J J J J K L L L L L L L L L L L L L L L L L L L L L L L L M N N N N N N N N       ",
"      Z Z Z Z Z Z Z Z `  . . . . . . . . . . . . . . . . . . . . . . . ...+.+.+.+.+.+.+.+.      ",
"                                                                                                "};
